<svg width="155" height="38" viewBox="0 0 155 38" fill="none" xmlns="http://www.w3.org/2000/svg">
<g clip-path="url(#clip0_78_194)">
<path d="M45.3134 14.8219C45.4573 15.2091 45.4881 15.629 45.4023 16.0322C45.3164 16.4354 45.1175 16.8049 44.829 17.0973C44.5405 17.3897 44.1744 17.5926 43.774 17.6822C43.3736 17.7717 42.9555 17.7442 42.5692 17.6028C42.1829 17.4614 41.8443 17.212 41.5936 16.8841C41.3429 16.5562 41.1904 16.1635 41.1542 15.7523C41.118 15.3411 41.1995 14.9285 41.3892 14.5634C41.5789 14.1982 41.8688 13.8956 42.2247 13.6914C42.3165 13.6371 42.4125 13.5901 42.5116 13.5508C42.0254 13.0004 40.8028 10.3647 38.8855 5.19542C38.7014 4.69895 38.5086 4.17929 38.3058 3.63235C36.9137 4.90736 35.5138 6.17756 34.1226 7.45071C34.6834 9.07507 35.2423 10.694 35.7881 12.3193C23.2575 11.2385 20.4904 14.7069 20.4904 14.7069C26.8485 11.6164 36.2265 13.5887 36.477 13.9815C38.6496 17.4207 36.0051 16.1084 36.0051 16.1084C23.5169 10.6954 11.952 25.0296 11.952 25.0296L10.5609 22.0809L10.5548 22.0646C9.67723 20.4506 9.69808 18.4041 8.28287 17.0485C5.96735 16.9764 3.65725 16.9023 1.34052 16.8477C0.806314 16.841 0.261469 16.9345 -0.0228473 16.2968C-0.338545 15.5869 0.274039 15.3519 0.641638 15.034L8.97739 7.7345C11.4327 5.59189 13.8858 3.44752 16.3367 1.30137C16.8 0.873725 17.4099 0.641993 18.0402 0.654055C25.5557 0.721441 33.0678 0.796293 41.1082 0.866042C40.2836 1.67616 39.7766 2.17917 39.2738 2.67285C41.6486 8.71821 42.7801 12.6041 42.7506 13.4762C42.7522 13.4833 42.7524 13.4907 42.7509 13.4978L42.8999 13.4425C42.9687 13.4287 43.0384 13.4195 43.1085 13.4148C43.5775 13.3753 44.0472 13.4915 44.4454 13.7457C44.8437 13.9998 45.1486 14.3779 45.3134 14.8219Z" fill="white"/>
<path d="M48.3981 38.2996C47.1181 38.2996 45.9781 38.0296 44.9781 37.4896C43.9981 36.9496 43.2281 36.1996 42.6681 35.2396C42.1081 34.2796 41.8281 33.1696 41.8281 31.9096V23.5096H45.7881V31.8196C45.7881 32.4196 45.8881 32.9396 46.0881 33.3796C46.2881 33.7996 46.5881 34.1196 46.9881 34.3396C47.3881 34.5596 47.8581 34.6696 48.3981 34.6696C49.2181 34.6696 49.8581 34.4196 50.3181 33.9196C50.7781 33.4196 51.0081 32.7196 51.0081 31.8196V23.5096H54.9381V31.9096C54.9381 33.1896 54.6581 34.3096 54.0981 35.2696C53.5581 36.2296 52.7881 36.9796 51.7881 37.5196C50.8081 38.0396 49.6781 38.2996 48.3981 38.2996Z" fill="white"/>
<path d="M58.3677 37.9996V23.5096H62.3277V37.9996H58.3677ZM60.3477 21.1696C59.7077 21.1696 59.1777 20.9596 58.7577 20.5396C58.3377 20.0996 58.1277 19.5596 58.1277 18.9196C58.1277 18.2996 58.3377 17.7696 58.7577 17.3296C59.1777 16.8896 59.7077 16.6696 60.3477 16.6696C61.0077 16.6696 61.5377 16.8896 61.9377 17.3296C62.3577 17.7696 62.5677 18.2996 62.5677 18.9196C62.5677 19.5596 62.3577 20.0996 61.9377 20.5396C61.5377 20.9596 61.0077 21.1696 60.3477 21.1696Z" fill="white"/>
<path d="M75.3491 37.9996L69.7391 30.5296L75.3191 23.5096H79.8491L73.3091 31.4296L73.4591 29.5096L80.1491 37.9996H75.3491ZM66.1091 37.9996V16.3096H70.0391V37.9996H66.1091Z" fill="white"/>
<path d="M82.2588 37.9996V16.3096H86.1888V37.9996H82.2588Z" fill="white"/>
<path d="M96.9009 38.2996C95.3809 38.2996 94.0309 37.9796 92.8509 37.3396C91.6709 36.6796 90.7309 35.7796 90.0309 34.6396C89.3509 33.4996 89.0109 32.1996 89.0109 30.7396C89.0109 29.2996 89.3409 28.0196 90.0009 26.8996C90.6809 25.7596 91.6009 24.8596 92.7609 24.1996C93.9209 23.5196 95.2109 23.1796 96.6309 23.1796C98.0309 23.1796 99.2609 23.4996 100.321 24.1396C101.401 24.7596 102.241 25.6196 102.841 26.7196C103.461 27.7996 103.771 29.0296 103.771 30.4096C103.771 30.6696 103.751 30.9396 103.711 31.2196C103.691 31.4796 103.641 31.7796 103.561 32.1196L91.3809 32.1496V29.2096L101.731 29.1796L100.141 30.4096C100.101 29.5496 99.9409 28.8296 99.6609 28.2496C99.4009 27.6696 99.0109 27.2296 98.4909 26.9296C97.9909 26.6096 97.3709 26.4496 96.6309 26.4496C95.8509 26.4496 95.1709 26.6296 94.5909 26.9896C94.0109 27.3296 93.5609 27.8196 93.2409 28.4596C92.9409 29.0796 92.7909 29.8196 92.7909 30.6796C92.7909 31.5596 92.9509 32.3296 93.2709 32.9896C93.6109 33.6296 94.0909 34.1296 94.7109 34.4896C95.3309 34.8296 96.0509 34.9996 96.8709 34.9996C97.6109 34.9996 98.2809 34.8796 98.8809 34.6396C99.4809 34.3796 100.001 33.9996 100.441 33.4996L102.751 35.8096C102.051 36.6296 101.191 37.2496 100.171 37.6696C99.1709 38.0896 98.0809 38.2996 96.9009 38.2996Z" fill="white"/>
<path d="M112.561 38.2996C111.241 38.2996 110.051 37.9696 108.991 37.3096C107.931 36.6496 107.101 35.7496 106.501 34.6096C105.901 33.4696 105.601 32.1896 105.601 30.7696C105.601 29.3296 105.901 28.0396 106.501 26.8996C107.101 25.7596 107.931 24.8596 108.991 24.1996C110.051 23.5396 111.241 23.2096 112.561 23.2096C113.601 23.2096 114.531 23.4196 115.351 23.8396C116.171 24.2596 116.821 24.8496 117.301 25.6096C117.801 26.3496 118.071 27.1896 118.111 28.1296V33.3496C118.071 34.3096 117.801 35.1596 117.301 35.8996C116.821 36.6396 116.171 37.2296 115.351 37.6696C114.531 38.0896 113.601 38.2996 112.561 38.2996ZM113.281 34.6696C114.381 34.6696 115.271 34.3096 115.951 33.5896C116.631 32.8496 116.971 31.8996 116.971 30.7396C116.971 29.9796 116.811 29.3096 116.491 28.7296C116.191 28.1296 115.761 27.6696 115.201 27.3496C114.661 27.0096 114.021 26.8396 113.281 26.8396C112.561 26.8396 111.921 27.0096 111.361 27.3496C110.821 27.6696 110.391 28.1296 110.071 28.7296C109.771 29.3096 109.621 29.9796 109.621 30.7396C109.621 31.5196 109.771 32.2096 110.071 32.8096C110.391 33.3896 110.821 33.8496 111.361 34.1896C111.921 34.5096 112.561 34.6696 113.281 34.6696ZM116.761 37.9996V34.0996L117.391 30.5596L116.761 27.0796V23.5096H120.661V37.9996H116.761Z" fill="white"/>
<path d="M124.438 37.9996V23.5096H128.368V37.9996H124.438ZM128.368 29.9896L126.838 28.9696C127.018 27.1896 127.538 25.7896 128.398 24.7696C129.258 23.7296 130.498 23.2096 132.118 23.2096C132.818 23.2096 133.448 23.3296 134.008 23.5696C134.568 23.7896 135.078 24.1596 135.538 24.6796L133.078 27.4996C132.858 27.2596 132.588 27.0796 132.268 26.9596C131.968 26.8396 131.618 26.7796 131.218 26.7796C130.378 26.7796 129.688 27.0496 129.148 27.5896C128.628 28.1096 128.368 28.9096 128.368 29.9896Z" fill="white"/>
<path d="M146.939 37.9996V29.6896C146.939 28.8296 146.669 28.1296 146.129 27.5896C145.589 27.0496 144.889 26.7796 144.029 26.7796C143.469 26.7796 142.969 26.8996 142.529 27.1396C142.089 27.3796 141.739 27.7196 141.479 28.1596C141.239 28.5996 141.119 29.1096 141.119 29.6896L139.589 28.9096C139.589 27.7696 139.829 26.7796 140.309 25.9396C140.809 25.0796 141.489 24.4096 142.349 23.9296C143.229 23.4496 144.219 23.2096 145.319 23.2096C146.379 23.2096 147.329 23.4796 148.169 24.0196C149.009 24.5396 149.669 25.2296 150.149 26.0896C150.629 26.9296 150.869 27.8396 150.869 28.8196V37.9996H146.939ZM137.189 37.9996V23.5096H141.119V37.9996H137.189Z" fill="white"/>
<path d="M39 37.9996H34.9403L28.7517 28.114L32.8098 32.0284C33.1954 31.6198 33.5208 31.1557 33.7756 30.6507C34.1885 29.8313 34.4035 28.9222 34.4023 27.9998C34.4023 24.8038 31.8683 22.2047 28.7517 22.2047C25.6351 22.2047 23.1006 24.8038 23.1006 27.9998C23.1006 31.1958 25.6351 33.7944 28.7517 33.7944C29.2514 33.7947 29.7489 33.7268 30.2312 33.5925L32.5079 37.2277C31.3184 37.7388 30.0414 38.0013 28.7517 37.9996C23.3753 37.9996 19 33.5136 19 27.9998C19 22.486 23.3753 17.9996 28.7517 17.9996C34.128 17.9996 38.5029 22.4864 38.5029 27.9998C38.5047 29.9949 37.9218 31.9446 36.8298 33.5958C36.5214 34.0618 36.1758 34.5008 35.7967 34.9082L39 37.9996Z" fill="white"/>
</g>
<defs>
<clipPath id="clip0_78_194">
<rect width="155" height="38" fill="white"/>
</clipPath>
</defs>
</svg>
