<svg width="101" height="87" viewBox="0 0 101 87" fill="none" xmlns="http://www.w3.org/2000/svg">
<path d="M98.0444 4.69267C96.2371 3.915 94.2241 4.27543 92.8137 5.62126L72.6491 24.2694V8.77812C72.6491 3.93808 68.719 0 63.8887 0H8.76042C3.93014 0 0 3.93808 0 8.77812V50.0854C0 54.7763 3.80788 58.5918 8.48932 58.5918H34.6696L22.6878 84.477C22.2767 85.3665 22.6612 86.423 23.5489 86.8349C23.7899 86.9485 24.0433 87 24.2932 87C24.9612 87 25.6008 86.6183 25.9021 85.972L37.4444 61.0367L48.9868 85.972C49.2862 86.6183 49.9259 87 50.5939 87C50.8438 87 51.0971 86.9485 51.3381 86.8349C52.2259 86.423 52.6121 85.3665 52.1993 84.477L40.2193 58.5918H63.4829C68.5365 58.5918 72.6491 54.4709 72.6491 49.4053V35.1977L92.7074 54.407C93.6483 55.3462 94.8567 55.8416 96.1042 55.8416C96.7297 55.8416 97.3622 55.7191 97.9771 55.4652C99.8146 54.707 101 52.9262 101 50.927V9.20247C101 7.20502 99.8677 5.47567 98.0444 4.69267ZM69.1053 49.4053C69.1053 52.5125 66.5838 55.0408 63.4829 55.0408H37.51C37.5064 55.0408 37.5029 55.0408 37.4994 55.0408H37.3913C37.3859 55.0408 37.3789 55.0408 37.3735 55.0408H8.48932C5.76232 55.0408 3.54386 52.8179 3.54386 50.0854V8.77812C3.54386 5.89647 5.88458 3.55102 8.76042 3.55102H63.8887C66.7645 3.55102 69.1053 5.89647 69.1053 8.77812V49.4053ZM97.4561 50.927C97.4561 51.7739 96.8236 52.1006 96.6287 52.1805C96.3877 52.2817 95.7639 52.4503 95.2058 51.8875L73.0407 30.6631C72.782 30.4021 72.6438 30.0523 72.6491 29.6812C72.6544 29.3101 72.8033 28.9674 73.0531 28.7295L95.2377 8.21173C95.5371 7.92588 95.8508 7.84243 96.1148 7.84243C96.3451 7.84243 96.5383 7.90812 96.6481 7.95428C96.836 8.03596 97.4561 8.36798 97.4561 9.20247V50.927Z" fill="white"/>
<path d="M32.1375 27.9163C33.105 26.2278 33.6667 24.2766 33.6667 22.1939C33.6667 15.8304 28.4997 10.6531 22.1491 10.6531C15.7985 10.6531 10.6316 15.8304 10.6316 22.1939C10.6316 28.5573 15.7985 33.7347 22.1491 33.7347C25.1384 33.7347 27.8565 32.5788 29.9049 30.7003L32.4139 33.2145C32.7594 33.5607 33.2131 33.7347 33.6667 33.7347C34.1203 33.7347 34.5739 33.5607 34.9194 33.2145C35.6122 32.5202 35.6122 31.3981 34.9194 30.7039L32.1375 27.9163ZM22.1491 30.1837C17.753 30.1837 14.1754 26.5989 14.1754 22.1939C14.1754 17.7888 17.753 14.2041 22.1491 14.2041C26.5453 14.2041 30.1228 17.7888 30.1228 22.1939C30.1228 23.2858 29.9013 24.3263 29.5026 25.2762L26.0598 21.8263C25.3669 21.1321 24.2471 21.1321 23.5543 21.8263C22.8614 22.5206 22.8614 23.6427 23.5543 24.3369L27.3834 28.1738C25.9783 29.4096 24.1603 30.1837 22.1491 30.1837Z" fill="white"/>
</svg>
