<svg width="94" height="94" viewBox="0 0 94 94" fill="none" xmlns="http://www.w3.org/2000/svg">
<path d="M91.9724 54.6235C92.2477 52.6086 92.3884 50.5775 92.3933 48.5439C92.4166 37.0308 88.0401 25.9449 80.1605 17.5582L80.1746 17.5426C80.7767 16.937 81.1091 16.1138 81.0966 15.2596C81.0863 14.4179 80.7328 13.6169 80.1183 13.0423C61.4563 -4.34745 32.5431 -4.34745 13.8809 13.0423C13.2663 13.6169 12.913 14.4179 12.9027 15.2596C12.8902 16.1138 13.2228 16.937 13.8246 17.5426L13.8388 17.5582C5.95917 25.9447 1.58262 37.0308 1.60592 48.5437C1.61087 50.5773 1.75157 52.6084 2.0269 54.6233C1.98306 54.7283 1.92363 54.8254 1.88602 54.9367C0.451205 59.9926 -0.171736 65.2445 0.0406806 70.4961C-0.172103 75.7498 0.450839 81.0039 1.88621 86.0618C3.11393 89.0719 6.09143 90.9919 9.3371 90.8659H12.8511C13.5121 92.7374 15.2761 93.9916 17.2591 93.9998H21.955C24.5484 93.9998 26.6509 91.8951 26.6509 89.2991V51.6932C26.6509 49.0972 24.5484 46.9925 21.955 46.9925H17.2591C15.2761 47.0007 13.5121 48.2549 12.8511 50.1264H11.0684C11.0432 49.5983 10.9979 49.0735 10.9979 48.5437C10.9922 39.5269 14.3918 30.8414 20.515 24.2284C21.7101 25.3724 23.5892 25.3847 24.7993 24.2567C37.4074 12.8541 56.5909 12.8541 69.1991 24.2567C69.7828 24.7971 70.5486 25.097 71.3436 25.0966C72.1428 25.096 72.9107 24.7848 73.485 24.2286C79.6082 30.8416 83.0076 39.5273 83.0021 48.5439C83.0021 49.0735 82.9568 49.5984 82.9317 50.1265H81.1489C80.488 48.2551 78.7239 47.0009 76.741 46.9927H72.045C69.4517 46.9927 67.3491 49.0973 67.3491 51.6934V89.2993C67.3491 91.8953 69.4517 94 72.045 94H76.741C78.7239 93.9917 80.488 92.7376 81.1489 90.8661H84.6629C87.909 90.9923 90.887 89.0716 92.1138 86.0603C93.5492 81.003 94.1721 75.7494 93.9593 70.4961C94.1719 65.2425 93.5492 59.9884 92.1138 54.9305C92.0804 54.8271 92.0162 54.7268 91.9724 54.6235ZM4.83509 85.0137C4.07586 82.8749 3.17116 78.6113 3.17116 70.4963C3.17116 62.3813 4.07586 58.1178 4.83509 55.9804C5.63523 54.2344 7.42059 53.1554 9.33692 53.2602H12.563V87.7322H9.33692C7.42114 87.8369 5.63614 86.7589 4.83509 85.0137ZM17.2589 50.1264H21.9548C22.8193 50.1264 23.52 50.8278 23.52 51.6932V89.2991C23.52 90.1645 22.8191 90.8659 21.9548 90.8659H17.2589C16.3944 90.8659 15.6936 90.1645 15.6936 89.2991V51.6932C15.6936 50.828 16.3944 50.1264 17.2589 50.1264ZM7.86707 48.5437C7.86707 49.1126 7.91714 49.675 7.94227 50.2422C6.84222 50.4108 5.78693 50.7977 4.83821 51.3798C4.77566 50.4396 4.7364 49.4885 4.7364 48.5437C4.71421 37.8617 8.76149 27.5727 16.0537 19.7738L18.2701 21.9925C11.566 29.2031 7.84762 38.6933 7.86707 48.5437ZM71.3119 21.9471C57.4989 9.45307 36.4774 9.46317 22.6764 21.9706L17.1477 16.4566C17.1398 16.4472 17.1384 16.4362 17.129 16.4269C17.1187 16.4206 17.1088 16.4138 17.0993 16.4065L16.0209 15.3316C33.4707 -0.930414 60.5049 -0.939963 77.9661 15.3097V15.327L71.3119 21.9471ZM75.7291 21.9925L77.9456 19.7738C85.2378 27.5727 89.2851 37.8617 89.2627 48.5439C89.2627 49.484 89.2236 50.4367 89.1609 51.3799C88.2122 50.7977 87.1569 50.411 86.0568 50.2424C86.0819 49.6752 86.132 49.1126 86.132 48.5439C86.1516 38.6933 82.4333 29.2031 75.7291 21.9925ZM76.7404 90.8661H72.0445C71.18 90.8661 70.4792 90.1647 70.4792 89.2993V51.6934C70.4792 50.828 71.18 50.1265 72.0445 50.1265H76.7404C77.6049 50.1265 78.3056 50.828 78.3056 51.6934V89.2993C78.3056 90.1645 77.6049 90.8661 76.7404 90.8661ZM89.1642 85.0121C88.3641 86.7581 86.5787 87.8371 84.6624 87.7322H81.4363V53.2602H84.6624C86.5781 53.1556 88.3631 54.2336 89.1642 55.9788C89.9234 58.1176 90.8281 62.3811 90.8281 70.4961C90.8281 78.6112 89.9234 82.8749 89.1642 85.0121Z" fill="white"/>
<path fill-rule="evenodd" clip-rule="evenodd" d="M36.5653 72.0632C37.2686 72.0635 37.8858 71.5944 38.0742 70.9163L41.7823 57.5475L50.7045 89.7192C50.8918 90.3988 51.5093 90.8694 52.2135 90.8694C52.9177 90.8694 53.5351 90.3986 53.7224 89.7192L58.6248 72.0632H62.6523C63.5168 72.0632 64.2176 71.3617 64.2176 70.4963C64.2176 69.6309 63.5167 68.9295 62.6523 68.9295H57.4351C56.7318 68.9291 56.1146 69.3983 55.9262 70.0764L52.2181 83.4452L43.2958 51.2734C43.1085 50.5939 42.4911 50.1232 41.7869 50.1232C41.0827 50.1232 40.4653 50.594 40.278 51.2734L35.3755 68.9295H31.3464C30.4819 68.9295 29.7812 69.6311 29.7812 70.4963C29.7812 71.3616 30.4821 72.0632 31.3464 72.0632H36.5653Z" fill="white"/>
</svg>
