<svg width="62" height="108" viewBox="0 0 62 108" fill="none" xmlns="http://www.w3.org/2000/svg">
<path d="M61.8015 37.0801C61.4373 36.3601 60.8912 36.0001 60.1631 36.0001H38.6828L59.9812 2.7C60.3453 2.16 60.3453 1.44007 59.9812 0.90007C59.617 0.36007 59.0709 0 58.3428 0H29.217C28.4889 0 27.9428 0.36007 27.5787 0.90007L0.273109 54.9001C-0.0910363 55.4401 -0.0910363 56.16 0.273109 56.7C0.637254 57.24 1.36533 57.6001 1.91144 57.6001H20.6612L0.273109 105.66C-0.0910363 106.38 0.273109 107.28 1.00119 107.82C1.18315 108 1.5473 108 1.91144 108C2.45755 108 3.00366 107.82 3.36781 107.46L61.6197 39.0599C61.9836 38.5199 62.1656 37.8 61.8015 37.0801ZM8.28259 95.9401L25.0301 56.3401C25.212 55.8001 25.212 55.2601 24.8481 54.7201C24.484 54.3601 23.9378 54.0002 23.3917 54.0002H4.82396L30.3092 3.60007H55.0662L33.5859 36.8999C33.2217 37.4399 33.2217 38.1599 33.5859 38.6999C33.95 39.2399 34.4961 39.5999 35.2242 39.5999H56.3406L8.28259 95.9401Z" fill="white" fill-opacity="0.33"/>
</svg>
