<svg width="97" height="117" viewBox="0 0 97 117" fill="none" xmlns="http://www.w3.org/2000/svg">
<path d="M73.7967 24.0023C67.1662 17.2998 58.3496 13.5521 48.9325 13.4561C48.7883 13.4561 48.6442 13.4561 48.5 13.4561C29.2092 13.4561 13.3057 29.0232 12.9453 48.3381C12.7532 58.7883 17.1254 68.734 24.9571 75.6527C29.0891 79.3043 31.4434 84.4934 31.4434 89.9227V94.9195C31.4434 95.352 31.5875 95.7604 31.8518 96.0967L46.9866 115.556C47.3469 116.036 47.9235 116.3 48.5 116.3C49.1006 116.3 49.6532 116.036 50.0135 115.556L65.1483 96.0967C65.4125 95.7604 65.5567 95.352 65.5567 94.9195V89.9227C65.5567 84.4453 67.8629 79.3283 71.8748 75.8209C79.6104 69.0703 84.0547 59.2928 84.0547 49.0348C84.0547 39.5695 80.4032 30.7049 73.7967 24.0023ZM48.5 111.231L37.3051 96.8174H59.719L48.5 111.231ZM35.6955 55.4971C34.2782 55.4971 33.125 54.3439 33.125 52.9266V50.3561C33.125 48.9387 34.2782 47.7855 35.6955 47.7855H38.266C39.6834 47.7855 40.8366 48.9387 40.8366 50.3561V55.4971H35.6955ZM44.6563 92.9736V59.3408H52.3438V92.9736H44.6563ZM69.3524 72.89C64.4996 77.1182 61.7129 83.3162 61.7129 89.8986V92.9736H56.1875V59.3408H61.3045C64.836 59.3408 67.7188 56.458 67.7188 52.9266V50.3561C67.7188 46.8246 64.836 43.9418 61.3045 43.9418H58.734C55.2026 43.9418 52.3198 46.8246 52.3198 50.3561V55.473H44.6323V50.3561C44.6323 46.8246 41.7494 43.9418 38.218 43.9418H35.6475C32.1161 43.9418 29.2332 46.8246 29.2332 50.3561V52.9266C29.2332 56.458 32.1161 59.3408 35.6475 59.3408H40.8125V92.9736H35.2871V89.8986C35.2871 83.3883 32.4524 77.1422 27.5035 72.7699C20.5127 66.5959 16.6209 57.7072 16.7891 48.3861C17.1254 31.1613 31.2992 17.2758 48.5 17.2758H48.8844C66.1573 17.492 80.211 31.7139 80.211 48.9867C80.211 58.1637 76.2471 66.8602 69.3524 72.89ZM56.1875 50.3801C56.1875 48.9627 57.3407 47.8096 58.758 47.8096H61.3285C62.7459 47.8096 63.8991 48.9627 63.8991 50.3801V52.9506C63.8991 54.368 62.7459 55.5211 61.3285 55.5211H56.1875V50.3801Z" fill="white"/>
<path d="M48.5 10.333C49.5571 10.333 50.4219 9.46816 50.4219 8.41113V2.64551C50.4219 1.58848 49.5571 0.723633 48.5 0.723633C47.443 0.723633 46.5782 1.58848 46.5782 2.64551V8.41113C46.5782 9.46816 47.443 10.333 48.5 10.333Z" fill="white"/>
<path d="M73.3643 19.3898C73.7246 19.7021 74.1571 19.8463 74.5895 19.8463C75.142 19.8463 75.6705 19.6061 76.0549 19.1496L79.7545 14.7293C80.4272 13.9125 80.3311 12.7113 79.5143 12.0146C78.6975 11.342 77.4963 11.4381 76.7996 12.2549L73.1 16.6752C72.4514 17.492 72.5475 18.6932 73.3643 19.3898Z" fill="white"/>
<path d="M96.0424 40.6266C95.8502 39.5695 94.8653 38.8729 93.8082 39.065L88.1387 40.074C87.0817 40.2662 86.385 41.2512 86.5772 42.3082C86.7453 43.2451 87.5621 43.8937 88.475 43.8937C88.5951 43.8937 88.6912 43.8938 88.8114 43.8697L94.4809 42.8607C95.5379 42.6686 96.2346 41.6596 96.0424 40.6266Z" fill="white"/>
<path d="M89.6041 70.5117L84.6073 67.6289C83.6944 67.1004 82.5172 67.4127 81.9887 68.3256C81.4602 69.2385 81.7725 70.4156 82.6854 70.9441L87.6823 73.827C87.9946 73.9951 88.3069 74.0912 88.6432 74.0912C89.3158 74.0912 89.9645 73.7549 90.3008 73.1303C90.8533 72.2174 90.541 71.0402 89.6041 70.5117Z" fill="white"/>
<path d="M20.9452 19.1496C21.3295 19.6061 21.858 19.8463 22.4106 19.8463C22.843 19.8463 23.2754 19.7021 23.6358 19.3898C24.4526 18.7172 24.5487 17.492 23.876 16.6752L20.1764 12.2549C19.5037 11.4381 18.2785 11.342 17.4618 12.0146C16.645 12.6873 16.5489 13.9125 17.2215 14.7293L20.9452 19.1496Z" fill="white"/>
<path d="M8.52503 43.8937C9.43792 43.8937 10.2547 43.2451 10.4229 42.3082C10.6151 41.2512 9.91839 40.2662 8.86136 40.074L3.19183 39.065C2.15882 38.8729 1.14984 39.5695 0.957649 40.6266C0.765462 41.6836 1.46214 42.6686 2.51917 42.8607L8.1887 43.8697C8.30882 43.8697 8.40491 43.8937 8.52503 43.8937Z" fill="white"/>
<path d="M12.3928 67.6529L7.39593 70.5357C6.48304 71.0643 6.17074 72.2414 6.69925 73.1543C7.0596 73.7789 7.70824 74.1152 8.35687 74.1152C8.6932 74.1152 9.0055 74.0432 9.31781 73.851L14.3147 70.9682C15.2276 70.4396 15.5399 69.2625 15.0114 68.3496C14.4828 67.4367 13.3057 67.1244 12.3928 67.6529Z" fill="white"/>
</svg>
