<svg width="100" height="100" viewBox="0 0 100 100" fill="none" xmlns="http://www.w3.org/2000/svg">
<path d="M6.41833 75.2133C8.22506 78.1063 11.1345 80.1362 14.4733 80.8333C16.7938 81.4182 19.1805 81.6984 21.5733 81.6667C25.3075 81.6193 29.0259 81.1723 32.665 80.3333C36.5867 92.3567 42.8333 100 50 100C57.1667 100 63.4133 92.3567 67.3333 80.3333C70.9725 81.1716 74.6908 81.6186 78.425 81.6667C80.8178 81.6983 83.2045 81.4181 85.525 80.8333C88.8629 80.1374 91.7723 78.1094 93.58 75.2183C97.205 68.9267 93.6283 59.5517 85.0183 50.005C93.6283 40.4633 97.205 31.0833 93.58 24.7917C91.7746 21.8972 88.8657 19.8654 85.5267 19.1667C80.7217 17.8767 74.4067 18.115 67.3367 19.6667C63.415 7.64667 57.1667 0 50 0C42.8333 0 36.5833 7.64667 32.6667 19.6667C25.5983 18.115 19.2833 17.8783 14.4783 19.1667C11.1404 19.8626 8.23106 21.8906 6.42333 24.7817C2.79333 31.0783 6.37 40.4583 14.98 50C6.37 59.5417 2.79333 68.9217 6.41833 75.2133ZM15.3333 77.6083C12.8587 77.1251 10.6849 75.6613 9.30667 73.55C6.47333 68.6383 9.85167 60.7167 17.3067 52.4433C20.92 56.059 24.8218 59.3744 28.9733 62.3567C29.4825 67.3404 30.3938 72.2748 31.6983 77.1117C25.2617 78.5 19.56 78.74 15.3333 77.6083ZM39.0983 31.0817C36.8706 32.3717 34.7267 33.7017 32.6667 35.0717C33.1841 31.2297 33.9513 27.4255 34.9633 23.6833C38.6967 24.693 42.3614 25.9411 45.935 27.42C43.6583 28.5467 41.3794 29.7672 39.0983 31.0817ZM40.765 33.9683C43.8233 32.2 46.9167 30.6033 50 29.1867C53.0817 30.605 56.18 32.1983 59.24 33.9683C62.265 35.7183 65.1383 37.5717 67.845 39.485C68.1667 42.8783 68.345 46.3967 68.345 50C68.345 53.6033 68.1783 57.1217 67.845 60.515C65.1383 62.4283 62.265 64.2817 59.24 66.0317C56.175 67.8 53.0783 69.4 50 70.8167C46.9217 69.4 43.8333 67.8 40.7683 66.0317C37.7433 64.2817 34.87 62.4283 32.1633 60.515C31.8417 57.1217 31.6667 53.6033 31.6667 50C31.6667 46.3967 31.8417 42.8783 32.1667 39.485C34.87 37.5717 37.7433 35.7183 40.7683 33.9683H40.765ZM54.06 27.4217C57.6315 25.9415 61.294 24.6912 65.025 23.6783C66.0418 27.4218 66.8129 31.2277 67.3333 35.0717C65.28 33.7072 63.1383 32.3772 60.9083 31.0817C58.6361 29.7672 56.3544 28.5472 54.0633 27.4217H54.06ZM71.405 42.1233C74.569 44.5483 77.5694 47.1796 80.3867 50C77.5705 52.8203 74.5712 55.4516 71.4083 57.8767C71.5806 55.3167 71.6667 52.6911 71.6667 50C71.6667 47.3089 71.5806 44.6833 71.4083 42.1233H71.405ZM67.3333 64.9283C66.8161 68.7714 66.0489 72.5767 65.0367 76.32C61.3031 75.3076 57.6383 74.0567 54.065 72.575C56.3461 71.4461 58.6272 70.2272 60.9083 68.9183C63.1328 67.6283 65.2744 66.2983 67.3333 64.9283ZM45.95 72.575C42.376 74.0565 38.7107 75.3074 34.9767 76.32C33.9599 72.577 33.1883 68.7717 32.6667 64.9283C34.72 66.2939 36.8617 67.6239 39.0917 68.9183C41.3717 70.2339 43.6555 71.4528 45.9433 72.575H45.95ZM28.5917 57.8767C25.4288 55.4516 22.4295 52.8203 19.6133 50C22.4295 47.1797 25.4288 44.5484 28.5917 42.1233C28.4194 44.6833 28.3333 47.3089 28.3333 50C28.3333 52.6911 28.4194 55.3167 28.5917 57.8767ZM50 96.6667C44.4183 96.6667 39.3233 89.9233 35.9283 79.53C40.7436 78.2195 45.4485 76.5332 50 74.4867C54.5516 76.5332 59.2566 78.2201 64.0717 79.5317C60.6767 89.9233 55.5817 96.6667 50 96.6667ZM90.6933 73.55C89.3151 75.6613 87.1412 77.1251 84.6667 77.6083C80.4417 78.74 74.74 78.5067 68.3 77.1083C69.6045 72.2715 70.5158 67.3371 71.025 62.3533C75.1794 59.3714 79.084 56.056 82.7 52.44C90.1483 60.7117 93.5233 68.6383 90.6933 73.55ZM84.6667 22.3917C87.1419 22.8745 89.3163 24.3384 90.695 26.45C93.5283 31.3617 90.15 39.2833 82.695 47.5567C79.079 43.9407 75.1744 40.6253 71.02 37.6433C70.5108 32.6596 69.5995 27.7252 68.295 22.8883C74.7383 21.5 80.4383 21.26 84.6667 22.3917ZM50 3.33333C55.5817 3.33333 60.6767 10.0767 64.0717 20.47C59.256 21.7834 54.551 23.473 50 25.5233C45.4484 23.4745 40.7435 21.7849 35.9283 20.47C39.3233 10.0767 44.4183 3.33333 50 3.33333ZM9.30667 26.45C10.6849 24.3387 12.8587 22.8749 15.3333 22.3917C17.3587 21.8823 19.4417 21.6386 21.53 21.6667C24.9522 21.715 28.3599 22.1233 31.6967 22.885C30.3921 27.7218 29.4808 32.6563 28.9717 37.64C24.8202 40.6223 20.9184 43.9377 17.305 47.5533C9.85167 39.2883 6.47667 31.3617 9.30667 26.45Z" fill="white"/>
<path d="M50 63.3333C57.3638 63.3333 63.3333 57.3638 63.3333 50C63.3333 42.6362 57.3638 36.6667 50 36.6667C42.6362 36.6667 36.6667 42.6362 36.6667 50C36.6749 57.3604 42.6396 63.3251 50 63.3333ZM50 40C55.5228 40 60 44.4772 60 50C60 55.5229 55.5228 60 50 60C44.4771 60 40 55.5229 40 50C40.0055 44.4794 44.4794 40.0055 50 40Z" fill="white"/>
<path d="M45 51.6667C45.9205 51.6667 46.6667 50.9205 46.6667 50C46.6667 48.1591 48.159 46.6667 50 46.6667C50.9205 46.6667 51.6667 45.9205 51.6667 45C51.6667 44.0795 50.9205 43.3333 50 43.3333C46.3181 43.3333 43.3333 46.3181 43.3333 50C43.3333 50.9205 44.0795 51.6667 45 51.6667Z" fill="white"/>
<path d="M50 18.3333C52.7614 18.3333 55 16.0948 55 13.3333C55 10.5719 52.7614 8.33333 50 8.33333C47.2386 8.33333 45 10.5719 45 13.3333C45 16.0948 47.2386 18.3333 50 18.3333ZM50 11.6667C50.9205 11.6667 51.6667 12.4129 51.6667 13.3333C51.6667 14.2538 50.9205 15 50 15C49.0795 15 48.3333 14.2538 48.3333 13.3333C48.3333 12.4129 49.0795 11.6667 50 11.6667Z" fill="white"/>
<path d="M5 55C7.76142 55 10 52.7614 10 50C10 47.2386 7.76142 45 5 45C2.23858 45 0 47.2386 0 50C0 52.7614 2.23858 55 5 55ZM5 48.3333C5.92047 48.3333 6.66667 49.0795 6.66667 50C6.66667 50.9205 5.92047 51.6667 5 51.6667C4.07952 51.6667 3.33333 50.9205 3.33333 50C3.33333 49.0795 4.07952 48.3333 5 48.3333Z" fill="white"/>
<path d="M95 45C92.2386 45 90 47.2386 90 50C90 52.7614 92.2386 55 95 55C97.7614 55 100 52.7614 100 50C100 47.2386 97.7614 45 95 45ZM95 51.6667C94.0795 51.6667 93.3333 50.9205 93.3333 50C93.3333 49.0795 94.0795 48.3333 95 48.3333C95.9205 48.3333 96.6667 49.0795 96.6667 50C96.6667 50.9205 95.9205 51.6667 95 51.6667Z" fill="white"/>
<path d="M18.3333 63.3333C15.5719 63.3333 13.3333 65.5719 13.3333 68.3333C13.3333 71.0948 15.5719 73.3333 18.3333 73.3333C21.0948 73.3333 23.3333 71.0948 23.3333 68.3333C23.3333 65.5719 21.0948 63.3333 18.3333 63.3333ZM18.3333 70C17.4129 70 16.6667 69.2538 16.6667 68.3333C16.6667 67.4129 17.4129 66.6667 18.3333 66.6667C19.2538 66.6667 20 67.4129 20 68.3333C20 69.2538 19.2538 70 18.3333 70Z" fill="white"/>
</svg>
