<svg width="84" height="84" viewBox="0 0 84 84" fill="none" xmlns="http://www.w3.org/2000/svg">
<path d="M8.40689 75.6619H67.7371L74.5018 82.4267C76.7009 84.5507 80.1965 84.5204 82.3585 82.3584C84.5203 80.1966 84.5507 76.7008 82.4268 74.5017L75.662 67.737V8.40688C75.6574 3.76586 71.8962 0.00459751 67.2551 0H8.40689C3.76586 0.00459751 0.00459752 3.76586 0 8.40688V67.2551C0.00459752 71.8961 3.76586 75.6573 8.40689 75.6619ZM2.80235 67.2551V19.6161H72.8599V65.0133C71.9602 64.2767 70.8522 63.8406 69.6918 63.7662L65.1086 59.183C65.0455 58.7767 64.8902 58.3904 64.6546 58.0536L63.2184 56.0458C64.0786 54.5615 64.7405 52.9707 65.1869 51.3142L67.6039 50.9176C68.839 50.7173 69.7917 49.7223 69.9383 48.4796C70.0981 46.9833 70.0981 45.4742 69.9383 43.9777C69.7876 42.7432 68.8377 41.7579 67.6096 41.5622L65.1884 41.1643C64.7418 39.5068 64.0794 37.915 63.2184 36.4299L64.6518 34.429C65.3854 33.4157 65.3585 32.0389 64.586 31.0551C64.1139 30.4751 63.6101 29.9218 63.077 29.3975C62.5392 28.8555 61.9742 28.341 61.3844 27.8562C60.405 27.102 59.0456 27.0843 58.047 27.8127L56.0461 29.2573C54.5617 28.397 52.971 27.7352 51.3144 27.2887L50.9179 24.8717C50.7202 23.6352 49.7238 22.6812 48.4799 22.5373C46.9835 22.3776 45.4744 22.3776 43.9779 22.5373C42.7435 22.6881 41.7581 23.6379 41.5624 24.866L41.1646 27.2872C39.507 27.7338 37.9153 28.3962 36.4301 29.2573L34.4292 27.8238C33.4159 27.0902 32.0391 27.1171 31.0553 27.8897C30.5073 28.3381 29.9497 28.8466 29.4116 29.3862C28.8662 29.9196 28.3516 30.4838 27.8703 31.0759C27.108 32.0567 27.0851 33.4231 27.8143 34.4288L29.2575 36.4297C28.3972 37.914 27.7354 39.5048 27.2889 41.1614L24.8719 41.5579C23.6354 41.7556 22.6814 42.7519 22.5375 43.9959C22.3769 45.4937 22.3769 47.0043 22.5375 48.502C22.6899 49.7343 23.6386 50.7175 24.8649 50.9134L27.2861 51.3112C27.7332 52.9688 28.3961 54.5607 29.2575 56.0457L27.8354 58.0311C27.0935 59.046 27.1158 60.43 27.89 61.4205C28.3385 61.9684 28.847 62.526 29.399 63.078C29.8796 63.5587 30.4023 64.035 31.0915 64.6194C32.071 65.3735 33.4304 65.3913 34.429 64.6629L36.4299 63.2183C37.9143 64.0785 39.505 64.7404 41.1616 65.1868L41.5581 67.6038C41.7558 68.8404 42.7522 69.7944 43.9961 69.9382C45.4925 70.098 47.0016 70.098 48.4981 69.9382C49.7325 69.7875 50.7179 68.8376 50.9136 67.6096L51.3114 65.1883C52.969 64.7417 54.5607 64.0793 56.0459 63.2183L58.0468 64.6517C58.3852 64.884 58.7709 65.0386 59.1762 65.1042L63.7032 69.6369C63.7781 70.8226 64.2331 71.9527 65.0007 72.8596H8.40689C5.31161 72.8596 2.80235 70.3503 2.80235 67.2551ZM65.3089 65.3088C64.9835 65.6464 64.7011 66.0229 64.4682 66.4298L62.0568 64.0324C62.4225 63.7059 62.7644 63.3907 63.074 63.0823C63.4131 62.7433 63.706 62.3943 64.0127 62.0482L66.4437 64.4791C66.0301 64.7038 65.6483 64.9827 65.3089 65.3088ZM32.1143 55.3454C31.0145 53.6448 30.2298 51.7601 29.7982 49.7814C29.6749 49.221 29.2225 48.7924 28.6562 48.6996L25.3256 48.1995C25.2568 47.5478 25.2218 46.8932 25.2205 46.2378C25.2212 45.5999 25.2548 44.9625 25.3213 44.3281L28.656 43.7801C29.2222 43.6874 29.6747 43.2588 29.798 42.6984C30.2292 40.7182 31.0137 38.8321 32.1142 37.1303C32.4268 36.6473 32.4123 36.0222 32.0777 35.554L30.0601 32.8289C30.4748 32.3236 30.9173 31.8419 31.3856 31.3857C31.8331 30.9332 32.3055 30.5061 32.8008 30.1065L35.5612 32.0836C36.0293 32.4182 36.6544 32.4327 37.1375 32.12C38.838 31.0202 40.7227 30.2355 42.7014 29.8039C43.2618 29.6806 43.6904 29.2282 43.7832 28.6619L44.2805 25.3313C45.5668 25.194 46.8642 25.194 48.1505 25.3313L48.6984 28.666C48.7912 29.2321 49.2197 29.6847 49.7801 29.808C51.7587 30.2365 53.6439 31.0178 55.3454 32.1143C55.8285 32.4269 56.4536 32.4125 56.9217 32.0778L59.6469 30.0602C60.1574 30.481 60.6465 30.9271 61.1125 31.3969C61.5618 31.8371 61.9829 32.3051 62.3736 32.798L60.3965 35.5583C60.0641 36.0258 60.0502 36.6486 60.3615 37.1303C61.4613 38.8309 62.246 40.7156 62.6777 42.6943C62.801 43.2547 63.2533 43.6833 63.8196 43.776L67.1502 44.2734C67.219 44.9259 67.2542 45.5816 67.2553 46.2378C67.2547 46.8758 67.221 47.5132 67.1545 48.1476L63.8198 48.6955C63.2537 48.7883 62.8011 49.2169 62.6778 49.7773C62.2466 51.7575 61.4621 53.6436 60.3617 55.3454C60.049 55.8284 60.0635 56.4535 60.3981 56.9216L62.4158 59.6468C62.0291 60.1204 61.5834 60.608 61.0932 61.0998C60.6027 61.5916 60.1292 62.0106 59.6779 62.3791L56.9176 60.402C56.4513 60.0678 55.8285 60.0517 55.3456 60.3614C53.645 61.4612 51.7604 62.2459 49.7816 62.6776C49.2212 62.8009 48.7927 63.2532 48.6999 63.8196L48.1997 67.1501C46.9134 67.2874 45.6161 67.2874 44.3298 67.1501L43.7819 63.8155C43.6891 63.2493 43.2605 62.7968 42.7001 62.6735C40.7197 62.2438 38.8331 61.4605 37.1306 60.3616C36.6475 60.0489 36.0224 60.0634 35.5543 60.398L32.8445 62.4296C32.3429 62.0093 31.8539 61.5707 31.3761 61.0929C30.9236 60.6455 30.4965 60.1731 30.0968 59.6777L32.0739 56.9174C32.4078 56.4511 32.4238 55.8283 32.1143 55.3454ZM80.4456 80.4455C79.3371 81.5046 77.5917 81.5046 76.4832 80.4455L67.2903 71.2539C66.5823 70.5459 66.3058 69.5137 66.5649 68.5466C66.824 67.5793 67.5796 66.8239 68.5467 66.5648C69.514 66.3057 70.546 66.5822 71.254 67.2902L80.4456 76.4831C81.5395 77.5773 81.5395 79.3511 80.4456 80.4455ZM8.40689 2.80235H67.2551C70.3504 2.80235 72.8597 5.31161 72.8597 8.40688V16.8138H2.80235V8.40688C2.80235 5.31161 5.31161 2.80235 8.40689 2.80235Z" fill="white"/>
<path d="M9.80799 14.0114C12.1294 14.0114 14.0114 12.1294 14.0114 9.80797C14.0114 7.48656 12.1294 5.60453 9.80799 5.60453C7.48657 5.60453 5.60454 7.48656 5.60454 9.80797C5.60454 12.1294 7.48657 14.0114 9.80799 14.0114ZM9.80799 8.40688C10.5818 8.40688 11.2091 9.03428 11.2091 9.80797C11.2091 10.5817 10.5817 11.2091 9.80799 11.2091C9.03429 11.2091 8.40689 10.5818 8.40689 9.80797C8.40689 9.03411 9.03429 8.40688 9.80799 8.40688Z" fill="white"/>
<path d="M21.0172 14.0114C23.3388 14.0114 25.2207 12.1294 25.2207 9.80797C25.2207 7.48656 23.3386 5.60453 21.0172 5.60453C18.6958 5.60453 16.8138 7.48656 16.8138 9.80797C16.8138 12.1294 18.6958 14.0114 21.0172 14.0114ZM21.0172 8.40688C21.7911 8.40688 22.4183 9.03428 22.4183 9.80797C22.4183 10.5817 21.7909 11.2091 21.0172 11.2091C20.2434 11.2091 19.6161 10.5817 19.6161 9.80797C19.6161 9.03428 20.2434 8.40688 21.0172 8.40688Z" fill="white"/>
<path d="M32.2265 14.0114C34.5479 14.0114 36.4299 12.1294 36.4299 9.80797C36.4299 7.48656 34.5479 5.60453 32.2265 5.60453C29.9051 5.60453 28.023 7.48656 28.023 9.80797C28.023 12.1294 29.9049 14.0114 32.2265 14.0114ZM32.2265 8.40688C33.0003 8.40688 33.6276 9.03428 33.6276 9.80797C33.6276 10.5817 33.0002 11.2091 32.2265 11.2091C31.4528 11.2091 30.8254 10.5817 30.8254 9.80797C30.8254 9.03428 31.4526 8.40688 32.2265 8.40688Z" fill="white"/>
<path d="M54.6448 14.0114H65.854C68.1755 14.0114 70.0575 12.1294 70.0575 9.80797C70.0575 7.48656 68.1755 5.60453 65.854 5.60453H54.6448C52.3234 5.60453 50.4414 7.48656 50.4414 9.80797C50.4414 12.1294 52.3234 14.0114 54.6448 14.0114ZM54.6448 8.40688H65.854C66.6279 8.40688 67.2551 9.03428 67.2551 9.80797C67.2551 10.5817 66.6277 11.2091 65.854 11.2091H54.6448C53.8709 11.2091 53.2437 10.5817 53.2437 9.80797C53.2437 9.03428 53.8709 8.40688 54.6448 8.40688Z" fill="white"/>
<path d="M15.4127 22.4183C14.6388 22.4183 14.0116 23.0457 14.0116 23.8194V68.6561C14.0116 69.43 14.639 70.0572 15.4127 70.0572C16.1866 70.0572 16.8138 69.43 16.8138 68.6561V23.8195C16.8138 23.0457 16.1864 22.4183 15.4127 22.4183Z" fill="white"/>
<path d="M9.80799 23.8195H7.0058C6.23194 23.8195 5.6047 24.4468 5.6047 25.2206C5.6047 25.9945 6.2321 26.6217 7.0058 26.6217H9.80815C10.582 26.6217 11.2092 25.9943 11.2092 25.2206C11.2092 24.4469 10.5818 23.8195 9.80799 23.8195Z" fill="white"/>
<path d="M21.0172 26.6217H28.023C28.7969 26.6217 29.4241 25.9943 29.4241 25.2206C29.4241 24.4469 28.7967 23.8195 28.023 23.8195H21.0172C20.2434 23.8195 19.6161 24.4468 19.6161 25.2206C19.6161 25.9945 20.2434 26.6217 21.0172 26.6217Z" fill="white"/>
<path d="M9.80799 30.8252H7.0058C6.23194 30.8252 5.6047 31.4526 5.6047 32.2263C5.6047 33 6.2321 33.6274 7.0058 33.6274H9.80815C10.582 33.6274 11.2092 33 11.2092 32.2263C11.2092 31.4526 10.5818 30.8252 9.80799 30.8252Z" fill="white"/>
<path d="M21.0172 33.6275H22.4183C23.1922 33.6275 23.8194 33.0001 23.8194 32.2264C23.8194 31.4527 23.192 30.8253 22.4183 30.8253H21.0172C20.2434 30.8253 19.6161 31.4527 19.6161 32.2264C19.6161 33.0001 20.2434 33.6275 21.0172 33.6275Z" fill="white"/>
<path d="M9.80799 37.831H7.0058C6.23194 37.831 5.6047 38.4584 5.6047 39.2321C5.6047 40.0059 6.2321 40.6331 7.0058 40.6331H9.80815C10.582 40.6331 11.2092 40.0057 11.2092 39.2321C11.2092 38.4584 10.5818 37.831 9.80799 37.831Z" fill="white"/>
<path d="M21.0172 40.6333H22.4183C23.1922 40.6333 23.8194 40.0059 23.8194 39.2322C23.8194 38.4584 23.192 37.8311 22.4183 37.8311H21.0172C20.2434 37.8311 19.6161 38.4585 19.6161 39.2322C19.6161 40.0059 20.2434 40.6333 21.0172 40.6333Z" fill="white"/>
<path d="M9.80799 44.8368H7.0058C6.23194 44.8368 5.6047 45.464 5.6047 46.2378C5.6047 47.0117 6.2321 47.6389 7.0058 47.6389H9.80815C10.582 47.6389 11.2092 47.0115 11.2092 46.2378C11.2092 45.4641 10.5818 44.8368 9.80799 44.8368Z" fill="white"/>
<path d="M9.80799 51.8424H7.0058C6.23194 51.8424 5.6047 52.4698 5.6047 53.2435C5.6047 54.0172 6.2321 54.6446 7.0058 54.6446H9.80815C10.582 54.6446 11.2092 54.0173 11.2092 53.2435C11.2092 52.4696 10.5818 51.8424 9.80799 51.8424Z" fill="white"/>
<path d="M21.0172 54.6447H22.4183C23.1922 54.6447 23.8194 54.0175 23.8194 53.2436C23.8194 52.4698 23.192 51.8425 22.4183 51.8425H21.0172C20.2434 51.8425 19.6161 52.4699 19.6161 53.2436C19.6161 54.0173 20.2434 54.6447 21.0172 54.6447Z" fill="white"/>
<path d="M9.80799 58.8482H7.0058C6.23194 58.8482 5.6047 59.4754 5.6047 60.2493C5.6047 61.0231 6.2321 61.6503 7.0058 61.6503H9.80815C10.582 61.6503 11.2092 61.0231 11.2092 60.2493C11.2092 59.4754 10.5818 58.8482 9.80799 58.8482Z" fill="white"/>
<path d="M21.0172 61.6505H23.8196C24.5934 61.6505 25.2207 61.0233 25.2207 60.2494C25.2207 59.4756 24.5933 58.8483 23.8196 58.8483H21.0172C20.2434 58.8483 19.6161 59.4756 19.6161 60.2494C19.6161 61.0233 20.2434 61.6505 21.0172 61.6505Z" fill="white"/>
<path d="M9.80799 65.854H7.0058C6.23194 65.854 5.6047 66.4814 5.6047 67.255C5.6047 68.0289 6.2321 68.6561 7.0058 68.6561H9.80815C10.582 68.6561 11.2092 68.0287 11.2092 67.255C11.2092 66.4812 10.5818 65.854 9.80799 65.854Z" fill="white"/>
<path d="M26.6218 65.854H21.0172C20.2434 65.854 19.6161 66.4814 19.6161 67.255C19.6161 68.0289 20.2435 68.6561 21.0172 68.6561H26.6218C27.3956 68.6561 28.0229 68.0287 28.0229 67.255C28.023 66.4812 27.3956 65.854 26.6218 65.854Z" fill="white"/>
<path d="M46.2379 60.2493C53.9762 60.2493 60.2493 53.9761 60.2493 46.2378C60.2493 38.4996 53.9762 32.2264 46.2379 32.2264C38.4996 32.2264 32.2265 38.4996 32.2265 46.2378C32.2349 53.9727 38.5031 60.2409 46.2379 60.2493ZM46.2379 35.0286C52.4286 35.0286 57.4472 40.0471 57.4472 46.2378C57.4472 52.4286 52.4286 57.4471 46.2379 57.4471C40.0472 57.4471 35.0287 52.4286 35.0287 46.2378C35.0357 40.0501 40.0501 35.0357 46.2379 35.0286Z" fill="white"/>
<path d="M42.445 50.0308C42.9947 50.5618 43.8687 50.5543 44.4091 50.0137C44.9496 49.4732 44.9572 48.5993 44.4262 48.0496L42.6146 46.2378L44.4263 44.4261C44.9573 43.8764 44.9498 43.0023 44.4093 42.462C43.8687 41.9214 42.9949 41.9139 42.4451 42.4449L39.6428 45.2472C39.0958 45.7943 39.0958 46.6813 39.6428 47.2284L42.445 50.0308Z" fill="white"/>
<path d="M48.0497 50.0308C48.5968 50.5777 49.4838 50.5777 50.0309 50.0308L52.8332 47.2284C53.3802 46.6813 53.3802 45.7943 52.8332 45.2472L50.0309 42.4449C49.4811 41.9139 48.6071 41.9214 48.0667 42.462C47.5262 43.0025 47.5187 43.8764 48.0497 44.4261L49.8614 46.2378L48.0497 48.0496C47.5026 48.5967 47.5026 49.4835 48.0497 50.0308Z" fill="white"/>
</svg>
