<svg width="140" height="121" viewBox="0 0 140 121" fill="none" xmlns="http://www.w3.org/2000/svg">
<g opacity="0.3">
<path d="M135.903 6.52659C133.398 5.445 130.608 5.94629 128.653 7.81808L100.702 33.7541V12.2087C100.702 5.4771 95.254 0 88.5586 0H12.1432C5.44772 0 0 5.4771 0 12.2087V69.659C0 76.1831 5.27825 81.4898 11.7674 81.4898H48.0568L31.4484 117.491C30.8786 118.728 31.4116 120.197 32.6421 120.77C32.9761 120.928 33.3274 121 33.6737 121C34.5996 121 35.4863 120.469 35.9039 119.57L51.9032 84.8901L67.9025 119.57C68.3175 120.469 69.2042 121 70.1302 121C70.4765 121 70.8277 120.928 71.1618 120.77C72.3923 120.197 72.9277 118.728 72.3554 117.491L55.7495 81.4898H87.9961C95.0011 81.4898 100.702 75.7583 100.702 68.7132V48.9531L128.505 75.6695C129.809 76.9758 131.485 77.6647 133.214 77.6647C134.081 77.6647 134.958 77.4943 135.81 77.1412C138.357 76.0868 140 73.61 140 70.8294V12.7988C140 10.0208 138.431 7.61559 135.903 6.52659ZM95.7895 68.7132C95.7895 73.0346 92.2944 76.551 87.9961 76.551H51.994C51.9891 76.551 51.9842 76.551 51.9793 76.551H51.8295C51.8221 76.551 51.8123 76.551 51.8049 76.551H11.7674C7.98737 76.551 4.91228 73.4593 4.91228 69.659V12.2087C4.91228 8.20084 8.15684 4.93878 12.1432 4.93878H88.5586C92.5449 4.93878 95.7895 8.20084 95.7895 12.2087V68.7132ZM135.088 70.8294C135.088 72.0073 134.211 72.4617 133.941 72.5728C133.607 72.7136 132.742 72.9482 131.968 72.1654L101.245 42.6463C100.886 42.2833 100.694 41.7969 100.702 41.2808C100.709 40.7647 100.915 40.2881 101.262 39.9572L132.013 11.4209C132.428 11.0233 132.862 10.9073 133.228 10.9073C133.548 10.9073 133.815 10.9987 133.968 11.0629C134.228 11.1764 135.088 11.6382 135.088 12.7988V70.8294Z" fill="white"/>
<path d="M44.547 38.8262C45.8881 36.4778 46.6667 33.7639 46.6667 30.8673C46.6667 22.0171 39.5046 14.8163 30.7018 14.8163C21.8989 14.8163 14.7368 22.0171 14.7368 30.8673C14.7368 39.7176 21.8989 46.9184 30.7018 46.9184C34.8453 46.9184 38.613 45.3108 41.4523 42.6982L44.9302 46.1948C45.4091 46.6764 46.0379 46.9184 46.6667 46.9184C47.2954 46.9184 47.9242 46.6764 48.4032 46.1948C49.3635 45.2293 49.3635 43.6687 48.4032 42.7031L44.547 38.8262ZM30.7018 41.9796C24.6081 41.9796 19.6491 36.9939 19.6491 30.8673C19.6491 24.7408 24.6081 19.7551 30.7018 19.7551C36.7954 19.7551 41.7544 24.7408 41.7544 30.8673C41.7544 32.386 41.4474 33.8331 40.8947 35.1542L36.1225 30.3562C35.1621 29.3907 33.6098 29.3907 32.6495 30.3562C31.6891 31.3217 31.6891 32.8824 32.6495 33.8479L37.9572 39.1842C36.0095 40.9029 33.4895 41.9796 30.7018 41.9796Z" fill="white"/>
</g>
</svg>
