<svg width="90" height="78" viewBox="0 0 90 78" fill="none" xmlns="http://www.w3.org/2000/svg">
<path d="M82.4998 14.9998H67.0269L62.1709 2.48705C61.4129 0.959265 59.8521 -0.00546982 58.1465 2.33347e-05H31.8535C30.1005 0.00620312 28.5095 1.02587 27.7721 2.61614L22.9724 14.9998H7.50023C3.35976 15.0046 0.00480653 18.3602 0 22.5V70.4998C0.00480653 74.6403 3.35976 77.9952 7.50023 78H82.4998C86.6402 77.9952 89.9952 74.6403 90 70.4998V22.5C89.9952 18.3602 86.6402 15.0046 82.4998 14.9998ZM30.5125 3.82875C30.7652 3.31995 31.2849 2.9986 31.8535 2.99997H58.1465C58.6677 2.99036 59.1559 3.25609 59.4299 3.70035L63.81 14.9998H26.19L30.5125 3.82875ZM87.0001 70.4998C86.9973 72.9841 84.9841 74.9973 82.4998 75.0001H7.50023C5.01595 74.9973 3.0027 72.9841 2.99995 70.4998V22.5C3.0027 20.0157 5.01595 18.0024 7.50023 17.9997H82.4998C84.9841 18.0024 86.9973 20.0157 87.0001 22.5V70.4998Z" fill="white"/>
<path d="M45 22.4999C31.745 22.4999 20.9997 33.2452 20.9997 46.5002C20.9997 59.7545 31.745 70.4998 45 70.4998C58.255 70.4998 69.0003 59.7545 69.0003 46.5002C68.9852 33.2514 58.2488 22.515 45 22.4999ZM45 67.4998C33.4019 67.4998 24.0003 58.0976 24.0003 46.5002C24.0003 34.9021 33.4019 25.4999 45 25.4999C56.5981 25.4999 65.9997 34.9021 65.9997 46.5002C65.9866 58.0921 56.5926 67.4868 45 67.4998Z" fill="white"/>
<path d="M45 31.4998C36.7156 31.4998 30.0002 38.2158 30.0002 46.5002C30.0002 54.7839 36.7156 61.4999 45 61.4999C53.2844 61.4999 59.9998 54.7839 59.9998 46.5002C59.9908 38.2193 53.2803 31.5094 45 31.4998ZM45 58.5C38.3725 58.5 33.0002 53.127 33.0002 46.5002C33.0002 39.8727 38.3725 34.4997 45 34.4997C51.6275 34.4997 56.9998 39.8727 56.9998 46.5002C56.9923 53.1243 51.6241 58.4924 45 58.5Z" fill="white"/>
<path d="M7.50023 20.9996C6.67145 20.9996 5.99991 21.6718 5.99991 22.4999V24.0003C5.99991 24.8284 6.67145 25.4999 7.50023 25.4999C8.32832 25.4999 8.99986 24.8284 8.99986 24.0003V22.4999C8.99986 21.6718 8.32832 20.9996 7.50023 20.9996Z" fill="white"/>
<path d="M7.50023 28.4998C6.67145 28.4998 5.99991 29.1714 5.99991 30.0002V70.4998C5.99991 71.3285 6.67145 72.0001 7.50023 72.0001C8.32832 72.0001 8.99986 71.3285 8.99986 70.4998V30.0002C8.99986 29.1714 8.32832 28.4998 7.50023 28.4998Z" fill="white"/>
</svg>
