<svg width="87" height="87" viewBox="0 0 87 87" fill="none" xmlns="http://www.w3.org/2000/svg">
<path d="M76.8499 14.4999H62.35V13.05C62.342 5.84599 56.504 0.00798633 49.3 0H37.7C30.496 0.00798633 24.658 5.84599 24.65 13.05V14.4999H10.1499C4.54693 14.5064 0.00645702 19.0469 0 24.6501V47.85C0.00662694 50.12 1.08087 52.2545 2.90005 53.6122V79.7499C2.90481 83.7519 6.14793 86.9951 10.1501 87H76.8499C80.8519 86.9952 84.095 83.7521 84.1 79.7499V53.6122C85.9191 52.2544 86.9934 50.1198 87 47.85V24.6501C86.9934 19.0469 82.4529 14.5064 76.8499 14.4999ZM27.5499 13.05C27.5563 7.447 32.0968 2.90634 37.6998 2.90006H49.2998C54.9028 2.90651 59.4435 7.447 59.4498 13.05V14.4999H56.5499V13.05C56.5451 9.048 53.302 5.80487 49.2998 5.79994H37.6998C33.6978 5.80487 30.4547 9.048 30.4499 13.05V14.4999H27.5499V13.05ZM33.35 14.4999V13.05C33.35 10.6476 35.2976 8.7 37.7 8.7H49.3C51.7024 8.7 53.65 10.6476 53.65 13.05V14.4999H33.35ZM81.1999 79.7499C81.1999 82.1523 79.2523 84.0999 76.8499 84.0999H10.1499C7.74757 84.0999 5.79993 82.1523 5.79993 79.7499V54.9549C6.27724 55.0518 6.76288 55.1004 7.24987 55.0999H11.5999V57.9999C11.5999 61.2031 14.1966 63.7999 17.3998 63.7999H20.2998C23.503 63.7999 26.0998 61.2031 26.0998 57.9999V55.0999H60.8997V57.9999C60.8997 61.2031 63.4965 63.7999 66.6996 63.7999H69.5999C72.8031 63.7999 75.3998 61.2031 75.3998 57.9999V55.0999H79.7498C80.2368 55.1004 80.7226 55.0518 81.1997 54.9549V79.7499H81.1999ZM14.4999 57.9999V49.2999C14.4999 47.6983 15.7983 46.3999 17.4 46.3999H20.3C21.9017 46.3999 23.2001 47.6983 23.2001 49.2999V57.9999C23.2001 59.6016 21.9017 60.9 20.3 60.9H17.4C15.7983 60.9 14.4999 59.6016 14.4999 57.9999ZM63.7999 57.9999V49.2999C63.7999 47.6983 65.0983 46.3999 66.7 46.3999H69.5999C71.2015 46.3999 72.4999 47.6983 72.4999 49.2999V57.9999C72.4999 59.6016 71.2015 60.9 69.5999 60.9H66.6998C65.0983 60.9 63.7999 59.6016 63.7999 57.9999ZM84.0998 47.85C84.0998 50.2524 82.1521 52.2 79.7498 52.2H75.3998V49.2999C75.3998 46.0967 72.8031 43.5 69.5999 43.5H66.6998C63.4966 43.5 60.8999 46.0967 60.8999 49.2999V52.2H26.1V49.2999C26.1 46.0967 23.5032 43.5 20.3 43.5H17.4C14.1968 43.5 11.6 46.0967 11.6 49.2999V52.2H7.25004C4.84769 52.2 2.90005 50.2524 2.90005 47.85V24.6501C2.90481 20.6481 6.14793 17.4049 10.1501 17.4H76.8499C80.8519 17.4048 84.095 20.6479 84.1 24.6501L84.0998 47.85Z" fill="white"/>
</svg>
