<svg width="60" height="76" viewBox="0 0 60 76" fill="none" xmlns="http://www.w3.org/2000/svg">
<path d="M55 76C56.3261 76 57.5979 75.4662 58.5355 74.516C59.4732 73.5658 60 72.2771 60 70.9333V20.5732C59.9964 19.2302 59.47 17.9429 58.535 16.9911L43.2325 1.48453C42.2932 0.537095 41.0228 0.00360265 39.6975 0H5C3.67392 0 2.40215 0.533808 1.46447 1.48399C0.526784 2.43418 0 3.7229 0 5.06667V70.9333C0 72.2771 0.526784 73.5658 1.46447 74.516C2.40215 75.4662 3.67392 76 5 76H55ZM55.7325 17.7333H45C44.337 17.7333 43.7011 17.4664 43.2322 16.9913C42.7634 16.5162 42.5 15.8719 42.5 15.2V4.3244L55.7325 17.7333ZM2.5 70.9333V5.06667C2.5 4.39478 2.76339 3.75042 3.23223 3.27533C3.70107 2.80024 4.33696 2.53333 5 2.53333H39.6975C39.7989 2.53719 39.8999 2.54734 40 2.56373V15.2C40 16.5438 40.5268 17.8325 41.4645 18.7827C42.4021 19.7329 43.6739 20.2667 45 20.2667H57.47C57.4862 20.3681 57.4962 20.4705 57.5 20.5732V70.9333C57.5 71.6052 57.2366 72.2496 56.7678 72.7247C56.2989 73.1998 55.663 73.4667 55 73.4667H5C4.33696 73.4667 3.70107 73.1998 3.23223 72.7247C2.76339 72.2496 2.5 71.6052 2.5 70.9333Z" fill="white"/>
<path d="M11.25 32.9333H48.75C49.0815 32.9333 49.3995 32.7999 49.6339 32.5623C49.8683 32.3248 50 32.0026 50 31.6667C50 31.3307 49.8683 31.0085 49.6339 30.771C49.3995 30.5335 49.0815 30.4 48.75 30.4H11.25C10.9185 30.4 10.6005 30.5335 10.3661 30.771C10.1317 31.0085 10 31.3307 10 31.6667C10 32.0026 10.1317 32.3248 10.3661 32.5623C10.6005 32.7999 10.9185 32.9333 11.25 32.9333Z" fill="white"/>
<path d="M11.25 43.0667H48.75C49.0815 43.0667 49.3995 42.9332 49.6339 42.6957C49.8683 42.4581 50 42.1359 50 41.8C50 41.4641 49.8683 41.1419 49.6339 40.9043C49.3995 40.6668 49.0815 40.5333 48.75 40.5333H11.25C10.9185 40.5333 10.6005 40.6668 10.3661 40.9043C10.1317 41.1419 10 41.4641 10 41.8C10 42.1359 10.1317 42.4581 10.3661 42.6957C10.6005 42.9332 10.9185 43.0667 11.25 43.0667Z" fill="white"/>
<path d="M11.25 53.2H48.75C49.0815 53.2 49.3995 53.0666 49.6339 52.829C49.8683 52.5915 50 52.2693 50 51.9333C50 51.5974 49.8683 51.2752 49.6339 51.0377C49.3995 50.8001 49.0815 50.6667 48.75 50.6667H11.25C10.9185 50.6667 10.6005 50.8001 10.3661 51.0377C10.1317 51.2752 10 51.5974 10 51.9333C10 52.2693 10.1317 52.5915 10.3661 52.829C10.6005 53.0666 10.9185 53.2 11.25 53.2Z" fill="white"/>
<path d="M11.25 63.3333H36.25C36.5815 63.3333 36.8995 63.1999 37.1339 62.9623C37.3683 62.7248 37.5 62.4026 37.5 62.0667C37.5 61.7307 37.3683 61.4085 37.1339 61.171C36.8995 60.9335 36.5815 60.8 36.25 60.8H11.25C10.9185 60.8 10.6005 60.9335 10.3661 61.171C10.1317 61.4085 10 61.7307 10 62.0667C10 62.4026 10.1317 62.7248 10.3661 62.9623C10.6005 63.1999 10.9185 63.3333 11.25 63.3333Z" fill="white"/>
</svg>
