<svg width="96" height="94" viewBox="0 0 96 94" fill="none" xmlns="http://www.w3.org/2000/svg">
<path d="M8.72727 0C3.93012 0 0 3.84824 0 8.54545V21.3636H91.6364V64.0909C91.6364 66.4949 89.7279 68.3636 87.2727 68.3636H54.5114C54.5316 67.9982 54.5455 67.6322 54.5455 67.2663C54.5455 59.4781 49.9873 52.4935 43.0483 49.1197C44.7768 47.086 45.8182 44.4754 45.8182 41.6382C45.8182 35.1846 40.425 29.9091 33.831 29.9091C27.237 29.9091 21.8395 35.1846 21.8395 41.6382C21.8395 44.4755 22.8841 47.086 24.6136 49.1197C17.675 52.4941 13.1122 59.4781 13.1122 67.2663C13.1122 67.6325 13.1255 67.9983 13.1463 68.3636H8.72727C6.27209 68.3636 4.36364 66.4949 4.36364 64.0909V25.6364H0V64.0909C0 68.7881 3.93012 72.6364 8.72727 72.6364H87.2727C92.0699 72.6364 96 68.7881 96 64.0909V8.54545C96 3.84824 92.0699 0 87.2727 0H8.72727ZM8.72727 4.27273H87.2727C89.7279 4.27273 91.6364 6.14142 91.6364 8.54545V17.0909H4.36364V8.54545C4.36364 6.14142 6.27209 4.27273 8.72727 4.27273ZM33.831 34.1818C38.069 34.1818 41.4545 37.496 41.4545 41.6382C41.4545 45.7804 38.069 49.0946 33.831 49.0946C29.5929 49.0946 26.2031 45.7804 26.2031 41.6382C26.2031 37.496 29.5929 34.1818 33.831 34.1818ZM28.517 52.1448C30.1213 52.9269 31.9256 53.3674 33.831 53.3674C35.7364 53.3674 37.5412 52.9269 39.1449 52.1448C45.725 54.3525 50.1818 60.397 50.1818 67.2663C50.1818 67.6326 50.1653 67.9982 50.1392 68.3636H17.5185C17.4924 67.9983 17.4759 67.6329 17.4759 67.2663C17.4759 60.3957 21.9363 54.3516 28.517 52.1448Z" fill="white"/>
<path d="M21.8182 76.9091C17.7777 76.9091 14.3588 79.6478 13.3807 83.3182H0V87.5909H13.3807C14.3588 91.2613 17.7777 94 21.8182 94C25.8599 94 29.2872 91.2629 30.2642 87.5909H96V83.3182H30.2642C29.2872 79.6462 25.8599 76.9091 21.8182 76.9091ZM21.8182 81.1818C24.254 81.1818 26.1818 83.0695 26.1818 85.4545C26.1818 87.8396 24.254 89.7273 21.8182 89.7273C19.3824 89.7273 17.4545 87.8396 17.4545 85.4545C17.4545 83.0695 19.3824 81.1818 21.8182 81.1818Z" fill="white"/>
<path d="M64.3338 30.1761C64.0015 29.9951 63.6266 29.9022 63.2464 29.9068C62.8661 29.9113 62.4937 30.0131 62.166 30.202C61.8382 30.3909 61.5666 30.6604 61.3781 30.9837C61.1895 31.3071 61.0905 31.6731 61.0909 32.0455V53.4091C61.0905 53.7815 61.1895 54.1475 61.3781 54.4708C61.5666 54.7942 61.8382 55.0637 62.166 55.2526C62.4937 55.4415 62.8661 55.5432 63.2464 55.5478C63.6266 55.5523 64.0015 55.4594 64.3338 55.2784L83.9702 44.5966C84.3111 44.4118 84.5953 44.141 84.7932 43.8122C84.9911 43.4835 85.0955 43.1089 85.0955 42.7273C85.0955 42.3457 84.9911 41.9711 84.7932 41.6423C84.5953 41.3136 84.3111 41.0428 83.9702 40.858L64.3338 30.1761ZM65.4545 35.6798L78.4134 42.7273L65.4545 49.7789V35.6798Z" fill="white" fill-opacity="0.999"/>
<path d="M82.9091 8.54545V12.8182H87.2727V8.54545H82.9091Z" fill="white"/>
<path d="M74.1818 8.54545V12.8182H78.5455V8.54545H74.1818Z" fill="white"/>
<path d="M65.4545 8.54545V12.8182H69.8182V8.54545H65.4545Z" fill="white"/>
<path d="M56.7273 8.54545V12.8182H61.0909V8.54545H56.7273Z" fill="white"/>
</svg>
