<svg width="91" height="91" viewBox="0 0 91 91" fill="none" xmlns="http://www.w3.org/2000/svg">
<path d="M4.54924 66.7333H13.7084V68.25C13.7131 69.2177 14.0261 70.1587 14.6021 70.9363C15.178 71.7139 15.9868 72.2876 16.911 72.574L8.55257 83.72C7.82865 84.6854 7.51782 85.8988 7.68845 87.0935C7.85908 88.2881 8.4972 89.3659 9.46242 90.09C10.4276 90.814 11.6409 91.1249 12.8353 90.9543C14.0297 90.7836 15.1074 90.1454 15.8314 89.18L28.1143 72.8H41.0038V86.45C41.0038 87.6567 41.4831 88.814 42.3363 89.6673C43.1894 90.5206 44.3465 91 45.5531 91C46.7596 91 47.9167 90.5206 48.7699 89.6673C49.623 88.814 50.1023 87.6567 50.1023 86.45V72.8H62.9918L75.2748 89.18C75.6332 89.658 76.0823 90.0607 76.5964 90.3651C77.1104 90.6696 77.6794 90.8698 78.2708 90.9543C78.8622 91.0388 79.4645 91.0059 80.0432 90.8576C80.6219 90.7093 81.1658 90.4485 81.6437 90.09C82.1217 89.7315 82.5243 89.2823 82.8287 88.7682C83.1331 88.254 83.3332 87.685 83.4177 87.0935C83.5022 86.5019 83.4694 85.8996 83.3211 85.3208C83.1728 84.7419 82.912 84.198 82.5536 83.72L74.1966 72.574C75.1205 72.2873 75.929 71.7135 76.5047 70.9359C77.0803 70.1584 77.3932 69.2175 77.3978 68.25V66.7333H86.4508C87.6573 66.7333 88.8144 66.2539 89.6676 65.4007C90.5207 64.5474 91 63.3901 91 62.1833V13.65C91 12.4433 90.5207 11.286 89.6676 10.4327C88.8144 9.57937 87.6573 9.1 86.4508 9.1H50.1023V4.55C50.1023 3.34326 49.623 2.18595 48.7699 1.33266C47.9167 0.479373 46.7596 0 45.5531 0C44.3465 0 43.1894 0.479373 42.3363 1.33266C41.4831 2.18595 41.0038 3.34326 41.0038 4.55V9.1H4.54924C3.34271 9.1 2.18559 9.57937 1.33244 10.4327C0.479294 11.286 0 12.4433 0 13.65V62.1833C0 63.3901 0.479294 64.5474 1.33244 65.4007C2.18559 66.2539 3.34271 66.7333 4.54924 66.7333ZM13.4051 87.36C13.157 87.6723 12.7988 87.8778 12.404 87.9342C12.0091 87.9906 11.6077 87.8937 11.2821 87.6633C10.9604 87.422 10.7477 87.0627 10.6908 86.6645C10.6339 86.2663 10.7375 85.8618 10.9788 85.54L20.5322 72.8H24.3233L13.4051 87.36ZM47.0695 86.45C47.0695 86.8522 46.9097 87.238 46.6253 87.5224C46.341 87.8069 45.9553 87.9666 45.5531 87.9666C45.1509 87.9666 44.7652 87.8069 44.4808 87.5224C44.1964 87.238 44.0367 86.8522 44.0367 86.45V72.8H47.0695V86.45ZM79.824 87.6633C79.4994 87.8966 79.0972 87.9953 78.7015 87.9388C78.3058 87.8823 77.9473 87.6749 77.701 87.36L66.7829 72.8H70.5739L80.1273 85.54C80.3686 85.8618 80.4722 86.2663 80.4153 86.6645C80.3585 87.0627 80.1458 87.422 79.824 87.6633ZM74.3649 68.25C74.3649 68.6522 74.2052 69.038 73.9208 69.3224C73.6364 69.6069 73.2507 69.7667 72.8485 69.7667H18.2576C17.8554 69.7667 17.4697 69.6069 17.1854 69.3224C16.901 69.038 16.7412 68.6522 16.7412 68.25V62.1833C16.7412 61.7811 16.901 61.3953 17.1854 61.1109C17.4697 60.8264 17.8554 60.6667 18.2576 60.6667H72.8485C73.2507 60.6667 73.6364 60.8264 73.9208 61.1109C74.2052 61.3953 74.3649 61.7811 74.3649 62.1833V68.25ZM44.0367 4.55C44.0367 4.14775 44.1964 3.76198 44.4808 3.47755C44.7652 3.19312 45.1509 3.03333 45.5531 3.03333C45.9553 3.03333 46.341 3.19312 46.6253 3.47755C46.9097 3.76198 47.0695 4.14775 47.0695 4.55V9.1H44.0367V4.55ZM3.03283 13.65C3.03283 13.2478 3.19259 12.862 3.47697 12.5776C3.76136 12.2931 4.14706 12.1333 4.54924 12.1333H86.4508C86.8529 12.1333 87.2386 12.2931 87.523 12.5776C87.8074 12.862 87.9672 13.2478 87.9672 13.65V62.1833C87.9672 62.5856 87.8074 62.9713 87.523 63.2558C87.2386 63.5402 86.8529 63.7 86.4508 63.7H77.3978V62.1833C77.3978 60.9766 76.9185 59.8193 76.0653 58.966C75.2122 58.1127 74.0551 57.6333 72.8485 57.6333H18.2576C17.0511 57.6333 15.894 58.1127 15.0408 58.966C14.1877 59.8193 13.7084 60.9766 13.7084 62.1833V63.7H4.54924C4.14706 63.7 3.76136 63.5402 3.47697 63.2558C3.19259 62.9713 3.03283 62.5856 3.03283 62.1833V13.65Z" fill="white"/>
<path d="M19.5602 41.27C18.4908 40.1312 17.0412 39.4237 15.4856 39.2813C13.9299 39.1389 12.376 39.5716 11.1177 40.4974C9.85938 41.4232 8.98381 42.7781 8.65655 44.3058C8.32929 45.8335 8.57302 47.4283 9.34165 48.7884C10.1103 50.1486 11.3506 51.18 12.828 51.6876C14.3054 52.1951 15.9175 52.1437 17.3596 51.5431C18.8017 50.9424 19.9737 49.8341 20.6542 48.4277C21.3346 47.0213 21.4763 45.4143 21.0524 43.9105L32.1222 37.5966C33.1749 38.6913 34.6042 39.3449 36.1206 39.4251C37.637 39.5054 39.1273 39.0063 40.2896 38.0289L47.5062 43.2796C47.1274 44.2204 46.9905 45.2412 47.108 46.2486C47.2255 47.256 47.5936 48.2178 48.1787 49.0462C48.7639 49.8746 49.5473 50.543 50.4574 50.9903C51.3674 51.4377 52.3751 51.6497 53.3883 51.607C54.4015 51.5643 55.3877 51.2682 56.257 50.7458C57.1262 50.2234 57.8506 49.4914 58.3639 48.6167C58.8772 47.7421 59.1631 46.7526 59.1954 45.7389C59.2277 44.7252 59.0054 43.7196 58.5487 42.814L72.4467 30.7732C73.6884 31.6559 75.2101 32.054 76.725 31.8925C78.2398 31.7311 79.6434 31.0212 80.6713 29.8966C81.6992 28.7719 82.2805 27.3102 82.3056 25.7867C82.3308 24.2632 81.7981 22.7831 80.8079 21.6251C79.8177 20.4671 78.4383 19.7113 76.9296 19.4999C75.4209 19.2884 73.8869 19.6361 72.6167 20.4773C71.3465 21.3185 70.4276 22.5952 70.0332 24.067C69.6388 25.5388 69.796 27.104 70.4753 28.4678L56.5774 40.5117C55.4991 39.7573 54.2018 39.3803 52.8872 39.4393C51.5725 39.4982 50.3142 39.9899 49.3077 40.8378L42.0911 35.5871C42.4615 34.6895 42.6116 33.7163 42.5288 32.7488C42.446 31.7814 42.1328 30.8478 41.6153 30.0263C41.0978 29.2047 40.3912 28.5191 39.5544 28.0267C38.7176 27.5343 37.7752 27.2495 36.8058 27.1961C35.8364 27.1428 34.8684 27.3224 33.9827 27.7199C33.0969 28.1175 32.3193 28.7214 31.7147 29.4812C31.1102 30.2409 30.6964 31.1345 30.508 32.087C30.3195 33.0395 30.3619 34.0233 30.6316 34.9561L19.5602 41.27ZM15.2248 48.5333C14.625 48.5333 14.0386 48.3554 13.5398 48.0221C13.0411 47.6888 12.6524 47.2151 12.4228 46.6608C12.1933 46.1065 12.1332 45.4966 12.2502 44.9082C12.3673 44.3198 12.6561 43.7793 13.0803 43.3551C13.5044 42.9309 14.0448 42.642 14.6331 42.5249C15.2214 42.4079 15.8312 42.468 16.3854 42.6976C16.9396 42.9271 17.4132 43.3159 17.7465 43.8148C18.0798 44.3136 18.2576 44.9001 18.2576 45.5C18.2576 46.3045 17.9381 47.076 17.3693 47.6449C16.8006 48.2137 16.0292 48.5333 15.2248 48.5333ZM75.8813 22.75C76.4812 22.75 77.0676 22.9279 77.5663 23.2612C78.065 23.5945 78.4538 24.0683 78.6833 24.6225C78.9129 25.1768 78.9729 25.7867 78.8559 26.3751C78.7389 26.9635 78.45 27.504 78.0259 27.9282C77.6017 28.3524 77.0613 28.6413 76.473 28.7584C75.8847 28.8754 75.2749 28.8153 74.7207 28.5858C74.1666 28.3562 73.6929 27.9674 73.3596 27.4686C73.0264 26.9697 72.8485 26.3833 72.8485 25.7833C72.8485 24.9788 73.1681 24.2073 73.7368 23.6384C74.3056 23.0696 75.077 22.75 75.8813 22.75ZM53.1351 42.4667C53.8216 42.4619 54.4897 42.6887 55.0315 43.1103C55.5734 43.5319 55.9574 44.1238 56.1216 44.7905C56.2858 45.4572 56.2206 46.1598 55.9366 46.7849C55.6526 47.41 55.1662 47.9212 54.5561 48.2359C53.9459 48.5507 53.2476 48.6506 52.5737 48.5196C51.8998 48.3887 51.2896 48.0344 50.8417 47.5141C50.3938 46.9937 50.1342 46.3376 50.1049 45.6516C50.0756 44.9656 50.2782 44.2898 50.6801 43.7331L50.6922 43.724V43.7134C50.9729 43.3282 51.3403 43.0146 51.7647 42.798C52.1892 42.5814 52.6586 42.4679 53.1351 42.4667ZM36.4546 30.3333C37.0125 30.3318 37.5599 30.4846 38.0363 30.7749C38.5128 31.0652 38.8996 31.4817 39.154 31.9783C39.4085 32.4748 39.5206 33.0321 39.478 33.5885C39.4354 34.1448 39.2398 34.6785 38.9127 35.1305L38.8975 35.1427V35.1533C38.5918 35.5728 38.1835 35.9069 37.7118 36.1234C37.2401 36.34 36.7206 36.4319 36.2033 36.3902C35.6859 36.3485 35.1878 36.1748 34.7568 35.8855C34.3258 35.5963 33.9762 35.2012 33.7415 34.7382C33.5068 34.2751 33.3949 33.7596 33.4164 33.2409C33.4379 32.7222 33.5922 32.2177 33.8644 31.7757C34.1367 31.3337 34.5178 30.9689 34.9713 30.7164C35.4248 30.4639 35.9355 30.332 36.4546 30.3333Z" fill="white"/>
<path d="M7.64273 18.2H24.3233C24.7255 18.2 25.1112 18.0402 25.3955 17.7558C25.6799 17.4713 25.8397 17.0856 25.8397 16.6833C25.8397 16.2811 25.6799 15.8953 25.3955 15.6109C25.1112 15.3265 24.7255 15.1667 24.3233 15.1667H7.64273C7.24055 15.1667 6.85484 15.3265 6.57046 15.6109C6.28608 15.8953 6.12631 16.2811 6.12631 16.6833C6.12631 17.0856 6.28608 17.4713 6.57046 17.7558C6.85484 18.0402 7.24055 18.2 7.64273 18.2Z" fill="white"/>
<path d="M7.64273 24.2667H19.774C20.1762 24.2667 20.5619 24.1069 20.8463 23.8224C21.1307 23.538 21.2905 23.1522 21.2905 22.75C21.2905 22.3477 21.1307 21.962 20.8463 21.6776C20.5619 21.3931 20.1762 21.2333 19.774 21.2333H7.64273C7.24055 21.2333 6.85484 21.3931 6.57046 21.6776C6.28608 21.962 6.12631 22.3477 6.12631 22.75C6.12631 23.1522 6.28608 23.538 6.57046 23.8224C6.85484 24.1069 7.24055 24.2667 7.64273 24.2667Z" fill="white"/>
</svg>
