<svg width="87" height="87" viewBox="0 0 87 87" fill="none" xmlns="http://www.w3.org/2000/svg">
<path d="M4.35084 46.3993C5.50469 46.4012 6.6118 45.9436 7.42767 45.1276C7.54076 45.0145 14.5006 38.0675 14.5006 38.0675L18.0719 41.6418C19.4316 43.0027 21.2766 43.7674 23.2004 43.7674C25.1242 43.7674 26.9691 43.0027 28.3289 41.6418L49.6028 20.3598L56.0725 26.8327C58.9067 29.6622 63.4968 29.6622 66.331 26.8327L79.2821 13.8637L80.358 14.9396C81.3162 15.8968 82.744 16.2084 84.0138 15.7374C85.2836 15.2665 86.1629 14.0992 86.2652 12.7486L86.9901 3.40903V3.39453C87.053 2.47887 86.7168 1.58077 86.0681 0.931493C85.4194 0.282219 84.5216 -0.0547779 83.6059 0.00727923L74.258 0.732291C72.908 0.82885 71.7386 1.70481 71.2663 2.97331C70.7941 4.2418 71.106 5.66923 72.0642 6.62518L73.1401 7.704L61.1996 19.6507L54.7313 13.1778C53.3715 11.8169 51.5266 11.0522 49.6028 11.0522C47.679 11.0522 45.8341 11.8169 44.4743 13.1778L23.2004 34.4613L19.632 30.8841C16.7981 28.0537 12.2074 28.0537 9.37352 30.8841L1.28996 38.9897C0.047666 40.2293 -0.325472 42.0953 0.344587 43.7173C1.01465 45.3394 2.5959 46.3979 4.35084 46.3993ZM3.33586 41.0342L11.4252 32.9271C12.2411 32.1103 13.3483 31.6513 14.5028 31.6513C15.6573 31.6513 16.7644 32.1103 17.5803 32.9271L22.1753 37.5252C22.4472 37.7974 22.8163 37.9504 23.2011 37.9504C23.5859 37.9504 23.955 37.7974 24.227 37.5252L46.5245 15.2238C48.2468 13.5781 50.9588 13.5781 52.6811 15.2238L59.1508 21.6967C60.2985 22.7929 62.1051 22.7929 63.2528 21.6967L76.2169 8.72482C76.782 8.15875 76.782 7.242 76.2169 6.67593L74.1101 4.56905C73.9508 4.4212 73.9004 4.18972 73.984 3.98904C74.0571 3.77585 74.2532 3.62916 74.4784 3.61929L83.8205 2.89862C83.8936 2.89533 83.9645 2.9239 84.0148 2.97693C84.0722 3.03195 84.1029 3.1092 84.0989 3.18863L83.3739 12.5268C83.3581 12.748 83.2147 12.9396 83.007 13.0173C82.7993 13.095 82.5653 13.0444 82.4083 12.8878L80.3073 10.7838C79.7316 10.2397 78.8312 10.2397 78.2556 10.7838L64.2794 24.7809C62.5558 26.4221 59.8478 26.4221 58.1242 24.7809L51.6545 18.308C51.1118 17.7616 50.3729 17.4551 49.6028 17.4569C48.834 17.456 48.0965 17.7618 47.554 18.3066L26.2801 39.5914C24.5576 41.2365 21.8461 41.2365 20.1236 39.5914L16.5523 36.0171C15.42 34.886 13.5855 34.886 12.4532 36.0171L5.37307 43.086C4.80496 43.642 3.89672 43.642 3.32862 43.086C3.05436 42.8195 2.89961 42.4534 2.89961 42.071C2.89961 41.6886 3.05436 41.3225 3.32862 41.056L3.33586 41.0342Z" fill="white"/>
<path d="M57.9995 55.0994C58.0123 48.2715 53.2601 42.3598 46.5892 40.9051C39.9183 39.4503 33.1364 42.8467 30.3054 49.06C27.4744 55.2733 29.3615 62.6199 34.8364 66.6996H34.8001C33.081 66.692 31.5201 67.7019 30.8225 69.2732C30.1249 70.8445 30.4226 72.6796 31.5812 73.9497C30.0731 75.589 30.0731 78.1106 31.5812 79.7498C30.4226 81.02 30.1249 82.8551 30.8225 84.4264C31.5201 85.9977 33.081 87.0076 34.8001 86.9999H52.1997C53.9188 87.0076 55.4796 85.9977 56.1773 84.4264C56.8749 82.8551 56.5772 81.02 55.4186 79.7498C56.9266 78.1106 56.9266 75.589 55.4186 73.9497C56.5772 72.6796 56.8749 70.8445 56.1773 69.2732C55.4796 67.7019 53.9188 66.692 52.1997 66.6996H52.1634C55.8314 63.9715 57.9951 59.6709 57.9995 55.0994ZM53.6496 76.8498C53.6496 77.6506 53.0005 78.2998 52.1997 78.2998H34.8001C33.9993 78.2998 33.3501 77.6506 33.3501 76.8498C33.3501 76.049 33.9993 75.3998 34.8001 75.3998H52.1997C53.0005 75.3998 53.6496 76.049 53.6496 76.8498ZM52.1997 84.0999H34.8001C33.9993 84.0999 33.3501 83.4507 33.3501 82.6499C33.3501 81.8491 33.9993 81.1999 34.8001 81.1999H52.1997C53.0005 81.1999 53.6496 81.8491 53.6496 82.6499C53.6496 83.4507 53.0005 84.0999 52.1997 84.0999ZM52.1997 69.5997C53.0005 69.5997 53.6496 70.2489 53.6496 71.0497C53.6496 71.8505 53.0005 72.4997 52.1997 72.4997H34.8001C33.9993 72.4997 33.3501 71.8505 33.3501 71.0497C33.3501 70.2489 33.9993 69.5997 34.8001 69.5997H52.1997ZM31.9002 55.0994C31.9002 48.6928 37.0935 43.4993 43.4999 43.4993C49.9062 43.4993 55.0996 48.6928 55.0996 55.0994C55.0996 61.5061 49.9062 66.6996 43.4999 66.6996C37.0965 66.6924 31.9074 61.5031 31.9002 55.0994Z" fill="white"/>
<path fill-rule="evenodd" clip-rule="evenodd" d="M43.4999 53.6494C42.7964 53.6487 42.1949 53.1432 42.0732 52.4503C41.9515 51.7574 42.3447 51.0771 43.0058 50.8367C43.667 50.5963 44.4053 50.8651 44.757 51.4744C45.0074 51.9398 45.4912 52.232 46.0196 52.2372C46.5481 52.2424 47.0375 51.9596 47.297 51.4993C47.5564 51.0389 47.5449 50.4738 47.2669 50.0244C46.7412 49.1422 45.9205 48.4745 44.9499 48.1393V47.8493C44.9499 47.0485 44.3007 46.3993 43.4999 46.3993C42.6991 46.3993 42.0499 47.0485 42.0499 47.8493V48.1161C40.054 48.8192 38.8561 50.8594 39.2147 52.945C39.5733 55.0306 41.3838 56.5535 43.4999 56.5495C44.2034 56.5502 44.8049 57.0557 44.9266 57.7486C45.0483 58.4415 44.6551 59.1218 43.994 59.3622C43.3328 59.6026 42.5945 59.3338 42.2428 58.7245C41.8304 58.058 40.963 57.8397 40.2844 58.2318C39.6057 58.6239 39.3615 59.4843 39.7329 60.1745C40.2593 61.0572 41.0811 61.725 42.0528 62.0596V62.3496C42.0528 63.1504 42.702 63.7996 43.5028 63.7996C44.3036 63.7996 44.9528 63.1504 44.9528 62.3496V62.0828C46.9492 61.3795 48.1471 59.3385 47.7878 57.2525C47.4284 55.1664 45.6166 53.644 43.4999 53.6494Z" fill="white"/>
<path d="M72.4992 28.999C66.253 28.9921 60.7061 32.9908 58.7383 38.9192C56.7705 44.8475 58.8252 51.3697 63.8357 55.0994H63.7994C62.0803 55.0918 60.5194 56.1017 59.8218 57.673C59.1242 59.2443 59.4219 61.0794 60.5805 62.3496C59.0724 63.9888 59.0724 66.5104 60.5805 68.1497C59.0724 69.7889 59.0724 72.3105 60.5805 73.9497C59.0724 75.589 59.0724 78.1106 60.5805 79.7498C59.4219 81.02 59.1242 82.8551 59.8218 84.4264C60.5194 85.9977 62.0803 87.0076 63.7994 86.9999H81.199C82.9181 87.0076 84.479 85.9977 85.1766 84.4264C85.8742 82.8551 85.5765 81.02 84.4179 79.7498C85.9259 78.1106 85.9259 75.589 84.4179 73.9497C85.9259 72.3105 85.9259 69.7889 84.4179 68.1497C85.9259 66.5104 85.9259 63.9888 84.4179 62.3496C85.5765 61.0794 85.8742 59.2443 85.1766 57.673C84.479 56.1017 82.9181 55.0918 81.199 55.0994H81.1613C86.1735 51.3707 88.2296 44.848 86.2619 38.9189C84.2941 32.9897 78.7461 28.9908 72.4992 28.999ZM82.649 65.2496C82.649 66.0504 81.9998 66.6996 81.199 66.6996H63.7994C62.9986 66.6996 62.3494 66.0504 62.3494 65.2496C62.3494 64.4488 62.9986 63.7996 63.7994 63.7996H81.199C81.9998 63.7996 82.649 64.4488 82.649 65.2496ZM82.649 71.0497C82.649 71.8505 81.9998 72.4997 81.199 72.4997H63.7994C62.9986 72.4997 62.3494 71.8505 62.3494 71.0497C62.3494 70.2489 62.9986 69.5997 63.7994 69.5997H81.199C81.9998 69.5997 82.649 70.2489 82.649 71.0497ZM82.649 76.8498C82.649 77.6506 81.9998 78.2998 81.199 78.2998H63.7994C62.9986 78.2998 62.3494 77.6506 62.3494 76.8498C62.3494 76.049 62.9986 75.3998 63.7994 75.3998H81.199C81.9998 75.3998 82.649 76.049 82.649 76.8498ZM81.199 84.0999H63.7994C62.9986 84.0999 62.3494 83.4507 62.3494 82.6499C62.3494 81.8491 62.9986 81.1999 63.7994 81.1999H81.199C81.9998 81.1999 82.649 81.8491 82.649 82.6499C82.649 83.4507 81.9998 84.0999 81.199 84.0999ZM81.199 57.9995C81.9998 57.9995 82.649 58.6487 82.649 59.4495C82.649 60.2503 81.9998 60.8995 81.199 60.8995H63.7994C62.9986 60.8995 62.3494 60.2503 62.3494 59.4495C62.3494 58.6487 62.9986 57.9995 63.7994 57.9995H81.199ZM72.4992 55.0994C66.0928 55.0994 60.8995 49.9059 60.8995 43.4993C60.8995 37.0927 66.0928 31.8991 72.4992 31.8991C78.9055 31.8991 84.0989 37.0927 84.0989 43.4993C84.0917 49.9029 78.9026 55.0923 72.4992 55.0994Z" fill="white"/>
<path fill-rule="evenodd" clip-rule="evenodd" d="M72.4992 42.0492C71.7957 42.0486 71.1942 41.543 71.0725 40.8501C70.9508 40.1572 71.344 39.4769 72.0051 39.2365C72.6663 38.9961 73.4046 39.265 73.7563 39.8742C74.1687 40.5408 75.036 40.759 75.7147 40.3669C76.3933 39.9748 76.6376 39.1144 76.2662 38.4242C75.7412 37.5415 74.9202 36.8735 73.9492 36.5392V36.2492C73.9492 35.4483 73.3 34.7991 72.4992 34.7991C71.6984 34.7991 71.0492 35.4483 71.0492 36.2492V36.516C69.0533 37.219 67.8554 39.2592 68.214 41.3448C68.5726 43.4304 70.3831 44.9533 72.4992 44.9493C73.2027 44.95 73.8042 45.4555 73.9259 46.1484C74.0476 46.8413 73.6544 47.5217 72.9933 47.7621C72.3321 48.0024 71.5938 47.7336 71.2421 47.1243C70.8297 46.4578 69.9623 46.2396 69.2837 46.6316C68.605 47.0237 68.3608 47.8841 68.7322 48.5743C69.2579 49.4576 70.08 50.1256 71.0521 50.4594V50.7494C71.0521 51.5502 71.7013 52.1994 72.5021 52.1994C73.3029 52.1994 73.9521 51.5502 73.9521 50.7494V50.4826C75.9485 49.7794 77.1465 47.7383 76.7871 45.6523C76.4277 43.5663 74.6159 42.0438 72.4992 42.0492Z" fill="white"/>
<path d="M5.83705 78.2998H5.80081C3.39842 78.2998 1.45091 80.2474 1.45091 82.6499C1.45091 85.0524 3.39842 86.9999 5.80081 86.9999H23.2004C25.6028 86.9999 27.5503 85.0524 27.5503 82.6499C27.5503 80.2474 25.6028 78.2998 23.2004 78.2998H23.1641C28.1754 74.5656 30.2303 68.0407 28.2633 62.1086C26.2963 56.1766 20.75 52.1723 14.5006 52.1723C8.25118 52.1723 2.70487 56.1766 0.73788 62.1086C-1.2291 68.0407 0.825838 74.5656 5.83705 78.2998ZM23.2004 81.1999C24.0012 81.1999 24.6503 81.8491 24.6503 82.6499C24.6503 83.4507 24.0012 84.0999 23.2004 84.0999H5.80081C5.00001 84.0999 4.35084 83.4507 4.35084 82.6499C4.35084 81.8491 5.00001 81.1999 5.80081 81.1999H23.2004ZM14.5006 55.0994C20.9069 55.0994 26.1003 60.293 26.1003 66.6996C26.1003 73.1062 20.9069 78.2998 14.5006 78.2998C8.09425 78.2998 2.90088 73.1062 2.90088 66.6996C2.90807 60.296 8.09723 55.1066 14.5006 55.0994Z" fill="white"/>
<path fill-rule="evenodd" clip-rule="evenodd" d="M14.5006 68.1497C15.2041 68.1503 15.8056 68.6559 15.9273 69.3488C16.049 70.0417 15.6558 70.722 14.9947 70.9624C14.3335 71.2028 13.5952 70.9339 13.2435 70.3247C12.9931 69.8593 12.5093 69.567 11.9809 69.5619C11.4524 69.5567 10.963 69.8394 10.7035 70.2998C10.444 70.7602 10.4556 71.3253 10.7336 71.7747C11.26 72.6574 12.0818 73.3252 13.0535 73.6597V73.9497C13.0535 74.7506 13.7027 75.3998 14.5035 75.3998C15.3043 75.3998 15.9535 74.7506 15.9535 73.9497V73.6829C17.9499 72.9797 19.1479 70.9387 18.7885 68.8527C18.4291 66.7666 16.6173 65.2442 14.5006 65.2496C13.7971 65.2489 13.1956 64.7433 13.0739 64.0505C12.9522 63.3575 13.3454 62.6772 14.0065 62.4368C14.6677 62.1964 15.406 62.4653 15.7577 63.0746C16.0081 63.5399 16.4919 63.8322 17.0203 63.8374C17.5488 63.8426 18.0382 63.5598 18.2977 63.0994C18.5571 62.6391 18.5456 62.074 18.2676 61.6245C17.742 60.7424 16.9212 60.0747 15.9506 59.7395V59.4495C15.9506 58.6487 15.3014 57.9995 14.5006 57.9995C13.6998 57.9995 13.0506 58.6487 13.0506 59.4495V59.7163C11.0547 60.4194 9.8568 62.4595 10.2154 64.5452C10.574 66.6308 12.3845 68.1537 14.5006 68.1497Z" fill="white"/>
</svg>
