<svg width="165" height="15" viewBox="0 0 165 15" fill="none" xmlns="http://www.w3.org/2000/svg">
<path d="M3.59727 7.52497C4.90733 7.52497 6.2174 7.43741 7.52132 7.38964L9.11431 7.29412L16.1444 6.84036C18.9244 6.65461 21.725 6.46356 24.546 6.26719L36.5519 5.39949L39.3012 5.23231L46.2944 4.77856L53.2875 4.38053C54.204 4.3248 55.1327 4.25316 56.0307 4.21335L67.1878 3.7596L74.0518 3.48098C74.9436 3.48098 75.8416 3.39341 76.7396 3.37749L87.5215 3.18643L98.1681 2.97946C99.1091 2.97946 100.013 2.97946 100.979 2.97946L107.929 2.93965L118.723 2.85209H122.26H129.64H130.255C124.704 2.94761 119.152 3.04845 113.6 3.15459L106.668 3.34565C105.672 3.34565 104.669 3.34565 103.667 3.40137L93.6044 3.75164L81.9737 4.15763C81.3217 4.15763 80.6698 4.22927 80.024 4.26908L73.8242 4.64323L61.2586 5.39153C60.6436 5.39153 60.0285 5.47909 59.4135 5.53482L53.2629 6.0841L42.2781 7.07122C41.2694 7.15879 40.2607 7.28615 39.252 7.3976L32.2158 8.19367L23.2667 9.14098L10.8242 10.55L7.83499 10.8844C6.05134 11.0834 4.27383 11.3779 2.49632 11.6327C2.44681 11.6241 2.39645 11.6294 2.34863 11.6481C2.30081 11.6667 2.25663 11.6984 2.21905 11.741C2.18147 11.7836 2.15135 11.8361 2.13071 11.895C2.11008 11.9539 2.0994 12.0178 2.0994 12.0824C2.0994 12.1471 2.11008 12.211 2.13071 12.2699C2.15135 12.3287 2.18147 12.3812 2.21905 12.4238C2.25663 12.4664 2.30081 12.4981 2.34863 12.5168C2.39645 12.5355 2.44681 12.5408 2.49632 12.5322L4.44604 12.6437C4.36221 12.8613 4.31803 13.101 4.31688 13.3442C4.3185 13.7827 4.4538 14.2026 4.69337 14.5127C4.93294 14.8228 5.2574 14.9979 5.5962 15C10.6827 14.586 15.7692 14.1403 20.8619 13.8298L34.1224 13.0337L48.7792 12.1342L53.3983 11.8476C53.8411 11.8476 54.2839 11.7839 54.7268 11.768L78.3449 10.9719L90.9658 10.5421C92.4911 10.4943 94.0103 10.4465 95.5295 10.4147L119.683 9.92908L130.034 9.71415C132.98 9.65046 135.926 9.62658 138.872 9.48329L146.173 9.12506C147.403 9.06933 148.633 9.02953 149.814 8.934L158.087 8.20959C157.933 8.55687 157.891 8.9688 157.97 9.35592C158.049 9.73117 158.239 10.0512 158.499 10.2475C158.63 10.3501 158.777 10.4164 158.929 10.4424C159.082 10.4685 159.237 10.4536 159.384 10.3988C160 10.0883 160.615 9.76987 161.187 9.44348H161.15L161.279 9.37184L161.433 9.28427H161.377L162.331 8.76683L163.333 8.21755C163.69 8.01057 164.04 7.76379 164.385 7.52497C164.575 7.37576 164.731 7.16518 164.839 6.91394C164.947 6.6627 165.002 6.37945 165 6.09206C164.999 5.73106 164.908 5.38012 164.739 5.0927C164.57 4.80528 164.334 4.59713 164.065 4.49994C163.751 4.42829 163.45 4.37257 163.136 4.3248H162.927C162.718 4.3248 162.503 4.3248 162.312 4.38053C161.845 4.38053 161.377 4.51586 160.91 4.55566L159.76 4.66711L156.684 4.95369L155.885 5.02534C155.981 4.88246 156.053 4.71402 156.094 4.53178C156.142 4.38828 156.169 4.2344 156.174 4.07802L156.211 3.73572C156.209 3.59152 156.189 3.44875 156.149 3.3138L156.229 3.26604C156.421 3.12025 156.582 2.91508 156.697 2.66899C156.799 2.41873 156.854 2.14031 156.857 1.85701C156.854 1.56068 156.792 1.27026 156.678 1.01318L156.475 0.678836C156.317 0.473124 156.12 0.324878 155.903 0.248962C155.509 0.0687457 155.091 -0.0149358 154.673 0.00218309C154.335 0.00218309 153.984 0.00218309 153.646 0.0419862H152.158C151.456 0.0419862 150.761 0.0419862 150.06 0.0419862H144.525C142.784 0.0419862 141.044 0.0419862 139.303 0.0419862H134.555C128.244 0.0419862 121.94 0.0897499 115.629 0.169356L101.434 0.455939C99.3182 0.455939 97.2086 0.519624 95.0928 0.583309L80.8727 0.973379L76.8195 1.08483C76.0323 1.08483 75.2511 1.15647 74.4639 1.19628L60.4099 1.88089L56.1045 2.09583C55.3049 2.13563 54.4992 2.19932 53.6996 2.25504L39.7625 3.22624C37.3576 3.39341 34.9589 3.58446 32.554 3.77552L20.2222 4.77856C16.661 5.06514 13.0999 5.31988 9.5387 5.57462L7.8473 5.70199L5.1103 5.89305C4.29843 5.94081 3.48656 5.96469 2.65008 5.94081C2.61163 5.80176 2.54057 5.68175 2.44684 5.59754C2.3531 5.51333 2.24138 5.46913 2.12729 5.47113C1.60449 5.52686 1.08169 5.5985 0.558897 5.67015C0.437411 5.6809 0.321125 5.73808 0.22477 5.83444C0.128416 5.93081 0.0563314 6.06203 0.0176488 6.21147C-0.0196864 6.40147 0.00273188 6.60289 0.0799858 6.77153C0.15724 6.94017 0.28302 7.06226 0.429735 7.11102L1.11245 7.318C1.33943 7.37862 1.56977 7.41588 1.80131 7.42945C2.39791 7.50109 3.00066 7.51701 3.59727 7.52497ZM147.52 4.96961H149.814C149.881 5.1914 149.986 5.39028 150.122 5.55074C149.827 5.58258 149.531 5.60646 149.236 5.62238L147.563 5.70199L140.25 6.0443C139.137 6.10002 138.024 6.17963 136.91 6.20351L131.689 6.307L119.757 6.55378L96.5936 7.03141C91.0581 7.14286 85.5226 7.36576 79.9871 7.55682L55.0404 8.4086C53.3736 8.47229 51.7007 8.60762 50.0339 8.71111L35.8507 9.59474L21.932 10.4545L20.6404 10.5341L24.3923 10.152L37.4991 8.8544L42.0751 8.40064L44.4369 8.20959L58.0665 7.16675C58.9522 7.0951 59.8379 7.00753 60.7297 6.95977L64.5984 6.74483L78.6524 6.03634L81.7277 5.88508C81.9983 5.88508 82.2689 5.88508 82.5457 5.88508L84.7168 5.82936L98.7954 5.45521C100.954 5.39949 103.101 5.3358 105.278 5.31192C112.259 5.24027 119.234 5.14475 126.19 5.10494C133.306 5.04126 140.416 4.97757 147.526 4.96961H147.52Z" fill="#FFCD1F"/>
</svg>
