<svg width="9" height="17" viewBox="0 0 9 17" fill="none" xmlns="http://www.w3.org/2000/svg">
<path d="M0.329061 0.355847C0.519572 0.150147 0.772143 0.0250799 1.04085 0.00338491C1.30955 -0.0183101 1.57655 0.0648077 1.79329 0.237626L1.91931 0.355847L8.67035 7.64341C8.86091 7.84906 8.97677 8.12171 8.99686 8.41177C9.01696 8.70182 8.93996 8.99004 8.77987 9.224L8.67035 9.36004L1.91931 16.6476C1.71828 16.8629 1.44942 16.9885 1.1664 16.9992C0.883378 17.01 0.607007 16.9052 0.392444 16.7056C0.17788 16.5061 0.0409044 16.2266 0.00885552 15.9229C-0.0231933 15.6191 0.0520412 15.3135 0.219544 15.067L0.329061 14.931L6.28498 8.50172L0.329061 2.07247C0.118352 1.84474 0 1.53603 0 1.21416C0 0.892292 0.118352 0.583584 0.329061 0.355847Z" fill="#4F536C"/>
</svg>
