<svg width="17" height="9" viewBox="0 0 17 9" fill="none" xmlns="http://www.w3.org/2000/svg">
<path d="M0.355847 8.67094C0.150147 8.48043 0.0250799 8.22786 0.00338492 7.95915C-0.0183101 7.69045 0.0648077 7.42345 0.237626 7.20671L0.355847 7.08069L7.64341 0.32965C7.84906 0.139094 8.12171 0.0232336 8.41176 0.00313577C8.70182 -0.016962 8.99004 0.060038 9.224 0.220134L9.36004 0.32965L16.6476 7.08069C16.8629 7.28172 16.9885 7.55058 16.9992 7.8336C17.01 8.11662 16.9052 8.39299 16.7056 8.60756C16.5061 8.82212 16.2266 8.9591 15.9229 8.99114C15.6191 9.02319 15.3135 8.94796 15.067 8.78046L14.931 8.67094L8.50172 2.71502L2.07247 8.67094C1.84474 8.88165 1.53603 9 1.21416 9C0.892292 9 0.583584 8.88165 0.355847 8.67094Z" fill="white"/>
</svg>
