<svg width="57" height="49" viewBox="0 0 57 49" fill="none" xmlns="http://www.w3.org/2000/svg">
<path d="M1.82963 32.5669C4.43045 36.4308 16.5533 32.9685 28.9067 24.8336C41.2601 16.6988 49.1662 6.97194 46.5654 3.10807C43.9646 -0.755799 31.8417 2.7065 19.4883 10.8413C7.13487 18.9762 -0.771184 28.703 1.82963 32.5669Z" stroke="#41FF31" stroke-width="1.5" stroke-miterlimit="10"/>
<path d="M6.33049 39.2535C8.93131 43.1174 21.0541 39.6551 33.4076 31.5203C45.761 23.3854 53.667 13.6586 51.0662 9.79471C48.4654 5.93084 36.3426 9.39313 23.9892 17.528C11.6357 25.6628 3.72967 35.3897 6.33049 39.2535Z" stroke="#41FF31" stroke-width="1.5" stroke-miterlimit="10"/>
<path d="M10.833 45.9426C13.4338 49.8065 25.5566 46.3442 37.9101 38.2094C50.2635 30.0745 58.1696 20.3477 55.5687 16.4838C52.9679 12.6199 40.8451 16.0822 28.4917 24.2171C16.1382 32.3519 8.23218 42.0788 10.833 45.9426Z" stroke="#41FF31" stroke-width="1.5" stroke-miterlimit="10"/>
</svg>
