<svg width="271" height="180" viewBox="0 0 271 180" fill="none" xmlns="http://www.w3.org/2000/svg">
<path d="M138.205 -103.77C113.965 -127.313 88.9794 -134.906 67.8389 -136.194C37.5061 -138.039 10.2274 -127.639 3.16923 -94.2645C1.8363 -87.9442 1.31516 -80.4124 4.28823 -71.5386C8.92856 -57.6939 20.3752 -45.1636 30.7688 -35.883C56.6595 -12.7551 82.9808 1.85556 108.521 14.534C132.309 26.3452 155.84 36.7954 179.113 45.8847C197.275 52.9951 215.603 59.2764 230.862 57.8865C233.044 57.6832 235.331 57.1172 235.552 54.2785C235.619 52.3902 235.01 50.0496 233.852 47.7414C229.218 38.0662 220.345 32.6886 213.424 30.0941C178.59 17.1548 151.953 29.3638 133.014 50.1977C126.936 56.8955 121.309 65.3877 123.071 79.6242C125.42 98.7441 141.026 122.524 156.767 136.419C172.507 150.314 188.239 156.361 203.079 161.063C240.507 172.875 276.082 178.391 309.039 177.491" stroke="#2FB4FF" stroke-width="3" stroke-miterlimit="10"/>
</svg>
