<svg width="199" height="65" viewBox="0 0 199 65" fill="none" xmlns="http://www.w3.org/2000/svg">
<rect x="1.30437" y="0.7" width="196.996" height="62.697" rx="7.3" stroke="#413851" stroke-width="1.4"/>
<path d="M42.6186 42.8731C41.1863 44.9189 39.6677 46.9153 37.3553 46.9483C35.0429 46.9978 34.3009 45.6449 31.6778 45.6449C29.0376 45.6449 28.2265 46.9153 26.0349 46.9978C23.7743 47.0803 22.0659 44.82 20.6163 42.8236C17.6654 38.7484 15.4048 31.2414 18.442 26.1927C19.9433 23.6849 22.6353 22.101 25.5517 22.0515C27.7606 22.0185 29.8659 23.4869 31.2292 23.4869C32.5752 23.4869 35.1292 21.7215 37.804 21.9855C38.9256 22.035 42.0664 22.4144 44.0854 25.2523C43.9301 25.3512 40.3407 27.3641 40.3752 31.5383C40.427 36.521 44.9482 38.1874 45 38.2039C44.9482 38.3194 44.2752 40.5797 42.6186 42.8731ZM32.765 16.4748C34.0247 15.1054 36.1128 14.066 37.8385 14C38.0628 15.9304 37.2517 17.8772 36.0438 19.2632C34.8531 20.6656 32.8858 21.7545 30.9531 21.606C30.6942 19.7086 31.6606 17.7288 32.765 16.4748Z" fill="white"/>
<path d="M68.3402 23.8394V22.9794H70.2702C70.7835 22.9794 71.2335 22.8694 71.6202 22.6494C72.0069 22.4227 72.3069 22.1127 72.5202 21.7194C72.7402 21.326 72.8502 20.8727 72.8502 20.3594C72.8502 19.8527 72.7402 19.4027 72.5202 19.0094C72.3002 18.616 71.9969 18.3094 71.6102 18.0894C71.2235 17.8694 70.7769 17.7594 70.2702 17.7594H68.3502V16.8994H70.2902C70.7969 16.8994 71.2635 16.986 71.6902 17.1594C72.1235 17.3327 72.4969 17.576 72.8102 17.8894C73.1302 18.2027 73.3769 18.5694 73.5502 18.9894C73.7302 19.4094 73.8202 19.8694 73.8202 20.3694C73.8202 20.8627 73.7302 21.3227 73.5502 21.7494C73.3769 22.1694 73.1335 22.536 72.8202 22.8494C72.5069 23.1627 72.1335 23.406 71.7002 23.5794C71.2735 23.7527 70.8102 23.8394 70.3102 23.8394H68.3402ZM67.7202 23.8394V16.8994H68.6602V23.8394H67.7202ZM77.2325 23.9394C76.7659 23.9394 76.3459 23.8294 75.9725 23.6094C75.5992 23.3894 75.3025 23.0927 75.0825 22.7194C74.8625 22.3394 74.7525 21.916 74.7525 21.4494C74.7525 20.9894 74.8625 20.576 75.0825 20.2094C75.3025 19.836 75.5992 19.5394 75.9725 19.3194C76.3459 19.0994 76.7659 18.9894 77.2325 18.9894C77.6925 18.9894 78.1092 19.0994 78.4825 19.3194C78.8625 19.5327 79.1625 19.826 79.3825 20.1994C79.6025 20.5727 79.7125 20.9894 79.7125 21.4494C79.7125 21.916 79.6025 22.3394 79.3825 22.7194C79.1625 23.0927 78.8625 23.3894 78.4825 23.6094C78.1092 23.8294 77.6925 23.9394 77.2325 23.9394ZM77.2325 23.0694C77.5325 23.0694 77.7992 22.9994 78.0325 22.8594C78.2659 22.7194 78.4492 22.5294 78.5825 22.2894C78.7159 22.0427 78.7825 21.7627 78.7825 21.4494C78.7825 21.1427 78.7125 20.8694 78.5725 20.6294C78.4392 20.3894 78.2559 20.2027 78.0225 20.0694C77.7959 19.9294 77.5325 19.8594 77.2325 19.8594C76.9325 19.8594 76.6659 19.9294 76.4325 20.0694C76.1992 20.2027 76.0159 20.3894 75.8825 20.6294C75.7492 20.8694 75.6825 21.1427 75.6825 21.4494C75.6825 21.7627 75.7492 22.0427 75.8825 22.2894C76.0159 22.5294 76.1992 22.7194 76.4325 22.8594C76.6659 22.9994 76.9325 23.0694 77.2325 23.0694ZM82.0499 23.8394L80.1699 19.0894H81.1099L82.4699 22.7894H82.1699L83.5199 19.0894H84.0399L85.3899 22.7894H85.0899L86.4499 19.0894H87.3899L85.5199 23.8394H84.9899L83.6199 20.2494H83.9499L82.5699 23.8394H82.0499ZM91.6499 23.8394V21.0694C91.6499 20.7094 91.5365 20.4127 91.3099 20.1794C91.0832 19.946 90.7899 19.8294 90.4299 19.8294C90.1899 19.8294 89.9765 19.8827 89.7899 19.9894C89.6032 20.096 89.4565 20.2427 89.3499 20.4294C89.2432 20.616 89.1899 20.8294 89.1899 21.0694L88.8199 20.8594C88.8199 20.4994 88.8999 20.1794 89.0599 19.8994C89.2199 19.6194 89.4432 19.3994 89.7299 19.2394C90.0165 19.0727 90.3399 18.9894 90.6999 18.9894C91.0599 18.9894 91.3765 19.0794 91.6499 19.2594C91.9299 19.4394 92.1499 19.676 92.3099 19.9694C92.4699 20.256 92.5499 20.5627 92.5499 20.8894V23.8394H91.6499ZM88.2899 23.8394V19.0894H89.1899V23.8394H88.2899ZM93.8684 23.8394V16.6994H94.7684V23.8394H93.8684ZM98.3552 23.9394C97.8885 23.9394 97.4685 23.8294 97.0952 23.6094C96.7219 23.3894 96.4252 23.0927 96.2052 22.7194C95.9852 22.3394 95.8752 21.916 95.8752 21.4494C95.8752 20.9894 95.9852 20.576 96.2052 20.2094C96.4252 19.836 96.7219 19.5394 97.0952 19.3194C97.4685 19.0994 97.8885 18.9894 98.3552 18.9894C98.8152 18.9894 99.2319 19.0994 99.6052 19.3194C99.9852 19.5327 100.285 19.826 100.505 20.1994C100.725 20.5727 100.835 20.9894 100.835 21.4494C100.835 21.916 100.725 22.3394 100.505 22.7194C100.285 23.0927 99.9852 23.3894 99.6052 23.6094C99.2319 23.8294 98.8152 23.9394 98.3552 23.9394ZM98.3552 23.0694C98.6552 23.0694 98.9219 22.9994 99.1552 22.8594C99.3885 22.7194 99.5719 22.5294 99.7052 22.2894C99.8385 22.0427 99.9052 21.7627 99.9052 21.4494C99.9052 21.1427 99.8352 20.8694 99.6952 20.6294C99.5619 20.3894 99.3785 20.2027 99.1452 20.0694C98.9185 19.9294 98.6552 19.8594 98.3552 19.8594C98.0552 19.8594 97.7885 19.9294 97.5552 20.0694C97.3219 20.2027 97.1385 20.3894 97.0052 20.6294C96.8719 20.8694 96.8052 21.1427 96.8052 21.4494C96.8052 21.7627 96.8719 22.0427 97.0052 22.2894C97.1385 22.5294 97.3219 22.7194 97.5552 22.8594C97.7885 22.9994 98.0552 23.0694 98.3552 23.0694ZM103.969 23.9394C103.536 23.9394 103.143 23.8327 102.789 23.6194C102.436 23.3994 102.156 23.1027 101.949 22.7294C101.749 22.356 101.649 21.936 101.649 21.4694C101.649 21.0027 101.749 20.5827 101.949 20.2094C102.156 19.836 102.433 19.5394 102.779 19.3194C103.133 19.0994 103.529 18.9894 103.969 18.9894C104.329 18.9894 104.649 19.066 104.929 19.2194C105.216 19.366 105.446 19.5727 105.619 19.8394C105.793 20.0994 105.889 20.4027 105.909 20.7494V22.1794C105.889 22.5194 105.793 22.8227 105.619 23.0894C105.453 23.356 105.226 23.566 104.939 23.7194C104.659 23.866 104.336 23.9394 103.969 23.9394ZM104.119 23.0894C104.566 23.0894 104.926 22.9394 105.199 22.6394C105.473 22.3327 105.609 21.9427 105.609 21.4694C105.609 21.1427 105.546 20.8594 105.419 20.6194C105.299 20.3727 105.126 20.1827 104.899 20.0494C104.673 19.9094 104.409 19.8394 104.109 19.8394C103.809 19.8394 103.543 19.9094 103.309 20.0494C103.083 20.1894 102.903 20.3827 102.769 20.6294C102.643 20.8694 102.579 21.146 102.579 21.4594C102.579 21.7794 102.643 22.0627 102.769 22.3094C102.903 22.5494 103.086 22.7394 103.319 22.8794C103.553 23.0194 103.819 23.0894 104.119 23.0894ZM105.549 23.8394V22.5594L105.719 21.3994L105.549 20.2494V19.0894H106.459V23.8394H105.549ZM109.88 23.9394C109.44 23.9394 109.046 23.8327 108.7 23.6194C108.353 23.3994 108.076 23.1027 107.87 22.7294C107.67 22.356 107.57 21.936 107.57 21.4694C107.57 21.0027 107.67 20.5827 107.87 20.2094C108.076 19.836 108.353 19.5394 108.7 19.3194C109.046 19.0994 109.44 18.9894 109.88 18.9894C110.233 18.9894 110.553 19.066 110.84 19.2194C111.126 19.366 111.356 19.5727 111.53 19.8394C111.71 20.0994 111.81 20.4027 111.83 20.7494V22.1794C111.81 22.5194 111.713 22.8227 111.54 23.0894C111.366 23.356 111.136 23.566 110.85 23.7194C110.563 23.866 110.24 23.9394 109.88 23.9394ZM110.03 23.0894C110.33 23.0894 110.59 23.0194 110.81 22.8794C111.036 22.7394 111.213 22.5494 111.34 22.3094C111.466 22.0627 111.53 21.7827 111.53 21.4694C111.53 21.1427 111.463 20.8594 111.33 20.6194C111.203 20.3794 111.026 20.1894 110.8 20.0494C110.58 19.9094 110.32 19.8394 110.02 19.8394C109.72 19.8394 109.456 19.9094 109.23 20.0494C109.003 20.1894 108.823 20.3827 108.69 20.6294C108.563 20.8694 108.5 21.146 108.5 21.4594C108.5 21.7794 108.563 22.0627 108.69 22.3094C108.823 22.5494 109.003 22.7394 109.23 22.8794C109.463 23.0194 109.73 23.0894 110.03 23.0894ZM112.38 23.8394H111.47V22.5594L111.64 21.3994L111.47 20.2494V16.6994H112.38V23.8394ZM119.29 23.9394C118.797 23.9394 118.337 23.8494 117.91 23.6694C117.483 23.4827 117.11 23.226 116.79 22.8994C116.47 22.566 116.22 22.1827 116.04 21.7494C115.867 21.316 115.78 20.8527 115.78 20.3594C115.78 19.8594 115.867 19.396 116.04 18.9694C116.22 18.536 116.467 18.156 116.78 17.8294C117.1 17.5027 117.47 17.2494 117.89 17.0694C118.317 16.8894 118.777 16.7994 119.27 16.7994C119.763 16.7994 120.22 16.8894 120.64 17.0694C121.067 17.2494 121.44 17.5027 121.76 17.8294C122.08 18.156 122.33 18.536 122.51 18.9694C122.69 19.4027 122.78 19.8694 122.78 20.3694C122.78 20.8627 122.69 21.326 122.51 21.7594C122.33 22.1927 122.08 22.5727 121.76 22.8994C121.447 23.226 121.077 23.4827 120.65 23.6694C120.23 23.8494 119.777 23.9394 119.29 23.9394ZM119.27 23.0394C119.77 23.0394 120.207 22.926 120.58 22.6994C120.96 22.466 121.26 22.1494 121.48 21.7494C121.7 21.3427 121.81 20.8794 121.81 20.3594C121.81 19.9727 121.747 19.6194 121.62 19.2994C121.493 18.9727 121.317 18.6894 121.09 18.4494C120.863 18.2094 120.597 18.026 120.29 17.8994C119.983 17.766 119.643 17.6994 119.27 17.6994C118.777 17.6994 118.34 17.8127 117.96 18.0394C117.587 18.266 117.29 18.5794 117.07 18.9794C116.857 19.3794 116.75 19.8394 116.75 20.3594C116.75 20.746 116.81 21.106 116.93 21.4394C117.057 21.766 117.23 22.0494 117.45 22.2894C117.677 22.5227 117.943 22.706 118.25 22.8394C118.563 22.9727 118.903 23.0394 119.27 23.0394ZM127.369 23.8394V21.0694C127.369 20.7094 127.256 20.4127 127.029 20.1794C126.803 19.946 126.509 19.8294 126.149 19.8294C125.909 19.8294 125.696 19.8827 125.509 19.9894C125.323 20.096 125.176 20.2427 125.069 20.4294C124.963 20.616 124.909 20.8294 124.909 21.0694L124.539 20.8594C124.539 20.4994 124.619 20.1794 124.779 19.8994C124.939 19.6194 125.163 19.3994 125.449 19.2394C125.736 19.0727 126.059 18.9894 126.419 18.9894C126.779 18.9894 127.096 19.0794 127.369 19.2594C127.649 19.4394 127.869 19.676 128.029 19.9694C128.189 20.256 128.269 20.5627 128.269 20.8894V23.8394H127.369ZM124.009 23.8394V19.0894H124.909V23.8394H124.009ZM133.612 23.8394V17.0994H134.552V23.8394H133.612ZM131.252 17.7594V16.8994H136.902V17.7594H131.252ZM141.322 23.8394V21.0694C141.322 20.7094 141.208 20.4127 140.982 20.1794C140.755 19.946 140.462 19.8294 140.102 19.8294C139.862 19.8294 139.648 19.8827 139.462 19.9894C139.275 20.096 139.128 20.2427 139.022 20.4294C138.915 20.616 138.862 20.8294 138.862 21.0694L138.492 20.8594C138.492 20.4994 138.572 20.1794 138.732 19.8994C138.892 19.6194 139.115 19.3994 139.402 19.2394C139.688 19.0727 140.012 18.9894 140.372 18.9894C140.732 18.9894 141.048 19.0694 141.322 19.2294C141.602 19.3894 141.822 19.6127 141.982 19.8994C142.142 20.186 142.222 20.516 142.222 20.8894V23.8394H141.322ZM137.962 23.8394V16.6994H138.862V23.8394H137.962ZM145.74 23.9394C145.267 23.9394 144.84 23.8327 144.46 23.6194C144.08 23.3994 143.78 23.1027 143.56 22.7294C143.34 22.356 143.23 21.9327 143.23 21.4594C143.23 20.9927 143.337 20.5727 143.55 20.1994C143.77 19.826 144.064 19.5327 144.43 19.3194C144.804 19.0994 145.22 18.9894 145.68 18.9894C146.12 18.9894 146.507 19.0894 146.84 19.2894C147.18 19.4894 147.444 19.766 147.63 20.1194C147.824 20.4727 147.92 20.8727 147.92 21.3194C147.92 21.386 147.917 21.4594 147.91 21.5394C147.904 21.6127 147.89 21.6994 147.87 21.7994H143.86V21.0494H147.39L147.06 21.3394C147.06 21.0194 147.004 20.7494 146.89 20.5294C146.777 20.3027 146.617 20.1294 146.41 20.0094C146.204 19.8827 145.954 19.8194 145.66 19.8194C145.354 19.8194 145.084 19.886 144.85 20.0194C144.617 20.1527 144.437 20.3394 144.31 20.5794C144.184 20.8194 144.12 21.1027 144.12 21.4294C144.12 21.7627 144.187 22.056 144.32 22.3094C144.454 22.556 144.644 22.7494 144.89 22.8894C145.137 23.0227 145.42 23.0894 145.74 23.0894C146.007 23.0894 146.25 23.0427 146.47 22.9494C146.697 22.856 146.89 22.716 147.05 22.5294L147.63 23.1194C147.404 23.386 147.124 23.5894 146.79 23.7294C146.464 23.8694 146.114 23.9394 145.74 23.9394Z" fill="#9D9CAE"/>
<path d="M63.6082 44.2051L68.7922 31.6051H70.2322L75.3802 44.2051H73.1482L69.1162 33.9991H69.8722L65.8042 44.2051H63.6082ZM66.1642 41.7751V39.9751H72.8422V41.7751H66.1642ZM81.7188 44.3851C81.0588 44.3851 80.4708 44.2471 79.9548 43.9711C79.4388 43.6831 79.0308 43.2931 78.7308 42.8011C78.4428 42.3091 78.2988 41.7511 78.2988 41.1271V38.6431C78.2988 38.0191 78.4488 37.4611 78.7488 36.9691C79.0488 36.4771 79.4568 36.0931 79.9728 35.8171C80.4888 35.5291 81.0708 35.3851 81.7188 35.3851C82.4988 35.3851 83.2008 35.5891 83.8248 35.9971C84.4608 36.3931 84.9588 36.9331 85.3188 37.6171C85.6908 38.2891 85.8768 39.0511 85.8768 39.9031C85.8768 40.7431 85.6908 41.5051 85.3188 42.1891C84.9588 42.8611 84.4608 43.3951 83.8248 43.7911C83.2008 44.1871 82.4988 44.3851 81.7188 44.3851ZM81.3948 42.5131C81.8748 42.5131 82.2948 42.4051 82.6548 42.1891C83.0268 41.9611 83.3148 41.6491 83.5188 41.2531C83.7348 40.8571 83.8428 40.4011 83.8428 39.8851C83.8428 39.3691 83.7348 38.9131 83.5188 38.5171C83.3148 38.1211 83.0268 37.8151 82.6548 37.5991C82.2948 37.3711 81.8748 37.2571 81.3948 37.2571C80.9148 37.2571 80.4888 37.3711 80.1168 37.5991C79.7448 37.8151 79.4568 38.1211 79.2528 38.5171C79.0488 38.9131 78.9468 39.3691 78.9468 39.8851C78.9468 40.4011 79.0488 40.8571 79.2528 41.2531C79.4568 41.6491 79.7448 41.9611 80.1168 42.1891C80.4888 42.4051 80.9148 42.5131 81.3948 42.5131ZM77.0928 47.8051V35.5651H79.0728V37.8871L78.7308 39.9931L79.0728 42.0811V47.8051H77.0928ZM92.3402 44.3851C91.6802 44.3851 91.0922 44.2471 90.5762 43.9711C90.0602 43.6831 89.6522 43.2931 89.3522 42.8011C89.0642 42.3091 88.9202 41.7511 88.9202 41.1271V38.6431C88.9202 38.0191 89.0702 37.4611 89.3702 36.9691C89.6702 36.4771 90.0782 36.0931 90.5942 35.8171C91.1102 35.5291 91.6922 35.3851 92.3402 35.3851C93.1202 35.3851 93.8222 35.5891 94.4462 35.9971C95.0822 36.3931 95.5802 36.9331 95.9402 37.6171C96.3122 38.2891 96.4982 39.0511 96.4982 39.9031C96.4982 40.7431 96.3122 41.5051 95.9402 42.1891C95.5802 42.8611 95.0822 43.3951 94.4462 43.7911C93.8222 44.1871 93.1202 44.3851 92.3402 44.3851ZM92.0162 42.5131C92.4962 42.5131 92.9162 42.4051 93.2762 42.1891C93.6482 41.9611 93.9362 41.6491 94.1402 41.2531C94.3562 40.8571 94.4642 40.4011 94.4642 39.8851C94.4642 39.3691 94.3562 38.9131 94.1402 38.5171C93.9362 38.1211 93.6482 37.8151 93.2762 37.5991C92.9162 37.3711 92.4962 37.2571 92.0162 37.2571C91.5362 37.2571 91.1102 37.3711 90.7382 37.5991C90.3662 37.8151 90.0782 38.1211 89.8742 38.5171C89.6702 38.9131 89.5682 39.3691 89.5682 39.8851C89.5682 40.4011 89.6702 40.8571 89.8742 41.2531C90.0782 41.6491 90.3662 41.9611 90.7382 42.1891C91.1102 42.4051 91.5362 42.5131 92.0162 42.5131ZM87.7142 47.8051V35.5651H89.6942V37.8871L89.3522 39.9931L89.6942 42.0811V47.8051H87.7142ZM98.3356 44.2051V31.2451H100.316V44.2051H98.3356ZM106.713 44.3851C105.849 44.3851 105.069 44.1931 104.373 43.8091C103.689 43.4131 103.143 42.8731 102.735 42.1891C102.339 41.5051 102.141 40.7371 102.141 39.8851C102.141 39.0331 102.339 38.2711 102.735 37.5991C103.131 36.9151 103.665 36.3751 104.337 35.9791C105.021 35.5831 105.777 35.3851 106.605 35.3851C107.409 35.3851 108.117 35.5711 108.729 35.9431C109.353 36.3151 109.839 36.8251 110.187 37.4731C110.547 38.1211 110.727 38.8591 110.727 39.6871C110.727 39.8311 110.715 39.9811 110.691 40.1371C110.679 40.2811 110.655 40.4431 110.619 40.6231H103.527V39.0031H109.593L108.855 39.6511C108.831 39.1231 108.729 38.6791 108.549 38.3191C108.369 37.9591 108.111 37.6831 107.775 37.4911C107.451 37.2991 107.049 37.2031 106.569 37.2031C106.065 37.2031 105.627 37.3111 105.255 37.5271C104.883 37.7431 104.595 38.0491 104.391 38.4451C104.187 38.8291 104.085 39.2911 104.085 39.8311C104.085 40.3711 104.193 40.8451 104.409 41.2531C104.625 41.6611 104.931 41.9791 105.327 42.2071C105.723 42.4231 106.179 42.5311 106.695 42.5311C107.139 42.5311 107.547 42.4531 107.919 42.2971C108.303 42.1411 108.627 41.9131 108.891 41.6131L110.151 42.8911C109.731 43.3831 109.221 43.7551 108.621 44.0071C108.021 44.2591 107.385 44.3851 106.713 44.3851ZM120.058 44.3851C119.062 44.3851 118.216 44.2051 117.52 43.8451C116.824 43.4851 116.2 42.9571 115.648 42.2611L117.052 40.8571C117.4 41.3611 117.814 41.7571 118.294 42.0451C118.774 42.3211 119.386 42.4591 120.13 42.4591C120.826 42.4591 121.378 42.3151 121.786 42.0271C122.206 41.7391 122.416 41.3431 122.416 40.8391C122.416 40.4191 122.308 40.0771 122.092 39.8131C121.876 39.5491 121.588 39.3331 121.228 39.1651C120.88 38.9851 120.49 38.8291 120.058 38.6971C119.638 38.5531 119.212 38.3971 118.78 38.2291C118.36 38.0491 117.97 37.8271 117.61 37.5631C117.262 37.2991 116.98 36.9571 116.764 36.5371C116.548 36.1171 116.44 35.5831 116.44 34.9351C116.44 34.1911 116.62 33.5611 116.98 33.0451C117.352 32.5171 117.85 32.1151 118.474 31.8391C119.098 31.5631 119.794 31.4251 120.562 31.4251C121.39 31.4251 122.128 31.5871 122.776 31.9111C123.436 32.2351 123.97 32.6491 124.378 33.1531L122.974 34.5571C122.614 34.1491 122.236 33.8491 121.84 33.6571C121.456 33.4531 121.012 33.3511 120.508 33.3511C119.884 33.3511 119.392 33.4771 119.032 33.7291C118.684 33.9811 118.51 34.3351 118.51 34.7911C118.51 35.1751 118.618 35.4871 118.834 35.7271C119.05 35.9551 119.332 36.1531 119.68 36.3211C120.04 36.4771 120.43 36.6271 120.85 36.7711C121.282 36.9151 121.708 37.0771 122.128 37.2571C122.56 37.4371 122.95 37.6711 123.298 37.9591C123.658 38.2351 123.946 38.5951 124.162 39.0391C124.378 39.4831 124.486 40.0411 124.486 40.7131C124.486 41.8411 124.084 42.7351 123.28 43.3951C122.488 44.0551 121.414 44.3851 120.058 44.3851ZM127.774 44.2051V31.9651H129.754V44.2051H127.774ZM125.704 37.3651V35.5651H131.824V37.3651H125.704ZM137.157 44.3851C136.317 44.3851 135.555 44.1871 134.871 43.7911C134.187 43.3831 133.641 42.8371 133.233 42.1531C132.837 41.4691 132.639 40.7071 132.639 39.8671C132.639 39.0271 132.837 38.2711 133.233 37.5991C133.641 36.9271 134.187 36.3931 134.871 35.9971C135.555 35.5891 136.317 35.3851 137.157 35.3851C138.009 35.3851 138.777 35.5831 139.461 35.9791C140.145 36.3751 140.685 36.9151 141.081 37.5991C141.489 38.2711 141.693 39.0271 141.693 39.8671C141.693 40.7071 141.489 41.4691 141.081 42.1531C140.685 42.8371 140.145 43.3831 139.461 43.7911C138.777 44.1871 138.009 44.3851 137.157 44.3851ZM137.157 42.4771C137.649 42.4771 138.081 42.3691 138.453 42.1531C138.837 41.9251 139.131 41.6131 139.335 41.2171C139.551 40.8211 139.659 40.3711 139.659 39.8671C139.659 39.3631 139.551 38.9191 139.335 38.5351C139.119 38.1511 138.825 37.8511 138.453 37.6351C138.081 37.4071 137.649 37.2931 137.157 37.2931C136.677 37.2931 136.245 37.4071 135.861 37.6351C135.489 37.8511 135.195 38.1511 134.979 38.5351C134.775 38.9191 134.673 39.3631 134.673 39.8671C134.673 40.3711 134.775 40.8211 134.979 41.2171C135.195 41.6131 135.489 41.9251 135.861 42.1531C136.245 42.3691 136.677 42.4771 137.157 42.4771ZM143.519 44.2051V35.5651H145.499V44.2051H143.519ZM145.499 39.3991L144.815 39.0571C144.815 37.9651 145.055 37.0831 145.535 36.4111C146.027 35.7271 146.765 35.3851 147.749 35.3851C148.181 35.3851 148.571 35.4631 148.919 35.6191C149.267 35.7751 149.591 36.0271 149.891 36.3751L148.595 37.7071C148.439 37.5391 148.265 37.4191 148.073 37.3471C147.881 37.2751 147.659 37.2391 147.407 37.2391C146.855 37.2391 146.399 37.4131 146.039 37.7611C145.679 38.1091 145.499 38.6551 145.499 39.3991ZM154.78 44.3851C153.916 44.3851 153.136 44.1931 152.44 43.8091C151.756 43.4131 151.21 42.8731 150.802 42.1891C150.406 41.5051 150.208 40.7371 150.208 39.8851C150.208 39.0331 150.406 38.2711 150.802 37.5991C151.198 36.9151 151.732 36.3751 152.404 35.9791C153.088 35.5831 153.844 35.3851 154.672 35.3851C155.476 35.3851 156.184 35.5711 156.796 35.9431C157.42 36.3151 157.906 36.8251 158.254 37.4731C158.614 38.1211 158.794 38.8591 158.794 39.6871C158.794 39.8311 158.782 39.9811 158.758 40.1371C158.746 40.2811 158.722 40.4431 158.686 40.6231H151.594V39.0031H157.66L156.922 39.6511C156.898 39.1231 156.796 38.6791 156.616 38.3191C156.436 37.9591 156.178 37.6831 155.842 37.4911C155.518 37.2991 155.116 37.2031 154.636 37.2031C154.132 37.2031 153.694 37.3111 153.322 37.5271C152.95 37.7431 152.662 38.0491 152.458 38.4451C152.254 38.8291 152.152 39.2911 152.152 39.8311C152.152 40.3711 152.26 40.8451 152.476 41.2531C152.692 41.6611 152.998 41.9791 153.394 42.2071C153.79 42.4231 154.246 42.5311 154.762 42.5311C155.206 42.5311 155.614 42.4531 155.986 42.2971C156.37 42.1411 156.694 41.9131 156.958 41.6131L158.218 42.8911C157.798 43.3831 157.288 43.7551 156.688 44.0071C156.088 44.2591 155.452 44.3851 154.78 44.3851Z" fill="white"/>
</svg>
