<svg width="199" height="65" viewBox="0 0 199 65" fill="none" xmlns="http://www.w3.org/2000/svg">
<rect x="0.7" y="0.7" width="196.996" height="62.697" rx="7.3" stroke="#413851" stroke-width="1.4"/>
<path d="M20 47.533V16.467C20 15.3888 20.6321 14.4386 21.5617 14L39.8744 32L21.5617 50C20.6321 49.5431 20 48.6112 20 47.533ZM45.6749 37.7015L25.6704 49.068L41.4546 33.5533L45.6749 37.7015ZM51.9031 29.8254C52.5352 30.3188 53 31.0863 53 32C53 32.9137 52.591 33.6447 51.9403 34.1563L47.6828 36.5685L43.0349 32L47.6828 27.4315L51.9031 29.8254ZM25.6704 14.932L45.6749 26.2985L41.4546 30.4467L25.6704 14.932Z" fill="white"/>
<path d="M73.3618 23.9394C72.8751 23.9394 72.4185 23.8494 71.9918 23.6694C71.5718 23.4827 71.2018 23.226 70.8818 22.8994C70.5685 22.5727 70.3218 22.1927 70.1418 21.7594C69.9618 21.326 69.8718 20.8594 69.8718 20.3594C69.8718 19.8594 69.9618 19.396 70.1418 18.9694C70.3218 18.536 70.5718 18.156 70.8918 17.8294C71.2118 17.5027 71.5851 17.2494 72.0118 17.0694C72.4451 16.8894 72.9151 16.7994 73.4218 16.7994C73.9751 16.7994 74.4851 16.906 74.9518 17.1194C75.4185 17.3327 75.8085 17.6394 76.1218 18.0394L75.4718 18.6894C75.2518 18.3694 74.9618 18.126 74.6018 17.9594C74.2418 17.786 73.8485 17.6994 73.4218 17.6994C72.9151 17.6994 72.4651 17.8127 72.0718 18.0394C71.6851 18.266 71.3818 18.5794 71.1618 18.9794C70.9485 19.3794 70.8418 19.8394 70.8418 20.3594C70.8418 20.886 70.9518 21.3494 71.1718 21.7494C71.3918 22.1494 71.6885 22.4627 72.0618 22.6894C72.4351 22.916 72.8618 23.0294 73.3418 23.0294C73.8285 23.0294 74.2485 22.936 74.6018 22.7494C74.9618 22.5627 75.2385 22.2894 75.4318 21.9294C75.6251 21.5627 75.7218 21.116 75.7218 20.5894L76.2918 20.9994H73.2918V20.1394H76.6918V20.2794C76.6918 21.086 76.5485 21.7627 76.2618 22.3094C75.9818 22.8494 75.5885 23.256 75.0818 23.5294C74.5818 23.8027 74.0085 23.9394 73.3618 23.9394ZM80.0962 23.9394C79.6228 23.9394 79.1962 23.8327 78.8162 23.6194C78.4362 23.3994 78.1362 23.1027 77.9162 22.7294C77.6962 22.356 77.5862 21.9327 77.5862 21.4594C77.5862 20.9927 77.6928 20.5727 77.9062 20.1994C78.1262 19.826 78.4195 19.5327 78.7862 19.3194C79.1595 19.0994 79.5762 18.9894 80.0362 18.9894C80.4762 18.9894 80.8628 19.0894 81.1962 19.2894C81.5362 19.4894 81.7995 19.766 81.9862 20.1194C82.1795 20.4727 82.2762 20.8727 82.2762 21.3194C82.2762 21.386 82.2728 21.4594 82.2662 21.5394C82.2595 21.6127 82.2462 21.6994 82.2262 21.7994H78.2162V21.0494H81.7462L81.4162 21.3394C81.4162 21.0194 81.3595 20.7494 81.2462 20.5294C81.1328 20.3027 80.9728 20.1294 80.7662 20.0094C80.5595 19.8827 80.3095 19.8194 80.0162 19.8194C79.7095 19.8194 79.4395 19.886 79.2062 20.0194C78.9728 20.1527 78.7928 20.3394 78.6662 20.5794C78.5395 20.8194 78.4762 21.1027 78.4762 21.4294C78.4762 21.7627 78.5428 22.056 78.6762 22.3094C78.8095 22.556 78.9995 22.7494 79.2462 22.8894C79.4928 23.0227 79.7762 23.0894 80.0962 23.0894C80.3628 23.0894 80.6062 23.0427 80.8262 22.9494C81.0528 22.856 81.2462 22.716 81.4062 22.5294L81.9862 23.1194C81.7595 23.386 81.4795 23.5894 81.1462 23.7294C80.8195 23.8694 80.4695 23.9394 80.0962 23.9394ZM83.9508 23.8394V17.0994H84.8508V23.8394H83.9508ZM82.7808 19.9094V19.0894H86.0208V19.9094H82.7808ZM89.3425 23.8394V16.8994H90.2825V23.8394H89.3425ZM92.5906 23.8394V17.0994H93.4906V23.8394H92.5906ZM91.4206 19.9094V19.0894H94.6606V19.9094H91.4206ZM101.142 23.9394C100.649 23.9394 100.189 23.8494 99.7624 23.6694C99.3357 23.4827 98.9624 23.226 98.6424 22.8994C98.3224 22.566 98.0724 22.1827 97.8924 21.7494C97.719 21.316 97.6324 20.8527 97.6324 20.3594C97.6324 19.8594 97.719 19.396 97.8924 18.9694C98.0724 18.536 98.319 18.156 98.6324 17.8294C98.9524 17.5027 99.3224 17.2494 99.7424 17.0694C100.169 16.8894 100.629 16.7994 101.122 16.7994C101.616 16.7994 102.072 16.8894 102.492 17.0694C102.919 17.2494 103.292 17.5027 103.612 17.8294C103.932 18.156 104.182 18.536 104.362 18.9694C104.542 19.4027 104.632 19.8694 104.632 20.3694C104.632 20.8627 104.542 21.326 104.362 21.7594C104.182 22.1927 103.932 22.5727 103.612 22.8994C103.299 23.226 102.929 23.4827 102.502 23.6694C102.082 23.8494 101.629 23.9394 101.142 23.9394ZM101.122 23.0394C101.622 23.0394 102.059 22.926 102.432 22.6994C102.812 22.466 103.112 22.1494 103.332 21.7494C103.552 21.3427 103.662 20.8794 103.662 20.3594C103.662 19.9727 103.599 19.6194 103.472 19.2994C103.346 18.9727 103.169 18.6894 102.942 18.4494C102.716 18.2094 102.449 18.026 102.142 17.8994C101.836 17.766 101.496 17.6994 101.122 17.6994C100.629 17.6994 100.192 17.8127 99.8124 18.0394C99.439 18.266 99.1424 18.5794 98.9224 18.9794C98.709 19.3794 98.6024 19.8394 98.6024 20.3594C98.6024 20.746 98.6624 21.106 98.7824 21.4394C98.909 21.766 99.0824 22.0494 99.3024 22.2894C99.529 22.5227 99.7957 22.706 100.102 22.8394C100.416 22.9727 100.756 23.0394 101.122 23.0394ZM109.222 23.8394V21.0694C109.222 20.7094 109.108 20.4127 108.882 20.1794C108.655 19.946 108.362 19.8294 108.002 19.8294C107.762 19.8294 107.548 19.8827 107.362 19.9894C107.175 20.096 107.028 20.2427 106.922 20.4294C106.815 20.616 106.762 20.8294 106.762 21.0694L106.392 20.8594C106.392 20.4994 106.472 20.1794 106.632 19.8994C106.792 19.6194 107.015 19.3994 107.302 19.2394C107.588 19.0727 107.912 18.9894 108.272 18.9894C108.632 18.9894 108.948 19.0794 109.222 19.2594C109.502 19.4394 109.722 19.676 109.882 19.9694C110.042 20.256 110.122 20.5627 110.122 20.8894V23.8394H109.222ZM105.862 23.8394V19.0894H106.762V23.8394H105.862Z" fill="#9D9CAE"/>
<path d="M74.5366 44.18C73.6726 44.18 72.8566 44.012 72.0886 43.676C71.3206 43.34 70.6486 42.878 70.0726 42.29C69.4966 41.69 69.0406 41 68.7046 40.22C68.3806 39.428 68.2186 38.582 68.2186 37.682C68.2186 36.782 68.3806 35.942 68.7046 35.162C69.0406 34.382 69.4966 33.698 70.0726 33.11C70.6606 32.51 71.3446 32.048 72.1246 31.724C72.9166 31.388 73.7686 31.22 74.6806 31.22C75.6766 31.22 76.6006 31.412 77.4526 31.796C78.3046 32.18 79.0186 32.726 79.5946 33.434L78.1906 34.838C77.8186 34.31 77.3206 33.908 76.6966 33.632C76.0726 33.344 75.4006 33.2 74.6806 33.2C73.8166 33.2 73.0546 33.392 72.3946 33.776C71.7466 34.148 71.2426 34.67 70.8826 35.342C70.5226 36.014 70.3426 36.794 70.3426 37.682C70.3426 38.57 70.5226 39.356 70.8826 40.04C71.2546 40.712 71.7526 41.24 72.3766 41.624C73.0006 42.008 73.7086 42.2 74.5006 42.2C75.3406 42.2 76.0606 42.05 76.6606 41.75C77.2726 41.438 77.7406 40.982 78.0646 40.382C78.3886 39.77 78.5506 39.02 78.5506 38.132L79.8466 39.068H74.4646V37.178H80.6926V37.466C80.6926 38.966 80.4226 40.214 79.8826 41.21C79.3546 42.206 78.6286 42.95 77.7046 43.442C76.7806 43.934 75.7246 44.18 74.5366 44.18ZM86.6229 44.18C85.7829 44.18 85.0209 43.982 84.3369 43.586C83.6529 43.178 83.1069 42.632 82.6989 41.948C82.3029 41.264 82.1049 40.502 82.1049 39.662C82.1049 38.822 82.3029 38.066 82.6989 37.394C83.1069 36.722 83.6529 36.188 84.3369 35.792C85.0209 35.384 85.7829 35.18 86.6229 35.18C87.4749 35.18 88.2429 35.378 88.9269 35.774C89.6109 36.17 90.1509 36.71 90.5469 37.394C90.9549 38.066 91.1589 38.822 91.1589 39.662C91.1589 40.502 90.9549 41.264 90.5469 41.948C90.1509 42.632 89.6109 43.178 88.9269 43.586C88.2429 43.982 87.4749 44.18 86.6229 44.18ZM86.6229 42.272C87.1149 42.272 87.5469 42.164 87.9189 41.948C88.3029 41.72 88.5969 41.408 88.8009 41.012C89.0169 40.616 89.1249 40.166 89.1249 39.662C89.1249 39.158 89.0169 38.714 88.8009 38.33C88.5849 37.946 88.2909 37.646 87.9189 37.43C87.5469 37.202 87.1149 37.088 86.6229 37.088C86.1429 37.088 85.7109 37.202 85.3269 37.43C84.9549 37.646 84.6609 37.946 84.4449 38.33C84.2409 38.714 84.1389 39.158 84.1389 39.662C84.1389 40.166 84.2409 40.616 84.4449 41.012C84.6609 41.408 84.9549 41.72 85.3269 41.948C85.7109 42.164 86.1429 42.272 86.6229 42.272ZM96.9455 44.18C96.1055 44.18 95.3435 43.982 94.6595 43.586C93.9755 43.178 93.4295 42.632 93.0215 41.948C92.6255 41.264 92.4275 40.502 92.4275 39.662C92.4275 38.822 92.6255 38.066 93.0215 37.394C93.4295 36.722 93.9755 36.188 94.6595 35.792C95.3435 35.384 96.1055 35.18 96.9455 35.18C97.7975 35.18 98.5655 35.378 99.2495 35.774C99.9335 36.17 100.473 36.71 100.869 37.394C101.277 38.066 101.481 38.822 101.481 39.662C101.481 40.502 101.277 41.264 100.869 41.948C100.473 42.632 99.9335 43.178 99.2495 43.586C98.5655 43.982 97.7975 44.18 96.9455 44.18ZM96.9455 42.272C97.4375 42.272 97.8695 42.164 98.2415 41.948C98.6255 41.72 98.9195 41.408 99.1235 41.012C99.3395 40.616 99.4475 40.166 99.4475 39.662C99.4475 39.158 99.3395 38.714 99.1235 38.33C98.9075 37.946 98.6135 37.646 98.2415 37.43C97.8695 37.202 97.4375 37.088 96.9455 37.088C96.4655 37.088 96.0335 37.202 95.6495 37.43C95.2775 37.646 94.9835 37.946 94.7675 38.33C94.5635 38.714 94.4615 39.158 94.4615 39.662C94.4615 40.166 94.5635 40.616 94.7675 41.012C94.9835 41.408 95.2775 41.72 95.6495 41.948C96.0335 42.164 96.4655 42.272 96.9455 42.272ZM106.908 47.78C105.996 47.78 105.198 47.612 104.514 47.276C103.83 46.952 103.278 46.49 102.858 45.89L104.154 44.594C104.502 45.026 104.898 45.35 105.342 45.566C105.786 45.782 106.32 45.89 106.944 45.89C107.724 45.89 108.342 45.686 108.798 45.278C109.254 44.882 109.482 44.336 109.482 43.64V41.516L109.824 39.608L109.482 37.682V35.36H111.462V43.64C111.462 44.468 111.27 45.188 110.886 45.8C110.502 46.424 109.968 46.91 109.284 47.258C108.6 47.606 107.808 47.78 106.908 47.78ZM106.818 43.82C106.05 43.82 105.354 43.634 104.73 43.262C104.118 42.878 103.632 42.356 103.272 41.696C102.924 41.036 102.75 40.298 102.75 39.482C102.75 38.666 102.924 37.934 103.272 37.286C103.632 36.638 104.118 36.128 104.73 35.756C105.354 35.372 106.05 35.18 106.818 35.18C107.502 35.18 108.102 35.318 108.618 35.594C109.134 35.87 109.536 36.254 109.824 36.746C110.112 37.226 110.256 37.79 110.256 38.438V40.562C110.256 41.198 110.106 41.762 109.806 42.254C109.518 42.746 109.116 43.13 108.6 43.406C108.084 43.682 107.49 43.82 106.818 43.82ZM107.214 41.948C107.694 41.948 108.114 41.846 108.474 41.642C108.834 41.438 109.11 41.156 109.302 40.796C109.506 40.424 109.608 39.992 109.608 39.5C109.608 39.008 109.506 38.582 109.302 38.222C109.11 37.85 108.834 37.562 108.474 37.358C108.114 37.154 107.694 37.052 107.214 37.052C106.734 37.052 106.308 37.154 105.936 37.358C105.576 37.562 105.294 37.85 105.09 38.222C104.886 38.582 104.784 39.008 104.784 39.5C104.784 39.98 104.886 40.406 105.09 40.778C105.294 41.15 105.576 41.438 105.936 41.642C106.308 41.846 106.734 41.948 107.214 41.948ZM113.842 44V31.04H115.822V44H113.842ZM122.219 44.18C121.355 44.18 120.575 43.988 119.879 43.604C119.195 43.208 118.649 42.668 118.241 41.984C117.845 41.3 117.647 40.532 117.647 39.68C117.647 38.828 117.845 38.066 118.241 37.394C118.637 36.71 119.171 36.17 119.843 35.774C120.527 35.378 121.283 35.18 122.111 35.18C122.915 35.18 123.623 35.366 124.235 35.738C124.859 36.11 125.345 36.62 125.693 37.268C126.053 37.916 126.233 38.654 126.233 39.482C126.233 39.626 126.221 39.776 126.197 39.932C126.185 40.076 126.161 40.238 126.125 40.418H119.033V38.798H125.099L124.361 39.446C124.337 38.918 124.235 38.474 124.055 38.114C123.875 37.754 123.617 37.478 123.281 37.286C122.957 37.094 122.555 36.998 122.075 36.998C121.571 36.998 121.133 37.106 120.761 37.322C120.389 37.538 120.101 37.844 119.897 38.24C119.693 38.624 119.591 39.086 119.591 39.626C119.591 40.166 119.699 40.64 119.915 41.048C120.131 41.456 120.437 41.774 120.833 42.002C121.229 42.218 121.685 42.326 122.201 42.326C122.645 42.326 123.053 42.248 123.425 42.092C123.809 41.936 124.133 41.708 124.397 41.408L125.657 42.686C125.237 43.178 124.727 43.55 124.127 43.802C123.527 44.054 122.891 44.18 122.219 44.18ZM133.476 39.248V37.448H136.626C137.058 37.448 137.436 37.364 137.76 37.196C138.096 37.016 138.36 36.77 138.552 36.458C138.744 36.134 138.84 35.756 138.84 35.324C138.84 34.892 138.744 34.52 138.552 34.208C138.36 33.884 138.096 33.638 137.76 33.47C137.436 33.29 137.058 33.2 136.626 33.2H133.476V31.4H136.734C137.526 31.4 138.234 31.562 138.858 31.886C139.494 32.21 139.992 32.666 140.352 33.254C140.724 33.842 140.91 34.532 140.91 35.324C140.91 36.116 140.724 36.806 140.352 37.394C139.992 37.982 139.494 38.438 138.858 38.762C138.234 39.086 137.526 39.248 136.734 39.248H133.476ZM132.054 44V31.4H134.124V44H132.054ZM142.827 44V31.04H144.807V44H142.827ZM150.809 44.18C150.029 44.18 149.321 43.982 148.685 43.586C148.061 43.19 147.563 42.656 147.191 41.984C146.831 41.3 146.651 40.538 146.651 39.698C146.651 38.846 146.831 38.084 147.191 37.412C147.563 36.728 148.061 36.188 148.685 35.792C149.321 35.384 150.029 35.18 150.809 35.18C151.469 35.18 152.051 35.324 152.555 35.612C153.071 35.888 153.479 36.272 153.779 36.764C154.079 37.256 154.229 37.814 154.229 38.438V40.922C154.229 41.546 154.079 42.104 153.779 42.596C153.491 43.088 153.089 43.478 152.573 43.766C152.057 44.042 151.469 44.18 150.809 44.18ZM151.133 42.308C151.865 42.308 152.453 42.062 152.897 41.57C153.353 41.078 153.581 40.448 153.581 39.68C153.581 39.164 153.479 38.708 153.275 38.312C153.071 37.916 152.783 37.61 152.411 37.394C152.051 37.166 151.625 37.052 151.133 37.052C150.653 37.052 150.227 37.166 149.855 37.394C149.495 37.61 149.207 37.916 148.991 38.312C148.787 38.708 148.685 39.164 148.685 39.68C148.685 40.196 148.787 40.652 148.991 41.048C149.207 41.444 149.495 41.756 149.855 41.984C150.227 42.2 150.653 42.308 151.133 42.308ZM153.455 44V41.678L153.797 39.572L153.455 37.484V35.36H155.435V44H153.455ZM160.602 44.09L156.912 35.36H159.09L161.61 41.768H160.98L163.644 35.36H165.84L161.826 44.09H160.602ZM158.028 47.6L160.71 42.074L161.826 44.09L160.224 47.6H158.028Z" fill="white"/>
</svg>
