<svg width="191" height="58" viewBox="0 0 191 58" fill="none" xmlns="http://www.w3.org/2000/svg">
<path d="M208.802 4.75224C206.942 6.08585 205.069 7.40786 203.254 8.80205C201.199 10.3754 199.112 11.918 197.137 13.5901C194.796 15.5782 192.486 17.597 190.183 19.6307C188.515 21.0938 186.952 22.6715 185.287 24.142C184.426 24.9034 183.521 25.586 182.588 26.2453C181.875 26.7612 181.197 27.3152 180.464 27.8046C180.224 27.9302 179.976 28.041 179.723 28.1362C179.661 27.7604 179.629 27.3895 179.575 27.0103C179.521 26.6311 179.456 26.2478 179.399 25.8612C179.207 24.6564 179.056 23.4426 178.839 22.2403C178.675 21.4172 178.514 20.6381 178.294 19.849C178.184 19.4329 178.046 19.0246 177.881 18.6268C177.705 18.2652 177.497 17.9202 177.26 17.5962C176.873 17.0154 176.373 16.5194 175.789 16.1389C175.446 15.9147 175.06 15.7638 174.657 15.6955C174.213 15.6256 173.761 15.6308 173.32 15.7109C172.934 15.7913 172.557 15.9062 172.192 16.0541C171.861 16.1753 171.539 16.3193 171.228 16.4853C170.439 16.9508 169.709 17.509 169.053 18.1482L167.48 19.506C166.578 20.2947 165.658 21.0644 164.781 21.869C162.891 23.6108 160.976 25.3003 159.109 27.0944L152.238 33.6179C150.122 35.631 147.998 37.6473 145.808 39.5766C144.472 40.7659 143.064 41.8972 141.675 43.0294C140.313 44.1714 138.887 45.2341 137.403 46.2125C135.842 47.1794 134.182 47.9761 132.451 48.589C131.908 48.7314 131.354 48.8234 130.794 48.864C130.417 48.8462 130.042 48.8046 129.67 48.7393C129.357 48.6371 129.052 48.5317 128.755 48.4047C128.642 48.33 128.536 48.2519 128.429 48.1739C128.074 47.7639 127.751 47.3272 127.463 46.8677C127.002 46.0164 126.619 45.1211 126.203 44.2498L125.063 41.8202C124.506 40.5719 123.879 39.3562 123.185 38.1791C122.328 36.6144 121.143 35.2544 119.712 34.194C119.345 33.9694 118.961 33.7756 118.563 33.6146C118.164 33.4589 117.752 33.3432 117.331 33.2691C116.551 33.0781 115.744 33.0323 114.948 33.1341C114.546 33.2169 114.153 33.336 113.773 33.4897L113.543 33.5925C113.276 33.7119 113.009 33.8313 112.765 34.003C111.907 34.4869 111.088 35.0388 110.318 35.6534C109.618 36.2174 108.979 36.8793 108.335 37.508C107.691 38.1367 107.047 38.7472 106.414 39.38C105.033 40.7503 103.723 42.1786 102.434 43.6335C101.144 45.0884 100.099 46.3717 98.9497 47.7818C98.3136 48.5682 97.6668 49.3504 97.0589 50.16L94.2663 53.8645L90.0448 59.5077L85.31 65.8733C83.3455 68.5443 81.2971 71.1274 79.0689 73.5669C78.1713 74.518 77.2455 75.4459 76.2915 76.3505C75.3638 77.25 74.3587 78.0654 73.2879 78.7873C72.4359 79.3101 71.5328 79.744 70.5924 80.0825C70.2784 80.1638 69.9584 80.2201 69.6353 80.2507C69.4167 80.2335 69.1991 80.2052 68.9833 80.1659C68.6934 80.0746 68.4107 79.9613 68.1377 79.8271C68.0537 79.7817 67.9753 79.7266 67.904 79.6628C67.4922 79.2046 67.1222 78.7102 66.7984 78.1857C66.3453 77.4115 65.9408 76.6066 65.5175 75.8191L64.268 73.4832C63.6078 72.228 62.8789 71.0102 62.0848 69.8354C61.6074 69.1718 61.0826 68.5439 60.5147 67.9566C59.8904 67.2781 59.1946 66.6698 58.4396 66.1423C57.789 65.7006 57.0815 65.3506 56.337 65.1022C55.562 64.8386 54.7607 64.6619 53.9479 64.5755C53.1422 64.4909 52.3298 64.5052 51.5286 64.618C50.5489 64.7752 49.5897 65.0389 48.6678 65.4046C45.0697 66.6913 41.9373 68.9795 38.8831 71.2238C35.829 73.468 32.7912 76.0276 29.8707 78.5706C28.5427 79.7202 27.2007 80.8581 25.9358 82.0691C23.9261 83.9956 21.9388 85.9658 19.9741 87.9797C16.7044 91.2345 13.5153 94.5698 10.3684 97.9399L7.84437 100.673C7.07889 101.508 6.35235 102.371 5.6184 103.237C4.05522 105.074 2.53433 106.946 0.99193 108.81C4.1242 106.164 7.18747 103.422 10.3372 100.795C12.8811 98.6831 15.3985 96.5385 17.8892 94.361C20.6326 91.9391 23.3524 89.4979 26.0488 87.0372L28.3676 84.8799C29.7626 83.6017 31.1677 82.346 32.5727 81.0902C34.671 79.2555 36.7767 77.4175 38.9555 75.6634C40.0429 74.7917 41.1543 73.954 42.2658 73.1163C43.3773 72.2787 44.7309 71.3058 45.9722 70.4997C47.5652 69.5214 49.2644 68.7284 51.0373 68.1357C51.6701 67.9722 52.3182 67.8745 52.9715 67.8442C53.5516 67.8702 54.1293 67.9383 54.7 68.0479C55.2101 68.1882 55.7081 68.3701 56.1891 68.5917C56.6694 68.8961 57.1221 69.2425 57.5419 69.6267C58.451 70.5255 59.2664 71.5152 59.9753 72.5802C60.9645 74.2348 61.8425 75.9392 62.7361 77.6187C62.8931 77.9697 63.05 78.3207 63.2556 78.641C63.6395 79.3911 64.0635 80.1199 64.5257 80.8242C64.742 81.1487 64.9591 81.4549 65.1984 81.7512C65.4505 82.0517 65.738 82.3204 66.0545 82.5512C66.3887 82.7845 66.7439 82.9857 67.1153 83.1522C67.3598 83.2702 67.6126 83.3699 67.8716 83.4502L68.6934 83.6562C69.4569 83.7755 70.2347 83.7554 70.9896 83.5971C71.7726 83.4234 72.533 83.1614 73.2567 82.8162C74.9393 82.0278 76.4942 80.9911 77.8699 79.7401C78.5491 79.1496 79.19 78.5134 79.831 77.8772C80.4719 77.241 81.1136 76.5866 81.7338 75.9239C83.0609 74.4341 84.3509 72.961 85.5793 71.3899C86.1572 70.6923 86.6616 70.0096 87.1835 69.346L88.2892 67.8388L91.6548 63.2864C92.9447 61.5146 94.2386 59.7649 95.5364 58.0373L99.6437 52.5169C100.31 51.6186 101.015 50.7476 101.712 49.88C103.25 47.9647 104.832 46.0917 106.5 44.2884C107.592 43.128 108.711 41.9908 109.866 40.8918C110.975 39.7679 112.176 38.7392 113.456 37.8164C114.046 37.4587 114.666 37.1543 115.31 36.9067L115.618 36.8587C115.847 36.8724 116.076 36.8988 116.303 36.9377C116.632 37.0299 116.954 37.1499 117.264 37.2964C117.472 37.425 117.671 37.5661 117.862 37.7188C118.528 38.4438 119.124 39.2305 119.643 40.0681C120.276 41.1651 120.801 42.3193 121.326 43.4736C121.69 44.2876 122.057 45.109 122.422 45.923C122.786 46.7371 123.24 47.7527 123.647 48.6638C123.831 49.0745 124.119 49.4388 124.358 49.8156C124.598 50.1923 124.788 50.4388 125.02 50.7384C125.294 51.0592 125.594 51.3567 125.916 51.628C126.102 51.7782 126.303 51.9076 126.516 52.014C126.78 52.165 127.044 52.2979 127.315 52.4274C127.656 52.5794 128.009 52.7033 128.371 52.7977C128.79 52.9158 129.217 53.0062 129.649 53.0685C130.013 53.1133 130.38 53.1289 130.746 53.1153C131.191 53.1102 131.635 53.0793 132.075 53.0227C132.932 52.8708 133.771 52.6337 134.58 52.3148C135.499 51.9797 136.394 51.5796 137.257 51.1175C138.845 50.2891 140.364 49.334 141.799 48.2613C143.357 47.1077 144.821 45.8254 146.306 44.5879C149.203 42.1719 151.853 39.4811 154.568 36.8775C155.394 36.0779 156.207 35.2485 157.04 34.4456C158.894 32.6216 160.738 30.7753 162.608 28.9886L167.277 24.5437C168.011 23.8569 168.787 23.205 169.535 22.5298L170.759 21.445C171.373 20.8656 172.023 20.3262 172.706 19.8301C172.993 19.6837 173.288 19.552 173.588 19.4354L173.746 19.4097C173.889 19.5724 174.022 19.7434 174.144 19.9218C174.286 20.1802 174.407 20.45 174.505 20.7283C174.871 22.3464 175.134 23.9856 175.294 25.636C175.383 26.4923 175.502 27.3353 175.538 28.1708C175.546 28.4271 175.553 28.6835 175.569 28.9366C175.618 29.3495 175.73 29.7529 175.899 30.133L176.19 30.6036C176.301 30.7913 176.43 30.9676 176.576 31.1297C176.848 31.438 177.156 31.7125 177.494 31.9471C177.582 32.0038 177.674 32.0556 177.768 32.1024C177.987 32.269 178.242 32.3821 178.512 32.4328C178.957 32.5681 179.425 32.612 179.886 32.5618C180.731 32.4521 181.544 32.1709 182.275 31.7352C182.991 31.325 183.678 30.8679 184.333 30.3668C184.963 29.9057 185.593 29.4628 186.22 28.9942C187.787 27.7993 189.267 26.4935 190.648 25.0868C193.294 22.4873 195.891 19.8563 198.46 17.1838C202.009 13.4811 205.65 9.88127 209.28 6.25906L212.084 3.45469C213.256 2.29429 214.403 1.11813 215.62 5.42643e-05C213.298 1.51358 211.055 3.14411 208.802 4.75224Z" fill="#E6E6E6"/>
</svg>
