<svg width="170" height="167" viewBox="0 0 170 167" fill="none" xmlns="http://www.w3.org/2000/svg">
<path d="M7.19749 98.1582C7.21136 98.4972 7.12374 98.8327 6.94574 99.1223C6.76773 99.4119 6.50733 99.6425 6.19745 99.7851C5.88758 99.9277 5.54215 99.9759 5.20485 99.9234C4.86755 99.871 4.55354 99.7203 4.3025 99.4905C4.05147 99.2607 3.87471 98.962 3.79456 98.6323C3.71441 98.3026 3.73447 97.9566 3.85222 97.6381C3.96996 97.3196 4.1801 97.0429 4.45605 96.843C4.732 96.6431 5.06138 96.5289 5.40253 96.515C5.6293 96.5046 5.85587 96.539 6.06913 96.6162C6.2824 96.6934 6.47814 96.8118 6.64504 96.9646C6.81195 97.1174 6.9467 97.3015 7.04153 97.5064C7.13635 97.7113 7.18936 97.9328 7.19749 98.1582Z" fill="#7A718A"/>
<path d="M29.6945 97.2382C29.7083 97.5771 29.6207 97.9126 29.4427 98.2022C29.2647 98.4918 29.0043 98.7225 28.6944 98.8651C28.3845 99.0077 28.0391 99.0558 27.7018 99.0034C27.3645 98.9509 27.0505 98.8003 26.7995 98.5704C26.5484 98.3406 26.3717 98.042 26.2915 97.7122C26.2114 97.3825 26.2314 97.0365 26.3492 96.718C26.4669 96.3995 26.6771 96.1228 26.953 95.9229C27.229 95.723 27.5583 95.6088 27.8995 95.5949C28.1263 95.5845 28.3528 95.6189 28.5661 95.6961C28.7794 95.7733 28.9751 95.8917 29.142 96.0445C29.3089 96.1973 29.4437 96.3814 29.5385 96.5863C29.6333 96.7912 29.6863 97.0128 29.6945 97.2382Z" fill="#7A718A"/>
<path d="M52.1914 96.3181C52.2053 96.6571 52.1177 96.9926 51.9397 97.2821C51.7617 97.5717 51.5013 97.8024 51.1914 97.945C50.8815 98.0876 50.5361 98.1357 50.1988 98.0833C49.8615 98.0308 49.5475 97.8802 49.2965 97.6504C49.0454 97.4206 48.8687 97.1219 48.7885 96.7922C48.7084 96.4625 48.7284 96.1165 48.8462 95.798C48.9639 95.4795 49.174 95.2028 49.45 95.0029C49.726 94.8029 50.0553 94.6888 50.3965 94.6748C50.6232 94.6645 50.8498 94.6989 51.0631 94.7761C51.2764 94.8532 51.4721 94.9716 51.639 95.1244C51.8059 95.2772 51.9407 95.4614 52.0355 95.6663C52.1303 95.8712 52.1833 96.0927 52.1914 96.3181Z" fill="#7A718A"/>
<path d="M73.0336 97.1824C73.9863 97.1434 74.7271 96.3446 74.6884 95.3981C74.6497 94.4515 73.8461 93.7158 72.8934 93.7548C71.9408 93.7937 71.1999 94.5926 71.2387 95.5391C71.2774 96.4856 72.081 97.2214 73.0336 97.1824Z" fill="#7A718A"/>
<path d="M8.10368 120.316C8.11754 120.655 8.02993 120.99 7.85192 121.28C7.67392 121.57 7.41351 121.8 7.10363 121.943C6.79376 122.085 6.44833 122.134 6.11103 122.081C5.77374 122.029 5.45972 121.878 5.20869 121.648C4.95766 121.418 4.78089 121.12 4.70074 120.79C4.62059 120.46 4.64065 120.114 4.7584 119.796C4.87614 119.477 5.08628 119.201 5.36223 119.001C5.63818 118.801 5.96756 118.687 6.30871 118.673C6.53548 118.662 6.76205 118.697 6.97532 118.774C7.18858 118.851 7.38432 118.969 7.55123 119.122C7.71813 119.275 7.85288 119.459 7.94771 119.664C8.04253 119.869 8.09554 120.091 8.10368 120.316Z" fill="#7A718A"/>
<path d="M30.6006 119.396C30.6145 119.735 30.5269 120.07 30.3489 120.36C30.1709 120.65 29.9105 120.88 29.6006 121.023C29.2907 121.165 28.9453 121.214 28.608 121.161C28.2707 121.109 27.9567 120.958 27.7057 120.728C27.4546 120.498 27.2779 120.2 27.1977 119.87C27.1176 119.54 27.1376 119.194 27.2554 118.876C27.3731 118.557 27.5833 118.281 27.8592 118.081C28.1352 117.881 28.4645 117.767 28.8057 117.753C29.0325 117.742 29.259 117.777 29.4723 117.854C29.6856 117.931 29.8813 118.049 30.0482 118.202C30.2151 118.355 30.3499 118.539 30.4447 118.744C30.5395 118.949 30.5925 119.171 30.6006 119.396Z" fill="#7A718A"/>
<path d="M53.0976 118.476C53.1115 118.815 53.0239 119.15 52.8459 119.44C52.6679 119.729 52.4075 119.96 52.0976 120.103C51.7877 120.245 51.4423 120.294 51.105 120.241C50.7677 120.189 50.4537 120.038 50.2026 119.808C49.9516 119.578 49.7748 119.28 49.6947 118.95C49.6145 118.62 49.6346 118.274 49.7524 117.956C49.8701 117.637 50.0802 117.361 50.3562 117.161C50.6321 116.961 50.9615 116.847 51.3027 116.833C51.5294 116.822 51.756 116.857 51.9693 116.934C52.1825 117.011 52.3783 117.129 52.5452 117.282C52.7121 117.435 52.8468 117.619 52.9417 117.824C53.0365 118.029 53.0895 118.25 53.0976 118.476Z" fill="#7A718A"/>
<path d="M73.9398 119.34C74.8924 119.301 75.6333 118.502 75.5946 117.556C75.5559 116.609 74.7523 115.874 73.7996 115.913C72.847 115.951 72.1061 116.75 72.1448 117.697C72.1836 118.643 72.9872 119.379 73.9398 119.34Z" fill="#7A718A"/>
<path d="M9.00986 142.474C9.02372 142.813 8.93611 143.148 8.7581 143.438C8.5801 143.727 8.31969 143.958 8.00982 144.101C7.69994 144.243 7.35452 144.291 7.01722 144.239C6.67992 144.186 6.3659 144.036 6.11487 143.806C5.86384 143.576 5.68707 143.278 5.60692 142.948C5.52677 142.618 5.54684 142.272 5.66458 141.954C5.78233 141.635 5.99246 141.358 6.26841 141.158C6.54437 140.959 6.87374 140.844 7.21489 140.83C7.44167 140.82 7.66823 140.855 7.8815 140.932C8.09477 141.009 8.29051 141.127 8.45741 141.28C8.62431 141.433 8.75907 141.617 8.85389 141.822C8.94871 142.027 9.00172 142.248 9.00986 142.474Z" fill="#7A718A"/>
<path d="M31.5068 141.554C31.5207 141.893 31.4331 142.228 31.2551 142.518C31.0771 142.807 30.8167 143.038 30.5068 143.181C30.1969 143.323 29.8515 143.371 29.5142 143.319C29.1769 143.266 28.8629 143.116 28.6118 142.886C28.3608 142.656 28.184 142.357 28.1039 142.028C28.0237 141.698 28.0438 141.352 28.1616 141.034C28.2793 140.715 28.4894 140.438 28.7654 140.238C29.0413 140.039 29.3707 139.924 29.7119 139.91C29.9386 139.9 30.1652 139.934 30.3785 140.012C30.5917 140.089 30.7875 140.207 30.9544 140.36C31.1213 140.513 31.256 140.697 31.3509 140.902C31.4457 141.107 31.4987 141.328 31.5068 141.554Z" fill="#7A718A"/>
<path d="M54.0038 140.634C54.0177 140.973 53.9301 141.308 53.7521 141.598C53.5741 141.887 53.3136 142.118 53.0038 142.261C52.6939 142.403 52.3485 142.451 52.0112 142.399C51.6739 142.346 51.3599 142.196 51.1088 141.966C50.8578 141.736 50.681 141.437 50.6009 141.108C50.5207 140.778 50.5408 140.432 50.6585 140.113C50.7763 139.795 50.9864 139.518 51.2624 139.318C51.5383 139.118 51.8677 139.004 52.2088 138.99C52.4356 138.98 52.6622 139.014 52.8755 139.092C53.0887 139.169 53.2845 139.287 53.4514 139.44C53.6183 139.593 53.753 139.777 53.8478 139.982C53.9427 140.187 53.9957 140.408 54.0038 140.634Z" fill="#7A718A"/>
<path d="M76.5008 139.714C76.5146 140.053 76.427 140.388 76.249 140.678C76.071 140.967 75.8106 141.198 75.5007 141.34C75.1909 141.483 74.8454 141.531 74.5081 141.479C74.1708 141.426 73.8568 141.276 73.6058 141.046C73.3548 140.816 73.178 140.517 73.0978 140.188C73.0177 139.858 73.0378 139.512 73.1555 139.193C73.2732 138.875 73.4834 138.598 73.7593 138.398C74.0353 138.198 74.3647 138.084 74.7058 138.07C74.9326 138.06 75.1592 138.094 75.3724 138.172C75.5857 138.249 75.7814 138.367 75.9483 138.52C76.1152 138.673 76.25 138.857 76.3448 139.062C76.4396 139.267 76.4926 139.488 76.5008 139.714Z" fill="#7A718A"/>
<path d="M9.9177 164.672C9.93157 165.011 9.84395 165.347 9.66595 165.636C9.48794 165.926 9.22754 166.156 8.91766 166.299C8.60779 166.442 8.26236 166.49 7.92506 166.437C7.58776 166.385 7.27375 166.234 7.02271 166.004C6.77168 165.775 6.59492 165.476 6.51477 165.146C6.43462 164.816 6.45468 164.47 6.57243 164.152C6.69017 163.833 6.90031 163.557 7.17626 163.357C7.45221 163.157 7.78159 163.043 8.12274 163.029C8.34951 163.018 8.57608 163.053 8.78934 163.13C9.00261 163.207 9.19835 163.326 9.36525 163.478C9.53216 163.631 9.66691 163.815 9.76174 164.02C9.85656 164.225 9.90957 164.447 9.9177 164.672Z" fill="#7A718A"/>
<path d="M32.4147 163.752C32.4285 164.091 32.3409 164.426 32.1629 164.716C31.9849 165.006 31.7245 165.236 31.4146 165.379C31.1048 165.522 30.7593 165.57 30.422 165.517C30.0847 165.465 29.7707 165.314 29.5197 165.084C29.2687 164.854 29.0919 164.556 29.0117 164.226C28.9316 163.896 28.9517 163.55 29.0694 163.232C29.1871 162.913 29.3973 162.637 29.6732 162.437C29.9492 162.237 30.2786 162.123 30.6197 162.109C30.8465 162.098 31.073 162.133 31.2863 162.21C31.4996 162.287 31.6953 162.406 31.8622 162.558C32.0291 162.711 32.1639 162.895 32.2587 163.1C32.3535 163.305 32.4065 163.527 32.4147 163.752Z" fill="#7A718A"/>
<path d="M54.9117 162.832C54.9255 163.171 54.8379 163.506 54.6599 163.796C54.4819 164.086 54.2215 164.316 53.9116 164.459C53.6017 164.601 53.2563 164.65 52.919 164.597C52.5817 164.545 52.2677 164.394 52.0167 164.164C51.7656 163.934 51.5889 163.636 51.5087 163.306C51.4286 162.976 51.4486 162.63 51.5664 162.312C51.6841 161.993 51.8943 161.717 52.1702 161.517C52.4462 161.317 52.7755 161.203 53.1167 161.189C53.3435 161.178 53.57 161.213 53.7833 161.29C53.9966 161.367 54.1923 161.486 54.3592 161.638C54.5261 161.791 54.6609 161.975 54.7557 162.18C54.8505 162.385 54.9035 162.607 54.9117 162.832Z" fill="#7A718A"/>
<path d="M75.7522 163.656C76.7048 163.617 77.4457 162.818 77.407 161.871C77.3683 160.925 76.5646 160.189 75.612 160.228C74.6594 160.267 73.9185 161.066 73.9572 162.012C73.9959 162.959 74.7995 163.695 75.7522 163.656Z" fill="#7A718A"/>
<path d="M99.1206 94.3989C99.1345 94.7378 99.0469 95.0733 98.8689 95.3629C98.6909 95.6525 98.4305 95.8832 98.1206 96.0258C97.8107 96.1684 97.4653 96.2165 97.128 96.1641C96.7907 96.1116 96.4767 95.961 96.2257 95.7311C95.9746 95.5013 95.7979 95.2027 95.7177 94.8729C95.6376 94.5432 95.6576 94.1972 95.7754 93.8787C95.8931 93.5602 96.1033 93.2835 96.3792 93.0836C96.6552 92.8837 96.9845 92.7695 97.3257 92.7556C97.5525 92.7452 97.779 92.7796 97.9923 92.8568C98.2056 92.934 98.4013 93.0524 98.5682 93.2052C98.7351 93.358 98.8699 93.5421 98.9647 93.747C99.0595 93.9519 99.1125 94.1735 99.1206 94.3989Z" fill="#7A718A"/>
<path d="M121.618 93.4788C121.631 93.8177 121.544 94.1532 121.366 94.4428C121.188 94.7324 120.927 94.9631 120.618 95.1057C120.308 95.2483 119.962 95.2964 119.625 95.244C119.288 95.1915 118.974 95.0409 118.723 94.8111C118.472 94.5813 118.295 94.2826 118.215 93.9529C118.135 93.6231 118.155 93.2772 118.272 92.9587C118.39 92.6402 118.6 92.3635 118.876 92.1635C119.152 91.9636 119.482 91.8495 119.823 91.8355C120.049 91.8252 120.276 91.8596 120.489 91.9367C120.703 92.0139 120.898 92.1323 121.065 92.2851C121.232 92.4379 121.367 92.6221 121.462 92.827C121.556 93.0318 121.609 93.2534 121.618 93.4788Z" fill="#7A718A"/>
<path d="M144.115 92.5587C144.128 92.8977 144.041 93.2332 143.863 93.5228C143.685 93.8124 143.424 94.043 143.115 94.1856C142.805 94.3282 142.459 94.3764 142.122 94.3239C141.785 94.2715 141.471 94.1208 141.22 93.891C140.969 93.6612 140.792 93.3625 140.712 93.0328C140.632 92.7031 140.652 92.3571 140.769 92.0386C140.887 91.7201 141.097 91.4434 141.373 91.2435C141.649 91.0436 141.978 90.9294 142.32 90.9155C142.546 90.9051 142.773 90.9395 142.986 91.0167C143.2 91.0939 143.395 91.2122 143.562 91.365C143.729 91.5178 143.864 91.702 143.959 91.9069C144.053 92.1118 144.106 92.3333 144.115 92.5587Z" fill="#7A718A"/>
<path d="M164.957 93.423C165.909 93.3841 166.65 92.5852 166.612 91.6387C166.573 90.6922 165.769 89.9565 164.817 89.9954C163.864 90.0344 163.123 90.8332 163.162 91.7798C163.201 92.7263 164.004 93.462 164.957 93.423Z" fill="#7A718A"/>
<path d="M100.027 116.557C100.041 116.896 99.9531 117.231 99.7751 117.521C99.5971 117.81 99.3367 118.041 99.0268 118.184C98.7169 118.326 98.3715 118.374 98.0342 118.322C97.6969 118.269 97.3829 118.119 97.1318 117.889C96.8808 117.659 96.704 117.36 96.6239 117.031C96.5437 116.701 96.5638 116.355 96.6816 116.036C96.7993 115.718 97.0094 115.441 97.2854 115.241C97.5613 115.041 97.8907 114.927 98.2319 114.913C98.4586 114.903 98.6852 114.937 98.8985 115.015C99.1117 115.092 99.3075 115.21 99.4744 115.363C99.6413 115.516 99.776 115.7 99.8709 115.905C99.9657 116.11 100.019 116.331 100.027 116.557Z" fill="#7A718A"/>
<path d="M122.524 115.637C122.538 115.976 122.45 116.311 122.272 116.601C122.094 116.89 121.834 117.121 121.524 117.263C121.214 117.406 120.868 117.454 120.531 117.402C120.194 117.349 119.88 117.199 119.629 116.969C119.378 116.739 119.201 116.44 119.121 116.111C119.041 115.781 119.061 115.435 119.179 115.116C119.296 114.798 119.506 114.521 119.782 114.321C120.058 114.121 120.388 114.007 120.729 113.993C120.956 113.983 121.182 114.017 121.395 114.094C121.609 114.172 121.804 114.29 121.971 114.443C122.138 114.596 122.273 114.78 122.368 114.985C122.463 115.19 122.516 115.411 122.524 115.637Z" fill="#7A718A"/>
<path d="M145.021 114.716C145.035 115.055 144.947 115.391 144.769 115.681C144.591 115.97 144.331 116.201 144.021 116.343C143.711 116.486 143.365 116.534 143.028 116.482C142.691 116.429 142.377 116.279 142.126 116.049C141.875 115.819 141.698 115.52 141.618 115.191C141.538 114.861 141.558 114.515 141.676 114.196C141.793 113.878 142.003 113.601 142.279 113.401C142.555 113.201 142.885 113.087 143.226 113.073C143.453 113.063 143.679 113.097 143.892 113.174C144.106 113.252 144.301 113.37 144.468 113.523C144.635 113.676 144.77 113.86 144.865 114.065C144.96 114.27 145.013 114.491 145.021 114.716Z" fill="#7A718A"/>
<path d="M165.863 115.581C166.816 115.542 167.556 114.743 167.518 113.796C167.479 112.85 166.675 112.114 165.723 112.153C164.77 112.192 164.029 112.991 164.068 113.938C164.107 114.884 164.91 115.62 165.863 115.581Z" fill="#7A718A"/>
<path d="M100.933 138.714C100.947 139.053 100.859 139.389 100.681 139.678C100.503 139.968 100.243 140.199 99.933 140.341C99.6231 140.484 99.2777 140.532 98.9404 140.48C98.6031 140.427 98.2891 140.276 98.038 140.047C97.787 139.817 97.6102 139.518 97.5301 139.188C97.4499 138.859 97.47 138.513 97.5877 138.194C97.7055 137.876 97.9156 137.599 98.1916 137.399C98.4675 137.199 98.7969 137.085 99.138 137.071C99.3648 137.061 99.5914 137.095 99.8047 137.172C100.018 137.249 100.214 137.368 100.381 137.521C100.547 137.673 100.682 137.858 100.777 138.063C100.872 138.267 100.925 138.489 100.933 138.714Z" fill="#7A718A"/>
<path d="M123.43 137.794C123.444 138.133 123.356 138.469 123.178 138.758C123 139.048 122.74 139.279 122.43 139.421C122.12 139.564 121.775 139.612 121.437 139.56C121.1 139.507 120.786 139.356 120.535 139.127C120.284 138.897 120.107 138.598 120.027 138.268C119.947 137.939 119.967 137.593 120.085 137.274C120.202 136.956 120.413 136.679 120.689 136.479C120.964 136.279 121.294 136.165 121.635 136.151C121.862 136.141 122.088 136.175 122.302 136.252C122.515 136.329 122.711 136.448 122.878 136.601C123.044 136.753 123.179 136.938 123.274 137.142C123.369 137.347 123.422 137.569 123.43 137.794Z" fill="#7A718A"/>
<path d="M145.927 136.874C145.941 137.213 145.853 137.549 145.675 137.838C145.497 138.128 145.237 138.359 144.927 138.501C144.617 138.644 144.272 138.692 143.934 138.639C143.597 138.587 143.283 138.436 143.032 138.207C142.781 137.977 142.604 137.678 142.524 137.348C142.444 137.019 142.464 136.673 142.582 136.354C142.699 136.036 142.91 135.759 143.186 135.559C143.461 135.359 143.791 135.245 144.132 135.231C144.359 135.221 144.585 135.255 144.799 135.332C145.012 135.409 145.208 135.528 145.375 135.681C145.541 135.833 145.676 136.018 145.771 136.222C145.866 136.427 145.919 136.649 145.927 136.874Z" fill="#7A718A"/>
<path d="M168.424 135.954C168.438 136.293 168.35 136.629 168.172 136.918C167.994 137.208 167.734 137.439 167.424 137.581C167.114 137.724 166.769 137.772 166.431 137.719C166.094 137.667 165.78 137.516 165.529 137.286C165.278 137.057 165.101 136.758 165.021 136.428C164.941 136.099 164.961 135.753 165.079 135.434C165.196 135.116 165.407 134.839 165.683 134.639C165.958 134.439 166.288 134.325 166.629 134.311C166.856 134.301 167.082 134.335 167.296 134.412C167.509 134.489 167.705 134.608 167.871 134.761C168.038 134.913 168.173 135.097 168.268 135.302C168.363 135.507 168.416 135.729 168.424 135.954Z" fill="#7A718A"/>
<path d="M101.841 160.913C101.855 161.252 101.767 161.587 101.589 161.877C101.411 162.166 101.151 162.397 100.841 162.54C100.531 162.682 100.186 162.73 99.8482 162.678C99.5109 162.625 99.1969 162.475 98.9459 162.245C98.6948 162.015 98.5181 161.717 98.4379 161.387C98.3578 161.057 98.3778 160.711 98.4956 160.393C98.6133 160.074 98.8235 159.797 99.0994 159.597C99.3754 159.398 99.7047 159.283 100.046 159.269C100.273 159.259 100.499 159.294 100.713 159.371C100.926 159.448 101.122 159.566 101.288 159.719C101.455 159.872 101.59 160.056 101.685 160.261C101.78 160.466 101.833 160.687 101.841 160.913Z" fill="#7A718A"/>
<path d="M124.338 159.993C124.352 160.332 124.264 160.667 124.086 160.957C123.908 161.246 123.648 161.477 123.338 161.62C123.028 161.762 122.682 161.81 122.345 161.758C122.008 161.705 121.694 161.555 121.443 161.325C121.192 161.095 121.015 160.796 120.935 160.467C120.855 160.137 120.875 159.791 120.993 159.473C121.11 159.154 121.32 158.877 121.596 158.677C121.872 158.477 122.202 158.363 122.543 158.349C122.77 158.339 122.996 158.373 123.209 158.451C123.423 158.528 123.618 158.646 123.785 158.799C123.952 158.952 124.087 159.136 124.182 159.341C124.277 159.546 124.33 159.767 124.338 159.993Z" fill="#7A718A"/>
<path d="M146.835 159.073C146.849 159.412 146.761 159.747 146.583 160.037C146.405 160.326 146.145 160.557 145.835 160.7C145.525 160.842 145.179 160.89 144.842 160.838C144.505 160.785 144.191 160.635 143.94 160.405C143.689 160.175 143.512 159.876 143.432 159.547C143.352 159.217 143.372 158.871 143.49 158.552C143.607 158.234 143.817 157.957 144.093 157.757C144.369 157.557 144.699 157.443 145.04 157.429C145.267 157.419 145.493 157.453 145.706 157.531C145.92 157.608 146.115 157.726 146.282 157.879C146.449 158.032 146.584 158.216 146.679 158.421C146.774 158.626 146.827 158.847 146.835 159.073Z" fill="#7A718A"/>
<path d="M167.675 159.896C168.628 159.857 169.369 159.058 169.33 158.112C169.291 157.165 168.488 156.43 167.535 156.469C166.583 156.508 165.842 157.307 165.88 158.253C165.919 159.2 166.723 159.935 167.675 159.896Z" fill="#7A718A"/>
<path d="M3.51985 8.23341C3.53371 8.57237 3.4461 8.90786 3.26809 9.19745C3.09009 9.48703 2.82968 9.71771 2.51981 9.86032C2.20993 10.0029 1.8645 10.051 1.52721 9.9986C1.18991 9.94616 0.875889 9.7955 0.624859 9.56569C0.373828 9.33587 0.197061 9.03722 0.11691 8.70749C0.0367589 8.37777 0.0568245 8.03178 0.174569 7.71328C0.292314 7.39478 0.502449 7.11808 0.778402 6.91816C1.05436 6.71825 1.38373 6.60409 1.72488 6.59014C1.95165 6.57979 2.17822 6.61419 2.39149 6.69136C2.60475 6.76853 2.80049 6.88693 2.9674 7.03973C3.1343 7.19253 3.26906 7.37669 3.36388 7.58157C3.4587 7.78646 3.51171 8.00801 3.51985 8.23341Z" fill="#7A718A"/>
<path d="M26.0168 7.31334C26.0307 7.6523 25.9431 7.98778 25.7651 8.27737C25.5871 8.56696 25.3267 8.79764 25.0168 8.94024C24.7069 9.08285 24.3615 9.13097 24.0242 9.07853C23.6869 9.02608 23.3729 8.87543 23.1218 8.64561C22.8708 8.4158 22.694 8.11714 22.6139 7.78742C22.5337 7.45769 22.5538 7.1117 22.6715 6.7932C22.7893 6.47471 22.9994 6.198 23.2754 5.99809C23.5513 5.79817 23.8807 5.68402 24.2219 5.67007C24.4486 5.65971 24.6752 5.69412 24.8885 5.77128C25.1017 5.84845 25.2975 5.96685 25.4644 6.11965C25.6313 6.27245 25.766 6.45661 25.8609 6.6615C25.9557 6.86638 26.0087 7.08793 26.0168 7.31334Z" fill="#7A718A"/>
<path d="M48.5138 6.39328C48.5277 6.73224 48.44 7.06773 48.262 7.35731C48.084 7.6469 47.8236 7.87758 47.5138 8.02019C47.2039 8.16279 46.8585 8.21091 46.5212 8.15847C46.1839 8.10603 45.8698 7.95537 45.6188 7.72555C45.3678 7.49574 45.191 7.19708 45.1109 6.86736C45.0307 6.53763 45.0508 6.19165 45.1685 5.87315C45.2863 5.55465 45.4964 5.27795 45.7724 5.07803C46.0483 4.87811 46.3777 4.76396 46.7188 4.75001C46.9456 4.73966 47.1722 4.77406 47.3854 4.85123C47.5987 4.92839 47.7944 5.0468 47.9613 5.1996C48.1282 5.35239 48.263 5.53656 48.3578 5.74144C48.4527 5.94633 48.5057 6.16787 48.5138 6.39328Z" fill="#7A718A"/>
<path d="M69.356 7.25758C70.3086 7.21862 71.0495 6.41974 71.0108 5.47323C70.9721 4.52671 70.1684 3.79099 69.2158 3.82995C68.2632 3.86891 67.5223 4.6678 67.561 5.61431C67.5997 6.56082 68.4034 7.29654 69.356 7.25758Z" fill="#7A718A"/>
<path d="M4.42603 30.3911C4.43989 30.7301 4.35228 31.0656 4.17427 31.3552C3.99627 31.6448 3.73586 31.8755 3.42599 32.0181C3.11611 32.1607 2.77069 32.2088 2.43339 32.1563C2.09609 32.1039 1.78207 31.9532 1.53104 31.7234C1.28001 31.4936 1.10324 31.195 1.02309 30.8652C0.942941 30.5355 0.963006 30.1895 1.08075 29.871C1.1985 29.5525 1.40863 29.2758 1.68458 29.0759C1.96054 28.876 2.28991 28.7618 2.63106 28.7479C2.85784 28.7375 3.0844 28.7719 3.29767 28.8491C3.51094 28.9263 3.70668 29.0447 3.87358 29.1975C4.04048 29.3503 4.17524 29.5344 4.27006 29.7393C4.36488 29.9442 4.41789 30.1657 4.42603 30.3911Z" fill="#7A718A"/>
<path d="M26.923 29.4711C26.9369 29.8101 26.8493 30.1455 26.6712 30.4351C26.4932 30.7247 26.2328 30.9554 25.923 31.098C25.6131 31.2406 25.2677 31.2887 24.9304 31.2363C24.5931 31.1838 24.279 31.0332 24.028 30.8034C23.777 30.5736 23.6002 30.2749 23.5201 29.9452C23.4399 29.6154 23.46 29.2695 23.5777 28.951C23.6955 28.6325 23.9056 28.3558 24.1816 28.1558C24.4575 27.9559 24.7869 27.8418 25.128 27.8278C25.3548 27.8175 25.5814 27.8519 25.7946 27.929C26.0079 28.0062 26.2036 28.1246 26.3706 28.2774C26.5375 28.4302 26.6722 28.6144 26.767 28.8193C26.8619 29.0241 26.9149 29.2457 26.923 29.4711Z" fill="#7A718A"/>
<path d="M49.42 28.551C49.4338 28.89 49.3462 29.2255 49.1682 29.5151C48.9902 29.8047 48.7298 30.0353 48.4199 30.1779C48.1101 30.3205 47.7646 30.3687 47.4273 30.3162C47.09 30.2638 46.776 30.1131 46.525 29.8833C46.274 29.6535 46.0972 29.3548 46.017 29.0251C45.9369 28.6954 45.957 28.3494 46.0747 28.0309C46.1924 27.7124 46.4026 27.4357 46.6785 27.2358C46.9545 27.0359 47.2839 26.9217 47.625 26.9078C47.8518 26.8974 48.0784 26.9318 48.2916 27.009C48.5049 27.0861 48.7006 27.2046 48.8675 27.3574C49.0344 27.5102 49.1692 27.6943 49.264 27.8992C49.3588 28.1041 49.4118 28.3256 49.42 28.551Z" fill="#7A718A"/>
<path d="M70.2622 29.4153C71.2148 29.3764 71.9557 28.5775 71.9169 27.631C71.8782 26.6845 71.0746 25.9488 70.122 25.9877C69.1694 26.0267 68.4285 26.8256 68.4672 27.7721C68.5059 28.7186 69.3095 29.4543 70.2622 29.4153Z" fill="#7A718A"/>
<path d="M5.33221 52.5489C5.34607 52.8879 5.25846 53.2234 5.08046 53.5129C4.90245 53.8025 4.64205 54.0332 4.33217 54.1758C4.0223 54.3184 3.67687 54.3665 3.33957 54.3141C3.00227 54.2617 2.68825 54.111 2.43722 53.8812C2.18619 53.6514 2.00943 53.3527 1.92928 53.023C1.84912 52.6933 1.86919 52.3473 1.98693 52.0288C2.10468 51.7103 2.31481 51.4336 2.59077 51.2337C2.86672 51.0337 3.1961 50.9196 3.53725 50.9056C3.76402 50.8953 3.99058 50.9297 4.20385 51.0069C4.41712 51.084 4.61286 51.2024 4.77976 51.3552C4.94667 51.508 5.08142 51.6922 5.17625 51.8971C5.27107 52.102 5.32408 52.3235 5.33221 52.5489Z" fill="#7A718A"/>
<path d="M27.8292 51.6289C27.843 51.9678 27.7554 52.3033 27.5774 52.5929C27.3994 52.8825 27.139 53.1132 26.8291 53.2558C26.5193 53.3984 26.1738 53.4465 25.8365 53.394C25.4992 53.3416 25.1852 53.1909 24.9342 52.9611C24.6832 52.7313 24.5064 52.4327 24.4262 52.1029C24.3461 51.7732 24.3662 51.4272 24.4839 51.1087C24.6017 50.7902 24.8118 50.5135 25.0877 50.3136C25.3637 50.1137 25.6931 49.9995 26.0342 49.9856C26.261 49.9752 26.4876 50.0096 26.7008 50.0868C26.9141 50.164 27.1098 50.2824 27.2767 50.4352C27.4436 50.588 27.5784 50.7721 27.6732 50.977C27.768 51.1819 27.8211 51.4034 27.8292 51.6289Z" fill="#7A718A"/>
<path d="M50.3262 50.7088C50.34 51.0478 50.2524 51.3832 50.0744 51.6728C49.8964 51.9624 49.636 52.1931 49.3261 52.3357C49.0162 52.4783 48.6708 52.5264 48.3335 52.474C47.9962 52.4215 47.6822 52.2709 47.4312 52.0411C47.1801 51.8113 47.0034 51.5126 46.9232 51.1829C46.8431 50.8532 46.8631 50.5072 46.9809 50.1887C47.0986 49.8702 47.3088 49.5935 47.5847 49.3935C47.8607 49.1936 48.19 49.0795 48.5312 49.0655C48.758 49.0552 48.9845 49.0896 49.1978 49.1667C49.4111 49.2439 49.6068 49.3623 49.7737 49.5151C49.9406 49.6679 50.0754 49.8521 50.1702 50.057C50.265 50.2618 50.318 50.4834 50.3262 50.7088Z" fill="#7A718A"/>
<path d="M72.8231 49.7887C72.837 50.1277 72.7494 50.4632 72.5714 50.7528C72.3934 51.0424 72.133 51.273 71.8231 51.4156C71.5132 51.5582 71.1678 51.6064 70.8305 51.5539C70.4932 51.5015 70.1792 51.3508 69.9281 51.121C69.6771 50.8912 69.5004 50.5925 69.4202 50.2628C69.34 49.9331 69.3601 49.5871 69.4779 49.2686C69.5956 48.9501 69.8057 48.6734 70.0817 48.4735C70.3576 48.2736 70.687 48.1594 71.0282 48.1455C71.2549 48.1351 71.4815 48.1695 71.6948 48.2467C71.908 48.3239 72.1038 48.4423 72.2707 48.5951C72.4376 48.7479 72.5723 48.932 72.6672 49.1369C72.762 49.3418 72.815 49.5633 72.8231 49.7887Z" fill="#7A718A"/>
<path d="M6.24006 74.7473C6.25392 75.0862 6.16631 75.4217 5.9883 75.7113C5.8103 76.0009 5.54989 76.2316 5.24002 76.3742C4.93014 76.5168 4.58471 76.5649 4.24742 76.5125C3.91012 76.46 3.5961 76.3094 3.34507 76.0795C3.09404 75.8497 2.91727 75.5511 2.83712 75.2214C2.75697 74.8916 2.77703 74.5456 2.89478 74.2271C3.01252 73.9086 3.22266 73.6319 3.49861 73.432C3.77456 73.2321 4.10394 73.118 4.44509 73.104C4.67186 73.0937 4.89843 73.1281 5.1117 73.2052C5.32496 73.2824 5.5207 73.4008 5.68761 73.5536C5.85451 73.7064 5.98927 73.8906 6.08409 74.0954C6.17891 74.3003 6.23192 74.5219 6.24006 74.7473Z" fill="#7A718A"/>
<path d="M28.737 73.8272C28.7509 74.1662 28.6633 74.5017 28.4853 74.7913C28.3073 75.0808 28.0469 75.3115 27.737 75.4541C27.4271 75.5967 27.0817 75.6449 26.7444 75.5924C26.4071 75.54 26.0931 75.3893 25.842 75.1595C25.591 74.9297 25.4142 74.631 25.3341 74.3013C25.2539 73.9716 25.274 73.6256 25.3918 73.3071C25.5095 72.9886 25.7196 72.7119 25.9956 72.512C26.2715 72.312 26.6009 72.1979 26.9421 72.1839C27.1688 72.1736 27.3954 72.208 27.6087 72.2852C27.8219 72.3623 28.0177 72.4807 28.1846 72.6335C28.3515 72.7863 28.4862 72.9705 28.5811 73.1754C28.6759 73.3803 28.7289 73.6018 28.737 73.8272Z" fill="#7A718A"/>
<path d="M51.234 72.9072C51.2479 73.2461 51.1603 73.5816 50.9823 73.8712C50.8042 74.1608 50.5438 74.3915 50.234 74.5341C49.9241 74.6767 49.5787 74.7248 49.2414 74.6724C48.9041 74.6199 48.5901 74.4693 48.339 74.2394C48.088 74.0096 47.9112 73.711 47.8311 73.3812C47.7509 73.0515 47.771 72.7055 47.8887 72.387C48.0065 72.0685 48.2166 71.7918 48.4926 71.5919C48.7685 71.392 49.0979 71.2778 49.439 71.2639C49.6658 71.2535 49.8924 71.2879 50.1057 71.3651C50.3189 71.4423 50.5147 71.5607 50.6816 71.7135C50.8485 71.8663 50.9832 72.0504 51.078 72.2553C51.1729 72.4602 51.2259 72.6818 51.234 72.9072Z" fill="#7A718A"/>
<path d="M72.0745 73.7309C73.0272 73.6919 73.768 72.893 73.7293 71.9465C73.6906 71 72.887 70.2643 71.9343 70.3032C70.9817 70.3422 70.2409 71.1411 70.2796 72.0876C70.3183 73.0341 71.1219 73.7698 72.0745 73.7309Z" fill="#7A718A"/>
<path d="M95.443 4.47404C95.4569 4.813 95.3693 5.14849 95.1913 5.43807C95.0132 5.72766 94.7528 5.95834 94.443 6.10095C94.1331 6.24355 93.7877 6.29167 93.4504 6.23923C93.1131 6.18679 92.7991 6.03613 92.548 5.80631C92.297 5.5765 92.1202 5.27784 92.0401 4.94812C91.9599 4.61839 91.98 4.27241 92.0977 3.95391C92.2155 3.63541 92.4256 3.35871 92.7016 3.15879C92.9775 2.95887 93.3069 2.84472 93.648 2.83077C93.8748 2.82042 94.1014 2.85482 94.3146 2.93199C94.5279 3.00915 94.7236 3.12756 94.8906 3.28036C95.0575 3.43315 95.1922 3.61732 95.287 3.8222C95.3819 4.02709 95.4349 4.24864 95.443 4.47404Z" fill="#7A718A"/>
<path d="M117.94 3.55397C117.954 3.89293 117.866 4.22841 117.688 4.518C117.51 4.80759 117.25 5.03827 116.94 5.18087C116.63 5.32348 116.285 5.3716 115.947 5.31915C115.61 5.26671 115.296 5.11605 115.045 4.88624C114.794 4.65642 114.617 4.35777 114.537 4.02804C114.457 3.69832 114.477 3.35233 114.595 3.03383C114.712 2.71533 114.923 2.43863 115.199 2.23871C115.474 2.0388 115.804 1.92465 116.145 1.91069C116.372 1.90034 116.598 1.93474 116.812 2.01191C117.025 2.08908 117.221 2.20748 117.388 2.36028C117.554 2.51308 117.689 2.69724 117.784 2.90213C117.879 3.10701 117.932 3.32856 117.94 3.55397Z" fill="#7A718A"/>
<path d="M140.437 2.63391C140.451 2.97287 140.363 3.30836 140.185 3.59794C140.007 3.88753 139.747 4.11821 139.437 4.26081C139.127 4.40342 138.782 4.45154 138.444 4.3991C138.107 4.34665 137.793 4.196 137.542 3.96618C137.291 3.73637 137.114 3.43771 137.034 3.10799C136.954 2.77826 136.974 2.43227 137.092 2.11378C137.209 1.79528 137.42 1.51857 137.696 1.31866C137.971 1.11874 138.301 1.00459 138.642 0.990637C138.869 0.980285 139.095 1.01469 139.309 1.09185C139.522 1.16902 139.718 1.28743 139.885 1.44022C140.051 1.59302 140.186 1.77718 140.281 1.98207C140.376 2.18696 140.429 2.4085 140.437 2.63391Z" fill="#7A718A"/>
<path d="M161.279 3.49821C162.232 3.45925 162.973 2.66037 162.934 1.71385C162.895 0.767339 162.092 0.0316211 161.139 0.0705802C160.186 0.109539 159.445 0.908423 159.484 1.85494C159.523 2.80145 160.327 3.53717 161.279 3.49821Z" fill="#7A718A"/>
<path d="M96.3492 26.6318C96.363 26.9707 96.2754 27.3062 96.0974 27.5958C95.9194 27.8854 95.659 28.1161 95.3491 28.2587C95.0393 28.4013 94.6938 28.4494 94.3565 28.397C94.0193 28.3445 93.7052 28.1939 93.4542 27.9641C93.2032 27.7342 93.0264 27.4356 92.9463 27.1059C92.8661 26.7761 92.8862 26.4301 93.0039 26.1116C93.1217 25.7931 93.3318 25.5164 93.6077 25.3165C93.8837 25.1166 94.2131 25.0025 94.5542 24.9885C94.781 24.9782 95.0076 25.0126 95.2208 25.0897C95.4341 25.1669 95.6298 25.2853 95.7967 25.4381C95.9636 25.5909 96.0984 25.7751 96.1932 25.9799C96.288 26.1848 96.3411 26.4064 96.3492 26.6318Z" fill="#7A718A"/>
<path d="M118.846 25.7117C118.86 26.0507 118.772 26.3862 118.594 26.6758C118.416 26.9653 118.156 27.196 117.846 27.3386C117.536 27.4812 117.191 27.5294 116.854 27.4769C116.516 27.4245 116.202 27.2738 115.951 27.044C115.7 26.8142 115.523 26.5155 115.443 26.1858C115.363 25.8561 115.383 25.5101 115.501 25.1916C115.619 24.8731 115.829 24.5964 116.105 24.3965C116.381 24.1966 116.71 24.0824 117.051 24.0684C117.278 24.0581 117.505 24.0925 117.718 24.1697C117.931 24.2468 118.127 24.3652 118.294 24.518C118.461 24.6708 118.595 24.855 118.69 25.0599C118.785 25.2648 118.838 25.4863 118.846 25.7117Z" fill="#7A718A"/>
<path d="M141.343 24.7917C141.357 25.1306 141.269 25.4661 141.091 25.7557C140.913 26.0453 140.653 26.276 140.343 26.4186C140.033 26.5612 139.688 26.6093 139.35 26.5569C139.013 26.5044 138.699 26.3538 138.448 26.1239C138.197 25.8941 138.02 25.5955 137.94 25.2657C137.86 24.936 137.88 24.59 137.998 24.2715C138.116 23.953 138.326 23.6763 138.602 23.4764C138.878 23.2765 139.207 23.1623 139.548 23.1484C139.775 23.138 140.002 23.1724 140.215 23.2496C140.428 23.3268 140.624 23.4452 140.791 23.598C140.958 23.7508 141.092 23.9349 141.187 24.1398C141.282 24.3447 141.335 24.5663 141.343 24.7917Z" fill="#7A718A"/>
<path d="M162.185 25.656C163.138 25.617 163.879 24.8181 163.84 23.8716C163.801 22.9251 162.998 22.1894 162.045 22.2283C161.093 22.2673 160.352 23.0662 160.39 24.0127C160.429 24.9592 161.233 25.6949 162.185 25.656Z" fill="#7A718A"/>
<path d="M97.2554 48.7895C97.2692 49.1285 97.1816 49.464 97.0036 49.7536C96.8256 50.0432 96.5652 50.2738 96.2553 50.4164C95.9455 50.559 95.6 50.6072 95.2627 50.5547C94.9254 50.5023 94.6114 50.3516 94.3604 50.1218C94.1094 49.892 93.9326 49.5933 93.8524 49.2636C93.7723 48.9339 93.7923 48.5879 93.9101 48.2694C94.0278 47.9509 94.238 47.6742 94.5139 47.4743C94.7899 47.2744 95.1193 47.1602 95.4604 47.1463C95.6872 47.1359 95.9137 47.1703 96.127 47.2475C96.3403 47.3247 96.536 47.4431 96.7029 47.5959C96.8698 47.7487 97.0046 47.9328 97.0994 48.1377C97.1942 48.3426 97.2472 48.5641 97.2554 48.7895Z" fill="#7A718A"/>
<path d="M119.752 47.8695C119.766 48.2084 119.679 48.5439 119.501 48.8335C119.323 49.1231 119.062 49.3538 118.752 49.4964C118.442 49.639 118.097 49.6871 117.76 49.6347C117.422 49.5822 117.108 49.4316 116.857 49.2018C116.606 48.9719 116.43 48.6733 116.349 48.3436C116.269 48.0138 116.289 47.6678 116.407 47.3493C116.525 47.0309 116.735 46.7541 117.011 46.5542C117.287 46.3543 117.616 46.2402 117.957 46.2262C118.184 46.2159 118.411 46.2503 118.624 46.3274C118.837 46.4046 119.033 46.523 119.2 46.6758C119.367 46.8286 119.502 47.0128 119.596 47.2176C119.691 47.4225 119.744 47.6441 119.752 47.8695Z" fill="#7A718A"/>
<path d="M142.249 46.9494C142.263 47.2884 142.176 47.6239 141.998 47.9135C141.82 48.203 141.559 48.4337 141.249 48.5763C140.939 48.7189 140.594 48.7671 140.257 48.7146C139.919 48.6622 139.605 48.5115 139.354 48.2817C139.103 48.0519 138.927 47.7532 138.846 47.4235C138.766 47.0938 138.786 46.7478 138.904 46.4293C139.022 46.1108 139.232 45.8341 139.508 45.6342C139.784 45.4343 140.113 45.3201 140.454 45.3062C140.681 45.2958 140.908 45.3302 141.121 45.4074C141.334 45.4845 141.53 45.6029 141.697 45.7557C141.864 45.9085 141.999 46.0927 142.093 46.2976C142.188 46.5025 142.241 46.724 142.249 46.9494Z" fill="#7A718A"/>
<path d="M164.746 46.0294C164.76 46.3683 164.673 46.7038 164.495 46.9934C164.317 47.283 164.056 47.5137 163.746 47.6563C163.436 47.7989 163.091 47.847 162.754 47.7946C162.416 47.7421 162.102 47.5915 161.851 47.3616C161.6 47.1318 161.423 46.8332 161.343 46.5034C161.263 46.1737 161.283 45.8277 161.401 45.5092C161.519 45.1907 161.729 44.914 162.005 44.7141C162.281 44.5142 162.61 44.4 162.951 44.3861C163.178 44.3757 163.405 44.4101 163.618 44.4873C163.831 44.5645 164.027 44.6829 164.194 44.8357C164.361 44.9885 164.496 45.1726 164.59 45.3775C164.685 45.5824 164.738 45.804 164.746 46.0294Z" fill="#7A718A"/>
<path d="M98.1632 70.9879C98.1771 71.3269 98.0895 71.6624 97.9115 71.9519C97.7335 72.2415 97.4731 72.4722 97.1632 72.6148C96.8533 72.7574 96.5079 72.8055 96.1706 72.7531C95.8333 72.7006 95.5193 72.55 95.2682 72.3202C95.0172 72.0904 94.8404 71.7917 94.7603 71.462C94.6801 71.1323 94.7002 70.7863 94.8179 70.4678C94.9357 70.1493 95.1458 69.8726 95.4218 69.6727C95.6977 69.4727 96.0271 69.3586 96.3682 69.3446C96.595 69.3343 96.8216 69.3687 97.0349 69.4458C97.2481 69.523 97.4439 69.6414 97.6108 69.7942C97.7777 69.947 97.9124 70.1312 98.0073 70.3361C98.1021 70.5409 98.1551 70.7625 98.1632 70.9879Z" fill="#7A718A"/>
<path d="M120.66 70.0678C120.674 70.4068 120.586 70.7423 120.408 71.0319C120.23 71.3215 119.97 71.5521 119.66 71.6948C119.35 71.8374 119.005 71.8855 118.668 71.833C118.33 71.7806 118.016 71.6299 117.765 71.4001C117.514 71.1703 117.337 70.8717 117.257 70.5419C117.177 70.2122 117.197 69.8662 117.315 69.5477C117.433 69.2292 117.643 68.9525 117.919 68.7526C118.195 68.5527 118.524 68.4385 118.865 68.4246C119.092 68.4142 119.319 68.4486 119.532 68.5258C119.745 68.603 119.941 68.7214 120.108 68.8742C120.275 69.027 120.409 69.2111 120.504 69.416C120.599 69.6209 120.652 69.8424 120.66 70.0678Z" fill="#7A718A"/>
<path d="M143.157 69.1478C143.171 69.4868 143.083 69.8222 142.905 70.1118C142.727 70.4014 142.467 70.6321 142.157 70.7747C141.847 70.9173 141.502 70.9654 141.165 70.913C140.827 70.8605 140.513 70.7099 140.262 70.4801C140.011 70.2502 139.834 69.9516 139.754 69.6219C139.674 69.2921 139.694 68.9462 139.812 68.6277C139.93 68.3092 140.14 68.0325 140.416 67.8325C140.692 67.6326 141.021 67.5185 141.362 67.5045C141.589 67.4942 141.816 67.5286 142.029 67.6057C142.242 67.6829 142.438 67.8013 142.605 67.9541C142.772 68.1069 142.906 68.2911 143.001 68.496C143.096 68.7008 143.149 68.9224 143.157 69.1478Z" fill="#7A718A"/>
<path d="M163.998 69.9715C164.95 69.9325 165.691 69.1336 165.652 68.1871C165.614 67.2406 164.81 66.5049 163.858 66.5438C162.905 66.5828 162.164 67.3817 162.203 68.3282C162.241 69.2747 163.045 70.0104 163.998 69.9715Z" fill="#7A718A"/>
</svg>
