<svg width="455" height="64" viewBox="0 0 455 64" fill="none" xmlns="http://www.w3.org/2000/svg">
<path d="M15.2866 52.609C19.4809 51.419 23.6927 50.2596 27.847 48.9294C32.5477 47.4331 37.2842 46.0136 41.9081 44.2843C47.3926 42.2233 52.8411 40.0854 58.2877 37.9158C62.2266 36.3627 66.0547 34.5313 69.9925 32.9624C72.0292 32.1492 74.0925 31.509 76.1906 30.9298C77.801 30.465 79.3744 29.9075 81.0042 29.5048C81.5151 29.4359 82.0295 29.3991 82.5445 29.3947C82.4054 30.1199 82.2181 30.8167 82.0636 31.543C81.9092 32.2692 81.771 33.0102 81.6176 33.7523C81.1633 36.0735 80.6309 38.3844 80.2238 40.7181C79.9712 42.3256 79.7443 43.8517 79.6139 45.4345C79.5356 46.2656 79.5117 47.101 79.5425 47.935C79.6163 48.7103 79.7589 49.4768 79.9682 50.225C80.2734 51.5401 80.8373 52.7762 81.6251 53.8575C82.0893 54.4945 82.6765 55.0261 83.3502 55.4189C84.0946 55.8417 84.9031 56.1331 85.7421 56.281C86.4822 56.3914 87.2306 56.4336 87.9785 56.4072C88.6482 56.407 89.3172 56.3591 89.9808 56.264C91.6931 55.9415 93.3628 55.4113 94.9547 54.6845L98.6542 53.2597C100.782 52.4241 102.929 51.6349 105.023 50.754C109.542 48.8415 114.069 47.0397 118.581 45.0165L135.133 37.7138C140.233 35.4577 145.349 33.2005 150.525 31.1457C153.692 29.8703 156.947 28.7475 160.17 27.6111C163.351 26.4388 166.594 25.4533 169.883 24.6596C173.304 23.9388 176.788 23.5937 180.277 23.6303C181.338 23.7323 182.387 23.934 183.411 24.2327C184.07 24.5159 184.711 24.8416 185.33 25.2081C185.82 25.6022 186.294 25.9974 186.739 26.4265C186.892 26.6381 187.03 26.8508 187.167 27.0634C187.529 28.0463 187.816 29.0566 188.027 30.0854C188.285 31.9424 188.375 33.8273 188.541 35.6909L188.967 40.8736C189.134 43.517 189.448 46.1479 189.907 48.7534C190.4 52.1729 191.613 55.4381 193.462 58.3216C193.966 58.9747 194.523 59.5835 195.126 60.1417C195.733 60.6903 196.391 61.1756 197.091 61.5905C198.355 62.4579 199.764 63.079 201.248 63.4231C202.019 63.5399 202.798 63.5852 203.578 63.5585L204.055 63.5244C204.61 63.4847 205.164 63.4451 205.711 63.2947C207.561 62.9851 209.383 62.5253 211.163 61.9195C212.782 61.3586 214.357 60.5785 215.92 59.8628C217.483 59.147 219.033 58.464 220.58 57.7335C223.945 56.1579 227.223 54.4295 230.481 52.6389C233.739 50.8483 236.45 49.2082 239.429 47.4058C241.082 46.3975 242.751 45.404 244.369 44.3347L251.792 39.449L263.041 31.9851L275.683 23.5475C280.947 19.9923 286.303 16.6531 291.885 13.695C294.112 12.5609 296.375 11.4879 298.672 10.476C300.919 9.45596 303.249 8.64055 305.633 8.03918C307.497 7.65454 309.392 7.46573 311.291 7.47567C311.905 7.53661 312.512 7.64731 313.108 7.80672C313.486 7.9834 313.855 8.17983 314.213 8.39522C314.669 8.75446 315.098 9.14885 315.496 9.57501C315.616 9.7136 315.719 9.86626 315.804 10.0298C316.235 11.1383 316.567 12.2848 316.797 13.4554C317.093 15.1667 317.282 16.9015 317.516 18.6172L318.199 23.7021C318.546 26.4272 319.04 29.1298 319.678 31.7976C320.09 33.3236 320.61 34.8163 321.234 36.2638C321.898 37.9147 322.736 39.4857 323.732 40.9487C324.6 42.1861 325.629 43.2944 326.791 44.2425C327.998 45.2385 329.309 46.0936 330.7 46.7921C332.079 47.4826 333.536 47.9975 335.038 48.3256C336.887 48.6918 338.77 48.8502 340.654 48.7982C347.915 48.8512 355.007 46.7706 361.931 44.7179C368.856 42.6652 375.959 40.0275 382.842 37.342C385.967 36.1331 389.11 34.9547 392.164 33.592C397.017 31.4225 401.859 29.1584 406.69 26.7997C414.666 23.0507 422.551 19.1015 430.385 15.0606L436.687 11.7649C438.603 10.7538 440.467 9.66685 442.347 8.57882C446.346 6.27436 450.292 3.87828 454.272 1.51164C446.943 4.24495 439.674 7.19645 432.326 9.88338C426.399 12.0344 420.497 14.263 414.621 16.5692C408.133 19.1523 401.675 21.7863 395.245 24.4711L389.688 26.8552C386.359 28.2535 383.026 29.6044 379.693 30.9553C374.742 32.8987 369.776 34.8431 364.736 36.5863C362.223 37.4495 359.689 38.2346 357.155 39.0197C354.622 39.8048 351.567 40.6749 348.823 41.3161C345.339 42.0367 341.787 42.3492 338.237 42.2479C337.002 42.1243 335.783 41.8706 334.599 41.4909C333.582 41.0572 332.598 40.5486 331.654 39.969C330.838 39.3739 330.071 38.7112 329.36 37.9873C328.706 37.1134 328.128 36.1813 327.634 35.2022C326.608 32.9604 325.809 30.6155 325.25 28.2045C324.581 24.5332 324.143 20.8454 323.66 17.1925C323.613 16.4489 323.565 15.7053 323.41 14.9852C323.222 13.3639 322.948 11.7547 322.59 10.1644C322.419 9.42966 322.234 8.72762 322.004 8.02888C321.753 7.31382 321.419 6.63322 321.007 6.00216C320.566 5.35486 320.066 4.75201 319.514 4.20164C319.157 3.82394 318.772 3.47424 318.364 3.15544L317.036 2.23319C315.754 1.50775 314.355 1.0263 312.906 0.811958C311.396 0.606974 309.868 0.577597 308.351 0.724402C304.832 1.03944 301.377 1.89182 298.1 3.25341C296.499 3.87644 294.937 4.608 293.375 5.33956C291.813 6.07113 290.237 6.83545 288.694 7.6292C285.346 9.45803 282.074 11.2813 278.848 13.3239C277.357 14.2093 276.007 15.1164 274.639 15.9772L271.673 17.9852L262.669 24.033C259.201 26.4002 255.74 28.7245 252.286 31.0058L241.321 38.3222C239.541 39.5144 237.709 40.6308 235.893 41.7461C231.889 44.2098 227.832 46.5661 223.67 48.7392C220.958 50.1252 218.211 51.45 215.428 52.6821C212.709 53.9899 209.89 55.0634 207 55.8914C205.713 56.15 204.407 56.2913 203.097 56.3135L202.516 56.196C202.117 56.0182 201.727 55.8179 201.348 55.5961C200.822 55.2086 200.328 54.776 199.873 54.303C199.588 53.9305 199.325 53.5406 199.086 53.1354C198.378 51.3719 197.836 49.5427 197.466 47.6725C197.063 45.2537 196.89 42.8025 196.717 40.3513C196.606 38.6268 196.494 36.8865 196.384 35.162C196.273 33.4374 196.134 31.2858 196.01 29.3556C195.955 28.4854 195.683 27.6307 195.505 26.7851C195.327 25.9396 195.15 25.3641 194.935 24.6643C194.659 23.8978 194.322 23.1564 193.926 22.4477C193.695 22.0508 193.422 21.6812 193.113 21.3456C192.743 20.8952 192.361 20.4776 191.963 20.061C191.455 19.5568 190.908 19.0963 190.327 18.684C189.657 18.1894 188.956 17.7405 188.229 17.3399C187.609 17.0159 186.966 16.743 186.304 16.5239C185.509 16.2372 184.698 15.998 183.875 15.8076C182.249 15.5139 180.597 15.387 178.946 15.4289C177.086 15.4268 175.228 15.5597 173.385 15.8265C170.008 16.2775 166.671 17.0051 163.405 18.0023C159.868 19.0658 156.412 20.4255 152.95 21.6903C146.192 24.1603 139.693 27.2951 133.135 30.2276C131.135 31.1335 129.14 32.1027 127.124 33.0097C122.616 35.0962 118.111 37.2302 113.598 39.2377L102.344 44.2225C100.583 44.9842 98.769 45.6543 96.9901 46.3854L94.0937 47.5462C92.6166 48.1921 91.1014 48.741 89.5572 49.1897C88.9487 49.265 88.3369 49.3087 87.7243 49.3208L87.4266 49.2626C87.2798 48.8715 87.1559 48.4717 87.0556 48.0653C86.9728 47.5 86.9361 46.9285 86.9458 46.3566C87.3631 43.1669 87.9766 40.0069 88.7827 36.8956C89.1893 35.2771 89.5343 33.663 90.0231 32.1182C90.1784 31.6462 90.3338 31.1741 90.4737 30.7032C90.6582 29.9183 90.7262 29.1096 90.6755 28.3047L90.4688 27.2546C90.3949 26.8387 90.2805 26.4315 90.1276 26.0393C89.8465 25.2966 89.4791 24.5918 89.0334 23.94C88.9131 23.7779 88.7843 23.6226 88.6476 23.4749C88.3668 23.0255 87.9878 22.6499 87.5404 22.3779C86.8362 21.8349 86.0322 21.4437 85.1764 21.2278C83.599 20.865 81.9651 20.8358 80.374 21.142C78.8288 21.4127 77.3021 21.7873 75.804 22.2635C74.3764 22.6834 72.9623 23.0707 71.5358 23.5064C67.9547 24.6389 64.4555 26.031 61.0647 27.6723C54.6329 30.6435 48.2688 33.7051 41.9262 36.8606C33.1554 41.2387 24.2913 45.3691 15.4303 49.5471L8.58247 52.7863C5.72811 54.1189 2.90762 55.4967 -7.1531e-05 56.7218C5.13682 55.5122 10.2102 54.0368 15.2866 52.609Z" fill="#E6E6E6"/>
</svg>
