<svg width="353" height="236" viewBox="0 0 353 236" fill="none" xmlns="http://www.w3.org/2000/svg">
<path d="M69.4577 228.105C41.4852 213.543 24.854 183.795 14.5403 154.085C-0.254699 111.452 -4.73601 62.4522 16.5573 22.6521C20.5915 15.1203 25.872 7.70217 33.6834 4.1968C45.8714 -1.26969 60.1145 4.35786 71.5128 11.3212C99.9135 28.6586 122.272 54.153 142.871 80.2159C162.059 104.488 180.136 129.588 197.104 155.515C210.357 175.733 223.078 196.926 228.825 220.421C229.643 223.784 230.243 227.621 228.264 230.454C226.911 232.22 224.929 233.401 222.726 233.751C213.592 235.542 205.724 227.347 200.757 219.54C175.848 180.147 172.975 130.485 179.825 84.4319C182.033 69.643 185.753 53.9257 196.951 43.9117C211.984 30.4397 236.303 32.1924 253.448 42.879C270.593 53.5656 281.992 71.1778 292.01 88.6762C317.245 132.852 337.05 179.89 351 228.777" stroke="#352652" stroke-width="3" stroke-miterlimit="10"/>
</svg>
