<svg width="65" height="72" viewBox="0 0 65 72" fill="none" xmlns="http://www.w3.org/2000/svg">
<path d="M15.3556 34.0372C15.7178 33.7907 16.0623 33.5562 16.4333 33.3036C22.1461 29.4151 26.8656 27.2645 30.592 26.8516C34.3183 26.4387 36.8457 27.2144 38.1741 29.1786C39.6318 31.3203 39.4281 34.0406 37.5719 37.372C35.7157 40.7033 32.0504 44.2256 26.5909 47.9417C26.1757 48.2243 25.787 48.4889 25.3895 48.7595L40.6841 71.2294C41.1258 70.9288 41.5675 70.6281 42.0092 70.3274C53.788 62.31 60.8508 53.4096 63.1975 43.6264C65.5443 33.8432 63.7565 24.6266 57.8341 15.9765C55.3763 12.3257 52.2688 9.15691 48.6642 6.62567C44.8818 4.03758 40.6333 2.199 36.1482 1.20925C31.4393 0.0646597 26.0323 0.255777 19.9272 1.7826C13.1758 3.6551 6.79859 6.69176 1.08499 10.7547C0.722792 11.0013 0.369431 11.2418 0.00722989 11.4883L15.3556 34.0372Z" fill="#E9E8E8"/>
</svg>
