<svg width="104" height="134" viewBox="0 0 104 134" fill="none" xmlns="http://www.w3.org/2000/svg">
<path d="M63.857 131.812C73.4626 126.874 68.3856 97.8486 52.5172 66.9828C36.6488 36.117 15.998 15.0986 6.39244 20.0369C-3.21314 24.9752 1.86389 54.0002 17.7323 84.866C33.6007 115.732 54.2515 136.75 63.857 131.812Z" stroke="#1DDD24" stroke-width="2.5" stroke-miterlimit="10"/>
<path d="M80.48 123.266C90.0856 118.328 85.0086 89.3025 69.1402 58.4367C53.2717 27.5709 32.621 6.55254 23.0154 11.4909C13.4098 16.4292 18.4869 45.4542 34.3553 76.32C50.2237 107.186 70.8744 128.204 80.48 123.266Z" stroke="#1DDD24" stroke-width="2.5" stroke-miterlimit="10"/>
<path d="M97.1091 114.717C106.715 109.778 101.638 80.7534 85.7692 49.8876C69.9008 19.0217 49.2501 -1.99663 39.6445 2.94169C30.0389 7.88001 35.1159 36.905 50.9844 67.7708C66.8528 98.6366 87.5035 119.655 97.1091 114.717Z" stroke="#1DDD24" stroke-width="2.5" stroke-miterlimit="10"/>
</svg>
