<svg width="125" height="122" viewBox="0 0 125 122" fill="none" xmlns="http://www.w3.org/2000/svg">
<path d="M2.64773 69.9329C2.64773 70.1916 2.57009 70.4444 2.42462 70.6595C2.27915 70.8746 2.07239 71.0422 1.83049 71.1412C1.58858 71.2402 1.3224 71.2661 1.06559 71.2157C0.808788 71.1652 0.572898 71.0406 0.387752 70.8577C0.202606 70.6748 0.0765205 70.4418 0.0254389 70.1881C-0.0256427 69.9344 0.00057422 69.6714 0.100774 69.4324C0.200975 69.1934 0.370658 68.9892 0.588366 68.8454C0.806074 68.7017 1.06203 68.625 1.32387 68.625C1.49795 68.6242 1.67047 68.6575 1.83147 68.7229C1.99246 68.7883 2.13873 68.8847 2.26183 69.0063C2.38493 69.1279 2.48241 69.2724 2.54865 69.4314C2.61488 69.5905 2.64856 69.7609 2.64773 69.9329Z" fill="#7A718A"/>
<path d="M19.9144 69.9329C19.9144 70.1916 19.8368 70.4444 19.6913 70.6595C19.5459 70.8746 19.3391 71.0422 19.0972 71.1412C18.8553 71.2402 18.5891 71.2661 18.3323 71.2156C18.0755 71.1652 17.8396 71.0406 17.6545 70.8577C17.4693 70.6748 17.3432 70.4417 17.2921 70.188C17.2411 69.9343 17.2673 69.6714 17.3675 69.4324C17.4677 69.1934 17.6374 68.9891 17.8551 68.8454C18.0728 68.7017 18.3287 68.625 18.5906 68.625C18.7647 68.6242 18.9372 68.6575 19.0982 68.7229C19.2592 68.7883 19.4054 68.8846 19.5285 69.0062C19.6516 69.1279 19.7491 69.2724 19.8154 69.4314C19.8816 69.5905 19.9153 69.7609 19.9144 69.9329Z" fill="#7A718A"/>
<path d="M37.1811 69.9329C37.1811 70.1916 37.1035 70.4444 36.958 70.6595C36.8126 70.8746 36.6058 71.0422 36.3639 71.1412C36.122 71.2402 35.8558 71.2661 35.599 71.2156C35.3422 71.1652 35.1063 71.0406 34.9212 70.8577C34.736 70.6748 34.6099 70.4417 34.5588 70.188C34.5078 69.9343 34.534 69.6714 34.6342 69.4324C34.7344 69.1934 34.9041 68.9891 35.1218 68.8454C35.3395 68.7017 35.5954 68.625 35.8573 68.625C36.0314 68.6242 36.2039 68.6575 36.3649 68.7229C36.5259 68.7883 36.6721 68.8846 36.7952 69.0062C36.9183 69.1279 37.0158 69.2724 37.0821 69.4314C37.1483 69.5905 37.182 69.7609 37.1811 69.9329Z" fill="#7A718A"/>
<path d="M53.124 71.2408C53.8551 71.2408 54.4478 70.6552 54.4478 69.9329C54.4478 69.2106 53.8551 68.625 53.124 68.625C52.3928 68.625 51.8001 69.2106 51.8001 69.9329C51.8001 70.6552 52.3928 71.2408 53.124 71.2408Z" fill="#7A718A"/>
<path d="M2.64773 86.8423C2.64773 87.101 2.57009 87.3538 2.42462 87.5689C2.27915 87.784 2.07239 87.9516 1.83049 88.0506C1.58858 88.1496 1.3224 88.1755 1.06559 88.125C0.808787 88.0746 0.572897 87.95 0.387751 87.7671C0.202606 87.5842 0.0765199 87.3512 0.0254383 87.0975C-0.0256433 86.8438 0.000573615 86.5808 0.100774 86.3418C0.200974 86.1028 0.370657 85.8986 0.588365 85.7548C0.806074 85.6111 1.06203 85.5344 1.32386 85.5344C1.49795 85.5336 1.67047 85.5669 1.83147 85.6323C1.99246 85.6977 2.13873 85.7941 2.26183 85.9157C2.38493 86.0373 2.48241 86.1818 2.54865 86.3408C2.61488 86.4999 2.64856 86.6703 2.64773 86.8423Z" fill="#7A718A"/>
<path d="M19.9144 86.8423C19.9144 87.101 19.8368 87.3538 19.6913 87.5689C19.5459 87.784 19.3391 87.9516 19.0972 88.0506C18.8553 88.1496 18.5891 88.1755 18.3323 88.125C18.0755 88.0746 17.8396 87.95 17.6545 87.7671C17.4693 87.5842 17.3432 87.3512 17.2921 87.0975C17.2411 86.8438 17.2673 86.5808 17.3675 86.3418C17.4677 86.1028 17.6374 85.8986 17.8551 85.7548C18.0728 85.6111 18.3287 85.5344 18.5906 85.5344C18.7647 85.5336 18.9372 85.5669 19.0982 85.6323C19.2592 85.6977 19.4054 85.7941 19.5285 85.9157C19.6516 86.0373 19.7491 86.1818 19.8154 86.3408C19.8816 86.4999 19.9153 86.6703 19.9144 86.8423Z" fill="#7A718A"/>
<path d="M37.1811 86.8423C37.1811 87.101 37.1035 87.3538 36.958 87.5689C36.8126 87.784 36.6058 87.9516 36.3639 88.0506C36.122 88.1496 35.8558 88.1755 35.599 88.125C35.3422 88.0746 35.1063 87.95 34.9212 87.7671C34.736 87.5842 34.6099 87.3512 34.5588 87.0975C34.5078 86.8438 34.534 86.5808 34.6342 86.3418C34.7344 86.1028 34.9041 85.8986 35.1218 85.7548C35.3395 85.6111 35.5954 85.5344 35.8573 85.5344C36.0314 85.5336 36.2039 85.5669 36.3649 85.6323C36.5259 85.6977 36.6721 85.7941 36.7952 85.9157C36.9183 86.0373 37.0158 86.1818 37.0821 86.3408C37.1483 86.4999 37.182 86.6703 37.1811 86.8423Z" fill="#7A718A"/>
<path d="M53.124 88.1502C53.8551 88.1502 54.4478 87.5646 54.4478 86.8423C54.4478 86.12 53.8551 85.5344 53.124 85.5344C52.3928 85.5344 51.8001 86.12 51.8001 86.8423C51.8001 87.5646 52.3928 88.1502 53.124 88.1502Z" fill="#7A718A"/>
<path d="M2.64773 103.752C2.64773 104.01 2.57009 104.263 2.42462 104.478C2.27915 104.693 2.07239 104.861 1.83049 104.96C1.58858 105.059 1.3224 105.085 1.06559 105.034C0.808787 104.984 0.572897 104.859 0.387751 104.677C0.202606 104.494 0.0765199 104.261 0.0254383 104.007C-0.0256433 103.753 0.000573615 103.49 0.100774 103.251C0.200974 103.012 0.370657 102.808 0.588365 102.664C0.806074 102.521 1.06203 102.444 1.32386 102.444C1.49795 102.443 1.67047 102.476 1.83147 102.542C1.99246 102.607 2.13873 102.703 2.26183 102.825C2.38493 102.947 2.48241 103.091 2.54865 103.25C2.61488 103.409 2.64856 103.58 2.64773 103.752Z" fill="#7A718A"/>
<path d="M19.9144 103.752C19.9144 104.01 19.8368 104.263 19.6913 104.478C19.5459 104.693 19.3391 104.861 19.0972 104.96C18.8553 105.059 18.5891 105.085 18.3323 105.034C18.0755 104.984 17.8396 104.859 17.6545 104.677C17.4693 104.494 17.3432 104.261 17.2921 104.007C17.2411 103.753 17.2673 103.49 17.3675 103.251C17.4677 103.012 17.6374 102.808 17.8551 102.664C18.0728 102.521 18.3287 102.444 18.5906 102.444C18.7647 102.443 18.9372 102.476 19.0982 102.542C19.2592 102.607 19.4054 102.703 19.5285 102.825C19.6516 102.947 19.7491 103.091 19.8154 103.25C19.8816 103.409 19.9153 103.58 19.9144 103.752Z" fill="#7A718A"/>
<path d="M37.1811 103.752C37.1811 104.01 37.1035 104.263 36.958 104.478C36.8126 104.693 36.6058 104.861 36.3639 104.96C36.122 105.059 35.8558 105.085 35.599 105.034C35.3422 104.984 35.1063 104.859 34.9212 104.677C34.736 104.494 34.6099 104.261 34.5588 104.007C34.5078 103.753 34.534 103.49 34.6342 103.251C34.7344 103.012 34.9041 102.808 35.1218 102.664C35.3395 102.521 35.5954 102.444 35.8573 102.444C36.0314 102.443 36.2039 102.476 36.3649 102.542C36.5259 102.607 36.6721 102.703 36.7952 102.825C36.9183 102.947 37.0158 103.091 37.0821 103.25C37.1483 103.409 37.182 103.58 37.1811 103.752Z" fill="#7A718A"/>
<path d="M54.4478 103.752C54.4478 104.01 54.3702 104.263 54.2247 104.478C54.0793 104.693 53.8725 104.861 53.6306 104.96C53.3887 105.059 53.1225 105.085 52.8657 105.034C52.6089 104.984 52.373 104.859 52.1879 104.677C52.0027 104.494 51.8766 104.261 51.8255 104.007C51.7745 103.753 51.8007 103.49 51.9009 103.251C52.0011 103.012 52.1708 102.808 52.3885 102.664C52.6062 102.521 52.8621 102.444 53.124 102.444C53.2981 102.443 53.4706 102.476 53.6316 102.542C53.7926 102.607 53.9388 102.703 54.0619 102.825C54.185 102.947 54.2825 103.091 54.3488 103.25C54.415 103.409 54.4487 103.58 54.4478 103.752Z" fill="#7A718A"/>
<path d="M2.64773 120.692C2.64773 120.951 2.57009 121.204 2.42462 121.419C2.27915 121.634 2.07239 121.801 1.83049 121.9C1.58858 121.999 1.3224 122.025 1.06559 121.975C0.808787 121.924 0.572897 121.8 0.387751 121.617C0.202606 121.434 0.0765199 121.201 0.0254383 120.947C-0.0256433 120.694 0.000573615 120.431 0.100774 120.192C0.200974 119.953 0.370657 119.748 0.588365 119.605C0.806074 119.461 1.06203 119.384 1.32386 119.384C1.49795 119.383 1.67047 119.417 1.83147 119.482C1.99246 119.548 2.13873 119.644 2.26183 119.765C2.38493 119.887 2.48241 120.032 2.54865 120.191C2.61488 120.35 2.64856 120.52 2.64773 120.692Z" fill="#7A718A"/>
<path d="M19.9144 120.692C19.9144 120.951 19.8368 121.204 19.6913 121.419C19.5459 121.634 19.3391 121.801 19.0972 121.9C18.8553 121.999 18.5891 122.025 18.3323 121.975C18.0755 121.924 17.8396 121.8 17.6545 121.617C17.4693 121.434 17.3432 121.201 17.2921 120.947C17.2411 120.694 17.2673 120.431 17.3675 120.192C17.4677 119.953 17.6374 119.748 17.8551 119.605C18.0728 119.461 18.3287 119.384 18.5906 119.384C18.7647 119.383 18.9372 119.417 19.0982 119.482C19.2592 119.548 19.4054 119.644 19.5285 119.765C19.6516 119.887 19.7491 120.032 19.8154 120.191C19.8816 120.35 19.9153 120.52 19.9144 120.692Z" fill="#7A718A"/>
<path d="M37.1811 120.692C37.1811 120.951 37.1035 121.204 36.958 121.419C36.8126 121.634 36.6058 121.801 36.3639 121.9C36.122 121.999 35.8558 122.025 35.599 121.975C35.3422 121.924 35.1063 121.8 34.9212 121.617C34.736 121.434 34.6099 121.201 34.5588 120.947C34.5078 120.694 34.534 120.431 34.6342 120.192C34.7344 119.953 34.9041 119.748 35.1218 119.605C35.3395 119.461 35.5954 119.384 35.8573 119.384C36.0314 119.383 36.2039 119.417 36.3649 119.482C36.5259 119.548 36.6721 119.644 36.7952 119.765C36.9183 119.887 37.0158 120.032 37.0821 120.191C37.1483 120.35 37.182 120.52 37.1811 120.692Z" fill="#7A718A"/>
<path d="M53.124 121.969C53.8551 121.969 54.4478 121.383 54.4478 120.661C54.4478 119.939 53.8551 119.353 53.124 119.353C52.3928 119.353 51.8001 119.939 51.8001 120.661C51.8001 121.383 52.3928 121.969 53.124 121.969Z" fill="#7A718A"/>
<path d="M73.1999 69.9329C73.1999 70.1916 73.1222 70.4444 72.9768 70.6595C72.8313 70.8746 72.6245 71.0422 72.3826 71.1412C72.1407 71.2402 71.8745 71.2661 71.6177 71.2157C71.3609 71.1652 71.125 71.0406 70.9399 70.8577C70.7548 70.6748 70.6287 70.4418 70.5776 70.1881C70.5265 69.9344 70.5527 69.6714 70.6529 69.4324C70.7531 69.1934 70.9228 68.9892 71.1405 68.8454C71.3582 68.7017 71.6142 68.625 71.876 68.625C72.0501 68.6242 72.2226 68.6575 72.3836 68.7229C72.5446 68.7883 72.6909 68.8847 72.814 69.0063C72.9371 69.1279 73.0346 69.2724 73.1008 69.4314C73.167 69.5905 73.2007 69.7609 73.1999 69.9329Z" fill="#7A718A"/>
<path d="M90.4666 69.9329C90.4666 70.1916 90.3889 70.4444 90.2435 70.6595C90.098 70.8746 89.8912 71.0422 89.6493 71.1412C89.4074 71.2402 89.1412 71.2661 88.8844 71.2156C88.6276 71.1652 88.3917 71.0406 88.2066 70.8577C88.0215 70.6748 87.8954 70.4417 87.8443 70.188C87.7932 69.9343 87.8194 69.6714 87.9196 69.4324C88.0198 69.1934 88.1895 68.9891 88.4072 68.8454C88.6249 68.7017 88.8809 68.625 89.1427 68.625C89.3168 68.6242 89.4893 68.6575 89.6503 68.7229C89.8113 68.7883 89.9576 68.8846 90.0807 69.0062C90.2038 69.1279 90.3013 69.2724 90.3675 69.4314C90.4337 69.5905 90.4674 69.7609 90.4666 69.9329Z" fill="#7A718A"/>
<path d="M107.733 69.9329C107.733 70.1916 107.656 70.4444 107.51 70.6595C107.365 70.8746 107.158 71.0422 106.916 71.1412C106.674 71.2402 106.408 71.2661 106.151 71.2156C105.894 71.1652 105.658 71.0406 105.473 70.8577C105.288 70.6748 105.162 70.4417 105.111 70.188C105.06 69.9343 105.086 69.6714 105.186 69.4324C105.287 69.1934 105.456 68.9891 105.674 68.8454C105.892 68.7017 106.148 68.625 106.409 68.625C106.584 68.6242 106.756 68.6575 106.917 68.7229C107.078 68.7883 107.224 68.8846 107.347 69.0062C107.47 69.1279 107.568 69.2724 107.634 69.4314C107.7 69.5905 107.734 69.7609 107.733 69.9329Z" fill="#7A718A"/>
<path d="M123.676 71.2408C124.407 71.2408 125 70.6552 125 69.9329C125 69.2106 124.407 68.625 123.676 68.625C122.945 68.625 122.352 69.2106 122.352 69.9329C122.352 70.6552 122.945 71.2408 123.676 71.2408Z" fill="#7A718A"/>
<path d="M73.1999 86.8423C73.1999 87.101 73.1222 87.3538 72.9768 87.5689C72.8313 87.784 72.6245 87.9516 72.3826 88.0506C72.1407 88.1496 71.8745 88.1755 71.6177 88.125C71.3609 88.0746 71.125 87.95 70.9399 87.7671C70.7548 87.5842 70.6287 87.3512 70.5776 87.0975C70.5265 86.8438 70.5527 86.5808 70.6529 86.3418C70.7531 86.1028 70.9228 85.8986 71.1405 85.7548C71.3582 85.6111 71.6142 85.5344 71.876 85.5344C72.0501 85.5336 72.2226 85.5669 72.3836 85.6323C72.5446 85.6977 72.6909 85.7941 72.814 85.9157C72.9371 86.0373 73.0346 86.1818 73.1008 86.3408C73.167 86.4999 73.2007 86.6703 73.1999 86.8423Z" fill="#7A718A"/>
<path d="M90.4666 86.8423C90.4666 87.101 90.3889 87.3538 90.2435 87.5689C90.098 87.784 89.8912 87.9516 89.6493 88.0506C89.4074 88.1496 89.1412 88.1755 88.8844 88.125C88.6276 88.0746 88.3917 87.95 88.2066 87.7671C88.0215 87.5842 87.8954 87.3512 87.8443 87.0975C87.7932 86.8438 87.8194 86.5808 87.9196 86.3418C88.0198 86.1028 88.1895 85.8986 88.4072 85.7548C88.6249 85.6111 88.8809 85.5344 89.1427 85.5344C89.3168 85.5336 89.4893 85.5669 89.6503 85.6323C89.8113 85.6977 89.9576 85.7941 90.0807 85.9157C90.2038 86.0373 90.3013 86.1818 90.3675 86.3408C90.4337 86.4999 90.4674 86.6703 90.4666 86.8423Z" fill="#7A718A"/>
<path d="M107.733 86.8423C107.733 87.101 107.656 87.3538 107.51 87.5689C107.365 87.784 107.158 87.9516 106.916 88.0506C106.674 88.1496 106.408 88.1755 106.151 88.125C105.894 88.0746 105.658 87.95 105.473 87.7671C105.288 87.5842 105.162 87.3512 105.111 87.0975C105.06 86.8438 105.086 86.5808 105.186 86.3418C105.287 86.1028 105.456 85.8986 105.674 85.7548C105.892 85.6111 106.148 85.5344 106.409 85.5344C106.584 85.5336 106.756 85.5669 106.917 85.6323C107.078 85.6977 107.224 85.7941 107.347 85.9157C107.47 86.0373 107.568 86.1818 107.634 86.3408C107.7 86.4999 107.734 86.6703 107.733 86.8423Z" fill="#7A718A"/>
<path d="M123.676 88.1502C124.407 88.1502 125 87.5646 125 86.8423C125 86.12 124.407 85.5344 123.676 85.5344C122.945 85.5344 122.352 86.12 122.352 86.8423C122.352 87.5646 122.945 88.1502 123.676 88.1502Z" fill="#7A718A"/>
<path d="M73.1999 103.752C73.1999 104.01 73.1222 104.263 72.9768 104.478C72.8313 104.693 72.6245 104.861 72.3826 104.96C72.1407 105.059 71.8745 105.085 71.6177 105.034C71.3609 104.984 71.125 104.859 70.9399 104.677C70.7548 104.494 70.6287 104.261 70.5776 104.007C70.5265 103.753 70.5527 103.49 70.6529 103.251C70.7531 103.012 70.9228 102.808 71.1405 102.664C71.3582 102.521 71.6142 102.444 71.876 102.444C72.0501 102.443 72.2226 102.476 72.3836 102.542C72.5446 102.607 72.6909 102.703 72.814 102.825C72.9371 102.947 73.0346 103.091 73.1008 103.25C73.167 103.409 73.2007 103.58 73.1999 103.752Z" fill="#7A718A"/>
<path d="M90.4666 103.752C90.4666 104.01 90.3889 104.263 90.2435 104.478C90.098 104.693 89.8912 104.861 89.6493 104.96C89.4074 105.059 89.1412 105.085 88.8844 105.034C88.6276 104.984 88.3917 104.859 88.2066 104.677C88.0215 104.494 87.8954 104.261 87.8443 104.007C87.7932 103.753 87.8194 103.49 87.9196 103.251C88.0198 103.012 88.1895 102.808 88.4072 102.664C88.6249 102.521 88.8809 102.444 89.1427 102.444C89.3168 102.443 89.4893 102.476 89.6503 102.542C89.8113 102.607 89.9576 102.703 90.0807 102.825C90.2038 102.947 90.3013 103.091 90.3675 103.25C90.4337 103.409 90.4674 103.58 90.4666 103.752Z" fill="#7A718A"/>
<path d="M107.733 103.752C107.733 104.01 107.656 104.263 107.51 104.478C107.365 104.693 107.158 104.861 106.916 104.96C106.674 105.059 106.408 105.085 106.151 105.034C105.894 104.984 105.658 104.859 105.473 104.677C105.288 104.494 105.162 104.261 105.111 104.007C105.06 103.753 105.086 103.49 105.186 103.251C105.287 103.012 105.456 102.808 105.674 102.664C105.892 102.521 106.148 102.444 106.409 102.444C106.584 102.443 106.756 102.476 106.917 102.542C107.078 102.607 107.224 102.703 107.347 102.825C107.47 102.947 107.568 103.091 107.634 103.25C107.7 103.409 107.734 103.58 107.733 103.752Z" fill="#7A718A"/>
<path d="M125 103.752C125 104.01 124.922 104.263 124.777 104.478C124.631 104.693 124.425 104.861 124.183 104.96C123.941 105.059 123.675 105.085 123.418 105.034C123.161 104.984 122.925 104.859 122.74 104.677C122.555 104.494 122.429 104.261 122.378 104.007C122.327 103.753 122.353 103.49 122.453 103.251C122.553 103.012 122.723 102.808 122.941 102.664C123.158 102.521 123.414 102.444 123.676 102.444C123.85 102.443 124.023 102.476 124.184 102.542C124.345 102.607 124.491 102.703 124.614 102.825C124.737 102.947 124.835 103.091 124.901 103.25C124.967 103.409 125.001 103.58 125 103.752Z" fill="#7A718A"/>
<path d="M73.1999 120.692C73.1999 120.951 73.1222 121.204 72.9768 121.419C72.8313 121.634 72.6245 121.801 72.3826 121.9C72.1407 121.999 71.8745 122.025 71.6177 121.975C71.3609 121.924 71.125 121.8 70.9399 121.617C70.7548 121.434 70.6287 121.201 70.5776 120.947C70.5265 120.694 70.5527 120.431 70.6529 120.192C70.7531 119.953 70.9228 119.748 71.1405 119.605C71.3582 119.461 71.6142 119.384 71.876 119.384C72.0501 119.383 72.2226 119.417 72.3836 119.482C72.5446 119.548 72.6909 119.644 72.814 119.765C72.9371 119.887 73.0346 120.032 73.1008 120.191C73.167 120.35 73.2007 120.52 73.1999 120.692Z" fill="#7A718A"/>
<path d="M90.4666 120.692C90.4666 120.951 90.3889 121.204 90.2435 121.419C90.098 121.634 89.8912 121.801 89.6493 121.9C89.4074 121.999 89.1412 122.025 88.8844 121.975C88.6276 121.924 88.3917 121.8 88.2066 121.617C88.0215 121.434 87.8954 121.201 87.8443 120.947C87.7932 120.694 87.8194 120.431 87.9196 120.192C88.0198 119.953 88.1895 119.748 88.4072 119.605C88.6249 119.461 88.8809 119.384 89.1427 119.384C89.3168 119.383 89.4893 119.417 89.6503 119.482C89.8113 119.548 89.9576 119.644 90.0807 119.765C90.2038 119.887 90.3013 120.032 90.3675 120.191C90.4337 120.35 90.4674 120.52 90.4666 120.692Z" fill="#7A718A"/>
<path d="M107.733 120.692C107.733 120.951 107.656 121.204 107.51 121.419C107.365 121.634 107.158 121.801 106.916 121.9C106.674 121.999 106.408 122.025 106.151 121.975C105.894 121.924 105.658 121.8 105.473 121.617C105.288 121.434 105.162 121.201 105.111 120.947C105.06 120.694 105.086 120.431 105.186 120.192C105.287 119.953 105.456 119.748 105.674 119.605C105.892 119.461 106.148 119.384 106.409 119.384C106.584 119.383 106.756 119.417 106.917 119.482C107.078 119.548 107.224 119.644 107.347 119.765C107.47 119.887 107.568 120.032 107.634 120.191C107.7 120.35 107.734 120.52 107.733 120.692Z" fill="#7A718A"/>
<path d="M123.676 121.969C124.407 121.969 125 121.383 125 120.661C125 119.939 124.407 119.353 123.676 119.353C122.945 119.353 122.352 119.939 122.352 120.661C122.352 121.383 122.945 121.969 123.676 121.969Z" fill="#7A718A"/>
<path d="M2.64773 1.30791C2.64773 1.56658 2.57009 1.81944 2.42462 2.03452C2.27915 2.2496 2.07239 2.41724 1.83049 2.51623C1.58858 2.61522 1.3224 2.64112 1.06559 2.59065C0.808788 2.54019 0.572898 2.41562 0.387752 2.23271C0.202606 2.0498 0.0765205 1.81676 0.0254389 1.56306C-0.0256427 1.30936 0.00057422 1.04639 0.100774 0.807403C0.200975 0.56842 0.370658 0.364158 0.588366 0.220447C0.806074 0.0767353 1.06203 2.96607e-05 1.32387 2.96607e-05C1.49795 -0.000791272 1.67047 0.0324775 1.83147 0.0979137C1.99246 0.16335 2.13873 0.259656 2.26183 0.381267C2.38493 0.502879 2.48241 0.647384 2.54865 0.806434C2.61488 0.965483 2.64856 1.13592 2.64773 1.30791Z" fill="#7A718A"/>
<path d="M19.9144 1.30789C19.9144 1.56656 19.8368 1.81943 19.6913 2.03451C19.5459 2.24959 19.3391 2.41722 19.0972 2.51621C18.8553 2.6152 18.5891 2.6411 18.3323 2.59064C18.0755 2.54017 17.8396 2.41561 17.6545 2.2327C17.4693 2.04979 17.3432 1.81675 17.2921 1.56304C17.2411 1.30934 17.2673 1.04637 17.3675 0.807388C17.4677 0.568405 17.6374 0.364143 17.8551 0.220432C18.0728 0.0767204 18.3287 1.48303e-05 18.5906 1.48303e-05C18.7647 -0.000806102 18.9372 0.0324627 19.0982 0.0978989C19.2592 0.163335 19.4054 0.259641 19.5285 0.381253C19.6516 0.502864 19.7491 0.647369 19.8154 0.806419C19.8816 0.965468 19.9153 1.13591 19.9144 1.30789Z" fill="#7A718A"/>
<path d="M37.1811 1.30789C37.1811 1.56656 37.1035 1.81943 36.958 2.03451C36.8126 2.24959 36.6058 2.41722 36.3639 2.51621C36.122 2.6152 35.8558 2.6411 35.599 2.59064C35.3422 2.54017 35.1063 2.41561 34.9212 2.2327C34.736 2.04979 34.6099 1.81675 34.5588 1.56304C34.5078 1.30934 34.534 1.04637 34.6342 0.807388C34.7344 0.568405 34.9041 0.364143 35.1218 0.220432C35.3395 0.0767204 35.5954 1.48303e-05 35.8573 1.48303e-05C36.0314 -0.000806102 36.2039 0.0324627 36.3649 0.0978989C36.5259 0.163335 36.6721 0.259641 36.7952 0.381253C36.9183 0.502864 37.0158 0.647369 37.0821 0.806419C37.1483 0.965468 37.182 1.13591 37.1811 1.30789Z" fill="#7A718A"/>
<path d="M53.124 2.61577C53.8551 2.61577 54.4478 2.03021 54.4478 1.30789C54.4478 0.585571 53.8551 1.48303e-05 53.124 1.48303e-05C52.3928 1.48303e-05 51.8001 0.585571 51.8001 1.30789C51.8001 2.03021 52.3928 2.61577 53.124 2.61577Z" fill="#7A718A"/>
<path d="M2.64773 18.2173C2.64773 18.476 2.57009 18.7288 2.42462 18.9439C2.27915 19.159 2.07239 19.3266 1.83049 19.4256C1.58858 19.5246 1.3224 19.5505 1.06559 19.5C0.808787 19.4496 0.572897 19.325 0.387751 19.1421C0.202606 18.9592 0.0765199 18.7262 0.0254383 18.4725C-0.0256433 18.2188 0.000573615 17.9558 0.100774 17.7168C0.200974 17.4778 0.370657 17.2736 0.588365 17.1298C0.806074 16.9861 1.06203 16.9094 1.32386 16.9094C1.49795 16.9086 1.67047 16.9419 1.83147 17.0073C1.99246 17.0727 2.13873 17.1691 2.26183 17.2907C2.38493 17.4123 2.48241 17.5568 2.54865 17.7158C2.61488 17.8749 2.64856 18.0453 2.64773 18.2173Z" fill="#7A718A"/>
<path d="M19.9144 18.2173C19.9144 18.476 19.8368 18.7288 19.6913 18.9439C19.5459 19.159 19.3391 19.3266 19.0972 19.4256C18.8553 19.5246 18.5891 19.5505 18.3323 19.5C18.0755 19.4496 17.8396 19.325 17.6545 19.1421C17.4693 18.9592 17.3432 18.7262 17.2921 18.4725C17.2411 18.2188 17.2673 17.9558 17.3675 17.7168C17.4677 17.4778 17.6374 17.2736 17.8551 17.1298C18.0728 16.9861 18.3287 16.9094 18.5906 16.9094C18.7647 16.9086 18.9372 16.9419 19.0982 17.0073C19.2592 17.0727 19.4054 17.1691 19.5285 17.2907C19.6516 17.4123 19.7491 17.5568 19.8154 17.7158C19.8816 17.8749 19.9153 18.0453 19.9144 18.2173Z" fill="#7A718A"/>
<path d="M37.1811 18.2173C37.1811 18.476 37.1035 18.7288 36.958 18.9439C36.8126 19.159 36.6058 19.3266 36.3639 19.4256C36.122 19.5246 35.8558 19.5505 35.599 19.5C35.3422 19.4496 35.1063 19.325 34.9212 19.1421C34.736 18.9592 34.6099 18.7262 34.5588 18.4725C34.5078 18.2188 34.534 17.9558 34.6342 17.7168C34.7344 17.4778 34.9041 17.2736 35.1218 17.1298C35.3395 16.9861 35.5954 16.9094 35.8573 16.9094C36.0314 16.9086 36.2039 16.9419 36.3649 17.0073C36.5259 17.0727 36.6721 17.1691 36.7952 17.2907C36.9183 17.4123 37.0158 17.5568 37.0821 17.7158C37.1483 17.8749 37.182 18.0453 37.1811 18.2173Z" fill="#7A718A"/>
<path d="M53.124 19.5252C53.8551 19.5252 54.4478 18.9396 54.4478 18.2173C54.4478 17.495 53.8551 16.9094 53.124 16.9094C52.3928 16.9094 51.8001 17.495 51.8001 18.2173C51.8001 18.9396 52.3928 19.5252 53.124 19.5252Z" fill="#7A718A"/>
<path d="M2.64773 35.1267C2.64773 35.3854 2.57009 35.6383 2.42462 35.8533C2.27915 36.0684 2.07239 36.236 1.83049 36.335C1.58858 36.434 1.3224 36.4599 1.06559 36.4095C0.808787 36.359 0.572897 36.2344 0.387751 36.0515C0.202606 35.8686 0.0765199 35.6356 0.0254383 35.3819C-0.0256433 35.1282 0.000573615 34.8652 0.100774 34.6262C0.200974 34.3872 0.370657 34.183 0.588365 34.0393C0.806074 33.8955 1.06203 33.8188 1.32386 33.8188C1.49795 33.818 1.67047 33.8513 1.83147 33.9167C1.99246 33.9822 2.13873 34.0785 2.26183 34.2001C2.38493 34.3217 2.48241 34.4662 2.54865 34.6252C2.61488 34.7843 2.64856 34.9547 2.64773 35.1267Z" fill="#7A718A"/>
<path d="M19.9144 35.1267C19.9144 35.3854 19.8368 35.6383 19.6913 35.8533C19.5459 36.0684 19.3391 36.236 19.0972 36.335C18.8553 36.434 18.5891 36.4599 18.3323 36.4095C18.0755 36.359 17.8396 36.2344 17.6545 36.0515C17.4693 35.8686 17.3432 35.6356 17.2921 35.3819C17.2411 35.1282 17.2673 34.8652 17.3675 34.6262C17.4677 34.3872 17.6374 34.183 17.8551 34.0393C18.0728 33.8955 18.3287 33.8188 18.5906 33.8188C18.7647 33.818 18.9372 33.8513 19.0982 33.9167C19.2592 33.9822 19.4054 34.0785 19.5285 34.2001C19.6516 34.3217 19.7491 34.4662 19.8154 34.6252C19.8816 34.7843 19.9153 34.9547 19.9144 35.1267Z" fill="#7A718A"/>
<path d="M37.1811 35.1267C37.1811 35.3854 37.1035 35.6383 36.958 35.8533C36.8126 36.0684 36.6058 36.236 36.3639 36.335C36.122 36.434 35.8558 36.4599 35.599 36.4095C35.3422 36.359 35.1063 36.2344 34.9212 36.0515C34.736 35.8686 34.6099 35.6356 34.5588 35.3819C34.5078 35.1282 34.534 34.8652 34.6342 34.6262C34.7344 34.3872 34.9041 34.183 35.1218 34.0393C35.3395 33.8955 35.5954 33.8188 35.8573 33.8188C36.0314 33.818 36.2039 33.8513 36.3649 33.9167C36.5259 33.9822 36.6721 34.0785 36.7952 34.2001C36.9183 34.3217 37.0158 34.4662 37.0821 34.6252C37.1483 34.7843 37.182 34.9547 37.1811 35.1267Z" fill="#7A718A"/>
<path d="M54.4478 35.1267C54.4478 35.3854 54.3702 35.6383 54.2247 35.8533C54.0793 36.0684 53.8725 36.236 53.6306 36.335C53.3887 36.434 53.1225 36.4599 52.8657 36.4095C52.6089 36.359 52.373 36.2344 52.1879 36.0515C52.0027 35.8686 51.8766 35.6356 51.8255 35.3819C51.7745 35.1282 51.8007 34.8652 51.9009 34.6262C52.0011 34.3872 52.1708 34.183 52.3885 34.0393C52.6062 33.8955 52.8621 33.8188 53.124 33.8188C53.2981 33.818 53.4706 33.8513 53.6316 33.9167C53.7926 33.9822 53.9388 34.0785 54.0619 34.2001C54.185 34.3217 54.2825 34.4662 54.3488 34.6252C54.415 34.7843 54.4487 34.9547 54.4478 35.1267Z" fill="#7A718A"/>
<path d="M2.64773 52.0671C2.64773 52.3258 2.57009 52.5787 2.42462 52.7937C2.27915 53.0088 2.07239 53.1764 1.83049 53.2754C1.58858 53.3744 1.3224 53.4003 1.06559 53.3499C0.808787 53.2994 0.572897 53.1748 0.387751 52.9919C0.202606 52.809 0.0765199 52.576 0.0254383 52.3223C-0.0256433 52.0686 0.000573615 51.8056 0.100774 51.5666C0.200974 51.3276 0.370657 51.1234 0.588365 50.9797C0.806074 50.8359 1.06203 50.7592 1.32386 50.7592C1.49795 50.7584 1.67047 50.7917 1.83147 50.8571C1.99246 50.9226 2.13873 51.0189 2.26183 51.1405C2.38493 51.2621 2.48241 51.4066 2.54865 51.5657C2.61488 51.7247 2.64856 51.8951 2.64773 52.0671Z" fill="#7A718A"/>
<path d="M19.9144 52.0671C19.9144 52.3258 19.8368 52.5787 19.6913 52.7937C19.5459 53.0088 19.3391 53.1764 19.0972 53.2754C18.8553 53.3744 18.5891 53.4003 18.3323 53.3499C18.0755 53.2994 17.8396 53.1748 17.6545 52.9919C17.4693 52.809 17.3432 52.576 17.2921 52.3223C17.2411 52.0686 17.2673 51.8056 17.3675 51.5666C17.4677 51.3276 17.6374 51.1234 17.8551 50.9797C18.0728 50.8359 18.3287 50.7592 18.5906 50.7592C18.7647 50.7584 18.9372 50.7917 19.0982 50.8571C19.2592 50.9226 19.4054 51.0189 19.5285 51.1405C19.6516 51.2621 19.7491 51.4066 19.8154 51.5657C19.8816 51.7247 19.9153 51.8951 19.9144 52.0671Z" fill="#7A718A"/>
<path d="M37.1811 52.0671C37.1811 52.3258 37.1035 52.5787 36.958 52.7937C36.8126 53.0088 36.6058 53.1764 36.3639 53.2754C36.122 53.3744 35.8558 53.4003 35.599 53.3499C35.3422 53.2994 35.1063 53.1748 34.9212 52.9919C34.736 52.809 34.6099 52.576 34.5588 52.3223C34.5078 52.0686 34.534 51.8056 34.6342 51.5666C34.7344 51.3276 34.9041 51.1234 35.1218 50.9797C35.3395 50.8359 35.5954 50.7592 35.8573 50.7592C36.0314 50.7584 36.2039 50.7917 36.3649 50.8571C36.5259 50.9226 36.6721 51.0189 36.7952 51.1405C36.9183 51.2621 37.0158 51.4066 37.0821 51.5657C37.1483 51.7247 37.182 51.8951 37.1811 52.0671Z" fill="#7A718A"/>
<path d="M53.124 53.344C53.8551 53.344 54.4478 52.7584 54.4478 52.0361C54.4478 51.3138 53.8551 50.7283 53.124 50.7283C52.3928 50.7283 51.8001 51.3138 51.8001 52.0361C51.8001 52.7584 52.3928 53.344 53.124 53.344Z" fill="#7A718A"/>
<path d="M73.1999 1.30791C73.1999 1.56658 73.1222 1.81944 72.9768 2.03452C72.8313 2.2496 72.6245 2.41724 72.3826 2.51623C72.1407 2.61522 71.8745 2.64112 71.6177 2.59065C71.3609 2.54019 71.125 2.41562 70.9399 2.23271C70.7548 2.0498 70.6287 1.81676 70.5776 1.56306C70.5265 1.30936 70.5527 1.04639 70.6529 0.807403C70.7531 0.56842 70.9228 0.364158 71.1405 0.220447C71.3582 0.0767353 71.6142 2.96607e-05 71.876 2.96607e-05C72.0501 -0.000791272 72.2226 0.0324775 72.3836 0.0979137C72.5446 0.16335 72.6909 0.259656 72.814 0.381267C72.9371 0.502879 73.0346 0.647384 73.1008 0.806434C73.167 0.965483 73.2007 1.13592 73.1999 1.30791Z" fill="#7A718A"/>
<path d="M90.4666 1.30789C90.4666 1.56656 90.3889 1.81943 90.2435 2.03451C90.098 2.24959 89.8912 2.41722 89.6493 2.51621C89.4074 2.6152 89.1412 2.6411 88.8844 2.59064C88.6276 2.54017 88.3917 2.41561 88.2066 2.2327C88.0215 2.04979 87.8954 1.81675 87.8443 1.56304C87.7932 1.30934 87.8194 1.04637 87.9196 0.807388C88.0198 0.568405 88.1895 0.364143 88.4072 0.220432C88.6249 0.0767204 88.8809 1.48303e-05 89.1427 1.48303e-05C89.3168 -0.000806102 89.4893 0.0324627 89.6503 0.0978989C89.8113 0.163335 89.9576 0.259641 90.0807 0.381253C90.2038 0.502864 90.3013 0.647369 90.3675 0.806419C90.4337 0.965468 90.4674 1.13591 90.4666 1.30789Z" fill="#7A718A"/>
<path d="M107.733 1.30789C107.733 1.56656 107.656 1.81943 107.51 2.03451C107.365 2.24959 107.158 2.41722 106.916 2.51621C106.674 2.6152 106.408 2.6411 106.151 2.59064C105.894 2.54017 105.658 2.41561 105.473 2.2327C105.288 2.04979 105.162 1.81675 105.111 1.56304C105.06 1.30934 105.086 1.04637 105.186 0.807388C105.287 0.568405 105.456 0.364143 105.674 0.220432C105.892 0.0767204 106.148 1.48303e-05 106.409 1.48303e-05C106.584 -0.000806102 106.756 0.0324627 106.917 0.0978989C107.078 0.163335 107.224 0.259641 107.347 0.381253C107.47 0.502864 107.568 0.647369 107.634 0.806419C107.7 0.965468 107.734 1.13591 107.733 1.30789Z" fill="#7A718A"/>
<path d="M123.676 2.61577C124.407 2.61577 125 2.03021 125 1.30789C125 0.585571 124.407 1.48303e-05 123.676 1.48303e-05C122.945 1.48303e-05 122.352 0.585571 122.352 1.30789C122.352 2.03021 122.945 2.61577 123.676 2.61577Z" fill="#7A718A"/>
<path d="M73.1999 18.2173C73.1999 18.476 73.1222 18.7288 72.9768 18.9439C72.8313 19.159 72.6245 19.3266 72.3826 19.4256C72.1407 19.5246 71.8745 19.5505 71.6177 19.5C71.3609 19.4496 71.125 19.325 70.9399 19.1421C70.7548 18.9592 70.6287 18.7262 70.5776 18.4725C70.5265 18.2188 70.5527 17.9558 70.6529 17.7168C70.7531 17.4778 70.9228 17.2736 71.1405 17.1298C71.3582 16.9861 71.6142 16.9094 71.876 16.9094C72.0501 16.9086 72.2226 16.9419 72.3836 17.0073C72.5446 17.0727 72.6909 17.1691 72.814 17.2907C72.9371 17.4123 73.0346 17.5568 73.1008 17.7158C73.167 17.8749 73.2007 18.0453 73.1999 18.2173Z" fill="#7A718A"/>
<path d="M90.4666 18.2173C90.4666 18.476 90.3889 18.7288 90.2435 18.9439C90.098 19.159 89.8912 19.3266 89.6493 19.4256C89.4074 19.5246 89.1412 19.5505 88.8844 19.5C88.6276 19.4496 88.3917 19.325 88.2066 19.1421C88.0215 18.9592 87.8954 18.7262 87.8443 18.4725C87.7932 18.2188 87.8194 17.9558 87.9196 17.7168C88.0198 17.4778 88.1895 17.2736 88.4072 17.1298C88.6249 16.9861 88.8809 16.9094 89.1427 16.9094C89.3168 16.9086 89.4893 16.9419 89.6503 17.0073C89.8113 17.0727 89.9576 17.1691 90.0807 17.2907C90.2038 17.4123 90.3013 17.5568 90.3675 17.7158C90.4337 17.8749 90.4674 18.0453 90.4666 18.2173Z" fill="#7A718A"/>
<path d="M107.733 18.2173C107.733 18.476 107.656 18.7288 107.51 18.9439C107.365 19.159 107.158 19.3266 106.916 19.4256C106.674 19.5246 106.408 19.5505 106.151 19.5C105.894 19.4496 105.658 19.325 105.473 19.1421C105.288 18.9592 105.162 18.7262 105.111 18.4725C105.06 18.2188 105.086 17.9558 105.186 17.7168C105.287 17.4778 105.456 17.2736 105.674 17.1298C105.892 16.9861 106.148 16.9094 106.409 16.9094C106.584 16.9086 106.756 16.9419 106.917 17.0073C107.078 17.0727 107.224 17.1691 107.347 17.2907C107.47 17.4123 107.568 17.5568 107.634 17.7158C107.7 17.8749 107.734 18.0453 107.733 18.2173Z" fill="#7A718A"/>
<path d="M123.676 19.5252C124.407 19.5252 125 18.9396 125 18.2173C125 17.495 124.407 16.9094 123.676 16.9094C122.945 16.9094 122.352 17.495 122.352 18.2173C122.352 18.9396 122.945 19.5252 123.676 19.5252Z" fill="#7A718A"/>
<path d="M73.1999 35.1267C73.1999 35.3854 73.1222 35.6383 72.9768 35.8533C72.8313 36.0684 72.6245 36.236 72.3826 36.335C72.1407 36.434 71.8745 36.4599 71.6177 36.4095C71.3609 36.359 71.125 36.2344 70.9399 36.0515C70.7548 35.8686 70.6287 35.6356 70.5776 35.3819C70.5265 35.1282 70.5527 34.8652 70.6529 34.6262C70.7531 34.3872 70.9228 34.183 71.1405 34.0393C71.3582 33.8955 71.6142 33.8188 71.876 33.8188C72.0501 33.818 72.2226 33.8513 72.3836 33.9167C72.5446 33.9822 72.6909 34.0785 72.814 34.2001C72.9371 34.3217 73.0346 34.4662 73.1008 34.6252C73.167 34.7843 73.2007 34.9547 73.1999 35.1267Z" fill="#7A718A"/>
<path d="M90.4666 35.1267C90.4666 35.3854 90.3889 35.6383 90.2435 35.8533C90.098 36.0684 89.8912 36.236 89.6493 36.335C89.4074 36.434 89.1412 36.4599 88.8844 36.4095C88.6276 36.359 88.3917 36.2344 88.2066 36.0515C88.0215 35.8686 87.8954 35.6356 87.8443 35.3819C87.7932 35.1282 87.8194 34.8652 87.9196 34.6262C88.0198 34.3872 88.1895 34.183 88.4072 34.0393C88.6249 33.8955 88.8809 33.8188 89.1427 33.8188C89.3168 33.818 89.4893 33.8513 89.6503 33.9167C89.8113 33.9822 89.9576 34.0785 90.0807 34.2001C90.2038 34.3217 90.3013 34.4662 90.3675 34.6252C90.4337 34.7843 90.4674 34.9547 90.4666 35.1267Z" fill="#7A718A"/>
<path d="M107.733 35.1267C107.733 35.3854 107.656 35.6383 107.51 35.8533C107.365 36.0684 107.158 36.236 106.916 36.335C106.674 36.434 106.408 36.4599 106.151 36.4095C105.894 36.359 105.658 36.2344 105.473 36.0515C105.288 35.8686 105.162 35.6356 105.111 35.3819C105.06 35.1282 105.086 34.8652 105.186 34.6262C105.287 34.3872 105.456 34.183 105.674 34.0393C105.892 33.8955 106.148 33.8188 106.409 33.8188C106.584 33.818 106.756 33.8513 106.917 33.9167C107.078 33.9822 107.224 34.0785 107.347 34.2001C107.47 34.3217 107.568 34.4662 107.634 34.6252C107.7 34.7843 107.734 34.9547 107.733 35.1267Z" fill="#7A718A"/>
<path d="M125 35.1267C125 35.3854 124.922 35.6383 124.777 35.8533C124.631 36.0684 124.425 36.236 124.183 36.335C123.941 36.434 123.675 36.4599 123.418 36.4095C123.161 36.359 122.925 36.2344 122.74 36.0515C122.555 35.8686 122.429 35.6356 122.378 35.3819C122.327 35.1282 122.353 34.8652 122.453 34.6262C122.553 34.3872 122.723 34.183 122.941 34.0393C123.158 33.8955 123.414 33.8188 123.676 33.8188C123.85 33.818 124.023 33.8513 124.184 33.9167C124.345 33.9822 124.491 34.0785 124.614 34.2001C124.737 34.3217 124.835 34.4662 124.901 34.6252C124.967 34.7843 125.001 34.9547 125 35.1267Z" fill="#7A718A"/>
<path d="M73.1999 52.0671C73.1999 52.3258 73.1222 52.5787 72.9768 52.7937C72.8313 53.0088 72.6245 53.1764 72.3826 53.2754C72.1407 53.3744 71.8745 53.4003 71.6177 53.3499C71.3609 53.2994 71.125 53.1748 70.9399 52.9919C70.7548 52.809 70.6287 52.576 70.5776 52.3223C70.5265 52.0686 70.5527 51.8056 70.6529 51.5666C70.7531 51.3276 70.9228 51.1234 71.1405 50.9797C71.3582 50.8359 71.6142 50.7592 71.876 50.7592C72.0501 50.7584 72.2226 50.7917 72.3836 50.8571C72.5446 50.9226 72.6909 51.0189 72.814 51.1405C72.9371 51.2621 73.0346 51.4066 73.1008 51.5657C73.167 51.7247 73.2007 51.8951 73.1999 52.0671Z" fill="#7A718A"/>
<path d="M90.4666 52.0671C90.4666 52.3258 90.3889 52.5787 90.2435 52.7937C90.098 53.0088 89.8912 53.1764 89.6493 53.2754C89.4074 53.3744 89.1412 53.4003 88.8844 53.3499C88.6276 53.2994 88.3917 53.1748 88.2066 52.9919C88.0215 52.809 87.8954 52.576 87.8443 52.3223C87.7932 52.0686 87.8194 51.8056 87.9196 51.5666C88.0198 51.3276 88.1895 51.1234 88.4072 50.9797C88.6249 50.8359 88.8809 50.7592 89.1427 50.7592C89.3168 50.7584 89.4893 50.7917 89.6503 50.8571C89.8113 50.9226 89.9576 51.0189 90.0807 51.1405C90.2038 51.2621 90.3013 51.4066 90.3675 51.5657C90.4337 51.7247 90.4674 51.8951 90.4666 52.0671Z" fill="#7A718A"/>
<path d="M107.733 52.0671C107.733 52.3258 107.656 52.5787 107.51 52.7937C107.365 53.0088 107.158 53.1764 106.916 53.2754C106.674 53.3744 106.408 53.4003 106.151 53.3499C105.894 53.2994 105.658 53.1748 105.473 52.9919C105.288 52.809 105.162 52.576 105.111 52.3223C105.06 52.0686 105.086 51.8056 105.186 51.5666C105.287 51.3276 105.456 51.1234 105.674 50.9797C105.892 50.8359 106.148 50.7592 106.409 50.7592C106.584 50.7584 106.756 50.7917 106.917 50.8571C107.078 50.9226 107.224 51.0189 107.347 51.1405C107.47 51.2621 107.568 51.4066 107.634 51.5657C107.7 51.7247 107.734 51.8951 107.733 52.0671Z" fill="#7A718A"/>
<path d="M123.676 53.344C124.407 53.344 125 52.7584 125 52.0361C125 51.3138 124.407 50.7283 123.676 50.7283C122.945 50.7283 122.352 51.3138 122.352 52.0361C122.352 52.7584 122.945 53.344 123.676 53.344Z" fill="#7A718A"/>
</svg>
