<svg width="28" height="26" viewBox="0 0 28 26" fill="none" xmlns="http://www.w3.org/2000/svg">
<path d="M28 7.10801C24.7748 7.95569 21.5954 8.96926 18.4744 10.1447C17.0254 10.6956 15.5764 11.2599 14.1677 11.9049C12.9066 10.4403 11.5918 9.02946 10.1428 7.68579C7.11298 4.82588 3.82535 2.25298 0.321993 0C1.94963 3.18881 3.76865 6.27594 5.76905 9.24444C6.96311 10.9778 8.184 12.6977 9.52563 14.3101C8.49257 14.9013 7.48634 15.5194 6.52036 16.1912C5.55438 16.863 4.46766 17.5349 3.51509 18.3142C2.23407 19.248 1.05576 20.3155 0 21.4987C0.670703 21.1023 1.3652 20.7478 2.07954 20.4372C3.98467 19.6848 5.90321 18.9592 7.80834 18.1798L11.5783 16.6749C13.358 18.4422 15.2833 20.0558 17.334 21.4987C19.6737 23.2307 22.1712 24.7378 24.7935 26L24.1495 25.14C22.137 22.4527 20.1246 19.631 18.0987 16.9705C17.495 16.124 16.8778 15.3044 16.2338 14.4848C20.3429 12.3437 24.2771 9.8816 28 7.12145V7.10801Z" fill="#604FB6"/>
</svg>
