<svg width="114" height="58" viewBox="0 0 114 58" fill="none" xmlns="http://www.w3.org/2000/svg">
<path d="M109.696 2.4901C108.722 3.18889 107.74 3.8816 106.789 4.61213C105.712 5.43653 104.619 6.24484 103.584 7.12099C102.357 8.16272 101.147 9.22053 99.9406 10.2862C99.0665 11.0528 98.2471 11.8795 97.3748 12.65C96.9237 13.049 96.4495 13.4066 95.9606 13.7521C95.5872 14.0224 95.2321 14.3127 94.8478 14.5691C94.722 14.635 94.5922 14.693 94.4593 14.7429C94.4271 14.546 94.4101 14.3516 94.3819 14.1529C94.3537 13.9543 94.3198 13.7534 94.2898 13.5508C94.1893 12.9196 94.11 12.2835 93.9961 11.6535C93.9105 11.2223 93.8258 10.814 93.7108 10.4006C93.653 10.1825 93.5806 9.96858 93.4943 9.76014C93.4023 9.57066 93.2934 9.3899 93.1688 9.22011C92.9662 8.91576 92.704 8.6559 92.3983 8.45651C92.2183 8.33903 92.0162 8.25995 91.8048 8.2242C91.5723 8.18756 91.3355 8.19029 91.1043 8.23227C90.9023 8.27438 90.7045 8.33456 90.5133 8.41209C90.3399 8.47557 90.1711 8.55106 90.0082 8.63802C89.595 8.88191 89.2124 9.1744 88.8684 9.50935L88.0442 10.2208C87.5716 10.6341 87.0898 11.0374 86.6303 11.459C85.6396 12.3716 84.6367 13.2569 83.6582 14.197L80.0579 17.6152C78.9489 18.67 77.8361 19.7266 76.6888 20.7374C75.9883 21.3607 75.2509 21.9534 74.5231 22.5467C73.8093 23.145 73.062 23.7019 72.2848 24.2146C71.4666 24.7212 70.5967 25.1386 69.6896 25.4598C69.4054 25.5344 69.1148 25.5826 68.8215 25.6039C68.6241 25.5946 68.4274 25.5728 68.2327 25.5385C68.0689 25.485 67.9089 25.4298 67.7532 25.3632C67.6938 25.3241 67.6382 25.2832 67.5826 25.2423C67.3966 25.0275 67.2272 24.7987 67.076 24.5579C66.8345 24.1118 66.634 23.6427 66.4158 23.1861L65.8184 21.9131C65.5268 21.259 65.1983 20.622 64.8346 20.0052C64.3855 19.1853 63.7645 18.4727 63.0147 17.9171C62.8226 17.7994 62.6212 17.6978 62.4126 17.6135C62.2039 17.5319 61.9878 17.4713 61.7674 17.4325C61.3586 17.3323 60.9354 17.3083 60.5187 17.3617C60.3081 17.4051 60.102 17.4675 59.9027 17.548L59.7822 17.6019C59.6423 17.6645 59.5024 17.727 59.3748 17.817C58.925 18.0706 58.4961 18.3597 58.0923 18.6818C57.7255 18.9773 57.391 19.3241 57.0534 19.6535C56.7158 19.983 56.3786 20.3029 56.0466 20.6345C55.3233 21.3525 54.6368 22.1009 53.9613 22.8632C53.2857 23.6256 52.7378 24.298 52.1357 25.0368C51.8024 25.4489 51.4635 25.8587 51.145 26.283L49.6817 28.2241L47.4697 31.181L44.9887 34.5165C43.9594 35.916 42.8861 37.2695 41.7185 38.5478C41.2482 39.0461 40.7631 39.5323 40.2632 40.0063C39.7771 40.4777 39.2505 40.9049 38.6894 41.2832C38.243 41.5571 37.7697 41.7845 37.277 41.9618C37.1124 42.0045 36.9447 42.0339 36.7755 42.05C36.6609 42.041 36.5469 42.0262 36.4338 42.0055C36.282 41.9577 36.1338 41.8983 35.9908 41.828C35.9467 41.8042 35.9056 41.7753 35.8683 41.7419C35.6525 41.5018 35.4586 41.2428 35.289 40.9679C35.0516 40.5623 34.8396 40.1405 34.6178 39.7279L33.9631 38.5039C33.6172 37.8462 33.2352 37.2081 32.8191 36.5925C32.569 36.2448 32.294 35.9158 31.9964 35.6081C31.6693 35.2526 31.3047 34.9338 30.9091 34.6574C30.5682 34.426 30.1975 34.2426 29.8074 34.1124C29.4013 33.9743 28.9815 33.8817 28.5555 33.8365C28.1334 33.7921 27.7077 33.7996 27.2879 33.8587C26.7745 33.9411 26.2719 34.0793 25.7889 34.2709C23.9035 34.9451 22.2622 36.1441 20.6619 37.32C19.0615 38.496 17.4698 39.8371 15.9395 41.1696C15.2437 41.772 14.5405 42.3682 13.8777 43.0028C12.8246 44.0122 11.7833 45.0446 10.7539 46.0999C9.04063 47.8053 7.36957 49.5529 5.72068 51.3188L4.39811 52.7509C3.997 53.1886 3.61631 53.6406 3.23173 54.0943C2.41266 55.0571 1.61574 56.038 0.807545 57.0147C2.4488 55.6279 4.0539 54.1915 5.70429 52.8147C7.03727 51.7082 8.35632 50.5845 9.66144 49.4435C11.0989 48.1745 12.5241 46.8953 13.9369 45.606L15.1519 44.4756C15.8829 43.8058 16.6191 43.1479 17.3553 42.4899C18.4548 41.5285 19.5581 40.5655 20.6998 39.6463C21.2696 39.1895 21.8519 38.7506 22.4343 38.3117C23.0167 37.8728 23.726 37.363 24.3764 36.9406C25.2111 36.428 26.1015 36.0125 27.0305 35.7019C27.362 35.6163 27.7016 35.5651 28.0439 35.5492C28.3479 35.5628 28.6506 35.5985 28.9497 35.6559C29.2169 35.7294 29.4779 35.8247 29.7299 35.9409C29.9815 36.1004 30.2188 36.2819 30.4388 36.4832C30.9151 36.9542 31.3423 37.4727 31.7138 38.0308C32.2321 38.8978 32.6922 39.7908 33.1604 40.6709C33.2427 40.8548 33.3249 41.0387 33.4326 41.2065C33.6338 41.5995 33.856 41.9814 34.0981 42.3505C34.2115 42.5205 34.3252 42.681 34.4506 42.8362C34.5827 42.9937 34.7333 43.1345 34.8992 43.2554C35.0743 43.3777 35.2604 43.4831 35.4551 43.5703C35.5832 43.6322 35.7156 43.6844 35.8513 43.7265L36.282 43.8344C36.682 43.8969 37.0896 43.8864 37.4851 43.8034C37.8954 43.7124 38.2938 43.5751 38.673 43.3942C39.5547 42.9812 40.3694 42.4379 41.0903 41.7825C41.4461 41.473 41.782 41.1397 42.1178 40.8063C42.4537 40.473 42.7899 40.1301 43.1149 39.7828C43.8102 39.0022 44.4862 38.2303 45.1298 37.4071C45.4326 37.0415 45.697 36.6838 45.9704 36.3361L46.5498 35.5464L48.3133 33.161C48.9892 32.2326 49.6672 31.3158 50.3472 30.4106L52.4994 27.518C52.8484 27.0473 53.2178 26.5909 53.5833 26.1362C54.3888 25.1327 55.2182 24.1512 56.0918 23.2064C56.6639 22.5983 57.2507 22.0025 57.8558 21.4266C58.437 20.8377 59.0662 20.2987 59.7369 19.8151C60.0459 19.6277 60.3709 19.4682 60.7081 19.3385L60.8694 19.3133C60.9897 19.3205 61.1095 19.3343 61.2283 19.3547C61.4011 19.4031 61.5696 19.4659 61.732 19.5426C61.8408 19.6101 61.9455 19.684 62.0455 19.764C62.3945 20.1439 62.7069 20.5561 62.9785 20.995C63.3102 21.5698 63.5853 22.1746 63.8605 22.7794C64.0512 23.2059 64.2438 23.6364 64.4345 24.0629C64.6253 24.4894 64.8633 25.0216 65.0768 25.499C65.1731 25.7142 65.3238 25.9051 65.4494 26.1025C65.5749 26.2999 65.6747 26.4291 65.7962 26.586C65.9397 26.7541 66.0968 26.91 66.2658 27.0522C66.3629 27.1309 66.4683 27.1987 66.5801 27.2544C66.7181 27.3336 66.8564 27.4032 66.9987 27.471C67.1776 27.5507 67.3625 27.6156 67.5518 27.6651C67.7717 27.727 67.9954 27.7744 68.2214 27.807C68.4123 27.8304 68.6046 27.8386 68.7966 27.8315C69.0295 27.8288 69.262 27.8126 69.493 27.783C69.9418 27.7034 70.3814 27.5791 70.8052 27.4121C71.2871 27.2365 71.7558 27.0268 72.2079 26.7847C73.0401 26.3506 73.8361 25.8501 74.5881 25.2881C75.4042 24.6836 76.1715 24.0117 76.9493 23.3633C78.4674 22.0973 79.8559 20.6874 81.2787 19.3232C81.7115 18.9042 82.1373 18.4696 82.574 18.0489C83.5454 17.0932 84.5116 16.1257 85.4917 15.1896L87.9379 12.8605C88.3225 12.5006 88.7293 12.159 89.1213 11.8053L89.7623 11.2368C90.0841 10.9332 90.425 10.6506 90.7827 10.3906C90.9332 10.3139 91.0876 10.2449 91.2451 10.1838L91.3277 10.1704C91.4024 10.2556 91.4721 10.3452 91.5363 10.4387C91.6108 10.5741 91.6741 10.7154 91.7253 10.8613C91.917 11.7091 92.0551 12.568 92.1387 13.4329C92.1855 13.8815 92.2478 14.3232 92.2664 14.761C92.2706 14.8953 92.2747 15.0297 92.2827 15.1623C92.3087 15.3786 92.3671 15.59 92.4559 15.7892L92.6081 16.0357C92.6663 16.1341 92.7342 16.2265 92.8107 16.3114C92.9533 16.473 93.1147 16.6168 93.2914 16.7398C93.3377 16.7695 93.3857 16.7966 93.435 16.8211C93.5499 16.9084 93.6834 16.9677 93.8248 16.9942C94.0582 17.0651 94.3032 17.0881 94.5452 17.0618C94.9878 17.0043 95.4137 16.857 95.797 16.6287C96.1717 16.4138 96.5319 16.1742 96.8752 15.9117C97.2054 15.6701 97.5353 15.438 97.8637 15.1925C98.6848 14.5663 99.4602 13.8821 100.184 13.1451C101.571 11.783 102.931 10.4044 104.277 9.00401C106.137 7.06386 108.045 5.17762 109.947 3.27965L111.416 1.81021C112.03 1.20218 112.631 0.585889 113.269 4.05835e-05C112.052 0.793102 110.877 1.64747 109.696 2.4901Z" fill="#7564CC"/>
</svg>
