<svg width="71" height="71" viewBox="0 0 71 71" fill="none" xmlns="http://www.w3.org/2000/svg">
<path d="M3.45264 1.73979C3.45264 2.08388 3.35139 2.42024 3.1617 2.70634C2.97201 2.99244 2.7024 3.21543 2.38695 3.34711C2.07151 3.47879 1.72441 3.51324 1.38953 3.44611C1.05466 3.37898 0.747059 3.21329 0.505629 2.96998C0.264199 2.72667 0.0997827 2.41668 0.0331723 2.0792C-0.0334381 1.74172 0.00074878 1.39191 0.13141 1.07402C0.262071 0.756119 0.483337 0.484407 0.767229 0.29324C1.05112 0.102074 1.38489 3.94549e-05 1.72632 3.94549e-05C1.95333 -0.00105256 2.1783 0.043202 2.38823 0.130246C2.59817 0.21729 2.78891 0.345397 2.94943 0.507166C3.10995 0.668935 3.23707 0.861157 3.32344 1.07273C3.40981 1.2843 3.45372 1.51102 3.45264 1.73979Z" fill="#4D3E6A"/>
<path d="M25.9684 1.73977C25.9684 2.08386 25.8672 2.42022 25.6775 2.70632C25.4878 2.99243 25.2182 3.21541 24.9027 3.34709C24.5873 3.47877 24.2402 3.51322 23.9053 3.44609C23.5704 3.37896 23.2628 3.21327 23.0214 2.96996C22.78 2.72665 22.6156 2.41666 22.549 2.07918C22.4823 1.7417 22.5165 1.39189 22.6472 1.074C22.7779 0.756099 22.9991 0.484387 23.283 0.293221C23.5669 0.102054 23.9007 1.97275e-05 24.2421 1.97275e-05C24.4691 -0.00107229 24.6941 0.0431822 24.904 0.130226C25.1139 0.21727 25.3047 0.345378 25.4652 0.507146C25.6257 0.668915 25.7528 0.861138 25.8392 1.07271C25.9256 1.28428 25.9695 1.511 25.9684 1.73977Z" fill="#4D3E6A"/>
<path d="M48.4842 1.73977C48.4842 2.08386 48.383 2.42022 48.1933 2.70632C48.0036 2.99243 47.734 3.21541 47.4185 3.34709C47.1031 3.47877 46.756 3.51322 46.4211 3.44609C46.0862 3.37896 45.7786 3.21327 45.5372 2.96996C45.2958 2.72665 45.1313 2.41666 45.0647 2.07918C44.9981 1.7417 45.0323 1.39189 45.163 1.074C45.2936 0.756099 45.5149 0.484387 45.7988 0.293221C46.0827 0.102054 46.4165 1.97275e-05 46.7579 1.97275e-05C46.9849 -0.00107229 47.2099 0.0431822 47.4198 0.130226C47.6297 0.21727 47.8205 0.345378 47.981 0.507146C48.1415 0.668915 48.2686 0.861138 48.355 1.07271C48.4414 1.28428 48.4853 1.511 48.4842 1.73977Z" fill="#4D3E6A"/>
<path d="M69.2737 3.47952C70.2271 3.47952 71 2.70061 71 1.73977C71 0.778933 70.2271 1.97275e-05 69.2737 1.97275e-05C68.3202 1.97275e-05 67.5473 0.778933 67.5473 1.73977C67.5473 2.70061 68.3202 3.47952 69.2737 3.47952Z" fill="#4D3E6A"/>
<path d="M3.45264 24.2329C3.45264 24.5769 3.35139 24.9133 3.1617 25.1994C2.97201 25.4855 2.7024 25.7085 2.38695 25.8402C2.07151 25.9719 1.7244 26.0063 1.38953 25.9392C1.05466 25.872 0.747058 25.7064 0.505628 25.463C0.264198 25.2197 0.0997819 24.9097 0.0331715 24.5723C-0.0334389 24.2348 0.000748 23.885 0.131409 23.5671C0.26207 23.2492 0.483337 22.9775 0.767228 22.7863C1.05112 22.5951 1.38489 22.4931 1.72632 22.4931C1.95333 22.492 2.1783 22.5363 2.38823 22.6233C2.59817 22.7104 2.78891 22.8385 2.94943 23.0002C3.10995 23.162 3.23707 23.3542 3.32344 23.5658C3.40981 23.7774 3.45372 24.0041 3.45264 24.2329Z" fill="#4D3E6A"/>
<path d="M25.9684 24.2329C25.9684 24.5769 25.8672 24.9133 25.6775 25.1994C25.4878 25.4855 25.2182 25.7085 24.9027 25.8402C24.5873 25.9719 24.2402 26.0063 23.9053 25.9392C23.5704 25.872 23.2628 25.7064 23.0214 25.463C22.78 25.2197 22.6156 24.9097 22.549 24.5723C22.4823 24.2348 22.5165 23.885 22.6472 23.5671C22.7779 23.2492 22.9991 22.9775 23.283 22.7863C23.5669 22.5951 23.9007 22.4931 24.2421 22.4931C24.4691 22.492 24.6941 22.5363 24.904 22.6233C25.1139 22.7104 25.3047 22.8385 25.4652 23.0002C25.6257 23.162 25.7528 23.3542 25.8392 23.5658C25.9256 23.7774 25.9695 24.0041 25.9684 24.2329Z" fill="#4D3E6A"/>
<path d="M48.4842 24.2329C48.4842 24.5769 48.383 24.9133 48.1933 25.1994C48.0036 25.4855 47.734 25.7085 47.4185 25.8402C47.1031 25.9719 46.756 26.0063 46.4211 25.9392C46.0862 25.872 45.7786 25.7064 45.5372 25.463C45.2958 25.2197 45.1313 24.9097 45.0647 24.5723C44.9981 24.2348 45.0323 23.885 45.163 23.5671C45.2936 23.2492 45.5149 22.9775 45.7988 22.7863C46.0827 22.5951 46.4165 22.4931 46.7579 22.4931C46.9849 22.492 47.2099 22.5363 47.4198 22.6233C47.6297 22.7104 47.8205 22.8385 47.981 23.0002C48.1415 23.162 48.2686 23.3542 48.355 23.5658C48.4414 23.7774 48.4853 24.0041 48.4842 24.2329Z" fill="#4D3E6A"/>
<path d="M69.2737 25.9726C70.2271 25.9726 71 25.1937 71 24.2329C71 23.272 70.2271 22.4931 69.2737 22.4931C68.3202 22.4931 67.5473 23.272 67.5473 24.2329C67.5473 25.1937 68.3202 25.9726 69.2737 25.9726Z" fill="#4D3E6A"/>
<path d="M3.45264 46.7259C3.45264 47.07 3.35139 47.4064 3.1617 47.6925C2.97201 47.9786 2.7024 48.2016 2.38695 48.3333C2.07151 48.4649 1.7244 48.4994 1.38953 48.4323C1.05466 48.3651 0.747058 48.1994 0.505628 47.9561C0.264198 47.7128 0.0997819 47.4028 0.0331715 47.0653C-0.0334389 46.7279 0.000748 46.3781 0.131409 46.0602C0.26207 45.7423 0.483337 45.4706 0.767228 45.2794C1.05112 45.0882 1.38489 44.9862 1.72632 44.9862C1.95333 44.9851 2.1783 45.0294 2.38823 45.1164C2.59817 45.2034 2.78891 45.3316 2.94943 45.4933C3.10995 45.6551 3.23707 45.8473 3.32344 46.0589C3.40981 46.2704 3.45372 46.4972 3.45264 46.7259Z" fill="#4D3E6A"/>
<path d="M25.9684 46.7259C25.9684 47.07 25.8672 47.4064 25.6775 47.6925C25.4878 47.9786 25.2182 48.2016 24.9027 48.3333C24.5873 48.4649 24.2402 48.4994 23.9053 48.4323C23.5704 48.3651 23.2628 48.1994 23.0214 47.9561C22.78 47.7128 22.6156 47.4028 22.549 47.0653C22.4823 46.7279 22.5165 46.3781 22.6472 46.0602C22.7779 45.7423 22.9991 45.4706 23.283 45.2794C23.5669 45.0882 23.9007 44.9862 24.2421 44.9862C24.4691 44.9851 24.6941 45.0294 24.904 45.1164C25.1139 45.2034 25.3047 45.3316 25.4652 45.4933C25.6257 45.6551 25.7528 45.8473 25.8392 46.0589C25.9256 46.2704 25.9695 46.4972 25.9684 46.7259Z" fill="#4D3E6A"/>
<path d="M48.4842 46.7259C48.4842 47.07 48.383 47.4064 48.1933 47.6925C48.0036 47.9786 47.734 48.2016 47.4185 48.3333C47.1031 48.4649 46.756 48.4994 46.4211 48.4323C46.0862 48.3651 45.7786 48.1994 45.5372 47.9561C45.2958 47.7128 45.1313 47.4028 45.0647 47.0653C44.9981 46.7279 45.0323 46.3781 45.163 46.0602C45.2936 45.7423 45.5149 45.4706 45.7988 45.2794C46.0827 45.0882 46.4165 44.9862 46.7579 44.9862C46.9849 44.9851 47.2099 45.0294 47.4198 45.1164C47.6297 45.2034 47.8205 45.3316 47.981 45.4933C48.1415 45.6551 48.2686 45.8473 48.355 46.0589C48.4414 46.2704 48.4853 46.4972 48.4842 46.7259Z" fill="#4D3E6A"/>
<path d="M71 46.7259C71 47.07 70.8987 47.4064 70.709 47.6925C70.5194 47.9786 70.2497 48.2016 69.9343 48.3333C69.6189 48.4649 69.2718 48.4994 68.9369 48.4323C68.602 48.3651 68.2944 48.1994 68.053 47.9561C67.8115 47.7128 67.6471 47.4028 67.5805 47.0653C67.5139 46.7279 67.5481 46.3781 67.6787 46.0602C67.8094 45.7423 68.0307 45.4706 68.3146 45.2794C68.5985 45.0882 68.9322 44.9862 69.2737 44.9862C69.5007 44.9851 69.7256 45.0294 69.9356 45.1164C70.1455 45.2034 70.3363 45.3316 70.4968 45.4933C70.6573 45.6551 70.7844 45.8473 70.8708 46.0589C70.9572 46.2704 71.0011 46.4972 71 46.7259Z" fill="#4D3E6A"/>
<path d="M3.45264 69.2602C3.45264 69.6043 3.35139 69.9407 3.1617 70.2268C2.97201 70.5129 2.7024 70.7359 2.38695 70.8676C2.07151 70.9992 1.7244 71.0337 1.38953 70.9666C1.05466 70.8994 0.747058 70.7337 0.505628 70.4904C0.264198 70.2471 0.0997819 69.9371 0.0331715 69.5997C-0.0334389 69.2622 0.000748 68.9124 0.131409 68.5945C0.26207 68.2766 0.483337 68.0049 0.767228 67.8137C1.05112 67.6225 1.38489 67.5205 1.72632 67.5205C1.95333 67.5194 2.1783 67.5637 2.38823 67.6507C2.59817 67.7378 2.78891 67.8659 2.94943 68.0276C3.10995 68.1894 3.23707 68.3816 3.32344 68.5932C3.40981 68.8048 3.45372 69.0315 3.45264 69.2602Z" fill="#4D3E6A"/>
<path d="M25.9684 69.2602C25.9684 69.6043 25.8672 69.9407 25.6775 70.2268C25.4878 70.5129 25.2182 70.7359 24.9027 70.8676C24.5873 70.9992 24.2402 71.0337 23.9053 70.9666C23.5704 70.8994 23.2628 70.7337 23.0214 70.4904C22.78 70.2471 22.6156 69.9371 22.549 69.5997C22.4823 69.2622 22.5165 68.9124 22.6472 68.5945C22.7779 68.2766 22.9991 68.0049 23.283 67.8137C23.5669 67.6225 23.9007 67.5205 24.2421 67.5205C24.4691 67.5194 24.6941 67.5637 24.904 67.6507C25.1139 67.7378 25.3047 67.8659 25.4652 68.0276C25.6257 68.1894 25.7528 68.3816 25.8392 68.5932C25.9256 68.8048 25.9695 69.0315 25.9684 69.2602Z" fill="#4D3E6A"/>
<path d="M48.4842 69.2602C48.4842 69.6043 48.383 69.9407 48.1933 70.2268C48.0036 70.5129 47.734 70.7359 47.4185 70.8676C47.1031 70.9992 46.756 71.0337 46.4211 70.9666C46.0862 70.8994 45.7786 70.7337 45.5372 70.4904C45.2958 70.2471 45.1313 69.9371 45.0647 69.5997C44.9981 69.2622 45.0323 68.9124 45.163 68.5945C45.2936 68.2766 45.5149 68.0049 45.7988 67.8137C46.0827 67.6225 46.4165 67.5205 46.7579 67.5205C46.9849 67.5194 47.2099 67.5637 47.4198 67.6507C47.6297 67.7378 47.8205 67.8659 47.981 68.0276C48.1415 68.1894 48.2686 68.3816 48.355 68.5932C48.4414 68.8048 48.4853 69.0315 48.4842 69.2602Z" fill="#4D3E6A"/>
<path d="M69.2737 70.9588C70.2271 70.9588 71 70.1799 71 69.219C71 68.2582 70.2271 67.4793 69.2737 67.4793C68.3202 67.4793 67.5473 68.2582 67.5473 69.219C67.5473 70.1799 68.3202 70.9588 69.2737 70.9588Z" fill="#4D3E6A"/>
</svg>
