<svg width="68" height="61" viewBox="0 0 68 61" fill="none" xmlns="http://www.w3.org/2000/svg">
<ellipse cx="34" cy="51.5" rx="34" ry="9.5" fill="#392A56"/>
<path d="M47.5 22.95C47.05 22.95 46.75 23.29 46.75 23.8C46.75 28.56 43.3 32.2999 38.875 32.2999H32.125C27.7 32.2999 24.25 28.5599 24.25 23.8C24.25 23.29 23.95 22.95 23.5 22.95C23.05 22.95 22.7501 23.29 22.7501 23.8C22.7501 29.4949 26.875 34 32.1251 34H38.8751C44.1251 34 48.2501 29.4949 48.2501 23.8C48.25 23.29 47.95 22.95 47.5 22.95Z" fill="#F57064"/>
<path d="M53.575 6.80003H51.25V2.46503C51.25 1.10497 50.275 0 49.15 0H21.925C20.725 0 19.75 1.10497 19.75 2.46503V6.80003H17.425C15.025 6.80003 13 9.18 13 11.9V19.55C13 23.12 14.65 26.52 17.35 28.3901L21.625 31.28L22.0985 31.5867C24.1416 34.7825 27.3433 36.9664 31 37.3416V40.8H30.925C29.7251 40.8 28.75 41.905 28.75 43.265V44.2001H27.25C24.325 44.2001 22 46.835 22 50.15C22 50.66 22.3 51 22.75 51H48.2499C48.6999 51 48.9999 50.66 48.9999 50.15C48.9999 46.835 46.6749 44.2001 43.7499 44.2001H42.1749V43.265C42.1749 41.9051 41.2 40.8 39.9999 40.8H39.8499V37.3566C43.6389 37.0206 46.9529 34.7442 49.017 31.4226L53.6499 28.305C56.35 26.435 58 23.12 58 19.55V11.9C58 9.09503 55.975 6.80003 53.575 6.80003ZM21.25 2.46503C21.25 2.04 21.55 1.70003 21.925 1.70003H49.0751C49.4501 1.70003 49.7501 2.04 49.7501 2.46503V5.1H21.25V2.46503ZM19.7611 23.9446L19.675 23.885C18.325 23.0351 17.5 21.335 17.5 19.55V11.9H19.75V23.375C19.75 23.5659 19.7543 23.7555 19.7611 23.9446ZM18.175 26.86C15.925 25.33 14.5 22.525 14.5 19.5499V11.8999C14.5 10.03 15.85 8.49997 17.425 8.49997H19.75V10.2H17.35C16.6 10.2 16 11.135 16 11.9V19.55C16 21.93 17.125 24.225 18.925 25.415L19.992 26.1406C20.1386 26.9683 20.3493 27.7701 20.6187 28.5386L18.175 26.86ZM47.425 49.3H23.575C23.95 47.3449 25.45 45.9 27.25 45.9H43.7499C45.55 45.9 47.05 47.345 47.425 49.3ZM40.075 42.5C40.45 42.5 40.75 42.84 40.75 43.265V44.2001H30.25V43.265C30.25 42.84 30.55 42.5 30.925 42.5H40.075ZM32.5 40.8V37.4H38.5001V40.8H32.5ZM39.4019 35.7703C39.3145 35.7238 39.2176 35.7 39.1 35.7H38.95C38.875 35.7 38.875 35.7 38.7999 35.7H32.0499C31.975 35.7 31.975 35.7 31.8999 35.7H31.7499C31.6752 35.7 31.5817 35.7211 31.4883 35.7634C28.089 35.5402 25.1053 33.5431 23.249 30.5772C23.2311 30.4684 23.1914 30.3604 23.1248 30.2599C22.2248 28.8149 21.6999 27.1999 21.3998 25.4149C21.3929 25.3915 21.3848 25.3682 21.3767 25.3449C21.2932 24.7302 21.2499 24.1008 21.2499 23.4599V6.80003H49.7499V23.46C49.75 30.0597 45.1578 35.458 39.4019 35.7703ZM51.25 23.46V12.07H53.5V19.72C53.5 21.505 52.675 23.1199 51.325 24.055L51.2358 24.1167C51.2449 23.899 51.25 23.6801 51.25 23.46ZM56.575 19.55C56.575 22.5251 55.1501 25.3301 52.9001 26.8601L50.4251 28.5601C50.6501 27.7951 50.8751 27.0301 51.0251 26.1801L52.0001 25.3302C53.8001 24.1401 54.9251 21.9302 54.9251 19.5501V11.9001C54.9251 11.0502 54.4001 10.2001 53.5751 10.2001H51.25V8.49997H53.65C55.225 8.49997 56.575 10.03 56.575 11.8999V19.55Z" fill="#F57064"/>
<path d="M31.675 18.87L31 23.63C30.925 23.97 31.075 24.3101 31.3 24.48C31.525 24.65 31.9 24.65 32.125 24.48L35.5 22.27L38.875 24.565C39.025 24.6499 39.1 24.6499 39.25 24.6499C39.4001 24.6499 39.55 24.565 39.7 24.4799C39.925 24.3099 40.0751 23.9699 40 23.6299L39.325 18.8699L42.1 14.8749C42.25 14.6199 42.325 14.1948 42.1749 13.9398C42.0249 13.5999 41.7999 13.4298 41.4999 13.4298H37.8999L36.1749 9.60483C35.8749 9.00987 35.0499 9.00987 34.8249 9.60483L33.0999 13.4298H29.4999C29.1999 13.4298 28.9749 13.6848 28.8249 13.9398C28.6749 14.2798 28.7499 14.6199 28.8999 14.8749L31.675 18.87ZM33.55 15.3C33.8499 15.3 34.0749 15.13 34.225 14.875L35.5 12.07L36.775 14.875C36.9251 15.13 37.1501 15.3 37.45 15.3H39.925L37.9 18.19C37.75 18.36 37.75 18.615 37.75 18.87L38.275 22.1L35.8749 20.57C35.7249 20.4851 35.6499 20.4851 35.4999 20.4851C35.3499 20.4851 35.2749 20.4851 35.1999 20.6551L32.7999 22.1851L33.2499 18.8701C33.3249 18.6151 33.2499 18.3601 33.0999 18.1901L31.0749 15.3001L33.55 15.3Z" fill="#F57064"/>
</svg>
