<svg width="49" height="53" viewBox="0 0 49 53" fill="none" xmlns="http://www.w3.org/2000/svg">
<path d="M1.03475 40.4014C1.03884 40.4145 1.03602 40.4278 1.04078 40.4408C5.0933 51.4527 14.3915 52.9339 17.6324 52.5757L17.6463 52.5742C19.5603 52.3593 20.0542 51.6262 20.1311 51.0476C20.6693 46.995 23.5258 42.0958 27.1959 37.2761C27.3041 37.1914 27.3896 37.0814 27.4447 36.9558C33.7096 28.8138 42.193 20.9673 45.6675 17.8727C45.6823 17.8639 45.6988 17.858 45.7135 17.8492C46.3088 17.5054 46.8287 17.0461 47.2425 16.4985L47.2514 16.4848L47.2547 16.4819C47.3656 16.3828 47.4472 16.2554 47.4907 16.1135C47.9711 15.3559 48.2375 14.4835 48.2621 13.5882C48.3683 8.88635 43.6532 5.18639 42.2097 4.16649C40.9912 3.26219 39.6751 2.49606 38.2858 1.88226C36.2936 1.03834 34.1399 0.637754 31.9753 0.708456C30.6386 0.750429 28.1628 0.829044 26.9849 3.32927C24.5364 8.34727 21.5157 13.0681 17.9825 17.3985C16.0831 19.7733 13.9866 22.1494 11.7486 24.4641C9.35675 26.911 6.831 29.2245 4.18297 31.3941L2.75878 32.6047C2.2345 33.0582 2.01789 33.7709 2.20182 34.4373C2.73629 36.2431 2.60931 38.553 1.3326 39.4743C1.3143 39.4874 1.30539 39.5075 1.28843 39.5213C1.25902 39.5486 1.23169 39.578 1.20668 39.6093C1.15899 39.66 1.11796 39.7165 1.08457 39.7774C1.07161 39.8067 1.06045 39.8367 1.05112 39.8673C1.00629 39.9642 0.988752 40.0714 1.00039 40.1774C1.00114 40.2533 1.0127 40.3287 1.03475 40.4014ZM31.2531 9.11032C31.4122 9.52763 31.6046 9.93161 31.8282 10.3184C32.8597 12.1397 34.1826 13.781 35.7448 15.1778C38.0922 17.2934 40.2702 18.3983 42.3866 18.5666C40.1424 20.625 37.1422 23.4829 34.0176 26.7658C30.1776 25.1014 26.6871 22.7318 23.7284 19.7808C24.0781 19.3266 24.4295 18.8734 24.7698 18.4153C26.2813 16.3872 27.7182 14.2746 29.1075 12.2319C29.8051 11.2056 30.5227 10.1596 31.2531 9.11032ZM28.5041 4.0413C29.1275 2.71911 30.2184 2.43841 32.0304 2.38011C33.9523 2.31741 35.8644 2.67378 37.6327 3.42427C38.9076 3.99071 40.1151 4.69663 41.2331 5.52901C42.5097 6.43079 46.6692 9.67415 46.5826 13.5502C46.5642 14.2007 46.355 14.8319 45.9809 15.3658C45.7354 15.5758 45.2867 15.9635 44.6784 16.5008C44.1443 16.7798 43.5506 16.9264 42.9477 16.9283C41.0912 16.9279 39.1043 15.9493 36.8681 13.9334C35.4406 12.657 34.2318 11.1572 33.2891 9.49315C32.8616 8.8648 32.639 8.12029 32.6519 7.36105C32.6769 7.16927 32.7509 6.98707 32.8669 6.83191L32.8675 6.83109C33.4153 6.37984 34.1439 6.21079 34.835 6.37457C36.5364 6.6592 38.1288 7.39576 39.4443 8.50661C39.9613 8.89893 40.4239 9.35755 40.8202 9.87058C41.1232 10.232 41.2439 10.7115 41.1481 11.1728C41.0651 11.3895 40.8398 11.5176 40.6103 11.4785C39.2245 11.1682 38.0421 10.2752 37.3686 9.03015C37.1296 8.63436 36.6134 8.50681 36.2157 8.74526C35.8181 8.98372 35.6895 9.49787 35.9286 9.89366C36.8503 11.5717 38.4704 12.7572 40.3541 13.1321C41.3894 13.299 42.3957 12.6993 42.7379 11.7115C43.029 10.7389 42.8226 9.68633 42.1856 8.89502C41.7041 8.26063 41.1391 7.69373 40.5056 7.20957C38.9503 5.9041 37.0686 5.04284 35.0603 4.71722C33.8126 4.46156 32.5185 4.8417 31.609 5.731C31.5985 5.74262 31.5834 5.74852 31.5735 5.76083C31.5602 5.77738 31.5496 5.79406 31.5378 5.8107C31.5158 5.84011 31.4842 5.88153 31.4768 5.89212L31.4713 5.90217C30.1758 7.67771 28.9258 9.51633 27.7159 11.2948C26.3376 13.3231 24.911 15.4201 23.4203 17.42C23.1362 17.8018 22.8428 18.1791 22.5527 18.5576C22.1645 18.1287 21.7726 17.6809 21.3639 17.1831C21.1754 16.9559 20.9975 16.7193 20.8164 16.4856C23.7959 12.6075 26.3717 8.43793 28.5041 4.0413ZM19.2955 18.4405C19.4529 18.2441 19.6012 18.0473 19.7561 17.8508C19.8599 17.9809 19.9601 18.1175 20.066 18.2452C20.7354 19.061 21.3708 19.7784 22.0078 20.4392C25.0873 23.6383 28.7506 26.224 32.8022 28.0583C30.6024 30.4262 28.39 32.9753 26.3757 35.5747C22.3522 33.83 18.7488 31.2516 15.8052 28.0111C14.9673 27.0829 14.1889 26.1032 13.4744 25.0778C15.5516 22.8991 17.5115 20.6702 19.2955 18.4405ZM21.5826 34.9664L17.9936 39.682C17.9682 39.7181 17.9238 39.736 17.8804 39.7276C17.8367 39.7213 17.8021 39.6879 17.7943 39.6447L17.4523 38.6857C17.2125 38.0114 16.594 37.5432 15.8772 37.4936L14.8359 37.4234C14.7968 37.4237 14.7616 37.3998 14.7474 37.3635C14.7269 37.3243 14.7323 37.2765 14.7611 37.2428L18.2753 32.6247C19.328 33.4729 20.4325 34.2546 21.5826 34.9664ZM3.8167 33.9774C3.80925 33.9375 3.82433 33.8967 3.85599 33.8711L5.27187 32.667C7.72599 30.5844 9.87738 28.7542 12.2921 26.3044C12.8595 27.0917 13.4519 27.8419 14.0694 28.5552C11.0219 31.8217 7.68702 34.81 4.10472 37.4844C4.25086 36.3079 4.15282 35.1142 3.8167 33.9774ZM15.1969 29.7998C15.7742 30.4018 16.3698 30.9868 16.9929 31.5424L13.4231 36.2332C13.0191 36.7618 12.9425 37.4696 13.2241 38.0711C13.499 38.6646 14.0808 39.058 14.7363 39.0936L15.7686 39.1635C15.8138 39.1686 15.8521 39.1989 15.8673 39.2416L16.2068 40.1923C16.4162 40.817 16.9565 41.2742 17.6096 41.3791C18.2674 41.4864 18.931 41.2215 19.3327 40.6913L23.0422 35.817C23.7904 36.2267 24.5586 36.5966 25.3361 36.9454C21.8191 41.6916 19.0941 46.5256 18.4897 50.6606C18.0393 50.9131 16.2622 51.2003 13.7798 50.5876C10.8949 49.8746 5.7167 47.5984 2.85522 40.4469C7.33601 37.3432 11.4732 33.7741 15.1969 29.7998Z" fill="#45C8C2"/>
</svg>
