<svg width="68" height="59" viewBox="0 0 68 59" fill="none" xmlns="http://www.w3.org/2000/svg">
<ellipse cx="34" cy="49.5" rx="34" ry="9.5" fill="#392A56"/>
<path d="M23.5 28.7147C24.2343 29.4159 24.8195 30.2579 25.2204 31.1905C25.6213 32.123 25.8298 33.1269 25.8333 34.1418V34.3284C25.3476 34.5 24.9267 34.8175 24.6284 35.2373C24.3301 35.6572 24.1688 36.1589 24.1667 36.6738V37.5067C24.1688 38.0216 24.3301 38.5233 24.6284 38.9432C24.9267 39.363 25.3476 39.6805 25.8333 39.8521V43.3369H25C24.779 43.3369 24.567 43.4247 24.4107 43.5809C24.2545 43.737 24.1667 43.9489 24.1667 44.1698C24.1667 44.3907 24.2545 44.6025 24.4107 44.7587C24.567 44.9149 24.779 45.0027 25 45.0027H25.8333C25.8347 46.3276 26.3619 47.598 27.2993 48.5349C28.2367 49.4718 29.5077 49.9987 30.8333 50H39.1667C40.4923 49.9987 41.7633 49.4718 42.7007 48.5349C43.6381 47.598 44.1653 46.3276 44.1667 45.0027H45C45.221 45.0027 45.433 44.9149 45.5893 44.7587C45.7455 44.6025 45.8333 44.3907 45.8333 44.1698C45.8333 43.9489 45.7455 43.737 45.5893 43.5809C45.433 43.4247 45.221 43.3369 45 43.3369H44.1667V39.8521C44.6524 39.6805 45.0733 39.363 45.3716 38.9432C45.6699 38.5233 45.8312 38.0216 45.8333 37.5067V36.6738C45.8312 36.1589 45.6699 35.6572 45.3716 35.2373C45.0733 34.8175 44.6524 34.5 44.1667 34.3284V34.1502C44.1753 33.1166 44.394 32.0956 44.8094 31.1491C45.2248 30.2026 45.8283 29.3503 46.5833 28.644C48.1964 27.0982 49.4787 25.2411 50.3525 23.1854C51.2262 21.1297 51.6733 18.9181 51.6667 16.6845C51.6711 13.9272 50.9906 11.2118 49.6863 8.78212C48.3819 6.3524 46.4945 4.2843 44.1933 2.76335C41.8921 1.24239 39.2492 0.316161 36.5016 0.0677442C33.7539 -0.180673 30.9876 0.256495 28.4507 1.34003C25.9138 2.42356 23.6857 4.11957 21.9662 6.2759C20.2468 8.43223 19.0898 10.9814 18.5991 13.6948C18.1084 16.4082 18.2993 19.2009 19.1547 21.8224C20.01 24.4439 21.5031 26.8122 23.5 28.7147ZM42.5 43.3369H40C39.779 43.3369 39.567 43.4247 39.4107 43.5809C39.2545 43.737 39.1667 43.9489 39.1667 44.1698C39.1667 44.3907 39.2545 44.6025 39.4107 44.7587C39.567 44.9149 39.779 45.0027 40 45.0027H42.5C42.5 45.8863 42.1488 46.7337 41.5237 47.3584C40.8986 47.9832 40.0507 48.3342 39.1667 48.3342H30.8333C29.9493 48.3342 29.1014 47.9832 28.4763 47.3584C27.8512 46.7337 27.5 45.8863 27.5 45.0027H30C30.221 45.0027 30.433 44.9149 30.5893 44.7587C30.7455 44.6025 30.8333 44.3907 30.8333 44.1698C30.8333 43.9489 30.7455 43.737 30.5893 43.5809C30.433 43.4247 30.221 43.3369 30 43.3369H27.5V40.0054H42.5V43.3369ZM44.1667 37.5067C44.1667 37.7276 44.0789 37.9394 43.9226 38.0956C43.7663 38.2518 43.5543 38.3396 43.3333 38.3396H26.6667C26.4457 38.3396 26.2337 38.2518 26.0774 38.0956C25.9211 37.9394 25.8333 37.7276 25.8333 37.5067V36.6738C25.8333 36.4529 25.9211 36.2411 26.0774 36.0849C26.2337 35.9287 26.4457 35.8409 26.6667 35.8409H43.3333C43.5543 35.8409 43.7663 35.9287 43.9226 36.0849C44.0789 36.2411 44.1667 36.4529 44.1667 36.6738V37.5067ZM20.0633 15.3244C20.2789 12.9139 21.0752 10.5914 22.384 8.55536C23.6929 6.5193 25.4755 4.83019 27.5795 3.63236C29.6835 2.43453 32.0464 1.7636 34.4663 1.67687C36.8861 1.59015 39.291 2.09022 41.4754 3.13436C43.6599 4.1785 45.5589 5.73567 47.0103 7.67281C48.4618 9.60996 49.4224 11.8695 49.8102 14.2584C50.1979 16.6472 50.0013 19.0944 49.2371 21.3908C48.4729 23.6872 47.1638 25.7646 45.4217 27.4454C44.5114 28.3114 43.784 29.3508 43.2822 30.5024C42.7804 31.6539 42.5144 32.8942 42.5 34.1502V34.1752H39.1667V26.6792C39.1667 26.4583 39.0789 26.2464 38.9226 26.0902C38.7663 25.934 38.5543 25.8463 38.3333 25.8463C38.1123 25.8463 37.9004 25.934 37.7441 26.0902C37.5878 26.2464 37.5 26.4583 37.5 26.6792V34.1752H32.5V26.6792C32.5 26.4583 32.4122 26.2464 32.2559 26.0902C32.0996 25.934 31.8877 25.8463 31.6667 25.8463C31.4457 25.8463 31.2337 25.934 31.0774 26.0902C30.9211 26.2464 30.8333 26.4583 30.8333 26.6792V34.1752H27.5V34.1418C27.4954 32.902 27.2407 31.6758 26.751 30.5367C26.2613 29.3975 25.5467 28.3688 24.65 27.5121C23.0133 25.9593 21.7502 24.0559 20.9558 21.9449C20.1613 19.8339 19.8562 17.5703 20.0633 15.3244Z" fill="#FFCD1F"/>
<path d="M35 46.6685C35.4945 46.6685 35.9778 46.5219 36.3889 46.2474C36.8 45.9728 37.1205 45.5826 37.3097 45.126C37.4989 44.6694 37.5484 44.167 37.452 43.6823C37.3555 43.1976 37.1174 42.7524 36.7678 42.403C36.4181 42.0535 35.9727 41.8156 35.4877 41.7191C35.0028 41.6227 34.5001 41.6722 34.0433 41.8613C33.5865 42.0504 33.196 42.3707 32.9213 42.7816C32.6466 43.1925 32.5 43.6756 32.5 44.1698C32.5 44.8325 32.7634 45.468 33.2322 45.9366C33.7011 46.4052 34.337 46.6685 35 46.6685ZM35 43.3369C35.1648 43.3369 35.3259 43.3858 35.463 43.4773C35.6 43.5688 35.7068 43.6989 35.7699 43.8511C35.833 44.0033 35.8495 44.1707 35.8173 44.3323C35.7852 44.4938 35.7058 44.6423 35.5893 44.7587C35.4727 44.8752 35.3242 44.9545 35.1626 44.9867C35.0009 45.0188 34.8334 45.0023 34.6811 44.9393C34.5288 44.8762 34.3987 44.7695 34.3071 44.6325C34.2155 44.4956 34.1667 44.3345 34.1667 44.1698C34.1667 43.9489 34.2545 43.7371 34.4107 43.5809C34.567 43.4247 34.779 43.3369 35 43.3369Z" fill="#FFCD1F"/>
<path d="M27.2292 18.4552L28.2883 18.6302L27.6667 19.5022C27.4343 19.8223 27.3235 20.2146 27.354 20.6089C27.3846 21.0032 27.5545 21.3738 27.8333 21.6544L29.2 23.0203C29.4799 23.2954 29.8479 23.4629 30.2392 23.4934C30.6305 23.5239 31.0201 23.4153 31.3392 23.1869L32.2175 22.5614L32.3925 23.62C32.4562 24.0101 32.657 24.3647 32.9588 24.6201C33.2606 24.8755 33.6437 25.015 34.0392 25.0134H35.9608C36.3561 25.0143 36.7388 24.8744 37.0401 24.6187C37.3415 24.363 37.5418 24.0083 37.605 23.6183L37.78 22.5597L38.6533 23.1819C38.9739 23.4129 39.366 23.523 39.7601 23.4925C40.1542 23.462 40.5247 23.2929 40.8058 23.0153L42.1725 21.6494C42.4477 21.3697 42.6154 21.0018 42.6458 20.6107C42.6763 20.2196 42.5677 19.8303 42.3392 19.5113L41.7133 18.6335L42.7725 18.4586C43.163 18.3949 43.5179 18.1941 43.7735 17.8923C44.029 17.5904 44.1685 17.2074 44.1667 16.812V14.8913C44.1676 14.4962 44.0276 14.1138 43.7717 13.8126C43.5159 13.5114 43.161 13.3112 42.7708 13.248L41.7117 13.0731L42.3333 12.2011C42.5657 11.881 42.6765 11.4887 42.646 11.0944C42.6155 10.7001 42.4455 10.3295 42.1667 10.0489L40.8 8.68298C40.5201 8.4079 40.1521 8.24036 39.7608 8.20989C39.3695 8.17942 38.9799 8.28796 38.6608 8.51641L37.7825 9.1419L37.6075 8.08331C37.5438 7.69319 37.3431 7.33856 37.0412 7.08315C36.7394 6.82774 36.3563 6.6883 35.9608 6.68989H34.0392C33.6439 6.68896 33.2612 6.82891 32.9599 7.0846C32.6585 7.34029 32.4582 7.69498 32.395 8.08497L32.22 9.14357L31.3475 8.52224C31.0268 8.29097 30.6345 8.18081 30.2403 8.2113C29.8461 8.2418 29.4754 8.41099 29.1942 8.68881L27.8275 10.0547C27.5523 10.3345 27.3846 10.7023 27.3542 11.0934C27.3237 11.4845 27.4323 11.8738 27.6608 12.1928L28.2867 13.0706L27.2275 13.2455C26.8372 13.3092 26.4824 13.5098 26.2268 13.8115C25.9713 14.1132 25.8317 14.4961 25.8333 14.8913V16.812C25.8324 17.207 25.9724 17.5895 26.2283 17.8907C26.4841 18.1919 26.839 18.392 27.2292 18.4552ZM27.5 14.8913L28.5592 14.7172C28.8381 14.6708 29.1007 14.5542 29.3221 14.3784C29.5436 14.2026 29.7166 13.9734 29.825 13.7123C29.9333 13.4513 29.9734 13.1669 29.9415 12.8861C29.9096 12.6052 29.8067 12.3371 29.6425 12.107L29.0108 11.2266L30.3717 9.87485L31.25 10.5003C31.4803 10.6644 31.7485 10.7673 32.0295 10.7992C32.3105 10.8311 32.595 10.791 32.8562 10.6827C33.1174 10.5744 33.3468 10.4015 33.5227 10.1801C33.6986 9.95882 33.8152 9.6964 33.8617 9.41759L34.0392 8.35566H35.9608L36.135 9.41426C36.1814 9.69307 36.2981 9.95549 36.474 10.1768C36.6499 10.3981 36.8792 10.5711 37.1405 10.6794C37.4017 10.7877 37.6862 10.8278 37.9672 10.7959C38.2482 10.764 38.5164 10.6611 38.7467 10.497L39.6275 9.86568L40.98 11.2258L40.3542 12.1037C40.19 12.3338 40.0871 12.6019 40.0552 12.8827C40.0232 13.1636 40.0633 13.4479 40.1717 13.709C40.2801 13.9701 40.4531 14.1993 40.6745 14.3751C40.896 14.5509 41.1585 14.6675 41.4375 14.7139L42.4967 14.8888V16.8045L41.4375 16.9785C41.1585 17.025 40.896 17.1415 40.6745 17.3173C40.4531 17.4932 40.2801 17.7224 40.1717 17.9835C40.0633 18.2445 40.0232 18.5289 40.0552 18.8097C40.0871 19.0906 40.19 19.3587 40.3542 19.5888L40.9858 20.4692L39.625 21.8284L38.75 21.2029C38.5197 21.0388 38.2515 20.936 37.9705 20.9041C37.6895 20.8722 37.405 20.9123 37.1438 21.0206C36.8826 21.1289 36.6532 21.3018 36.4773 21.5231C36.3014 21.7445 36.1848 22.0069 36.1383 22.2857L35.9608 23.3476H34.0392L33.865 22.289C33.8186 22.0102 33.7019 21.7478 33.526 21.5265C33.3501 21.3051 33.1208 21.1322 32.8595 21.0239C32.5983 20.9156 32.3138 20.8755 32.0328 20.9074C31.7518 20.9393 31.4836 21.0422 31.2533 21.2063L30.3725 21.8376L29.02 20.4742L29.6458 19.5963C29.81 19.3662 29.9129 19.0981 29.9448 18.8172C29.9768 18.5364 29.9367 18.252 29.8283 17.991C29.7199 17.7299 29.5469 17.5006 29.3255 17.3248C29.104 17.149 28.8415 17.0324 28.5625 16.986L27.5 16.812V14.8913Z" fill="#FFCD1F"/>
<path d="M35 20.0161C35.8241 20.0161 36.6297 19.7718 37.3149 19.3142C38.0001 18.8566 38.5341 18.2063 38.8495 17.4453C39.1649 16.6844 39.2474 15.847 39.0866 15.0392C38.9258 14.2314 38.529 13.4893 37.9463 12.9069C37.3636 12.3245 36.6211 11.9279 35.8129 11.7672C35.0046 11.6065 34.1668 11.689 33.4055 12.0042C32.6441 12.3194 31.9934 12.8532 31.5355 13.538C31.0777 14.2228 30.8333 15.028 30.8333 15.8516C30.8347 16.9557 31.2741 18.0142 32.0552 18.7949C32.8363 19.5756 33.8953 20.0148 35 20.0161ZM35 13.353C35.4945 13.353 35.9778 13.4995 36.3889 13.7741C36.8 14.0486 37.1205 14.4389 37.3097 14.8954C37.4989 15.352 37.5484 15.8544 37.452 16.3391C37.3555 16.8238 37.1174 17.269 36.7678 17.6185C36.4181 17.9679 35.9727 18.2059 35.4877 18.3023C35.0028 18.3987 34.5001 18.3492 34.0433 18.1601C33.5865 17.971 33.196 17.6507 32.9213 17.2398C32.6466 16.8289 32.5 16.3458 32.5 15.8516C32.5 15.189 32.7634 14.5534 33.2322 14.0848C33.7011 13.6162 34.337 13.353 35 13.353Z" fill="#FFCD1F"/>
<path d="M17.7442 7.27874C17.9013 7.43045 18.1118 7.5144 18.3303 7.51251C18.5488 7.51061 18.7578 7.42302 18.9123 7.26859C19.0669 7.11417 19.1545 6.90527 19.1564 6.68689C19.1583 6.46851 19.0743 6.25812 18.9225 6.10104L14.7558 1.9366C14.5987 1.78488 14.3882 1.70093 14.1697 1.70283C13.9512 1.70473 13.7422 1.79232 13.5877 1.94675C13.4331 2.10117 13.3455 2.31007 13.3436 2.52845C13.3417 2.74683 13.4257 2.95722 13.5775 3.1143L17.7442 7.27874Z" fill="#FFCD1F"/>
<path d="M51.6667 7.52277C51.8877 7.52273 52.0996 7.43494 52.2558 7.27874L56.4225 3.1143C56.5021 3.03747 56.5656 2.94557 56.6093 2.84395C56.6529 2.74234 56.6759 2.63305 56.6769 2.52246C56.6778 2.41186 56.6568 2.30219 56.6149 2.19983C56.573 2.09747 56.5111 2.00448 56.4328 1.92628C56.3546 1.84808 56.2615 1.78623 56.1591 1.74435C56.0567 1.70247 55.947 1.6814 55.8363 1.68236C55.7257 1.68332 55.6163 1.7063 55.5147 1.74995C55.413 1.7936 55.321 1.85705 55.2442 1.9366L51.0775 6.10104C50.961 6.21752 50.8817 6.36591 50.8495 6.52745C50.8174 6.68899 50.8339 6.85643 50.8969 7.00859C50.96 7.16076 51.0668 7.29083 51.2038 7.38235C51.3408 7.47387 51.5019 7.52274 51.6667 7.52277Z" fill="#FFCD1F"/>
<path d="M17.7442 26.0903L13.5775 30.2548C13.4979 30.3316 13.4344 30.4235 13.3907 30.5251C13.3471 30.6267 13.3241 30.736 13.3231 30.8466C13.3222 30.9572 13.3432 31.0669 13.3851 31.1692C13.427 31.2716 13.4889 31.3646 13.5672 31.4428C13.6454 31.521 13.7385 31.5828 13.8409 31.6247C13.9433 31.6666 14.053 31.6877 14.1637 31.6867C14.2743 31.6857 14.3837 31.6628 14.4853 31.6191C14.587 31.5755 14.679 31.512 14.7558 31.4325L18.9225 27.268C19.0743 27.1109 19.1583 26.9005 19.1564 26.6822C19.1545 26.4638 19.0669 26.2549 18.9123 26.1005C18.7578 25.946 18.5488 25.8584 18.3303 25.8565C18.1118 25.8547 17.9013 25.9386 17.7442 26.0903Z" fill="#FFCD1F"/>
<path d="M51.0775 26.0903C50.9213 26.2465 50.8335 26.4583 50.8335 26.6792C50.8335 26.9 50.9213 27.1118 51.0775 27.268L55.2442 31.4325C55.4013 31.5842 55.6118 31.6681 55.8303 31.6662C56.0488 31.6643 56.2578 31.5767 56.4124 31.4223C56.5669 31.2679 56.6545 31.059 56.6564 30.8406C56.6583 30.6222 56.5743 30.4118 56.4225 30.2548L52.2558 26.0903C52.0996 25.9342 51.8876 25.8465 51.6667 25.8465C51.4457 25.8465 51.2338 25.9342 51.0775 26.0903Z" fill="#FFCD1F"/>
<path d="M10.8333 17.5174H15.8333C16.0543 17.5174 16.2663 17.4297 16.4226 17.2735C16.5789 17.1173 16.6667 16.9054 16.6667 16.6845C16.6667 16.4636 16.5789 16.2518 16.4226 16.0956C16.2663 15.9394 16.0543 15.8516 15.8333 15.8516H10.8333C10.6123 15.8516 10.4004 15.9394 10.2441 16.0956C10.0878 16.2518 10 16.4636 10 16.6845C10 16.9054 10.0878 17.1173 10.2441 17.2735C10.4004 17.4297 10.6123 17.5174 10.8333 17.5174Z" fill="#FFCD1F"/>
<path d="M59.1667 15.8516H54.1667C53.9457 15.8516 53.7337 15.9394 53.5774 16.0956C53.4211 16.2518 53.3333 16.4636 53.3333 16.6845C53.3333 16.9054 53.4211 17.1173 53.5774 17.2735C53.7337 17.4297 53.9457 17.5174 54.1667 17.5174H59.1667C59.3877 17.5174 59.5996 17.4297 59.7559 17.2735C59.9122 17.1173 60 16.9054 60 16.6845C60 16.4636 59.9122 16.2518 59.7559 16.0956C59.5996 15.9394 59.3877 15.8516 59.1667 15.8516Z" fill="#FFCD1F"/>
</svg>
