<svg width="50" height="50" viewBox="0 0 50 50" fill="none" xmlns="http://www.w3.org/2000/svg">
<path d="M13.5 28.7147C14.2343 29.4159 14.8195 30.2579 15.2204 31.1905C15.6213 32.123 15.8298 33.1269 15.8333 34.1418V34.3284C15.3476 34.5 14.9267 34.8175 14.6284 35.2373C14.3301 35.6572 14.1688 36.1589 14.1667 36.6738V37.5067C14.1688 38.0216 14.3301 38.5233 14.6284 38.9432C14.9267 39.363 15.3476 39.6805 15.8333 39.8521V43.3369H15C14.779 43.3369 14.567 43.4247 14.4107 43.5809C14.2545 43.737 14.1667 43.9489 14.1667 44.1698C14.1667 44.3907 14.2545 44.6025 14.4107 44.7587C14.567 44.9149 14.779 45.0027 15 45.0027H15.8333C15.8347 46.3276 16.3619 47.598 17.2993 48.5349C18.2367 49.4718 19.5077 49.9987 20.8333 50H29.1667C30.4923 49.9987 31.7633 49.4718 32.7007 48.5349C33.6381 47.598 34.1653 46.3276 34.1667 45.0027H35C35.221 45.0027 35.433 44.9149 35.5893 44.7587C35.7455 44.6025 35.8333 44.3907 35.8333 44.1698C35.8333 43.9489 35.7455 43.737 35.5893 43.5809C35.433 43.4247 35.221 43.3369 35 43.3369H34.1667V39.8521C34.6524 39.6805 35.0733 39.363 35.3716 38.9432C35.6699 38.5233 35.8312 38.0216 35.8333 37.5067V36.6738C35.8312 36.1589 35.6699 35.6572 35.3716 35.2373C35.0733 34.8175 34.6524 34.5 34.1667 34.3284V34.1502C34.1753 33.1166 34.394 32.0956 34.8094 31.1491C35.2248 30.2026 35.8283 29.3503 36.5833 28.644C38.1964 27.0982 39.4787 25.2411 40.3525 23.1854C41.2262 21.1297 41.6733 18.9181 41.6667 16.6845C41.6711 13.9272 40.9906 11.2118 39.6863 8.78212C38.3819 6.3524 36.4945 4.2843 34.1933 2.76335C31.8921 1.24239 29.2492 0.316161 26.5016 0.0677442C23.7539 -0.180673 20.9876 0.256495 18.4507 1.34003C15.9138 2.42356 13.6857 4.11957 11.9662 6.2759C10.2468 8.43223 9.08984 10.9814 8.59912 13.6948C8.10841 16.4082 8.2993 19.2009 9.15467 21.8224C10.01 24.4439 11.5031 26.8122 13.5 28.7147ZM32.5 43.3369H30C29.779 43.3369 29.567 43.4247 29.4107 43.5809C29.2545 43.737 29.1667 43.9489 29.1667 44.1698C29.1667 44.3907 29.2545 44.6025 29.4107 44.7587C29.567 44.9149 29.779 45.0027 30 45.0027H32.5C32.5 45.8863 32.1488 46.7337 31.5237 47.3584C30.8986 47.9832 30.0507 48.3342 29.1667 48.3342H20.8333C19.9493 48.3342 19.1014 47.9832 18.4763 47.3584C17.8512 46.7337 17.5 45.8863 17.5 45.0027H20C20.221 45.0027 20.433 44.9149 20.5893 44.7587C20.7455 44.6025 20.8333 44.3907 20.8333 44.1698C20.8333 43.9489 20.7455 43.737 20.5893 43.5809C20.433 43.4247 20.221 43.3369 20 43.3369H17.5V40.0054H32.5V43.3369ZM34.1667 37.5067C34.1667 37.7276 34.0789 37.9394 33.9226 38.0956C33.7663 38.2518 33.5543 38.3396 33.3333 38.3396H16.6667C16.4457 38.3396 16.2337 38.2518 16.0774 38.0956C15.9211 37.9394 15.8333 37.7276 15.8333 37.5067V36.6738C15.8333 36.4529 15.9211 36.2411 16.0774 36.0849C16.2337 35.9287 16.4457 35.8409 16.6667 35.8409H33.3333C33.5543 35.8409 33.7663 35.9287 33.9226 36.0849C34.0789 36.2411 34.1667 36.4529 34.1667 36.6738V37.5067ZM10.0633 15.3244C10.2789 12.9139 11.0752 10.5914 12.384 8.55536C13.6929 6.5193 15.4755 4.83019 17.5795 3.63236C19.6835 2.43453 22.0464 1.7636 24.4663 1.67687C26.8861 1.59015 29.291 2.09022 31.4754 3.13436C33.6599 4.1785 35.5589 5.73567 37.0103 7.67281C38.4618 9.60996 39.4224 11.8695 39.8102 14.2584C40.1979 16.6472 40.0013 19.0944 39.2371 21.3908C38.4729 23.6872 37.1638 25.7646 35.4217 27.4454C34.5114 28.3114 33.784 29.3508 33.2822 30.5024C32.7804 31.6539 32.5144 32.8942 32.5 34.1502V34.1752H29.1667V26.6792C29.1667 26.4583 29.0789 26.2464 28.9226 26.0902C28.7663 25.934 28.5543 25.8463 28.3333 25.8463C28.1123 25.8463 27.9004 25.934 27.7441 26.0902C27.5878 26.2464 27.5 26.4583 27.5 26.6792V34.1752H22.5V26.6792C22.5 26.4583 22.4122 26.2464 22.2559 26.0902C22.0996 25.934 21.8877 25.8463 21.6667 25.8463C21.4457 25.8463 21.2337 25.934 21.0774 26.0902C20.9211 26.2464 20.8333 26.4583 20.8333 26.6792V34.1752H17.5V34.1418C17.4954 32.902 17.2407 31.6758 16.751 30.5367C16.2613 29.3975 15.5467 28.3688 14.65 27.5121C13.0133 25.9593 11.7502 24.0559 10.9558 21.9449C10.1613 19.8339 9.8562 17.5703 10.0633 15.3244Z" fill="#FFCD1F"/>
<path d="M25 46.6685C25.4945 46.6685 25.9778 46.5219 26.3889 46.2474C26.8 45.9728 27.1205 45.5826 27.3097 45.126C27.4989 44.6694 27.5484 44.167 27.452 43.6823C27.3555 43.1976 27.1174 42.7524 26.7678 42.403C26.4181 42.0535 25.9727 41.8156 25.4877 41.7191C25.0028 41.6227 24.5001 41.6722 24.0433 41.8613C23.5865 42.0504 23.196 42.3707 22.9213 42.7816C22.6466 43.1925 22.5 43.6756 22.5 44.1698C22.5 44.8325 22.7634 45.468 23.2322 45.9366C23.7011 46.4052 24.337 46.6685 25 46.6685ZM25 43.3369C25.1648 43.3369 25.3259 43.3858 25.463 43.4773C25.6 43.5688 25.7068 43.6989 25.7699 43.8511C25.833 44.0033 25.8495 44.1707 25.8173 44.3323C25.7852 44.4938 25.7058 44.6423 25.5893 44.7587C25.4727 44.8752 25.3242 44.9545 25.1626 44.9867C25.0009 45.0188 24.8334 45.0023 24.6811 44.9393C24.5288 44.8762 24.3987 44.7695 24.3071 44.6325C24.2155 44.4956 24.1667 44.3345 24.1667 44.1698C24.1667 43.9489 24.2545 43.7371 24.4107 43.5809C24.567 43.4247 24.779 43.3369 25 43.3369Z" fill="#FFCD1F"/>
<path d="M17.2292 18.4552L18.2883 18.6302L17.6667 19.5022C17.4343 19.8223 17.3235 20.2146 17.354 20.6089C17.3846 21.0032 17.5545 21.3738 17.8333 21.6544L19.2 23.0203C19.4799 23.2954 19.8479 23.4629 20.2392 23.4934C20.6305 23.5239 21.0201 23.4153 21.3392 23.1869L22.2175 22.5614L22.3925 23.62C22.4562 24.0101 22.657 24.3647 22.9588 24.6201C23.2606 24.8755 23.6437 25.015 24.0392 25.0134H25.9608C26.3561 25.0143 26.7388 24.8744 27.0401 24.6187C27.3415 24.363 27.5418 24.0083 27.605 23.6183L27.78 22.5597L28.6533 23.1819C28.9739 23.4129 29.366 23.523 29.7601 23.4925C30.1542 23.462 30.5247 23.2929 30.8058 23.0153L32.1725 21.6494C32.4477 21.3697 32.6154 21.0018 32.6458 20.6107C32.6763 20.2196 32.5677 19.8303 32.3392 19.5113L31.7133 18.6335L32.7725 18.4586C33.163 18.3949 33.5179 18.1941 33.7735 17.8923C34.029 17.5904 34.1685 17.2074 34.1667 16.812V14.8913C34.1676 14.4962 34.0276 14.1138 33.7717 13.8126C33.5159 13.5114 33.161 13.3112 32.7708 13.248L31.7117 13.0731L32.3333 12.2011C32.5657 11.881 32.6765 11.4887 32.646 11.0944C32.6155 10.7001 32.4455 10.3295 32.1667 10.0489L30.8 8.68298C30.5201 8.4079 30.1521 8.24036 29.7608 8.20989C29.3695 8.17942 28.9799 8.28796 28.6608 8.51641L27.7825 9.1419L27.6075 8.08331C27.5438 7.69319 27.3431 7.33856 27.0412 7.08315C26.7394 6.82774 26.3563 6.6883 25.9608 6.68989H24.0392C23.6439 6.68896 23.2612 6.82891 22.9599 7.0846C22.6585 7.34029 22.4582 7.69498 22.395 8.08497L22.22 9.14357L21.3475 8.52224C21.0268 8.29097 20.6345 8.18081 20.2403 8.2113C19.8461 8.2418 19.4754 8.41099 19.1942 8.68881L17.8275 10.0547C17.5523 10.3345 17.3846 10.7023 17.3542 11.0934C17.3237 11.4845 17.4323 11.8738 17.6608 12.1928L18.2867 13.0706L17.2275 13.2455C16.8372 13.3092 16.4824 13.5098 16.2268 13.8115C15.9713 14.1132 15.8317 14.4961 15.8333 14.8913V16.812C15.8324 17.207 15.9724 17.5895 16.2283 17.8907C16.4841 18.1919 16.839 18.392 17.2292 18.4552ZM17.5 14.8913L18.5592 14.7172C18.8381 14.6708 19.1007 14.5542 19.3221 14.3784C19.5436 14.2026 19.7166 13.9734 19.825 13.7123C19.9333 13.4513 19.9734 13.1669 19.9415 12.8861C19.9096 12.6052 19.8067 12.3371 19.6425 12.107L19.0108 11.2266L20.3717 9.87485L21.25 10.5003C21.4803 10.6644 21.7485 10.7673 22.0295 10.7992C22.3105 10.8311 22.595 10.791 22.8562 10.6827C23.1174 10.5744 23.3468 10.4015 23.5227 10.1801C23.6986 9.95882 23.8152 9.6964 23.8617 9.41759L24.0392 8.35566H25.9608L26.135 9.41426C26.1814 9.69307 26.2981 9.95549 26.474 10.1768C26.6499 10.3981 26.8792 10.5711 27.1405 10.6794C27.4017 10.7877 27.6862 10.8278 27.9672 10.7959C28.2482 10.764 28.5164 10.6611 28.7467 10.497L29.6275 9.86568L30.98 11.2258L30.3542 12.1037C30.19 12.3338 30.0871 12.6019 30.0552 12.8827C30.0232 13.1636 30.0633 13.4479 30.1717 13.709C30.2801 13.9701 30.4531 14.1993 30.6745 14.3751C30.896 14.5509 31.1585 14.6675 31.4375 14.7139L32.4967 14.8888V16.8045L31.4375 16.9785C31.1585 17.025 30.896 17.1415 30.6745 17.3173C30.4531 17.4932 30.2801 17.7224 30.1717 17.9835C30.0633 18.2445 30.0232 18.5289 30.0552 18.8097C30.0871 19.0906 30.19 19.3587 30.3542 19.5888L30.9858 20.4692L29.625 21.8284L28.75 21.2029C28.5197 21.0388 28.2515 20.936 27.9705 20.9041C27.6895 20.8722 27.405 20.9123 27.1438 21.0206C26.8826 21.1289 26.6532 21.3018 26.4773 21.5231C26.3014 21.7445 26.1848 22.0069 26.1383 22.2857L25.9608 23.3476H24.0392L23.865 22.289C23.8186 22.0102 23.7019 21.7478 23.526 21.5265C23.3501 21.3051 23.1208 21.1322 22.8595 21.0239C22.5983 20.9156 22.3138 20.8755 22.0328 20.9074C21.7518 20.9393 21.4836 21.0422 21.2533 21.2063L20.3725 21.8376L19.02 20.4742L19.6458 19.5963C19.81 19.3662 19.9129 19.0981 19.9448 18.8172C19.9768 18.5364 19.9367 18.252 19.8283 17.991C19.7199 17.7299 19.5469 17.5006 19.3255 17.3248C19.104 17.149 18.8415 17.0324 18.5625 16.986L17.5 16.812V14.8913Z" fill="#FFCD1F"/>
<path d="M25 20.0161C25.8241 20.0161 26.6297 19.7718 27.3149 19.3142C28.0001 18.8566 28.5341 18.2063 28.8495 17.4453C29.1649 16.6844 29.2474 15.847 29.0866 15.0392C28.9258 14.2314 28.529 13.4893 27.9463 12.9069C27.3636 12.3245 26.6211 11.9279 25.8129 11.7672C25.0046 11.6065 24.1668 11.689 23.4055 12.0042C22.6441 12.3194 21.9934 12.8532 21.5355 13.538C21.0777 14.2228 20.8333 15.028 20.8333 15.8516C20.8347 16.9557 21.2741 18.0142 22.0552 18.7949C22.8363 19.5756 23.8953 20.0148 25 20.0161ZM25 13.353C25.4945 13.353 25.9778 13.4995 26.3889 13.7741C26.8 14.0486 27.1205 14.4389 27.3097 14.8954C27.4989 15.352 27.5484 15.8544 27.452 16.3391C27.3555 16.8238 27.1174 17.269 26.7678 17.6185C26.4181 17.9679 25.9727 18.2059 25.4877 18.3023C25.0028 18.3987 24.5001 18.3492 24.0433 18.1601C23.5865 17.971 23.196 17.6507 22.9213 17.2398C22.6466 16.8289 22.5 16.3458 22.5 15.8516C22.5 15.189 22.7634 14.5534 23.2322 14.0848C23.7011 13.6162 24.337 13.353 25 13.353Z" fill="#FFCD1F"/>
<path d="M7.74417 7.27874C7.90134 7.43045 8.11184 7.5144 8.33033 7.51251C8.54883 7.51061 8.75784 7.42302 8.91235 7.26859C9.06686 7.11417 9.1545 6.90527 9.1564 6.68689C9.15829 6.46851 9.0743 6.25812 8.9225 6.10104L4.75583 1.9366C4.59867 1.78488 4.38816 1.70093 4.16967 1.70283C3.95117 1.70473 3.74216 1.79232 3.58765 1.94675C3.43314 2.10117 3.3455 2.31007 3.34361 2.52845C3.34171 2.74683 3.4257 2.95722 3.5775 3.1143L7.74417 7.27874Z" fill="#FFCD1F"/>
<path d="M41.6667 7.52277C41.8877 7.52273 42.0996 7.43494 42.2558 7.27874L46.4225 3.1143C46.5021 3.03747 46.5656 2.94557 46.6093 2.84395C46.6529 2.74234 46.6759 2.63305 46.6769 2.52246C46.6778 2.41186 46.6568 2.30219 46.6149 2.19983C46.573 2.09747 46.5111 2.00448 46.4328 1.92628C46.3546 1.84808 46.2615 1.78623 46.1591 1.74435C46.0567 1.70247 45.947 1.6814 45.8363 1.68236C45.7257 1.68332 45.6163 1.7063 45.5147 1.74995C45.413 1.7936 45.321 1.85705 45.2442 1.9366L41.0775 6.10104C40.961 6.21752 40.8817 6.36591 40.8495 6.52745C40.8174 6.68899 40.8339 6.85643 40.8969 7.00859C40.96 7.16076 41.0668 7.29083 41.2038 7.38235C41.3408 7.47387 41.5019 7.52274 41.6667 7.52277Z" fill="#FFCD1F"/>
<path d="M7.74417 26.0903L3.5775 30.2548C3.49791 30.3316 3.43442 30.4235 3.39075 30.5251C3.34707 30.6267 3.32409 30.736 3.32312 30.8466C3.32216 30.9572 3.34325 31.0669 3.38515 31.1692C3.42705 31.2716 3.48893 31.3646 3.56717 31.4428C3.64541 31.521 3.73846 31.5828 3.84087 31.6247C3.94329 31.6666 4.05302 31.6877 4.16367 31.6867C4.27432 31.6857 4.38367 31.6628 4.48534 31.6191C4.58701 31.5755 4.67896 31.512 4.75583 31.4325L8.9225 27.268C9.0743 27.1109 9.15829 26.9005 9.15639 26.6822C9.1545 26.4638 9.06686 26.2549 8.91235 26.1005C8.75784 25.946 8.54883 25.8584 8.33033 25.8565C8.11184 25.8547 7.90134 25.9386 7.74417 26.0903Z" fill="#FFCD1F"/>
<path d="M41.0775 26.0903C40.9213 26.2465 40.8335 26.4583 40.8335 26.6792C40.8335 26.9 40.9213 27.1118 41.0775 27.268L45.2442 31.4325C45.4013 31.5842 45.6118 31.6681 45.8303 31.6662C46.0488 31.6643 46.2578 31.5767 46.4124 31.4223C46.5669 31.2679 46.6545 31.059 46.6564 30.8406C46.6583 30.6222 46.5743 30.4118 46.4225 30.2548L42.2558 26.0903C42.0996 25.9342 41.8876 25.8465 41.6667 25.8465C41.4457 25.8465 41.2338 25.9342 41.0775 26.0903Z" fill="#FFCD1F"/>
<path d="M0.833333 17.5174H5.83333C6.05435 17.5174 6.26631 17.4297 6.42259 17.2735C6.57887 17.1173 6.66667 16.9054 6.66667 16.6845C6.66667 16.4636 6.57887 16.2518 6.42259 16.0956C6.26631 15.9394 6.05435 15.8516 5.83333 15.8516H0.833333C0.61232 15.8516 0.400358 15.9394 0.244078 16.0956C0.0877974 16.2518 0 16.4636 0 16.6845C0 16.9054 0.0877974 17.1173 0.244078 17.2735C0.400358 17.4297 0.61232 17.5174 0.833333 17.5174Z" fill="#FFCD1F"/>
<path d="M49.1667 15.8516H44.1667C43.9457 15.8516 43.7337 15.9394 43.5774 16.0956C43.4211 16.2518 43.3333 16.4636 43.3333 16.6845C43.3333 16.9054 43.4211 17.1173 43.5774 17.2735C43.7337 17.4297 43.9457 17.5174 44.1667 17.5174H49.1667C49.3877 17.5174 49.5996 17.4297 49.7559 17.2735C49.9122 17.1173 50 16.9054 50 16.6845C50 16.4636 49.9122 16.2518 49.7559 16.0956C49.5996 15.9394 49.3877 15.8516 49.1667 15.8516Z" fill="#FFCD1F"/>
</svg>
