<svg width="45" height="51" viewBox="0 0 45 51" fill="none" xmlns="http://www.w3.org/2000/svg">
<path d="M34.5 22.95C34.05 22.95 33.75 23.29 33.75 23.8C33.75 28.56 30.3 32.2999 25.875 32.2999H19.125C14.7 32.2999 11.25 28.5599 11.25 23.8C11.25 23.29 10.95 22.95 10.5 22.95C10.05 22.95 9.75006 23.29 9.75006 23.8C9.75006 29.4949 13.875 34 19.1251 34H25.8751C31.1251 34 35.2501 29.4949 35.2501 23.8C35.25 23.29 34.95 22.95 34.5 22.95Z" fill="#F57064"/>
<path d="M40.575 6.80003H38.25V2.46503C38.25 1.10497 37.275 0 36.15 0H8.92503C7.72497 0 6.75 1.10497 6.75 2.46503V6.80003H4.42503C2.025 6.80003 0 9.18 0 11.9V19.55C0 23.12 1.64997 26.52 4.34997 28.3901L8.62497 31.28L9.09853 31.5867C11.1416 34.7825 14.3433 36.9664 18 37.3416V40.8H17.925C16.7251 40.8 15.75 41.905 15.75 43.265V44.2001H14.25C11.325 44.2001 9 46.835 9 50.15C9 50.66 9.29997 51 9.74997 51H35.2499C35.6999 51 35.9999 50.66 35.9999 50.15C35.9999 46.835 33.6749 44.2001 30.7499 44.2001H29.1749V43.265C29.1749 41.9051 28.2 40.8 26.9999 40.8H26.8499V37.3566C30.6389 37.0206 33.9529 34.7442 36.017 31.4226L40.6499 28.305C43.35 26.435 45 23.12 45 19.55V11.9C45 9.09503 42.975 6.80003 40.575 6.80003ZM8.25003 2.46503C8.25003 2.04 8.55 1.70003 8.92503 1.70003H36.0751C36.4501 1.70003 36.7501 2.04 36.7501 2.46503V5.1H8.25003V2.46503ZM6.76107 23.9446L6.67503 23.885C5.32503 23.0351 4.5 21.335 4.5 19.55V11.9H6.75V23.375C6.75 23.5659 6.75431 23.7555 6.76107 23.9446ZM5.175 26.86C2.925 25.33 1.50003 22.525 1.50003 19.5499V11.8999C1.50003 10.03 2.85003 8.49997 4.42503 8.49997H6.75V10.2H4.34997C3.6 10.2 2.99997 11.135 2.99997 11.9V19.55C2.99997 21.93 4.12497 24.225 5.92497 25.415L6.99196 26.1406C7.13856 26.9683 7.34933 27.7701 7.61871 28.5386L5.175 26.86ZM34.425 49.3H10.575C10.95 47.3449 12.45 45.9 14.25 45.9H30.7499C32.55 45.9 34.05 47.345 34.425 49.3ZM27.075 42.5C27.45 42.5 27.75 42.84 27.75 43.265V44.2001H17.25V43.265C17.25 42.84 17.55 42.5 17.925 42.5H27.075ZM19.5 40.8V37.4H25.5001V40.8H19.5ZM26.4019 35.7703C26.3145 35.7238 26.2176 35.7 26.1 35.7H25.95C25.875 35.7 25.875 35.7 25.7999 35.7H19.0499C18.975 35.7 18.975 35.7 18.8999 35.7H18.7499C18.6752 35.7 18.5817 35.7211 18.4883 35.7634C15.089 35.5402 12.1053 33.5431 10.249 30.5772C10.2311 30.4684 10.1914 30.3604 10.1248 30.2599C9.22482 28.8149 8.69985 27.1999 8.39979 25.4149C8.39294 25.3915 8.38477 25.3682 8.37668 25.3449C8.29318 24.7302 8.24985 24.1008 8.24985 23.4599V6.80003H36.7499V23.46C36.75 30.0597 32.1578 35.458 26.4019 35.7703ZM38.25 23.46V12.07H40.5V19.72C40.5 21.505 39.675 23.1199 38.325 24.055L38.2358 24.1167C38.2449 23.899 38.25 23.6801 38.25 23.46ZM43.575 19.55C43.575 22.5251 42.1501 25.3301 39.9001 26.8601L37.4251 28.5601C37.6501 27.7951 37.8751 27.0301 38.0251 26.1801L39.0001 25.3302C40.8001 24.1401 41.9251 21.9302 41.9251 19.5501V11.9001C41.9251 11.0502 41.4001 10.2001 40.5751 10.2001H38.25V8.49997H40.65C42.225 8.49997 43.575 10.03 43.575 11.8999V19.55Z" fill="#F57064"/>
<path d="M18.675 18.87L18 23.63C17.925 23.97 18.075 24.3101 18.3 24.48C18.525 24.65 18.9 24.65 19.125 24.48L22.5 22.27L25.875 24.565C26.025 24.6499 26.1 24.6499 26.25 24.6499C26.4001 24.6499 26.55 24.565 26.7 24.4799C26.925 24.3099 27.0751 23.9699 27 23.6299L26.325 18.8699L29.1 14.8749C29.25 14.6199 29.325 14.1948 29.1749 13.9398C29.0249 13.5999 28.7999 13.4298 28.4999 13.4298H24.8999L23.1749 9.60483C22.8749 9.00987 22.0499 9.00987 21.8249 9.60483L20.0999 13.4298H16.4999C16.1999 13.4298 15.9749 13.6848 15.8249 13.9398C15.6749 14.2798 15.7499 14.6199 15.8999 14.8749L18.675 18.87ZM20.55 15.3C20.8499 15.3 21.0749 15.13 21.225 14.875L22.5 12.07L23.775 14.875C23.9251 15.13 24.1501 15.3 24.45 15.3H26.925L24.9 18.19C24.75 18.36 24.75 18.615 24.75 18.87L25.275 22.1L22.8749 20.57C22.7249 20.4851 22.6499 20.4851 22.4999 20.4851C22.3499 20.4851 22.2749 20.4851 22.1999 20.6551L19.7999 22.1851L20.2499 18.8701C20.3249 18.6151 20.2499 18.3601 20.0999 18.1901L18.0749 15.3001L20.55 15.3Z" fill="#F57064"/>
</svg>
