<svg width="69" height="64" viewBox="0 0 69 64" fill="none" xmlns="http://www.w3.org/2000/svg">
<ellipse cx="34" cy="53.7858" rx="34" ry="9.5" fill="#392A56"/>
<path d="M17.0348 41.4014C17.0388 41.4145 17.036 41.4278 17.0408 41.4408C21.0933 52.4527 30.3915 53.9339 33.6324 53.5757L33.6463 53.5742C35.5603 53.3593 36.0542 52.6262 36.1311 52.0476C36.6693 47.995 39.5258 43.0958 43.1959 38.2761C43.3041 38.1914 43.3896 38.0814 43.4447 37.9558C49.7096 29.8138 58.193 21.9673 61.6675 18.8727C61.6823 18.8639 61.6988 18.858 61.7135 18.8492C62.3088 18.5054 62.8287 18.0461 63.2425 17.4985L63.2514 17.4848L63.2547 17.4819C63.3656 17.3828 63.4472 17.2554 63.4907 17.1135C63.9711 16.3559 64.2375 15.4835 64.2621 14.5882C64.3683 9.88635 59.6532 6.18639 58.2097 5.16649C56.9912 4.26219 55.6751 3.49606 54.2858 2.88226C52.2936 2.03834 50.1399 1.63775 47.9753 1.70846C46.6386 1.75043 44.1628 1.82904 42.9849 4.32927C40.5364 9.34727 37.5157 14.0681 33.9825 18.3985C32.0831 20.7733 29.9866 23.1494 27.7486 25.4641C25.3567 27.911 22.831 30.2245 20.183 32.3941L18.7588 33.6047C18.2345 34.0582 18.0179 34.7709 18.2018 35.4373C18.7363 37.2431 18.6093 39.553 17.3326 40.4743C17.3143 40.4874 17.3054 40.5075 17.2884 40.5213C17.259 40.5486 17.2317 40.578 17.2067 40.6093C17.159 40.66 17.118 40.7165 17.0846 40.7774C17.0716 40.8067 17.0604 40.8367 17.0511 40.8673C17.0063 40.9642 16.9888 41.0714 17.0004 41.1774C17.0011 41.2533 17.0127 41.3287 17.0348 41.4014ZM47.2531 10.1103C47.4122 10.5276 47.6046 10.9316 47.8282 11.3184C48.8597 13.1397 50.1826 14.781 51.7448 16.1778C54.0922 18.2934 56.2702 19.3983 58.3866 19.5666C56.1424 21.625 53.1422 24.4829 50.0176 27.7658C46.1776 26.1014 42.6871 23.7318 39.7284 20.7808C40.0781 20.3266 40.4295 19.8734 40.7698 19.4153C42.2813 17.3872 43.7182 15.2746 45.1075 13.2319C45.8051 12.2056 46.5227 11.1596 47.2531 10.1103ZM44.5041 5.0413C45.1275 3.71911 46.2184 3.43841 48.0304 3.38011C49.9523 3.31741 51.8644 3.67378 53.6327 4.42427C54.9076 4.99071 56.1151 5.69663 57.2331 6.52901C58.5097 7.43079 62.6692 10.6742 62.5826 14.5502C62.5642 15.2007 62.355 15.8319 61.9809 16.3658C61.7354 16.5758 61.2867 16.9635 60.6784 17.5008C60.1443 17.7798 59.5506 17.9264 58.9477 17.9283C57.0912 17.9279 55.1043 16.9493 52.8681 14.9334C51.4406 13.657 50.2318 12.1572 49.2891 10.4931C48.8616 9.8648 48.639 9.12029 48.6519 8.36105C48.6769 8.16927 48.7509 7.98707 48.8669 7.83191L48.8675 7.83109C49.4153 7.37984 50.1439 7.21079 50.835 7.37457C52.5364 7.6592 54.1288 8.39576 55.4443 9.50661C55.9613 9.89893 56.4239 10.3576 56.8202 10.8706C57.1232 11.232 57.2439 11.7115 57.1481 12.1728C57.0651 12.3895 56.8398 12.5176 56.6103 12.4785C55.2245 12.1682 54.0421 11.2752 53.3686 10.0301C53.1296 9.63436 52.6134 9.50681 52.2157 9.74526C51.8181 9.98372 51.6895 10.4979 51.9286 10.8937C52.8503 12.5717 54.4704 13.7572 56.3541 14.1321C57.3894 14.299 58.3957 13.6993 58.7379 12.7115C59.029 11.7389 58.8226 10.6863 58.1856 9.89502C57.7041 9.26063 57.1391 8.69373 56.5056 8.20957C54.9503 6.9041 53.0686 6.04284 51.0603 5.71722C49.8126 5.46156 48.5185 5.8417 47.609 6.731C47.5985 6.74262 47.5834 6.74852 47.5735 6.76083C47.5602 6.77738 47.5496 6.79406 47.5378 6.8107C47.5158 6.84011 47.4842 6.88153 47.4768 6.89212L47.4713 6.90217C46.1758 8.67771 44.9258 10.5163 43.7159 12.2948C42.3376 14.3231 40.911 16.4201 39.4203 18.42C39.1362 18.8018 38.8428 19.1791 38.5527 19.5576C38.1645 19.1287 37.7726 18.6809 37.3639 18.1831C37.1754 17.9559 36.9975 17.7193 36.8164 17.4856C39.7959 13.6075 42.3717 9.43793 44.5041 5.0413ZM35.2955 19.4405C35.4529 19.2441 35.6012 19.0473 35.7561 18.8508C35.8599 18.9809 35.9601 19.1175 36.066 19.2452C36.7354 20.061 37.3708 20.7784 38.0078 21.4392C41.0873 24.6383 44.7506 27.224 48.8022 29.0583C46.6024 31.4262 44.39 33.9753 42.3757 36.5747C38.3522 34.83 34.7488 32.2516 31.8052 29.0111C30.9673 28.0829 30.1889 27.1032 29.4744 26.0778C31.5516 23.8991 33.5115 21.6702 35.2955 19.4405ZM37.5826 35.9664L33.9936 40.682C33.9682 40.7181 33.9238 40.736 33.8804 40.7276C33.8367 40.7213 33.8021 40.6879 33.7943 40.6447L33.4523 39.6857C33.2125 39.0114 32.594 38.5432 31.8772 38.4936L30.8359 38.4234C30.7968 38.4237 30.7616 38.3998 30.7474 38.3635C30.7269 38.3243 30.7323 38.2765 30.7611 38.2428L34.2753 33.6247C35.328 34.4729 36.4325 35.2546 37.5826 35.9664ZM19.8167 34.9774C19.8093 34.9375 19.8243 34.8967 19.856 34.8711L21.2719 33.667C23.726 31.5844 25.8774 29.7542 28.2921 27.3044C28.8595 28.0917 29.4519 28.8419 30.0694 29.5552C27.0219 32.8217 23.687 35.81 20.1047 38.4844C20.2509 37.3079 20.1528 36.1142 19.8167 34.9774ZM31.1969 30.7998C31.7742 31.4018 32.3698 31.9868 32.9929 32.5424L29.4231 37.2332C29.0191 37.7618 28.9425 38.4696 29.2241 39.0711C29.499 39.6646 30.0808 40.058 30.7363 40.0936L31.7686 40.1635C31.8138 40.1686 31.8521 40.1989 31.8673 40.2416L32.2068 41.1923C32.4162 41.817 32.9565 42.2742 33.6096 42.3791C34.2674 42.4864 34.931 42.2215 35.3327 41.6913L39.0422 36.817C39.7904 37.2267 40.5586 37.5966 41.3361 37.9454C37.8191 42.6916 35.0941 47.5256 34.4897 51.6606C34.0393 51.9131 32.2622 52.2003 29.7798 51.5876C26.8949 50.8746 21.7167 48.5984 18.8552 41.4469C23.336 38.3432 27.4732 34.7741 31.1969 30.7998Z" fill="#45C8C2"/>
</svg>
