<svg width="21" height="18" viewBox="0 0 21 18" fill="none" xmlns="http://www.w3.org/2000/svg">
<path d="M10.5011 18C8.38502 18 3.18835 12.4804 1.64562 10.7891C0.58042 9.51945 -0.0034016 7.90254 1.49103e-05 6.23157C0.00343142 4.5606 0.59386 2.94619 1.66425 1.68106C2.72193 0.604579 4.15518 0 5.64947 0C7.14376 0 8.57701 0.604579 9.63469 1.68106L11.0206 3.09445C11.0889 3.16402 11.1432 3.24664 11.1802 3.33759C11.2173 3.42854 11.2364 3.52603 11.2365 3.62451C11.2366 3.72299 11.2176 3.82053 11.1808 3.91155C11.1439 4.00257 11.0898 4.08529 11.0216 4.15499C10.9534 4.22469 10.8724 4.28001 10.7832 4.31778C10.694 4.35556 10.5984 4.37504 10.5018 4.37514C10.4053 4.37523 10.3096 4.35593 10.2204 4.31832C10.1311 4.28072 10.05 4.22556 9.98166 4.15599L8.59477 2.7406C7.81346 1.94429 6.75407 1.49696 5.64947 1.49696C4.54487 1.49696 3.48547 1.94429 2.70417 2.7406C1.87308 3.70673 1.43642 4.96079 1.4839 6.24509C1.43783 7.52735 1.87442 8.77903 2.70417 9.74357C5.67495 13.0052 9.48865 16.5006 10.5011 16.5006C11.5136 16.5006 15.3273 13.0022 18.2795 9.76756C19.1211 8.7995 19.5648 7.53801 19.5184 6.24509C19.5658 4.96079 19.1292 3.70673 18.2981 2.7406C17.5165 1.94447 16.457 1.49729 15.3523 1.49729C14.2476 1.49729 13.1881 1.94447 12.4065 2.7406C12.2672 2.87303 12.0828 2.94512 11.8924 2.94169C11.702 2.93827 11.5203 2.85959 11.3856 2.72223C11.2509 2.58488 11.1737 2.39958 11.1704 2.20536C11.167 2.01114 11.2377 1.82318 11.3676 1.68106C12.4254 0.604824 13.8586 0.000412524 15.3528 0.000412524C16.847 0.000412524 18.2802 0.604824 19.338 1.68106C20.4102 2.95005 21 4.56948 21 6.24459C21 7.9197 20.4102 9.53913 19.338 10.8081C17.8139 12.4804 12.6172 18 10.5011 18Z" fill="#4F536C"/>
<path d="M12.9515 7.00476C12.8517 7.00485 12.7531 6.98425 12.6614 6.94421C12.5697 6.90417 12.487 6.84553 12.4183 6.77186L9.96794 4.141C9.90146 4.06959 9.84942 3.98553 9.8148 3.89361C9.78017 3.80169 9.76364 3.70372 9.76614 3.60528C9.76864 3.50685 9.79013 3.40988 9.82938 3.31992C9.86863 3.22995 9.92487 3.14876 9.99489 3.08096C10.0649 3.01316 10.1473 2.96009 10.2375 2.92478C10.3276 2.88947 10.4237 2.87261 10.5202 2.87516C10.6167 2.87771 10.7118 2.89963 10.8 2.93965C10.8882 2.97968 10.9678 3.03704 11.0343 3.10844L13.4847 5.73831C13.5838 5.84461 13.6503 5.97827 13.6757 6.12271C13.7011 6.26715 13.6844 6.41601 13.6276 6.55085C13.5708 6.68569 13.4765 6.80058 13.3563 6.88126C13.2361 6.96195 13.0954 7.00489 12.9515 7.00476Z" fill="#4F536C"/>
</svg>
