<svg width="107" height="83" viewBox="0 0 107 83" fill="none" xmlns="http://www.w3.org/2000/svg">
<path d="M2.92059 1.45087C2.92185 1.73924 2.83727 2.02149 2.67757 2.26187C2.51787 2.50225 2.29025 2.68994 2.02352 2.80116C1.7568 2.91238 1.46299 2.94213 1.1793 2.88664C0.895618 2.83114 0.634827 2.69291 0.429968 2.48944C0.225109 2.28597 0.0853997 2.02643 0.0285396 1.74369C-0.0283206 1.46095 0.000226682 1.16774 0.110565 0.901193C0.220903 0.634651 0.408067 0.406775 0.648347 0.246432C0.888627 0.0860886 1.17121 0.000494038 1.4603 0.000491336C1.65177 -0.000339091 1.84152 0.0365632 2.01865 0.10908C2.19579 0.181596 2.35682 0.288299 2.4925 0.423062C2.62819 0.557824 2.73585 0.717994 2.80932 0.894374C2.88278 1.07075 2.9206 1.25987 2.92059 1.45087Z" fill="#C4BAB3"/>
<path d="M17.808 1.45087C17.8093 1.73924 17.7247 2.02149 17.565 2.26187C17.4053 2.50225 17.1777 2.68994 16.911 2.80116C16.6442 2.91238 16.3504 2.94213 16.0667 2.88664C15.7831 2.83114 15.5223 2.69291 15.3174 2.48944C15.1126 2.28597 14.9728 2.02643 14.916 1.74369C14.8591 1.46095 14.8877 1.16774 14.998 0.901193C15.1083 0.634651 15.2955 0.406775 15.5358 0.246432C15.7761 0.0860886 16.0587 0.000494038 16.3477 0.000491336C16.7339 0.000487726 17.1044 0.153094 17.3781 0.424913C17.6518 0.696732 17.8064 1.06563 17.808 1.45087Z" fill="#C4BAB3"/>
<path d="M32.6892 1.45087C32.6892 1.73773 32.6039 2.01814 32.4441 2.25666C32.2844 2.49517 32.0573 2.68107 31.7916 2.79085C31.5259 2.90062 31.2336 2.92934 30.9515 2.87338C30.6695 2.81742 30.4104 2.67928 30.2071 2.47644C30.0037 2.2736 29.8652 2.01517 29.8091 1.73383C29.753 1.45248 29.7818 1.16086 29.8919 0.895834C30.0019 0.630812 30.1883 0.404294 30.4274 0.244924C30.6665 0.0855546 30.9476 0.000491336 31.2352 0.000491336C31.6208 0.000491336 31.9906 0.153299 32.2633 0.425297C32.536 0.697296 32.6892 1.06621 32.6892 1.45087Z" fill="#C4BAB3"/>
<path d="M47.5766 1.45087C47.5778 1.74083 47.4921 2.02454 47.3307 2.26568C47.1693 2.50681 46.9394 2.6944 46.6704 2.80443C46.4015 2.91445 46.1057 2.94191 45.8211 2.88328C45.5364 2.82466 45.2757 2.68261 45.0724 2.47534C44.8692 2.26806 44.7325 2.00499 44.68 1.71979C44.6275 1.4346 44.6616 1.14026 44.7777 0.874464C44.8939 0.608668 45.087 0.383509 45.3322 0.227811C45.5774 0.072113 45.8637 -0.00703788 46.1542 0.000491336C46.5343 0.00873618 46.8961 0.165176 47.162 0.436286C47.4278 0.707396 47.5767 1.07161 47.5766 1.45087Z" fill="#C4BAB3"/>
<path d="M2.92059 13.0161C2.92185 13.3044 2.83727 13.5867 2.67757 13.8271C2.51787 14.0674 2.29025 14.2551 2.02352 14.3664C1.7568 14.4776 1.46299 14.5073 1.1793 14.4518C0.895618 14.3963 0.634827 14.2581 0.429968 14.0546C0.225109 13.8512 0.0853997 13.5916 0.0285396 13.3089C-0.0283206 13.0261 0.000226682 12.7329 0.110565 12.4664C0.220903 12.1998 0.408067 11.972 0.648347 11.8116C0.888627 11.6513 1.17121 11.5657 1.4603 11.5657C1.65177 11.5649 1.84152 11.6018 2.01865 11.6743C2.19579 11.7468 2.35682 11.8535 2.4925 11.9883C2.62819 12.123 2.73585 12.2832 2.80932 12.4596C2.88278 12.636 2.9206 12.8251 2.92059 13.0161Z" fill="#C4BAB3"/>
<path d="M17.808 13.0161C17.8093 13.3044 17.7247 13.5867 17.565 13.8271C17.4053 14.0674 17.1777 14.2551 16.911 14.3664C16.6442 14.4776 16.3504 14.5073 16.0667 14.4518C15.7831 14.3963 15.5223 14.2581 15.3174 14.0546C15.1126 13.8512 14.9728 13.5916 14.916 13.3089C14.8591 13.0261 14.8877 12.7329 14.998 12.4664C15.1083 12.1998 15.2955 11.972 15.5358 11.8116C15.7761 11.6513 16.0587 11.5657 16.3477 11.5657C16.7339 11.5657 17.1044 11.7183 17.3781 11.9901C17.6518 12.2619 17.8064 12.6308 17.808 13.0161Z" fill="#C4BAB3"/>
<path d="M32.6892 13.0161C32.6892 13.3029 32.6039 13.5833 32.4441 13.8219C32.2844 14.0604 32.0573 14.2463 31.7916 14.356C31.5259 14.4658 31.2336 14.4945 30.9515 14.4386C30.6695 14.3826 30.4104 14.2445 30.2071 14.0416C30.0037 13.8388 29.8652 13.5804 29.8091 13.299C29.753 13.0177 29.7818 12.7261 29.8919 12.461C30.0019 12.196 30.1883 11.9695 30.4274 11.8101C30.6665 11.6508 30.9476 11.5657 31.2352 11.5657C31.6208 11.5657 31.9906 11.7185 32.2633 11.9905C32.536 12.2625 32.6892 12.6314 32.6892 13.0161Z" fill="#C4BAB3"/>
<path d="M47.5766 13.0161C47.5779 13.3047 47.4931 13.5872 47.3331 13.8277C47.1732 14.0682 46.9452 14.2559 46.6781 14.367C46.411 14.478 46.1168 14.5074 45.833 14.4514C45.5491 14.3954 45.2883 14.2565 45.0837 14.0524C44.8791 13.8483 44.7399 13.5882 44.6838 13.305C44.6276 13.0218 44.6571 12.7284 44.7684 12.462C44.8797 12.1956 45.0678 11.9681 45.309 11.8086C45.5501 11.649 45.8333 11.5644 46.1226 11.5657C46.5082 11.5657 46.8781 11.7185 47.1507 11.9905C47.4234 12.2625 47.5766 12.6314 47.5766 13.0161Z" fill="#C4BAB3"/>
<path d="M2.92059 24.5939C2.92059 24.882 2.83495 25.1636 2.67449 25.4032C2.51403 25.6427 2.28596 25.8294 2.01913 25.9397C1.75229 26.0499 1.45868 26.0788 1.17541 26.0226C0.892138 25.9664 0.631938 25.8276 0.427712 25.6239C0.223486 25.4202 0.0844057 25.1606 0.0280599 24.8781C-0.028286 24.5955 0.00063272 24.3026 0.111159 24.0364C0.221686 23.7703 0.408856 23.5427 0.649 23.3827C0.889145 23.2226 1.17148 23.1372 1.4603 23.1372C1.6523 23.1364 1.84257 23.1735 2.02012 23.2464C2.19767 23.3193 2.35898 23.4265 2.49475 23.562C2.63052 23.6974 2.73805 23.8583 2.81114 24.0354C2.88423 24.2125 2.92143 24.4023 2.92059 24.5939Z" fill="#C4BAB3"/>
<path d="M17.808 24.5939C17.808 24.882 17.7224 25.1636 17.5619 25.4032C17.4015 25.6427 17.1734 25.8294 16.9066 25.9397C16.6397 26.0499 16.3461 26.0788 16.0628 26.0226C15.7796 25.9664 15.5194 25.8276 15.3152 25.6239C15.1109 25.4202 14.9718 25.1606 14.9155 24.8781C14.8592 24.5955 14.8881 24.3026 14.9986 24.0364C15.1091 23.7703 15.2963 23.5427 15.5364 23.3827C15.7766 23.2226 16.0589 23.1372 16.3477 23.1372C16.735 23.1372 17.1065 23.2907 17.3803 23.5638C17.6542 23.837 17.808 24.2075 17.808 24.5939Z" fill="#C4BAB3"/>
<path d="M32.6892 24.5939C32.6879 24.8805 32.6016 25.1603 32.4411 25.3979C32.2805 25.6356 32.053 25.8205 31.7872 25.9293C31.5214 26.0382 31.2293 26.066 30.9477 26.0093C30.666 25.9526 30.4076 25.814 30.2049 25.6109C30.0021 25.4078 29.8643 25.1494 29.8087 24.8682C29.7531 24.587 29.7823 24.2957 29.8925 24.0311C30.0027 23.7664 30.1891 23.5403 30.4281 23.3812C30.667 23.2221 30.9479 23.1372 31.2352 23.1372C31.4267 23.1372 31.6162 23.1749 31.7931 23.2482C31.9699 23.3215 32.1304 23.4289 32.2655 23.5642C32.4006 23.6996 32.5076 23.8602 32.5803 24.0369C32.653 24.2136 32.69 24.4029 32.6892 24.5939Z" fill="#C4BAB3"/>
<path d="M47.5766 24.5939C47.5765 24.8836 47.4898 25.1667 47.3276 25.407C47.1654 25.6473 46.9351 25.8339 46.666 25.9429C46.397 26.052 46.1014 26.0785 45.8172 26.0192C45.5329 25.9598 45.2729 25.8173 45.0702 25.6098C44.8676 25.4023 44.7316 25.1392 44.6796 24.8542C44.6276 24.5691 44.662 24.2751 44.7784 24.0097C44.8947 23.7443 45.0878 23.5195 45.3329 23.3641C45.5779 23.2087 45.8639 23.1297 46.1542 23.1372C46.5354 23.1455 46.8981 23.3028 47.1642 23.5752C47.4302 23.8477 47.5784 24.2135 47.5766 24.5939Z" fill="#C4BAB3"/>
<path d="M2.92059 36.1528C2.9181 36.4403 2.83034 36.7207 2.66837 36.9586C2.5064 37.1965 2.27747 37.3812 2.01042 37.4895C1.74338 37.5979 1.45017 37.6249 1.16774 37.5673C0.885305 37.5097 0.626289 37.3699 0.423325 37.1657C0.220362 36.9615 0.0825325 36.702 0.0272037 36.4197C-0.028125 36.1375 0.0015226 35.8453 0.112411 35.5798C0.223299 35.3144 0.410467 35.0876 0.65033 34.9281C0.890193 34.7686 1.17202 34.6835 1.4603 34.6835C1.65313 34.6835 1.84406 34.7215 2.02206 34.7955C2.20007 34.8695 2.36161 34.978 2.49738 35.1146C2.63315 35.2512 2.74045 35.4132 2.81309 35.5914C2.88572 35.7696 2.92226 35.9604 2.92059 36.1528Z" fill="#C4BAB3"/>
<path d="M17.808 36.1528C17.8055 36.4403 17.7178 36.7207 17.5558 36.9586C17.3938 37.1965 17.1649 37.3812 16.8979 37.4895C16.6308 37.5979 16.3376 37.6249 16.0552 37.5673C15.7727 37.5097 15.5137 37.3699 15.3108 37.1657C15.1078 36.9615 14.97 36.702 14.9146 36.4197C14.8593 36.1375 14.889 35.8453 14.9999 35.5798C15.1107 35.3144 15.2979 35.0876 15.5378 34.9281C15.7776 34.7686 16.0595 34.6835 16.3477 34.6835C16.5403 34.6843 16.7309 34.723 16.9085 34.7972C17.0861 34.8715 17.2473 34.98 17.3829 35.1164C17.5186 35.2529 17.6259 35.4146 17.6988 35.5924C17.7718 35.7702 17.8089 35.9606 17.808 36.1528Z" fill="#C4BAB3"/>
<path d="M32.6892 36.1528C32.6854 36.4388 32.597 36.7173 32.435 36.9533C32.2729 37.1893 32.0446 37.3723 31.7786 37.4792C31.5126 37.5861 31.2209 37.6121 30.9401 37.554C30.6593 37.4959 30.402 37.3563 30.2006 37.1528C29.9991 36.9492 29.8625 36.6907 29.8079 36.4099C29.7533 36.1291 29.7832 35.8385 29.8938 35.5745C30.0044 35.3106 30.1907 35.0852 30.4294 34.9266C30.6681 34.7681 30.9484 34.6835 31.2352 34.6835C31.4275 34.6843 31.6177 34.723 31.795 34.7974C31.9723 34.8717 32.1331 34.9803 32.2682 35.1168C32.4033 35.2533 32.51 35.4151 32.5822 35.5929C32.6545 35.7707 32.6908 35.9609 32.6892 36.1528Z" fill="#C4BAB3"/>
<path d="M47.5766 36.1528C47.574 36.4419 47.4852 36.7237 47.3215 36.9624C47.1578 37.201 46.9266 37.3856 46.6573 37.4927C46.388 37.5998 46.0929 37.6246 45.8095 37.5638C45.5261 37.5031 45.2673 37.3596 45.0659 37.1515C44.8645 36.9435 44.7298 36.6805 44.6788 36.3958C44.6278 36.1112 44.663 35.8178 44.7797 35.5531C44.8964 35.2885 45.0894 35.0644 45.3342 34.9095C45.579 34.7547 45.8645 34.676 46.1542 34.6835C46.5371 34.6934 46.9008 34.8529 47.1668 35.1278C47.4329 35.4026 47.58 35.7707 47.5766 36.1528Z" fill="#C4BAB3"/>
<path d="M2.92059 46.854C2.92185 47.1424 2.83727 47.4247 2.67757 47.665C2.51787 47.9054 2.29025 48.0931 2.02352 48.2043C1.7568 48.3155 1.46299 48.3453 1.1793 48.2898C0.895618 48.2343 0.634827 48.0961 0.429968 47.8926C0.225109 47.6891 0.0853997 47.4296 0.0285396 47.1469C-0.0283206 46.8641 0.000226682 46.5709 0.110565 46.3044C0.220903 46.0378 0.408067 45.8099 0.648347 45.6496C0.888627 45.4893 1.17121 45.4037 1.4603 45.4037C1.65177 45.4028 1.84152 45.4397 2.01865 45.5122C2.19579 45.5848 2.35682 45.6915 2.4925 45.8262C2.62819 45.961 2.73585 46.1212 2.80932 46.2975C2.88278 46.4739 2.9206 46.663 2.92059 46.854Z" fill="#C4BAB3"/>
<path d="M17.808 46.854C17.8093 47.1424 17.7247 47.4247 17.565 47.665C17.4053 47.9054 17.1777 48.0931 16.911 48.2043C16.6442 48.3155 16.3504 48.3453 16.0667 48.2898C15.7831 48.2343 15.5223 48.0961 15.3174 47.8926C15.1126 47.6891 14.9728 47.4296 14.916 47.1469C14.8591 46.8641 14.8877 46.5709 14.998 46.3044C15.1083 46.0378 15.2955 45.8099 15.5358 45.6496C15.7761 45.4893 16.0587 45.4037 16.3477 45.4037C16.7339 45.4037 17.1044 45.5563 17.3781 45.8281C17.6518 46.0999 17.8064 46.4688 17.808 46.854Z" fill="#C4BAB3"/>
<path d="M32.6892 46.854C32.6892 47.1409 32.6039 47.4213 32.4441 47.6598C32.2844 47.8983 32.0573 48.0842 31.7916 48.194C31.5259 48.3038 31.2336 48.3325 30.9515 48.2766C30.6695 48.2206 30.4104 48.0825 30.2071 47.8796C30.0037 47.6768 29.8652 47.4183 29.8091 47.137C29.753 46.8556 29.7818 46.564 29.8919 46.299C30.0019 46.034 30.1883 45.8075 30.4274 45.6481C30.6665 45.4887 30.9476 45.4037 31.2352 45.4037C31.6208 45.4037 31.9906 45.5565 32.2633 45.8285C32.536 46.1005 32.6892 46.4694 32.6892 46.854Z" fill="#C4BAB3"/>
<path d="M47.5766 46.854C47.5778 47.144 47.4921 47.4277 47.3307 47.6688C47.1693 47.91 46.9394 48.0976 46.6704 48.2076C46.4015 48.3176 46.1057 48.3451 45.8211 48.2864C45.5364 48.2278 45.2757 48.0858 45.0724 47.8785C44.8692 47.6712 44.7325 47.4082 44.68 47.123C44.6275 46.8378 44.6616 46.5434 44.7777 46.2776C44.8939 46.0118 45.087 45.7867 45.3322 45.631C45.5774 45.4753 45.8637 45.3961 46.1542 45.4037C46.5343 45.4119 46.8961 45.5683 47.162 45.8395C47.4278 46.1106 47.5767 46.4748 47.5766 46.854Z" fill="#C4BAB3"/>
<path d="M2.92059 58.4192C2.92185 58.7076 2.83727 58.9899 2.67757 59.2302C2.51787 59.4706 2.29025 59.6583 2.02352 59.7695C1.7568 59.8807 1.46299 59.9105 1.1793 59.855C0.895618 59.7995 0.634827 59.6613 0.429968 59.4578C0.225109 59.2543 0.0853997 58.9948 0.0285396 58.7121C-0.0283206 58.4293 0.000226682 58.1361 0.110565 57.8696C0.220903 57.603 0.408067 57.3751 0.648347 57.2148C0.888627 57.0545 1.17121 56.9689 1.4603 56.9689C1.65177 56.968 1.84152 57.0049 2.01865 57.0774C2.19579 57.15 2.35682 57.2567 2.4925 57.3914C2.62819 57.5262 2.73585 57.6864 2.80932 57.8627C2.88278 58.0391 2.9206 58.2282 2.92059 58.4192Z" fill="#C4BAB3"/>
<path d="M17.808 58.4192C17.8093 58.7076 17.7247 58.9899 17.565 59.2302C17.4053 59.4706 17.1777 59.6583 16.911 59.7695C16.6442 59.8807 16.3504 59.9105 16.0667 59.855C15.7831 59.7995 15.5223 59.6613 15.3174 59.4578C15.1126 59.2543 14.9728 58.9948 14.916 58.7121C14.8591 58.4293 14.8877 58.1361 14.998 57.8696C15.1083 57.603 15.2955 57.3751 15.5358 57.2148C15.7761 57.0545 16.0587 56.9689 16.3477 56.9689C16.7339 56.9689 17.1044 57.1215 17.3781 57.3933C17.6518 57.6651 17.8064 58.034 17.808 58.4192Z" fill="#C4BAB3"/>
<path d="M32.6892 58.4192C32.6892 58.7061 32.6039 58.9865 32.4441 59.225C32.2844 59.4635 32.0573 59.6494 31.7916 59.7592C31.5259 59.869 31.2336 59.8977 30.9515 59.8417C30.6695 59.7858 30.4104 59.6476 30.2071 59.4448C30.0037 59.242 29.8652 58.9835 29.8091 58.7022C29.753 58.4208 29.7818 58.1292 29.8919 57.8642C30.0019 57.5992 30.1883 57.3727 30.4274 57.2133C30.6665 57.0539 30.9476 56.9689 31.2352 56.9689C31.6208 56.9689 31.9906 57.1217 32.2633 57.3937C32.536 57.6657 32.6892 58.0346 32.6892 58.4192Z" fill="#C4BAB3"/>
<path d="M47.5766 58.4192C47.5779 58.7079 47.4931 58.9904 47.3331 59.2309C47.1732 59.4714 46.9452 59.6591 46.6781 59.7701C46.411 59.8812 46.1168 59.9105 45.833 59.8545C45.5491 59.7985 45.2883 59.6597 45.0837 59.4556C44.8791 59.2515 44.7399 58.9913 44.6838 58.7082C44.6276 58.425 44.6571 58.1316 44.7684 57.8652C44.8797 57.5987 45.0678 57.3713 45.309 57.2117C45.5501 57.0521 45.8333 56.9676 46.1226 56.9689C46.5082 56.9689 46.8781 57.1217 47.1507 57.3937C47.4234 57.6657 47.5766 58.0346 47.5766 58.4192Z" fill="#C4BAB3"/>
<path d="M2.92059 69.997C2.92059 70.2851 2.83495 70.5668 2.67449 70.8063C2.51403 71.0459 2.28596 71.2326 2.01913 71.3428C1.75229 71.4531 1.45868 71.4819 1.17541 71.4257C0.892138 71.3695 0.631938 71.2308 0.427712 71.0271C0.223486 70.8233 0.0844057 70.5638 0.0280599 70.2812C-0.028286 69.9987 0.00063272 69.7058 0.111159 69.4396C0.221686 69.1734 0.408856 68.9459 0.649 68.7859C0.889145 68.6258 1.17148 68.5404 1.4603 68.5404C1.6523 68.5395 1.84257 68.5766 2.02012 68.6495C2.19767 68.7225 2.35898 68.8297 2.49475 68.9651C2.63052 69.1006 2.73805 69.2615 2.81114 69.4386C2.88423 69.6157 2.92143 69.8055 2.92059 69.997Z" fill="#C4BAB3"/>
<path d="M17.808 69.997C17.808 70.2851 17.7224 70.5668 17.5619 70.8063C17.4015 71.0459 17.1734 71.2326 16.9066 71.3428C16.6397 71.4531 16.3461 71.4819 16.0628 71.4257C15.7796 71.3695 15.5194 71.2308 15.3152 71.0271C15.1109 70.8233 14.9718 70.5638 14.9155 70.2812C14.8592 69.9987 14.8881 69.7058 14.9986 69.4396C15.1091 69.1734 15.2963 68.9459 15.5364 68.7859C15.7766 68.6258 16.0589 68.5404 16.3477 68.5404C16.735 68.5404 17.1065 68.6938 17.3803 68.967C17.6542 69.2402 17.808 69.6107 17.808 69.997Z" fill="#C4BAB3"/>
<path d="M32.6892 69.997C32.6879 70.2836 32.6016 70.5634 32.4411 70.8011C32.2805 71.0388 32.053 71.2237 31.7872 71.3325C31.5214 71.4413 31.2293 71.4691 30.9477 71.4125C30.666 71.3558 30.4076 71.2172 30.2049 71.0141C30.0021 70.811 29.8643 70.5526 29.8087 70.2714C29.7531 69.9902 29.7823 69.6989 29.8925 69.4343C30.0027 69.1696 30.1891 68.9435 30.4281 68.7844C30.667 68.6253 30.9479 68.5404 31.2352 68.5404C31.4267 68.5404 31.6162 68.5781 31.7931 68.6514C31.9699 68.7246 32.1304 68.832 32.2655 68.9674C32.4006 69.1027 32.5076 69.2634 32.5803 69.4401C32.653 69.6168 32.69 69.806 32.6892 69.997Z" fill="#C4BAB3"/>
<path d="M47.5766 69.997C47.5765 70.2867 47.4898 70.5698 47.3276 70.8101C47.1654 71.0504 46.9351 71.237 46.666 71.3461C46.397 71.4551 46.1014 71.4817 45.8172 71.4224C45.5329 71.363 45.2729 71.2205 45.0702 71.0129C44.8676 70.8054 44.7316 70.5423 44.6796 70.2573C44.6276 69.9723 44.662 69.6783 44.7784 69.4129C44.8947 69.1475 45.0878 68.9227 45.3329 68.7673C45.5779 68.6118 45.8639 68.5328 46.1542 68.5404C46.5354 68.5486 46.8981 68.7059 47.1642 68.9784C47.4302 69.2509 47.5784 69.6167 47.5766 69.997Z" fill="#C4BAB3"/>
<path d="M2.92059 81.5559C2.9181 81.8435 2.83034 82.1239 2.66837 82.3618C2.5064 82.5996 2.27747 82.7844 2.01042 82.8927C1.74338 83.001 1.45017 83.0281 1.16774 82.9705C0.885305 82.9128 0.626289 82.7731 0.423325 82.5689C0.220362 82.3647 0.0825325 82.1051 0.0272037 81.8229C-0.028125 81.5407 0.0015226 81.2484 0.112411 80.983C0.223299 80.7176 0.410467 80.4908 0.65033 80.3313C0.890193 80.1718 1.17202 80.0866 1.4603 80.0866C1.65313 80.0866 1.84406 80.1247 2.02206 80.1987C2.20007 80.2727 2.36161 80.3811 2.49738 80.5177C2.63315 80.6543 2.74045 80.8164 2.81309 80.9946C2.88572 81.1728 2.92226 81.3636 2.92059 81.5559Z" fill="#C4BAB3"/>
<path d="M17.808 81.5559C17.8055 81.8435 17.7178 82.1239 17.5558 82.3618C17.3938 82.5996 17.1649 82.7844 16.8979 82.8927C16.6308 83.001 16.3376 83.0281 16.0552 82.9705C15.7727 82.9128 15.5137 82.7731 15.3108 82.5689C15.1078 82.3647 14.97 82.1051 14.9146 81.8229C14.8593 81.5407 14.889 81.2484 14.9999 80.983C15.1107 80.7176 15.2979 80.4908 15.5378 80.3313C15.7776 80.1718 16.0595 80.0866 16.3477 80.0866C16.5403 80.0875 16.7309 80.1261 16.9085 80.2004C17.0861 80.2747 17.2473 80.3832 17.3829 80.5196C17.5186 80.656 17.6259 80.8178 17.6988 80.9956C17.7718 81.1734 17.8089 81.3638 17.808 81.5559Z" fill="#C4BAB3"/>
<path d="M32.6892 81.5559C32.6854 81.842 32.597 82.1205 32.435 82.3565C32.2729 82.5925 32.0446 82.7755 31.7786 82.8823C31.5126 82.9892 31.2209 83.0153 30.9401 82.9572C30.6593 82.8991 30.402 82.7595 30.2006 82.5559C29.9991 82.3523 29.8625 82.0939 29.8079 81.8131C29.7533 81.5323 29.7832 81.2416 29.8938 80.9777C30.0044 80.7138 30.1907 80.4884 30.4294 80.3298C30.6681 80.1713 30.9484 80.0867 31.2352 80.0866C31.4275 80.0875 31.6177 80.1262 31.795 80.2005C31.9723 80.2749 32.1331 80.3834 32.2682 80.52C32.4033 80.6565 32.51 80.8183 32.5822 80.9961C32.6545 81.1738 32.6908 81.3641 32.6892 81.5559Z" fill="#C4BAB3"/>
<path d="M47.5766 81.5559C47.574 81.8451 47.4852 82.1269 47.3215 82.3655C47.1578 82.6042 46.9266 82.7888 46.6573 82.8959C46.388 83.003 46.0929 83.0278 45.8095 82.967C45.5261 82.9062 45.2673 82.7627 45.0659 82.5547C44.8645 82.3467 44.7298 82.0836 44.6788 81.799C44.6278 81.5143 44.663 81.221 44.7797 80.9563C44.8964 80.6916 45.0894 80.4676 45.3342 80.3127C45.579 80.1578 45.8645 80.0791 46.1542 80.0866C46.5371 80.0965 46.9008 80.2561 47.1668 80.5309C47.4329 80.8058 47.58 81.1739 47.5766 81.5559Z" fill="#C4BAB3"/>
<path d="M62.3439 1.45087C62.3452 1.73924 62.2606 2.02149 62.1009 2.26187C61.9412 2.50225 61.7136 2.68994 61.4469 2.80116C61.1801 2.91238 60.8863 2.94213 60.6026 2.88664C60.319 2.83114 60.0582 2.69291 59.8533 2.48944C59.6484 2.28597 59.5087 2.02643 59.4519 1.74369C59.395 1.46095 59.4236 1.16774 59.5339 0.901193C59.6442 0.634651 59.8314 0.406775 60.0717 0.246432C60.312 0.0860886 60.5945 0.000494038 60.8836 0.000491336C61.0751 -0.000339091 61.2649 0.0365632 61.442 0.10908C61.6191 0.181596 61.7802 0.288299 61.9158 0.423062C62.0515 0.557824 62.1592 0.717994 62.2327 0.894374C62.3061 1.07075 62.3439 1.25987 62.3439 1.45087Z" fill="#C4BAB3"/>
<path d="M77.2314 1.45087C77.2326 1.73924 77.148 2.02149 76.9883 2.26187C76.8287 2.50225 76.601 2.68994 76.3343 2.80116C76.0676 2.91238 75.7738 2.94213 75.4901 2.88664C75.2064 2.83114 74.9456 2.69291 74.7408 2.48944C74.5359 2.28597 74.3962 2.02643 74.3393 1.74369C74.2825 1.46095 74.311 1.16774 74.4213 0.901193C74.5317 0.634651 74.7188 0.406775 74.9591 0.246432C75.1994 0.0860886 75.482 0.000494038 75.7711 0.000491336C76.1573 0.000487726 76.5278 0.153094 76.8014 0.424913C77.0751 0.696732 77.2297 1.06563 77.2314 1.45087Z" fill="#C4BAB3"/>
<path d="M92.1125 1.45087C92.1125 1.73773 92.0272 2.01814 91.8675 2.25666C91.7077 2.49517 91.4806 2.68107 91.2149 2.79085C90.9493 2.90062 90.6569 2.92934 90.3749 2.87338C90.0928 2.81742 89.8337 2.67928 89.6304 2.47644C89.4271 2.2736 89.2886 2.01517 89.2325 1.73383C89.1764 1.45248 89.2052 1.16086 89.3152 0.895834C89.4253 0.630812 89.6116 0.404294 89.8507 0.244924C90.0898 0.0855546 90.371 0.000491336 90.6585 0.000491336C91.0441 0.000491336 91.414 0.153299 91.6866 0.425297C91.9593 0.697296 92.1125 1.06621 92.1125 1.45087Z" fill="#C4BAB3"/>
<path d="M107 1.45087C107.001 1.74083 106.915 2.02454 106.754 2.26568C106.593 2.50681 106.363 2.6944 106.094 2.80443C105.825 2.91445 105.529 2.94191 105.244 2.88328C104.96 2.82466 104.699 2.68261 104.496 2.47534C104.293 2.26806 104.156 2.00499 104.103 1.71979C104.051 1.4346 104.085 1.14026 104.201 0.874464C104.317 0.608668 104.51 0.383509 104.756 0.227811C105.001 0.072113 105.287 -0.00703788 105.578 0.000491336C105.958 0.00873618 106.319 0.165176 106.585 0.436286C106.851 0.707396 107 1.07161 107 1.45087Z" fill="#C4BAB3"/>
<path d="M62.3439 13.0161C62.3452 13.3044 62.2606 13.5867 62.1009 13.8271C61.9412 14.0674 61.7136 14.2551 61.4469 14.3664C61.1801 14.4776 60.8863 14.5073 60.6026 14.4518C60.319 14.3963 60.0582 14.2581 59.8533 14.0546C59.6484 13.8512 59.5087 13.5916 59.4519 13.3089C59.395 13.0261 59.4236 12.7329 59.5339 12.4664C59.6442 12.1998 59.8314 11.972 60.0717 11.8116C60.312 11.6513 60.5945 11.5657 60.8836 11.5657C61.0751 11.5649 61.2649 11.6018 61.442 11.6743C61.6191 11.7468 61.7802 11.8535 61.9158 11.9883C62.0515 12.123 62.1592 12.2832 62.2327 12.4596C62.3061 12.636 62.3439 12.8251 62.3439 13.0161Z" fill="#C4BAB3"/>
<path d="M77.2314 13.0161C77.2326 13.3044 77.148 13.5867 76.9883 13.8271C76.8287 14.0674 76.601 14.2551 76.3343 14.3664C76.0676 14.4776 75.7738 14.5073 75.4901 14.4518C75.2064 14.3963 74.9456 14.2581 74.7408 14.0546C74.5359 13.8512 74.3962 13.5916 74.3393 13.3089C74.2825 13.0261 74.311 12.7329 74.4213 12.4664C74.5317 12.1998 74.7188 11.972 74.9591 11.8116C75.1994 11.6513 75.482 11.5657 75.7711 11.5657C76.1573 11.5657 76.5278 11.7183 76.8014 11.9901C77.0751 12.2619 77.2297 12.6308 77.2314 13.0161Z" fill="#C4BAB3"/>
<path d="M92.1125 13.0161C92.1125 13.3029 92.0272 13.5833 91.8675 13.8219C91.7077 14.0604 91.4806 14.2463 91.2149 14.356C90.9493 14.4658 90.6569 14.4945 90.3749 14.4386C90.0928 14.3826 89.8337 14.2445 89.6304 14.0416C89.4271 13.8388 89.2886 13.5804 89.2325 13.299C89.1764 13.0177 89.2052 12.7261 89.3152 12.461C89.4253 12.196 89.6116 11.9695 89.8507 11.8101C90.0898 11.6508 90.371 11.5657 90.6585 11.5657C91.0441 11.5657 91.414 11.7185 91.6866 11.9905C91.9593 12.2625 92.1125 12.6314 92.1125 13.0161Z" fill="#C4BAB3"/>
<path d="M107 13.0161C107.001 13.3047 106.916 13.5872 106.756 13.8277C106.596 14.0682 106.368 14.2559 106.101 14.367C105.834 14.478 105.54 14.5074 105.256 14.4514C104.972 14.3954 104.712 14.2565 104.507 14.0524C104.302 13.8483 104.163 13.5882 104.107 13.305C104.051 13.0218 104.08 12.7284 104.192 12.462C104.303 12.1956 104.491 11.9681 104.732 11.8086C104.973 11.649 105.257 11.5644 105.546 11.5657C105.932 11.5657 106.301 11.7185 106.574 11.9905C106.847 12.2625 107 12.6314 107 13.0161Z" fill="#C4BAB3"/>
<path d="M62.3439 24.5939C62.3439 24.882 62.2583 25.1636 62.0978 25.4032C61.9374 25.6427 61.7093 25.8294 61.4425 25.9397C61.1756 26.0499 60.882 26.0788 60.5987 26.0226C60.3155 25.9664 60.0553 25.8276 59.851 25.6239C59.6468 25.4202 59.5077 25.1606 59.4514 24.8781C59.3951 24.5955 59.424 24.3026 59.5345 24.0364C59.645 23.7703 59.8322 23.5427 60.0723 23.3827C60.3125 23.2226 60.5948 23.1372 60.8836 23.1372C61.0756 23.1364 61.2659 23.1735 61.4435 23.2464C61.621 23.3193 61.7823 23.4265 61.9181 23.562C62.0539 23.6974 62.1614 23.8583 62.2345 24.0354C62.3076 24.2125 62.3448 24.4023 62.3439 24.5939Z" fill="#C4BAB3"/>
<path d="M77.2314 24.5939C77.2314 24.882 77.1457 25.1636 76.9853 25.4032C76.8248 25.6427 76.5967 25.8294 76.3299 25.9397C76.0631 26.0499 75.7695 26.0788 75.4862 26.0226C75.2029 25.9664 74.9427 25.8276 74.7385 25.6239C74.5343 25.4202 74.3952 25.1606 74.3388 24.8781C74.2825 24.5955 74.3114 24.3026 74.4219 24.0364C74.5325 23.7703 74.7196 23.5427 74.9598 23.3827C75.1999 23.2226 75.4823 23.1372 75.7711 23.1372C76.1584 23.1372 76.5298 23.2907 76.8037 23.5638C77.0775 23.837 77.2314 24.2075 77.2314 24.5939Z" fill="#C4BAB3"/>
<path d="M92.1125 24.5939C92.1113 24.8805 92.0249 25.1603 91.8644 25.3979C91.7039 25.6356 91.4763 25.8205 91.2106 25.9293C90.9448 26.0382 90.6526 26.066 90.371 26.0093C90.0894 25.9526 89.8309 25.814 89.6282 25.6109C89.4255 25.4078 89.2876 25.1494 89.232 24.8682C89.1764 24.587 89.2056 24.2957 89.3158 24.0311C89.4261 23.7664 89.6124 23.5403 89.8514 23.3812C90.0904 23.2221 90.3712 23.1372 90.6585 23.1372C90.85 23.1372 91.0396 23.1749 91.2164 23.2482C91.3932 23.3215 91.5538 23.4289 91.6889 23.5642C91.824 23.6996 91.9309 23.8602 92.0036 24.0369C92.0763 24.2136 92.1133 24.4029 92.1125 24.5939Z" fill="#C4BAB3"/>
<path d="M107 24.5939C107 24.8836 106.913 25.1667 106.751 25.407C106.589 25.6473 106.358 25.8339 106.089 25.9429C105.82 26.052 105.525 26.0785 105.241 26.0192C104.956 25.9598 104.696 25.8173 104.494 25.6098C104.291 25.4023 104.155 25.1392 104.103 24.8542C104.051 24.5691 104.085 24.2751 104.202 24.0097C104.318 23.7443 104.511 23.5195 104.756 23.3641C105.001 23.2087 105.287 23.1297 105.578 23.1372C105.959 23.1455 106.321 23.3028 106.588 23.5752C106.854 23.8477 107.002 24.2135 107 24.5939Z" fill="#C4BAB3"/>
<path d="M62.3439 36.1528C62.3414 36.4403 62.2537 36.7207 62.0917 36.9586C61.9297 37.1965 61.7008 37.3812 61.4338 37.4895C61.1667 37.5979 60.8735 37.6249 60.5911 37.5673C60.3086 37.5097 60.0496 37.3699 59.8467 37.1657C59.6437 36.9615 59.5059 36.702 59.4505 36.4197C59.3952 36.1375 59.4249 35.8453 59.5357 35.5798C59.6466 35.3144 59.8338 35.0876 60.0737 34.9281C60.3135 34.7686 60.5954 34.6835 60.8836 34.6835C61.0765 34.6835 61.2674 34.7215 61.4454 34.7955C61.6234 34.8695 61.785 34.978 61.9207 35.1146C62.0565 35.2512 62.1638 35.4132 62.2364 35.5914C62.3091 35.7696 62.3456 35.9604 62.3439 36.1528Z" fill="#C4BAB3"/>
<path d="M77.2314 36.1528C77.2289 36.4403 77.1411 36.7207 76.9791 36.9586C76.8172 37.1965 76.5882 37.3812 76.3212 37.4895C76.0542 37.5979 75.7609 37.6249 75.4785 37.5673C75.1961 37.5097 74.9371 37.3699 74.7341 37.1657C74.5311 36.9615 74.3933 36.702 74.338 36.4197C74.2827 36.1375 74.3123 35.8453 74.4232 35.5798C74.5341 35.3144 74.7212 35.0876 74.9611 34.9281C75.201 34.7686 75.4828 34.6835 75.7711 34.6835C75.9637 34.6843 76.1542 34.723 76.3318 34.7972C76.5095 34.8715 76.6707 34.98 76.8063 35.1164C76.9419 35.2529 77.0492 35.4146 77.1222 35.5924C77.1951 35.7702 77.2322 35.9606 77.2314 36.1528Z" fill="#C4BAB3"/>
<path d="M92.1125 36.1528C92.1088 36.4388 92.0203 36.7173 91.8583 36.9533C91.6963 37.1893 91.4679 37.3723 91.2019 37.4792C90.9359 37.5861 90.6442 37.6121 90.3634 37.554C90.0826 37.4959 89.8253 37.3563 89.6239 37.1528C89.4224 36.9492 89.2858 36.6907 89.2313 36.4099C89.1767 36.1291 89.2066 35.8385 89.3171 35.5745C89.4277 35.3106 89.6141 35.0852 89.8527 34.9266C90.0914 34.7681 90.3718 34.6835 90.6585 34.6835C90.8508 34.6843 91.0411 34.723 91.2183 34.7974C91.3956 34.8717 91.5564 34.9803 91.6915 35.1168C91.8266 35.2533 91.9333 35.4151 92.0056 35.5929C92.0778 35.7707 92.1142 35.9609 92.1125 36.1528Z" fill="#C4BAB3"/>
<path d="M107 36.1528C106.997 36.4419 106.909 36.7237 106.745 36.9624C106.581 37.201 106.35 37.3856 106.081 37.4927C105.811 37.5998 105.516 37.6246 105.233 37.5638C104.949 37.5031 104.691 37.3596 104.489 37.1515C104.288 36.9435 104.153 36.6805 104.102 36.3958C104.051 36.1112 104.086 35.8178 104.203 35.5531C104.32 35.2885 104.513 35.0644 104.758 34.9095C105.002 34.7547 105.288 34.676 105.578 34.6835C105.96 34.6934 106.324 34.8529 106.59 35.1278C106.856 35.4026 107.003 35.7707 107 36.1528Z" fill="#C4BAB3"/>
<path d="M62.3439 46.854C62.3452 47.1424 62.2606 47.4247 62.1009 47.665C61.9412 47.9054 61.7136 48.0931 61.4469 48.2043C61.1801 48.3155 60.8863 48.3453 60.6026 48.2898C60.319 48.2343 60.0582 48.0961 59.8533 47.8926C59.6484 47.6891 59.5087 47.4296 59.4519 47.1469C59.395 46.8641 59.4236 46.5709 59.5339 46.3044C59.6442 46.0378 59.8314 45.8099 60.0717 45.6496C60.312 45.4893 60.5945 45.4037 60.8836 45.4037C61.0751 45.4028 61.2649 45.4397 61.442 45.5122C61.6191 45.5848 61.7802 45.6915 61.9158 45.8262C62.0515 45.961 62.1592 46.1212 62.2327 46.2975C62.3061 46.4739 62.3439 46.663 62.3439 46.854Z" fill="#C4BAB3"/>
<path d="M77.2314 46.854C77.2326 47.1424 77.148 47.4247 76.9883 47.665C76.8287 47.9054 76.601 48.0931 76.3343 48.2043C76.0676 48.3155 75.7738 48.3453 75.4901 48.2898C75.2064 48.2343 74.9456 48.0961 74.7408 47.8926C74.5359 47.6891 74.3962 47.4296 74.3393 47.1469C74.2825 46.8641 74.311 46.5709 74.4213 46.3044C74.5317 46.0378 74.7188 45.8099 74.9591 45.6496C75.1994 45.4893 75.482 45.4037 75.7711 45.4037C76.1573 45.4037 76.5278 45.5563 76.8014 45.8281C77.0751 46.0999 77.2297 46.4688 77.2314 46.854Z" fill="#C4BAB3"/>
<path d="M92.1125 46.854C92.1125 47.1409 92.0272 47.4213 91.8675 47.6598C91.7077 47.8983 91.4806 48.0842 91.2149 48.194C90.9493 48.3038 90.6569 48.3325 90.3749 48.2766C90.0928 48.2206 89.8337 48.0825 89.6304 47.8796C89.4271 47.6768 89.2886 47.4183 89.2325 47.137C89.1764 46.8556 89.2052 46.564 89.3152 46.299C89.4253 46.034 89.6116 45.8075 89.8507 45.6481C90.0898 45.4887 90.371 45.4037 90.6585 45.4037C91.0441 45.4037 91.414 45.5565 91.6866 45.8285C91.9593 46.1005 92.1125 46.4694 92.1125 46.854Z" fill="#C4BAB3"/>
<path d="M107 46.854C107.001 47.144 106.915 47.4277 106.754 47.6688C106.593 47.91 106.363 48.0976 106.094 48.2076C105.825 48.3176 105.529 48.3451 105.244 48.2864C104.96 48.2278 104.699 48.0858 104.496 47.8785C104.293 47.6712 104.156 47.4082 104.103 47.123C104.051 46.8378 104.085 46.5434 104.201 46.2776C104.317 46.0118 104.51 45.7867 104.756 45.631C105.001 45.4753 105.287 45.3961 105.578 45.4037C105.958 45.4119 106.319 45.5683 106.585 45.8395C106.851 46.1106 107 46.4748 107 46.854Z" fill="#C4BAB3"/>
<path d="M62.3439 58.4192C62.3452 58.7076 62.2606 58.9899 62.1009 59.2302C61.9412 59.4706 61.7136 59.6583 61.4469 59.7695C61.1801 59.8807 60.8863 59.9105 60.6026 59.855C60.319 59.7995 60.0582 59.6613 59.8533 59.4578C59.6484 59.2543 59.5087 58.9948 59.4519 58.7121C59.395 58.4293 59.4236 58.1361 59.5339 57.8696C59.6442 57.603 59.8314 57.3751 60.0717 57.2148C60.312 57.0545 60.5945 56.9689 60.8836 56.9689C61.0751 56.968 61.2649 57.0049 61.442 57.0774C61.6191 57.15 61.7802 57.2567 61.9158 57.3914C62.0515 57.5262 62.1592 57.6864 62.2327 57.8627C62.3061 58.0391 62.3439 58.2282 62.3439 58.4192Z" fill="#C4BAB3"/>
<path d="M77.2314 58.4192C77.2326 58.7076 77.148 58.9899 76.9883 59.2302C76.8287 59.4706 76.601 59.6583 76.3343 59.7695C76.0676 59.8807 75.7738 59.9105 75.4901 59.855C75.2064 59.7995 74.9456 59.6613 74.7408 59.4578C74.5359 59.2543 74.3962 58.9948 74.3393 58.7121C74.2825 58.4293 74.311 58.1361 74.4213 57.8696C74.5317 57.603 74.7188 57.3751 74.9591 57.2148C75.1994 57.0545 75.482 56.9689 75.7711 56.9689C76.1573 56.9689 76.5278 57.1215 76.8014 57.3933C77.0751 57.6651 77.2297 58.034 77.2314 58.4192Z" fill="#C4BAB3"/>
<path d="M92.1125 58.4192C92.1125 58.7061 92.0272 58.9865 91.8675 59.225C91.7077 59.4635 91.4806 59.6494 91.2149 59.7592C90.9493 59.869 90.6569 59.8977 90.3749 59.8417C90.0928 59.7858 89.8337 59.6476 89.6304 59.4448C89.4271 59.242 89.2886 58.9835 89.2325 58.7022C89.1764 58.4208 89.2052 58.1292 89.3152 57.8642C89.4253 57.5992 89.6116 57.3727 89.8507 57.2133C90.0898 57.0539 90.371 56.9689 90.6585 56.9689C91.0441 56.9689 91.414 57.1217 91.6866 57.3937C91.9593 57.6657 92.1125 58.0346 92.1125 58.4192Z" fill="#C4BAB3"/>
<path d="M107 58.4192C107.001 58.7079 106.916 58.9904 106.756 59.2309C106.596 59.4714 106.368 59.6591 106.101 59.7701C105.834 59.8812 105.54 59.9105 105.256 59.8545C104.972 59.7985 104.712 59.6597 104.507 59.4556C104.302 59.2515 104.163 58.9913 104.107 58.7082C104.051 58.425 104.08 58.1316 104.192 57.8652C104.303 57.5987 104.491 57.3713 104.732 57.2117C104.973 57.0521 105.257 56.9676 105.546 56.9689C105.932 56.9689 106.301 57.1217 106.574 57.3937C106.847 57.6657 107 58.0346 107 58.4192Z" fill="#C4BAB3"/>
<path d="M62.3439 69.997C62.3439 70.2851 62.2583 70.5668 62.0978 70.8063C61.9374 71.0459 61.7093 71.2326 61.4425 71.3428C61.1756 71.4531 60.882 71.4819 60.5987 71.4257C60.3155 71.3695 60.0553 71.2308 59.851 71.0271C59.6468 70.8233 59.5077 70.5638 59.4514 70.2812C59.3951 69.9987 59.424 69.7058 59.5345 69.4396C59.645 69.1734 59.8322 68.9459 60.0723 68.7859C60.3125 68.6258 60.5948 68.5404 60.8836 68.5404C61.0756 68.5395 61.2659 68.5766 61.4435 68.6495C61.621 68.7225 61.7823 68.8297 61.9181 68.9651C62.0539 69.1006 62.1614 69.2615 62.2345 69.4386C62.3076 69.6157 62.3448 69.8055 62.3439 69.997Z" fill="#C4BAB3"/>
<path d="M77.2314 69.997C77.2314 70.2851 77.1457 70.5668 76.9853 70.8063C76.8248 71.0459 76.5967 71.2326 76.3299 71.3428C76.0631 71.4531 75.7695 71.4819 75.4862 71.4257C75.2029 71.3695 74.9427 71.2308 74.7385 71.0271C74.5343 70.8233 74.3952 70.5638 74.3388 70.2812C74.2825 69.9987 74.3114 69.7058 74.4219 69.4396C74.5325 69.1734 74.7196 68.9459 74.9598 68.7859C75.1999 68.6258 75.4823 68.5404 75.7711 68.5404C76.1584 68.5404 76.5298 68.6938 76.8037 68.967C77.0775 69.2402 77.2314 69.6107 77.2314 69.997Z" fill="#C4BAB3"/>
<path d="M92.1125 69.997C92.1113 70.2836 92.0249 70.5634 91.8644 70.8011C91.7039 71.0388 91.4763 71.2237 91.2106 71.3325C90.9448 71.4413 90.6526 71.4691 90.371 71.4125C90.0894 71.3558 89.8309 71.2172 89.6282 71.0141C89.4255 70.811 89.2876 70.5526 89.232 70.2714C89.1764 69.9902 89.2056 69.6989 89.3158 69.4343C89.4261 69.1696 89.6124 68.9435 89.8514 68.7844C90.0904 68.6253 90.3712 68.5404 90.6585 68.5404C90.85 68.5404 91.0396 68.5781 91.2164 68.6514C91.3932 68.7246 91.5538 68.832 91.6889 68.9674C91.824 69.1027 91.9309 69.2634 92.0036 69.4401C92.0763 69.6168 92.1133 69.806 92.1125 69.997Z" fill="#C4BAB3"/>
<path d="M107 69.997C107 70.2867 106.913 70.5698 106.751 70.8101C106.589 71.0504 106.358 71.237 106.089 71.3461C105.82 71.4551 105.525 71.4817 105.241 71.4224C104.956 71.363 104.696 71.2205 104.494 71.0129C104.291 70.8054 104.155 70.5423 104.103 70.2573C104.051 69.9723 104.085 69.6783 104.202 69.4129C104.318 69.1475 104.511 68.9227 104.756 68.7673C105.001 68.6118 105.287 68.5328 105.578 68.5404C105.959 68.5486 106.321 68.7059 106.588 68.9784C106.854 69.2509 107.002 69.6167 107 69.997Z" fill="#C4BAB3"/>
<path d="M62.3439 81.5559C62.3414 81.8435 62.2537 82.1239 62.0917 82.3618C61.9297 82.5996 61.7008 82.7844 61.4338 82.8927C61.1667 83.001 60.8735 83.0281 60.5911 82.9705C60.3086 82.9128 60.0496 82.7731 59.8467 82.5689C59.6437 82.3647 59.5059 82.1051 59.4505 81.8229C59.3952 81.5407 59.4249 81.2484 59.5357 80.983C59.6466 80.7176 59.8338 80.4908 60.0737 80.3313C60.3135 80.1718 60.5954 80.0866 60.8836 80.0866C61.0765 80.0866 61.2674 80.1247 61.4454 80.1987C61.6234 80.2727 61.785 80.3811 61.9207 80.5177C62.0565 80.6543 62.1638 80.8164 62.2364 80.9946C62.3091 81.1728 62.3456 81.3636 62.3439 81.5559Z" fill="#C4BAB3"/>
<path d="M77.2314 81.5559C77.2289 81.8435 77.1411 82.1239 76.9791 82.3618C76.8172 82.5996 76.5882 82.7844 76.3212 82.8927C76.0542 83.001 75.7609 83.0281 75.4785 82.9705C75.1961 82.9128 74.9371 82.7731 74.7341 82.5689C74.5311 82.3647 74.3933 82.1051 74.338 81.8229C74.2827 81.5407 74.3123 81.2484 74.4232 80.983C74.5341 80.7176 74.7212 80.4908 74.9611 80.3313C75.201 80.1718 75.4828 80.0866 75.7711 80.0866C75.9637 80.0875 76.1542 80.1261 76.3318 80.2004C76.5095 80.2747 76.6707 80.3832 76.8063 80.5196C76.9419 80.656 77.0492 80.8178 77.1222 80.9956C77.1951 81.1734 77.2322 81.3638 77.2314 81.5559Z" fill="#C4BAB3"/>
<path d="M92.1125 81.5559C92.1088 81.842 92.0203 82.1205 91.8583 82.3565C91.6963 82.5925 91.4679 82.7755 91.2019 82.8823C90.9359 82.9892 90.6442 83.0153 90.3634 82.9572C90.0826 82.8991 89.8253 82.7595 89.6239 82.5559C89.4224 82.3523 89.2858 82.0939 89.2313 81.8131C89.1767 81.5323 89.2066 81.2416 89.3171 80.9777C89.4277 80.7138 89.6141 80.4884 89.8527 80.3298C90.0914 80.1713 90.3718 80.0867 90.6585 80.0866C90.8508 80.0875 91.0411 80.1262 91.2183 80.2005C91.3956 80.2749 91.5564 80.3834 91.6915 80.52C91.8266 80.6565 91.9333 80.8183 92.0056 80.9961C92.0778 81.1738 92.1142 81.3641 92.1125 81.5559Z" fill="#C4BAB3"/>
<path d="M107 81.5559C106.997 81.8451 106.909 82.1269 106.745 82.3655C106.581 82.6042 106.35 82.7888 106.081 82.8959C105.811 83.003 105.516 83.0278 105.233 82.967C104.949 82.9062 104.691 82.7627 104.489 82.5547C104.288 82.3467 104.153 82.0836 104.102 81.799C104.051 81.5143 104.086 81.221 104.203 80.9563C104.32 80.6916 104.513 80.4676 104.758 80.3127C105.002 80.1578 105.288 80.0791 105.578 80.0866C105.96 80.0965 106.324 80.2561 106.59 80.5309C106.856 80.8058 107.003 81.1739 107 81.5559Z" fill="#C4BAB3"/>
</svg>
