<svg width="20" height="22" viewBox="0 0 20 22" fill="none" xmlns="http://www.w3.org/2000/svg">
<path d="M5.41056 6V5.28571C5.41056 4.14907 5.89409 3.05898 6.75478 2.25526C7.61546 1.45153 8.7828 1 10 1C11.2172 1 12.3845 1.45153 13.2452 2.25526C14.1059 3.05898 14.5894 4.14907 14.5894 5.28571V6M6.17547 13.8571H13.8245M2.19948 9.41429L1.00928 19.4143C0.985622 19.6139 1.00731 19.816 1.07294 20.0073C1.13857 20.1986 1.24666 20.3748 1.39016 20.5244C1.53366 20.6741 1.70934 20.7938 1.90573 20.8757C2.10212 20.9577 2.31481 21 2.52992 21H17.4701C17.6852 21 17.8979 20.9577 18.0943 20.8757C18.2907 20.7938 18.4663 20.6741 18.6098 20.5244C18.7533 20.3748 18.8614 20.1986 18.9271 20.0073C18.9927 19.816 19.0144 19.6139 18.9907 19.4143L17.8005 9.41429C17.7591 9.06473 17.581 8.74173 17.3005 8.50713C17.0199 8.27254 16.6565 8.14283 16.2799 8.14286H3.72011C3.3435 8.14283 2.98011 8.27254 2.69954 8.50713C2.41896 8.74173 2.24091 9.06473 2.19948 9.41429Z" stroke="#4F536C" stroke-width="1.5"/>
</svg>
