<svg width="81" height="90" viewBox="0 0 81 90" fill="none" xmlns="http://www.w3.org/2000/svg">
<path d="M19.3305 42.4725C19.7864 42.1621 20.2202 41.8669 20.6872 41.549C27.8788 36.6539 33.8201 33.9465 38.5111 33.4267C43.2021 32.907 46.3837 33.8834 48.056 36.3562C49.8911 39.0523 49.6346 42.4768 47.2979 46.6705C44.9612 50.8642 40.3471 55.2984 33.4743 59.9764C32.9516 60.3322 32.4623 60.6653 31.9619 61.0059L51.2157 89.2926C51.7718 88.9141 52.3278 88.5356 52.8839 88.1571C67.7118 78.0641 76.603 66.8598 79.5572 54.544C82.5114 42.2283 80.2608 30.6257 72.8054 19.7364C69.7113 15.1406 65.7993 11.1515 61.2616 7.96499C56.5001 4.70693 51.1518 2.3924 45.5057 1.14644C39.5778 -0.294453 32.7711 -0.0538622 25.0856 1.86821C16.5865 4.22544 8.55838 8.04819 1.36572 13.1629C0.90976 13.4733 0.464925 13.7761 0.0089614 14.0864L19.3305 42.4725Z" fill="#6550F2"/>
</svg>
