<svg width="177" height="138" viewBox="0 0 177 138" fill="none" xmlns="http://www.w3.org/2000/svg">
<path d="M87.6236 -40.6211C72.4351 -55.3729 56.7795 -60.1305 43.5329 -60.9378C24.5266 -62.0934 7.43393 -55.5768 3.01131 -34.6648C2.1761 -30.7045 1.84956 -25.9851 3.71247 -20.4249C6.62007 -11.7499 13.7925 -3.89846 20.305 1.91669C36.528 16.4085 53.0208 25.5635 69.0243 33.5077C83.9297 40.9085 98.6739 47.4566 113.257 53.1518C124.637 57.6072 136.121 61.543 145.683 60.6721C147.05 60.5447 148.482 60.1901 148.621 58.4114C148.663 57.2282 148.281 55.7616 147.556 54.3152C144.652 48.2529 139.092 44.8832 134.755 43.2576C112.929 35.1499 96.2383 42.8 84.371 55.8544C80.563 60.0512 77.0373 65.3723 78.1409 74.2928C79.6132 86.2733 89.3917 101.174 99.2545 109.88C109.117 118.587 118.975 122.376 128.273 125.322C151.726 132.723 174.017 136.179 194.667 135.615" stroke="#2FB4FF" stroke-width="3" stroke-miterlimit="10"/>
</svg>
