<svg width="81" height="90" viewBox="0 0 81 90" fill="none" xmlns="http://www.w3.org/2000/svg">
<path d="M19.3315 42.4725C19.7874 42.1621 20.2211 41.8669 20.6882 41.549C27.8798 36.6539 33.8211 33.9465 38.5121 33.4267C43.203 32.907 46.3847 33.8834 48.057 36.3562C49.8921 39.0523 49.6356 42.4768 47.2989 46.6705C44.9622 50.8642 40.3481 55.2984 33.4753 59.9764C32.9526 60.3322 32.4633 60.6653 31.9629 61.0059L51.2167 89.2926C51.7727 88.9141 52.3288 88.5356 52.8848 88.1571C67.7128 78.0641 76.6039 66.8598 79.5582 54.544C82.5124 42.2283 80.2618 30.6257 72.8064 19.7364C69.7123 15.1406 65.8003 11.1515 61.2626 7.96499C56.5011 4.70693 51.1528 2.3924 45.5066 1.14644C39.5787 -0.294453 32.772 -0.0538622 25.0865 1.86821C16.5874 4.22544 8.55936 8.04819 1.3667 13.1629C0.910736 13.4733 0.465902 13.7761 0.00993796 14.0864L19.3315 42.4725Z" fill="#31224E"/>
</svg>
