<svg width="56" height="63" viewBox="0 0 56 63" fill="none" xmlns="http://www.w3.org/2000/svg">
<path d="M2.63309 50.7658C6.94483 53.8307 18.456 45.3146 28.344 31.7445C38.232 18.1745 42.7525 4.68927 38.4408 1.62438C34.129 -1.44051 22.6179 7.07557 12.7298 20.6456C2.84181 34.2156 -1.67865 47.7009 2.63309 50.7658Z" stroke="#41FF31" stroke-width="1.5" stroke-miterlimit="10"/>
<path d="M10.0948 56.0697C14.4065 59.1346 25.9177 50.6185 35.8057 37.0485C45.6937 23.4785 50.2142 9.99323 45.9025 6.92834C41.5907 3.86345 30.0796 12.3795 20.1915 25.9496C10.3035 39.5196 5.78305 53.0048 10.0948 56.0697Z" stroke="#41FF31" stroke-width="1.5" stroke-miterlimit="10"/>
<path d="M17.5592 61.3756C21.871 64.4405 33.3822 55.9244 43.2702 42.3544C53.1582 28.7844 57.6787 15.2991 53.3669 12.2342C49.0552 9.16935 37.544 17.6854 27.656 31.2555C17.768 44.8255 13.2475 58.3107 17.5592 61.3756Z" stroke="#41FF31" stroke-width="1.5" stroke-miterlimit="10"/>
</svg>
