<svg width="13" height="10" viewBox="0 0 13 10" fill="none" xmlns="http://www.w3.org/2000/svg">
<path d="M4.16816 7.20117L11.0471 0.320699C11.2608 0.106899 11.5329 0 11.8632 0C12.1936 0 12.4656 0.106899 12.6794 0.320699C12.8931 0.534499 13 0.806608 13 1.13703C13 1.46744 12.8931 1.73955 12.6794 1.95335L4.9843 9.65015C4.75112 9.88338 4.47907 10 4.16816 10C3.85725 10 3.5852 9.88338 3.35202 9.65015L0.320627 6.61808C0.106875 6.40428 0 6.13217 0 5.80175C0 5.47133 0.106875 5.19922 0.320627 4.98542C0.534379 4.77162 0.806427 4.66472 1.13677 4.66472C1.46711 4.66472 1.73916 4.77162 1.95291 4.98542L4.16816 7.20117Z" fill="white"/>
</svg>
