<svg width="106" height="95" viewBox="0 0 106 95" fill="none" xmlns="http://www.w3.org/2000/svg">
<g opacity="0.3">
<path d="M16.7254 3.08346C17.5652 3.08346 18.2459 2.39321 18.2459 1.54173C18.2459 0.690256 17.5652 0 16.7254 0C15.8857 0 15.2049 0.690256 15.2049 1.54173C15.2049 2.39321 15.8857 3.08346 16.7254 3.08346Z" fill="white"/>
<path d="M16.7254 16.2249C17.5652 16.2249 18.2459 15.5346 18.2459 14.6832C18.2459 13.8317 17.5652 13.1414 16.7254 13.1414C15.8857 13.1414 15.2049 13.8317 15.2049 14.6832C15.2049 15.5346 15.8857 16.2249 16.7254 16.2249Z" fill="white"/>
<path d="M16.7254 29.4397C17.5652 29.4397 18.2459 28.7495 18.2459 27.898C18.2459 27.0465 17.5652 26.3563 16.7254 26.3563C15.8857 26.3563 15.2049 27.0465 15.2049 27.898C15.2049 28.7495 15.8857 29.4397 16.7254 29.4397Z" fill="white"/>
<path d="M16.7254 42.6546C17.5652 42.6546 18.2459 41.9643 18.2459 41.1128C18.2459 40.2614 17.5652 39.5711 16.7254 39.5711C15.8857 39.5711 15.2049 40.2614 15.2049 41.1128C15.2049 41.9643 15.8857 42.6546 16.7254 42.6546Z" fill="white"/>
<path d="M16.7254 55.4289C17.5652 55.4289 18.2459 54.7387 18.2459 53.8872C18.2459 53.0357 17.5652 52.3454 16.7254 52.3454C15.8857 52.3454 15.2049 53.0357 15.2049 53.8872C15.2049 54.7387 15.8857 55.4289 16.7254 55.4289Z" fill="white"/>
<path d="M16.7254 68.6437C17.5652 68.6437 18.2459 67.9535 18.2459 67.102C18.2459 66.2505 17.5652 65.5603 16.7254 65.5603C15.8857 65.5603 15.2049 66.2505 15.2049 67.102C15.2049 67.9535 15.8857 68.6437 16.7254 68.6437Z" fill="white"/>
<path d="M16.7254 81.7852C17.5652 81.7852 18.2459 81.0949 18.2459 80.2434C18.2459 79.392 17.5652 78.7017 16.7254 78.7017C15.8857 78.7017 15.2049 79.392 15.2049 80.2434C15.2049 81.0949 15.8857 81.7852 16.7254 81.7852Z" fill="white"/>
<path d="M16.7254 95C17.5652 95 18.2459 94.3098 18.2459 93.4583C18.2459 92.6068 17.5652 91.9165 16.7254 91.9165C15.8857 91.9165 15.2049 92.6068 15.2049 93.4583C15.2049 94.3098 15.8857 95 16.7254 95Z" fill="white"/>
<path d="M1.52049 3.08346C2.36024 3.08346 3.04098 2.39321 3.04098 1.54173C3.04098 0.690256 2.36024 0 1.52049 0C0.680747 0 0 0.690256 0 1.54173C0 2.39321 0.680747 3.08346 1.52049 3.08346Z" fill="white"/>
<path d="M1.52049 16.2249C2.36024 16.2249 3.04098 15.5346 3.04098 14.6832C3.04098 13.8317 2.36024 13.1414 1.52049 13.1414C0.680747 13.1414 0 13.8317 0 14.6832C0 15.5346 0.680747 16.2249 1.52049 16.2249Z" fill="white"/>
<path d="M1.52049 29.4397C2.36024 29.4397 3.04098 28.7495 3.04098 27.898C3.04098 27.0465 2.36024 26.3563 1.52049 26.3563C0.680747 26.3563 0 27.0465 0 27.898C0 28.7495 0.680747 29.4397 1.52049 29.4397Z" fill="white"/>
<path d="M1.52049 42.6546C2.36024 42.6546 3.04098 41.9643 3.04098 41.1128C3.04098 40.2614 2.36024 39.5711 1.52049 39.5711C0.680747 39.5711 0 40.2614 0 41.1128C0 41.9643 0.680747 42.6546 1.52049 42.6546Z" fill="white"/>
<path d="M1.52049 55.4289C2.36024 55.4289 3.04098 54.7387 3.04098 53.8872C3.04098 53.0357 2.36024 52.3454 1.52049 52.3454C0.680747 52.3454 0 53.0357 0 53.8872C0 54.7387 0.680747 55.4289 1.52049 55.4289Z" fill="white"/>
<path d="M1.52049 68.6437C2.36024 68.6437 3.04098 67.9535 3.04098 67.102C3.04098 66.2505 2.36024 65.5603 1.52049 65.5603C0.680747 65.5603 0 66.2505 0 67.102C0 67.9535 0.680747 68.6437 1.52049 68.6437Z" fill="white"/>
<path d="M1.52049 81.7852C2.36024 81.7852 3.04098 81.0949 3.04098 80.2434C3.04098 79.392 2.36024 78.7017 1.52049 78.7017C0.680747 78.7017 0 79.392 0 80.2434C0 81.0949 0.680747 81.7852 1.52049 81.7852Z" fill="white"/>
<path d="M1.52049 95C2.36024 95 3.04098 94.3098 3.04098 93.4583C3.04098 92.6068 2.36024 91.9165 1.52049 91.9165C0.680747 91.9165 0 92.6068 0 93.4583C0 94.3098 0.680747 95 1.52049 95Z" fill="white"/>
<path d="M45.832 3.08346C46.6717 3.08346 47.3525 2.39321 47.3525 1.54173C47.3525 0.690256 46.6717 0 45.832 0C44.9922 0 44.3115 0.690256 44.3115 1.54173C44.3115 2.39321 44.9922 3.08346 45.832 3.08346Z" fill="white"/>
<path d="M45.832 16.2249C46.6717 16.2249 47.3525 15.5346 47.3525 14.6832C47.3525 13.8317 46.6717 13.1414 45.832 13.1414C44.9922 13.1414 44.3115 13.8317 44.3115 14.6832C44.3115 15.5346 44.9922 16.2249 45.832 16.2249Z" fill="white"/>
<path d="M45.832 29.4397C46.6717 29.4397 47.3525 28.7495 47.3525 27.898C47.3525 27.0465 46.6717 26.3563 45.832 26.3563C44.9922 26.3563 44.3115 27.0465 44.3115 27.898C44.3115 28.7495 44.9922 29.4397 45.832 29.4397Z" fill="white"/>
<path d="M45.832 42.6546C46.6717 42.6546 47.3525 41.9643 47.3525 41.1128C47.3525 40.2614 46.6717 39.5711 45.832 39.5711C44.9922 39.5711 44.3115 40.2614 44.3115 41.1128C44.3115 41.9643 44.9922 42.6546 45.832 42.6546Z" fill="white"/>
<path d="M45.832 55.4289C46.6717 55.4289 47.3525 54.7387 47.3525 53.8872C47.3525 53.0357 46.6717 52.3454 45.832 52.3454C44.9922 52.3454 44.3115 53.0357 44.3115 53.8872C44.3115 54.7387 44.9922 55.4289 45.832 55.4289Z" fill="white"/>
<path d="M45.832 68.6437C46.6717 68.6437 47.3525 67.9535 47.3525 67.102C47.3525 66.2505 46.6717 65.5603 45.832 65.5603C44.9922 65.5603 44.3115 66.2505 44.3115 67.102C44.3115 67.9535 44.9922 68.6437 45.832 68.6437Z" fill="white"/>
<path d="M45.832 81.7852C46.6717 81.7852 47.3525 81.0949 47.3525 80.2434C47.3525 79.392 46.6717 78.7017 45.832 78.7017C44.9922 78.7017 44.3115 79.392 44.3115 80.2434C44.3115 81.0949 44.9922 81.7852 45.832 81.7852Z" fill="white"/>
<path d="M45.832 95C46.6717 95 47.3525 94.3098 47.3525 93.4583C47.3525 92.6068 46.6717 91.9165 45.832 91.9165C44.9922 91.9165 44.3115 92.6068 44.3115 93.4583C44.3115 94.3098 44.9922 95 45.832 95Z" fill="white"/>
<path d="M30.6271 3.08346C31.4668 3.08346 32.1475 2.39321 32.1475 1.54173C32.1475 0.690256 31.4668 0 30.6271 0C29.7873 0 29.1066 0.690256 29.1066 1.54173C29.1066 2.39321 29.7873 3.08346 30.6271 3.08346Z" fill="white"/>
<path d="M30.6271 16.2249C31.4668 16.2249 32.1475 15.5346 32.1475 14.6832C32.1475 13.8317 31.4668 13.1414 30.6271 13.1414C29.7873 13.1414 29.1066 13.8317 29.1066 14.6832C29.1066 15.5346 29.7873 16.2249 30.6271 16.2249Z" fill="white"/>
<path d="M30.6271 29.4397C31.4668 29.4397 32.1475 28.7495 32.1475 27.898C32.1475 27.0465 31.4668 26.3563 30.6271 26.3563C29.7873 26.3563 29.1066 27.0465 29.1066 27.898C29.1066 28.7495 29.7873 29.4397 30.6271 29.4397Z" fill="white"/>
<path d="M30.6271 42.6546C31.4668 42.6546 32.1475 41.9643 32.1475 41.1128C32.1475 40.2614 31.4668 39.5711 30.6271 39.5711C29.7873 39.5711 29.1066 40.2614 29.1066 41.1128C29.1066 41.9643 29.7873 42.6546 30.6271 42.6546Z" fill="white"/>
<path d="M30.6271 55.4289C31.4668 55.4289 32.1475 54.7387 32.1475 53.8872C32.1475 53.0357 31.4668 52.3454 30.6271 52.3454C29.7873 52.3454 29.1066 53.0357 29.1066 53.8872C29.1066 54.7387 29.7873 55.4289 30.6271 55.4289Z" fill="white"/>
<path d="M30.6271 68.6437C31.4668 68.6437 32.1475 67.9535 32.1475 67.102C32.1475 66.2505 31.4668 65.5603 30.6271 65.5603C29.7873 65.5603 29.1066 66.2505 29.1066 67.102C29.1066 67.9535 29.7873 68.6437 30.6271 68.6437Z" fill="white"/>
<path d="M30.6271 81.7852C31.4668 81.7852 32.1475 81.0949 32.1475 80.2434C32.1475 79.392 31.4668 78.7017 30.6271 78.7017C29.7873 78.7017 29.1066 79.392 29.1066 80.2434C29.1066 81.0949 29.7873 81.7852 30.6271 81.7852Z" fill="white"/>
<path d="M30.6271 95C31.4668 95 32.1475 94.3098 32.1475 93.4583C32.1475 92.6068 31.4668 91.9165 30.6271 91.9165C29.7873 91.9165 29.1066 92.6068 29.1066 93.4583C29.1066 94.3098 29.7873 95 30.6271 95Z" fill="white"/>
<path d="M75.3729 3.08346C76.2127 3.08346 76.8934 2.39321 76.8934 1.54173C76.8934 0.690256 76.2127 0 75.3729 0C74.5332 0 73.8525 0.690256 73.8525 1.54173C73.8525 2.39321 74.5332 3.08346 75.3729 3.08346Z" fill="white"/>
<path d="M75.3729 16.2249C76.2127 16.2249 76.8934 15.5346 76.8934 14.6832C76.8934 13.8317 76.2127 13.1414 75.3729 13.1414C74.5332 13.1414 73.8525 13.8317 73.8525 14.6832C73.8525 15.5346 74.5332 16.2249 75.3729 16.2249Z" fill="white"/>
<path d="M75.3729 29.4397C76.2127 29.4397 76.8934 28.7495 76.8934 27.898C76.8934 27.0465 76.2127 26.3563 75.3729 26.3563C74.5332 26.3563 73.8525 27.0465 73.8525 27.898C73.8525 28.7495 74.5332 29.4397 75.3729 29.4397Z" fill="white"/>
<path d="M75.3729 42.6546C76.2127 42.6546 76.8934 41.9643 76.8934 41.1128C76.8934 40.2614 76.2127 39.5711 75.3729 39.5711C74.5332 39.5711 73.8525 40.2614 73.8525 41.1128C73.8525 41.9643 74.5332 42.6546 75.3729 42.6546Z" fill="white"/>
<path d="M75.3729 55.4289C76.2127 55.4289 76.8934 54.7387 76.8934 53.8872C76.8934 53.0357 76.2127 52.3454 75.3729 52.3454C74.5332 52.3454 73.8525 53.0357 73.8525 53.8872C73.8525 54.7387 74.5332 55.4289 75.3729 55.4289Z" fill="white"/>
<path d="M75.3729 68.6437C76.2127 68.6437 76.8934 67.9535 76.8934 67.102C76.8934 66.2505 76.2127 65.5603 75.3729 65.5603C74.5332 65.5603 73.8525 66.2505 73.8525 67.102C73.8525 67.9535 74.5332 68.6437 75.3729 68.6437Z" fill="white"/>
<path d="M75.3729 81.7852C76.2127 81.7852 76.8934 81.0949 76.8934 80.2434C76.8934 79.392 76.2127 78.7017 75.3729 78.7017C74.5332 78.7017 73.8525 79.392 73.8525 80.2434C73.8525 81.0949 74.5332 81.7852 75.3729 81.7852Z" fill="white"/>
<path d="M75.3729 95C76.2127 95 76.8934 94.3098 76.8934 93.4583C76.8934 92.6068 76.2127 91.9165 75.3729 91.9165C74.5332 91.9165 73.8525 92.6068 73.8525 93.4583C73.8525 94.3098 74.5332 95 75.3729 95Z" fill="white"/>
<path d="M60.168 3.08346C61.0078 3.08346 61.6885 2.39321 61.6885 1.54173C61.6885 0.690256 61.0078 0 60.168 0C59.3283 0 58.6475 0.690256 58.6475 1.54173C58.6475 2.39321 59.3283 3.08346 60.168 3.08346Z" fill="white"/>
<path d="M60.168 16.2249C61.0078 16.2249 61.6885 15.5346 61.6885 14.6832C61.6885 13.8317 61.0078 13.1414 60.168 13.1414C59.3283 13.1414 58.6475 13.8317 58.6475 14.6832C58.6475 15.5346 59.3283 16.2249 60.168 16.2249Z" fill="white"/>
<path d="M60.168 29.4397C61.0078 29.4397 61.6885 28.7495 61.6885 27.898C61.6885 27.0465 61.0078 26.3563 60.168 26.3563C59.3283 26.3563 58.6475 27.0465 58.6475 27.898C58.6475 28.7495 59.3283 29.4397 60.168 29.4397Z" fill="white"/>
<path d="M60.168 42.6546C61.0078 42.6546 61.6885 41.9643 61.6885 41.1128C61.6885 40.2614 61.0078 39.5711 60.168 39.5711C59.3283 39.5711 58.6475 40.2614 58.6475 41.1128C58.6475 41.9643 59.3283 42.6546 60.168 42.6546Z" fill="white"/>
<path d="M60.168 55.4289C61.0078 55.4289 61.6885 54.7387 61.6885 53.8872C61.6885 53.0357 61.0078 52.3454 60.168 52.3454C59.3283 52.3454 58.6475 53.0357 58.6475 53.8872C58.6475 54.7387 59.3283 55.4289 60.168 55.4289Z" fill="white"/>
<path d="M60.168 68.6437C61.0078 68.6437 61.6885 67.9535 61.6885 67.102C61.6885 66.2505 61.0078 65.5603 60.168 65.5603C59.3283 65.5603 58.6475 66.2505 58.6475 67.102C58.6475 67.9535 59.3283 68.6437 60.168 68.6437Z" fill="white"/>
<path d="M60.168 81.7852C61.0078 81.7852 61.6885 81.0949 61.6885 80.2434C61.6885 79.392 61.0078 78.7017 60.168 78.7017C59.3283 78.7017 58.6475 79.392 58.6475 80.2434C58.6475 81.0949 59.3283 81.7852 60.168 81.7852Z" fill="white"/>
<path d="M60.168 95C61.0078 95 61.6885 94.3098 61.6885 93.4583C61.6885 92.6068 61.0078 91.9165 60.168 91.9165C59.3283 91.9165 58.6475 92.6068 58.6475 93.4583C58.6475 94.3098 59.3283 95 60.168 95Z" fill="white"/>
<path d="M104.48 3.08346C105.319 3.08346 106 2.39321 106 1.54173C106 0.690256 105.319 0 104.48 0C103.64 0 102.959 0.690256 102.959 1.54173C102.959 2.39321 103.64 3.08346 104.48 3.08346Z" fill="white"/>
<path d="M104.48 16.2249C105.319 16.2249 106 15.5346 106 14.6832C106 13.8317 105.319 13.1414 104.48 13.1414C103.64 13.1414 102.959 13.8317 102.959 14.6832C102.959 15.5346 103.64 16.2249 104.48 16.2249Z" fill="white"/>
<path d="M104.48 29.4397C105.319 29.4397 106 28.7495 106 27.898C106 27.0465 105.319 26.3563 104.48 26.3563C103.64 26.3563 102.959 27.0465 102.959 27.898C102.959 28.7495 103.64 29.4397 104.48 29.4397Z" fill="white"/>
<path d="M104.48 42.6546C105.319 42.6546 106 41.9643 106 41.1128C106 40.2614 105.319 39.5711 104.48 39.5711C103.64 39.5711 102.959 40.2614 102.959 41.1128C102.959 41.9643 103.64 42.6546 104.48 42.6546Z" fill="white"/>
<path d="M104.48 55.4289C105.319 55.4289 106 54.7387 106 53.8872C106 53.0357 105.319 52.3454 104.48 52.3454C103.64 52.3454 102.959 53.0357 102.959 53.8872C102.959 54.7387 103.64 55.4289 104.48 55.4289Z" fill="white"/>
<path d="M104.48 68.6437C105.319 68.6437 106 67.9535 106 67.102C106 66.2505 105.319 65.5603 104.48 65.5603C103.64 65.5603 102.959 66.2505 102.959 67.102C102.959 67.9535 103.64 68.6437 104.48 68.6437Z" fill="white"/>
<path d="M104.48 81.7852C105.319 81.7852 106 81.0949 106 80.2434C106 79.392 105.319 78.7017 104.48 78.7017C103.64 78.7017 102.959 79.392 102.959 80.2434C102.959 81.0949 103.64 81.7852 104.48 81.7852Z" fill="white"/>
<path d="M104.48 95C105.319 95 106 94.3098 106 93.4583C106 92.6068 105.319 91.9165 104.48 91.9165C103.64 91.9165 102.959 92.6068 102.959 93.4583C102.959 94.3098 103.64 95 104.48 95Z" fill="white"/>
<path d="M89.2746 3.08346C90.1143 3.08346 90.7951 2.39321 90.7951 1.54173C90.7951 0.690256 90.1143 0 89.2746 0C88.4348 0 87.7541 0.690256 87.7541 1.54173C87.7541 2.39321 88.4348 3.08346 89.2746 3.08346Z" fill="white"/>
<path d="M89.2746 16.2249C90.1143 16.2249 90.7951 15.5346 90.7951 14.6832C90.7951 13.8317 90.1143 13.1414 89.2746 13.1414C88.4348 13.1414 87.7541 13.8317 87.7541 14.6832C87.7541 15.5346 88.4348 16.2249 89.2746 16.2249Z" fill="white"/>
<path d="M89.2746 29.4397C90.1143 29.4397 90.7951 28.7495 90.7951 27.898C90.7951 27.0465 90.1143 26.3563 89.2746 26.3563C88.4348 26.3563 87.7541 27.0465 87.7541 27.898C87.7541 28.7495 88.4348 29.4397 89.2746 29.4397Z" fill="white"/>
<path d="M89.2746 42.6546C90.1143 42.6546 90.7951 41.9643 90.7951 41.1128C90.7951 40.2614 90.1143 39.5711 89.2746 39.5711C88.4348 39.5711 87.7541 40.2614 87.7541 41.1128C87.7541 41.9643 88.4348 42.6546 89.2746 42.6546Z" fill="white"/>
<path d="M89.2746 55.4289C90.1143 55.4289 90.7951 54.7387 90.7951 53.8872C90.7951 53.0357 90.1143 52.3454 89.2746 52.3454C88.4348 52.3454 87.7541 53.0357 87.7541 53.8872C87.7541 54.7387 88.4348 55.4289 89.2746 55.4289Z" fill="white"/>
<path d="M89.2746 68.6437C90.1143 68.6437 90.7951 67.9535 90.7951 67.102C90.7951 66.2505 90.1143 65.5603 89.2746 65.5603C88.4348 65.5603 87.7541 66.2505 87.7541 67.102C87.7541 67.9535 88.4348 68.6437 89.2746 68.6437Z" fill="white"/>
<path d="M89.2746 81.7852C90.1143 81.7852 90.7951 81.0949 90.7951 80.2434C90.7951 79.392 90.1143 78.7017 89.2746 78.7017C88.4348 78.7017 87.7541 79.392 87.7541 80.2434C87.7541 81.0949 88.4348 81.7852 89.2746 81.7852Z" fill="white"/>
<path d="M89.2746 95C90.1143 95 90.7951 94.3098 90.7951 93.4583C90.7951 92.6068 90.1143 91.9165 89.2746 91.9165C88.4348 91.9165 87.7541 92.6068 87.7541 93.4583C87.7541 94.3098 88.4348 95 89.2746 95Z" fill="white"/>
</g>
</svg>
