<svg width="114" height="91" viewBox="0 0 114 91" fill="none" xmlns="http://www.w3.org/2000/svg">
<mask id="path-1-inside-1_0_214" fill="white">
<path d="M155.347 26.6533C141.529 12.8356 123.631 3.8329 104.299 0.977055C84.9679 -1.87879 65.2308 1.56397 48.008 10.796C30.7852 20.028 16.9916 34.5588 8.66807 52.2385C0.34453 69.9182 -2.06682 89.8077 1.79079 108.964L27.0927 103.869C24.3292 90.1459 26.0567 75.8976 32.0195 63.2322C37.9822 50.5669 47.8636 40.1574 60.2016 33.5438C72.5396 26.9303 86.6788 24.464 100.527 26.5098C114.376 28.5557 127.198 35.005 137.096 44.9036L155.347 26.6533Z"/>
</mask>
<path d="M155.347 26.6533C141.529 12.8356 123.631 3.8329 104.299 0.977055C84.9679 -1.87879 65.2308 1.56397 48.008 10.796C30.7852 20.028 16.9916 34.5588 8.66807 52.2385C0.34453 69.9182 -2.06682 89.8077 1.79079 108.964L27.0927 103.869C24.3292 90.1459 26.0567 75.8976 32.0195 63.2322C37.9822 50.5669 47.8636 40.1574 60.2016 33.5438C72.5396 26.9303 86.6788 24.464 100.527 26.5098C114.376 28.5557 127.198 35.005 137.096 44.9036L155.347 26.6533Z" stroke="#F0F0F0" stroke-width="50" mask="url(#path-1-inside-1_0_214)"/>
</svg>
