<svg width="83" height="86" viewBox="0 0 83 86" fill="none" xmlns="http://www.w3.org/2000/svg">
<mask id="path-1-inside-1_0_199" fill="white">
<path d="M-64.65 66.088C-49.2543 78.1225 -30.3937 84.8814 -10.8586 85.3648C8.67656 85.8482 27.8484 80.0305 43.8205 68.7722C59.7926 57.514 71.7164 41.4134 77.8278 22.8525C83.9392 4.29168 83.9135 -15.7435 77.7546 -34.2886L53.2602 -26.1539C57.6723 -12.8686 57.6907 1.48408 53.3126 14.7806C48.9346 28.0771 40.3926 39.6112 28.9506 47.6763C17.5086 55.7414 3.7744 59.9092 -10.2201 59.5629C-24.2145 59.2166 -37.7258 54.3746 -48.7549 45.7534L-64.65 66.088Z"/>
</mask>
<path d="M-64.65 66.088C-49.2543 78.1225 -30.3937 84.8814 -10.8586 85.3648C8.67656 85.8482 27.8484 80.0305 43.8205 68.7722C59.7926 57.514 71.7164 41.4134 77.8278 22.8525C83.9392 4.29168 83.9135 -15.7435 77.7546 -34.2886L53.2602 -26.1539C57.6723 -12.8686 57.6907 1.48408 53.3126 14.7806C48.9346 28.0771 40.3926 39.6112 28.9506 47.6763C17.5086 55.7414 3.7744 59.9092 -10.2201 59.5629C-24.2145 59.2166 -37.7258 54.3746 -48.7549 45.7534L-64.65 66.088Z" stroke="#F0F0F0" stroke-width="50" mask="url(#path-1-inside-1_0_199)"/>
</svg>
