<svg width="196" height="16" viewBox="0 0 196 16" fill="none" xmlns="http://www.w3.org/2000/svg">
<path d="M4.27312 7.73373C5.82932 7.73373 7.38552 7.64789 8.93441 7.60107L10.8267 7.50743L19.1776 7.06264C22.4799 6.88056 25.8066 6.69328 29.1577 6.5008L43.4192 5.65024L46.6851 5.48637L54.9921 5.04157L63.2991 4.65141C64.3877 4.59678 65.491 4.52655 66.5577 4.48754L79.8109 4.04274L87.9646 3.76963C89.0239 3.76963 90.0906 3.68379 91.1573 3.66818L103.965 3.4809L116.612 3.27802C117.73 3.27802 118.804 3.27802 119.951 3.27802L128.207 3.239L141.029 3.15316H145.23H153.997H154.728C148.133 3.2468 141.538 3.34565 134.943 3.44969L126.709 3.63697C125.525 3.63697 124.334 3.63697 123.143 3.69159L111.191 4.03494L97.3748 4.43291C96.6004 4.43291 95.8259 4.50314 95.0588 4.54216L87.6942 4.90892L72.7679 5.64243C72.0372 5.64243 71.3066 5.72827 70.576 5.78289L63.2699 6.32132L50.2212 7.28894C49.023 7.37478 47.8248 7.49963 46.6266 7.60888L38.2684 8.38921L27.638 9.31781L12.8578 10.699L9.30702 11.0267C7.18825 11.2218 5.07679 11.5106 2.96533 11.7603C2.90651 11.7519 2.84669 11.757 2.78989 11.7754C2.73309 11.7937 2.68061 11.8248 2.63596 11.8665C2.59132 11.9082 2.55554 11.9597 2.53103 12.0174C2.50652 12.0751 2.49384 12.1378 2.49384 12.2012C2.49384 12.2645 2.50652 12.3272 2.53103 12.3849C2.55554 12.4426 2.59132 12.4941 2.63596 12.5358C2.68061 12.5776 2.73309 12.6086 2.78989 12.6269C2.84669 12.6453 2.90651 12.6504 2.96533 12.642L5.28136 12.7513C5.18178 12.9647 5.12929 13.1996 5.12793 13.438C5.12985 13.8678 5.29058 14.2795 5.57516 14.5834C5.85973 14.8874 6.24515 15.059 6.6476 15.0611C12.6898 14.6553 18.7319 14.2183 24.7814 13.914L40.5333 13.1337L57.9438 12.2519L63.4306 11.971C63.9567 11.971 64.4827 11.9085 65.0088 11.8929L93.0642 11.1126L108.056 10.6912C109.868 10.6444 111.673 10.5976 113.477 10.5663L142.169 10.0903L154.465 9.87965C157.964 9.81723 161.464 9.79382 164.964 9.65336L173.636 9.30221C175.097 9.24758 176.558 9.20857 177.961 9.11493L187.788 8.40482C187.605 8.74524 187.555 9.14903 187.649 9.5285C187.743 9.89634 187.969 10.2101 188.277 10.4025C188.434 10.503 188.608 10.5681 188.789 10.5936C188.97 10.6191 189.154 10.6045 189.329 10.5507C190.06 10.2464 190.791 9.93428 191.47 9.61434H191.426L191.58 9.54411L191.762 9.45827H191.697L192.829 8.95105L194.02 8.41262C194.444 8.20974 194.86 7.96783 195.269 7.73373C195.495 7.58746 195.681 7.38104 195.809 7.13477C195.937 6.88849 196.003 6.61084 196 6.32913C195.999 5.97525 195.891 5.63125 195.69 5.34951C195.49 5.06777 195.208 4.86373 194.889 4.76846C194.517 4.69823 194.159 4.6436 193.786 4.59678H193.538C193.289 4.59678 193.034 4.59678 192.807 4.65141C192.252 4.65141 191.697 4.78406 191.141 4.82308L189.775 4.93233L186.122 5.21325L185.172 5.28348C185.287 5.14342 185.372 4.97831 185.421 4.79967C185.478 4.65901 185.51 4.50816 185.516 4.35488L185.559 4.01933C185.558 3.87799 185.533 3.73804 185.486 3.60576L185.581 3.55894C185.809 3.41603 186 3.21491 186.137 2.97369C186.259 2.72836 186.324 2.45545 186.327 2.17774C186.323 1.88727 186.25 1.60259 186.115 1.35059L185.874 1.02285C185.686 0.821199 185.451 0.675882 185.194 0.601466C184.725 0.424809 184.23 0.342781 183.733 0.359562C183.331 0.359562 182.915 0.359562 182.513 0.398579H180.745C179.912 0.398579 179.086 0.398579 178.253 0.398579H171.678C169.61 0.398579 167.543 0.398579 165.475 0.398579H159.835C152.339 0.398579 144.85 0.445399 137.354 0.523432L120.491 0.804353C117.978 0.804353 115.472 0.86678 112.959 0.929207L96.067 1.31157L91.2523 1.42082C90.3171 1.42082 89.3892 1.49105 88.4541 1.53006L71.7596 2.20115L66.6453 2.41184C65.6955 2.45086 64.7384 2.51329 63.7886 2.56791L47.233 3.51992C44.3763 3.68379 41.5269 3.87107 38.6703 4.05835L24.0215 5.04157C19.7913 5.32249 15.561 5.5722 11.3308 5.82191L9.32164 5.94676L6.07042 6.13404C5.10601 6.18086 4.14161 6.20427 3.14798 6.18086C3.1023 6.04457 3.01789 5.92692 2.90655 5.84437C2.7952 5.76183 2.66249 5.7185 2.52696 5.72047C1.90594 5.77509 1.28492 5.84532 0.663902 5.91555C0.519592 5.92609 0.381457 5.98214 0.267 6.0766C0.152543 6.17106 0.0669149 6.29969 0.0209646 6.44618C-0.0233851 6.63243 0.00324514 6.82986 0.0950134 6.99517C0.186782 7.16048 0.336194 7.28016 0.510474 7.32796L1.32145 7.53084C1.59109 7.59027 1.8647 7.6268 2.13973 7.64009C2.84843 7.71032 3.56443 7.72593 4.27312 7.73373ZM175.236 5.22885H177.961C178.04 5.44626 178.165 5.64121 178.326 5.7985C177.976 5.82971 177.625 5.85312 177.274 5.86873L175.287 5.94676L166.6 6.28231C165.278 6.33693 163.955 6.41496 162.633 6.43837L156.43 6.53982L142.256 6.78172L114.741 7.24992C108.166 7.35917 101.59 7.57766 95.0149 7.76494L65.3814 8.5999C63.4014 8.66233 61.4142 8.79499 59.4342 8.89643L42.5863 9.7626L26.0526 10.6054L24.5183 10.6834L28.9751 10.3088L44.5444 9.03689L49.9801 8.5921L52.7857 8.40482L68.976 7.38258C70.0281 7.31235 71.0801 7.22651 72.1395 7.17969L76.7351 6.969L93.4295 6.2745L97.0826 6.12624C97.404 6.12624 97.7255 6.12624 98.0543 6.12624L100.633 6.07162L117.357 5.70486C119.921 5.65024 122.471 5.58781 125.058 5.5644C133.35 5.49417 141.635 5.40053 149.898 5.36151C158.352 5.29908 166.797 5.23666 175.243 5.22885H175.236Z" fill="#FFCD1F"/>
</svg>
