<svg width="127" height="124" viewBox="0 0 127 124" fill="none" xmlns="http://www.w3.org/2000/svg">
<path d="M116.289 95.2396C117.24 95.4423 117.891 94.306 117.236 93.5876L96.1096 70.4268C95.6679 69.9426 95.8037 69.1714 96.3842 68.8672L124.231 54.2729C125.093 53.821 124.867 52.5289 123.903 52.3964L92.6923 48.1109C92.0445 48.022 91.655 47.3456 91.9031 46.7407L103.768 17.8216C104.136 16.9237 103.138 16.0802 102.314 16.5931L75.6123 33.2144C75.0611 33.5576 74.3341 33.2925 74.133 32.6751L64.4423 2.92182C64.1424 2.00117 62.8399 2.00149 62.5405 2.9223L52.8666 32.6743C52.6658 33.292 51.9385 33.5573 51.3871 33.2141L24.6837 16.5917C23.8599 16.079 22.862 16.9219 23.2299 17.8198L35.079 46.7411C35.3268 47.3459 34.9373 48.022 34.2897 48.1109L3.09539 52.3965C2.13123 52.5289 1.90518 53.8208 2.76708 54.2728L30.5979 68.8673C31.1781 69.1716 31.3139 69.9423 30.8726 70.4265L9.76206 93.5879C9.10716 94.3064 9.75896 95.4424 10.7098 95.2395L41.5085 88.6695C42.1457 88.5335 42.7407 89.0337 42.7164 89.6848L41.5488 120.923C41.5127 121.891 42.7368 122.339 43.3349 121.577L62.7039 96.8918C63.1043 96.3815 63.877 96.3815 64.2774 96.8918L83.6464 121.577C84.2445 122.339 85.4686 121.891 85.4324 120.923L84.2649 89.6847C84.2405 89.0336 84.8354 88.5334 85.4727 88.6693L116.289 95.2396Z" fill="#FF452C"/>
<path d="M65.4896 63.48L68.1329 56.0257C68.5 54.9904 69.1821 54.2416 70.1792 53.7793C71.1763 53.317 72.2035 53.2733 73.2608 53.6483L80.8733 56.3476C81.9306 56.7225 82.7008 57.4036 83.1839 58.3907C83.667 59.3779 83.725 60.3891 83.3579 61.4244L78.5119 75.0907C78.0346 76.4366 77.316 77.6241 76.356 78.6531C75.3782 79.6904 74.275 80.4939 73.0464 81.0635C71.8179 81.6331 70.4907 81.9565 69.0648 82.0336C67.6211 82.119 66.212 81.918 64.8375 81.4306L63.5688 80.9807C63.2252 80.8589 62.9714 80.6305 62.8075 80.2956C62.6436 79.9607 62.6213 79.625 62.7406 79.2885L63.6217 76.8037C63.741 76.4672 63.9698 76.2206 64.3081 76.0637C64.6464 75.9069 64.9874 75.8894 65.331 76.0112L66.5997 76.4611C68.0006 76.9579 69.3688 76.8967 70.7042 76.2775C72.0396 75.6584 72.9505 74.6629 73.4369 73.2911L73.6572 72.6699C73.8407 72.1523 73.8117 71.6466 73.5702 71.1531C73.3286 70.6595 72.9435 70.319 72.4149 70.1315L67.9742 68.5569C66.9169 68.182 66.1467 67.5009 65.6636 66.5138C65.1805 65.5266 65.1225 64.5154 65.4896 63.48ZM47.7271 57.1816L50.3704 49.7272C50.7375 48.6919 51.4196 47.9431 52.4167 47.4808C53.4138 47.0185 54.441 46.9748 55.4983 47.3498L63.1108 50.0491C64.1681 50.424 64.9383 51.1051 65.4214 52.0922C65.9045 53.0794 65.9625 54.0906 65.5954 55.1259L60.7494 68.7922C60.2721 70.1381 59.5535 71.3256 58.5935 72.3546C57.6157 73.3919 56.5125 74.1954 55.2839 74.765C54.0554 75.3346 52.7282 75.658 51.3023 75.7351C49.8586 75.8205 48.4495 75.6195 47.075 75.1321L45.8063 74.6823C45.4627 74.5604 45.2089 74.332 45.045 73.9971C44.8811 73.6622 44.8588 73.3265 44.9781 72.99L45.8592 70.5052C45.9785 70.1687 46.2073 69.9221 46.5456 69.7652C46.8839 69.6084 47.2249 69.5909 47.5685 69.7127L48.8372 70.1626C50.2381 70.6594 51.6063 70.5982 52.9417 69.979C54.2771 69.3599 55.188 68.3644 55.6744 66.9926L55.8947 66.3714C56.0782 65.8538 56.0492 65.3481 55.8077 64.8546C55.5661 64.361 55.181 64.0205 54.6524 63.833L50.2117 62.2584C49.1544 61.8835 48.3842 61.2024 47.9011 60.2153C47.418 59.2281 47.36 58.2169 47.7271 57.1816Z" fill="white"/>
</svg>
