<svg width="48" height="40" viewBox="0 0 48 40" fill="none" xmlns="http://www.w3.org/2000/svg">
<path d="M25.3698 16.1274L25.3698 5.37565C25.3698 3.88235 25.8984 2.61304 26.9554 1.56774C28.0125 0.522429 29.2961 -0.000226625 30.8062 -0.000226493L41.679 -0.000225542C43.1891 -0.00022541 44.4727 0.52243 45.5298 1.56774C46.5869 2.61304 47.1154 3.88235 47.1154 5.37565L47.1154 25.0872C47.1154 27.0285 46.7379 28.8764 45.9828 30.6311C45.2089 32.4043 44.1707 33.935 42.8682 35.2229C41.5657 36.5109 40.0273 37.5282 38.2529 38.2749C36.4597 39.0402 34.5815 39.4229 32.6183 39.4229L30.8062 39.4229C30.3154 39.4229 29.8907 39.2455 29.5321 38.8909C29.1734 38.5362 28.9941 38.1162 28.9941 37.6309L28.9941 34.047C28.9941 33.5617 29.1734 33.1417 29.5321 32.787C29.8907 32.4323 30.3154 32.255 30.8062 32.255L32.6183 32.255C34.6192 32.255 36.3275 31.555 37.7433 30.1551C39.159 28.7551 39.8669 27.0658 39.8669 25.0872L39.8669 24.1912C39.8669 23.4446 39.6026 22.8099 39.0741 22.2873C38.5455 21.7646 37.9037 21.5033 37.1487 21.5033L30.8062 21.5033C29.2961 21.5033 28.0125 20.9806 26.9554 19.9353C25.8984 18.89 25.3698 17.6207 25.3698 16.1274ZM5.85125e-06 16.1274L6.7912e-06 5.37564C6.92175e-06 3.88235 0.528545 2.61304 1.58562 1.56773C2.6427 0.522427 3.92629 -0.000228843 5.4364 -0.000228711L16.3092 -0.00022776C17.8193 -0.000227628 19.1029 0.522428 20.16 1.56774C21.217 2.61304 21.7456 3.88235 21.7456 5.37565L21.7456 25.0872C21.7456 27.0285 21.368 28.8764 20.613 30.6311C19.8391 32.4043 18.8009 33.935 17.4984 35.2229C16.1959 36.5109 14.6575 37.5282 12.8831 38.2749C11.0899 39.0402 9.21167 39.4228 7.24852 39.4228L5.43639 39.4228C4.94561 39.4228 4.52089 39.2455 4.16224 38.8909C3.80359 38.5362 3.62426 38.1162 3.62426 37.6309L3.62426 34.047C3.62426 33.5617 3.80359 33.1417 4.16224 32.787C4.52089 32.4323 4.94561 32.255 5.43639 32.255L7.24852 32.255C9.24942 32.255 10.9577 31.555 12.3735 30.1551C13.7892 28.7551 14.497 27.0658 14.497 25.0872L14.497 24.1912C14.497 23.4446 14.2328 22.8099 13.7042 22.2872C13.1757 21.7646 12.5339 21.5033 11.7789 21.5033L5.4364 21.5033C3.92629 21.5033 2.64269 20.9806 1.58562 19.9353C0.528543 18.89 5.7207e-06 17.6207 5.85125e-06 16.1274Z" fill="#F3F3F3"/>
</svg>
