<svg width="35" height="35" viewBox="0 0 35 35" fill="none" xmlns="http://www.w3.org/2000/svg">
<path d="M32.4328 27.4509L32.3935 27.4306L23.1128 22.2561C22.9552 22.1691 22.8163 22.0519 22.7041 21.9111C22.5919 21.7704 22.5085 21.6089 22.4589 21.436C22.4093 21.263 22.3943 21.082 22.4148 20.9033C22.4354 20.7246 22.491 20.5517 22.5786 20.3946C22.6638 20.2354 22.78 20.0949 22.9206 19.9815C23.0611 19.8682 23.223 19.7841 23.3967 19.7345C23.5703 19.6848 23.7522 19.6706 23.9316 19.6925C24.111 19.7145 24.2841 19.7722 24.4408 19.8623L33.7214 25.0368C34.0411 25.2081 34.2797 25.4992 34.3848 25.8462C34.4898 26.1931 34.4527 26.5674 34.2815 26.8868C34.1104 27.2061 33.8193 27.4443 33.4722 27.549C33.1252 27.6537 32.7506 27.6163 32.4309 27.445L32.4328 27.4509Z" fill="#FFB340"/>
<path d="M10.8403 15.4108L10.8009 15.3905L1.52027 10.216C1.36344 10.1284 1.2254 10.0107 1.11402 9.86979C1.00265 9.72885 0.92014 9.56736 0.871175 9.3946C0.822209 9.22184 0.807741 9.0412 0.828638 8.86292C0.849536 8.68464 0.90539 8.51223 0.992969 8.35557C1.08055 8.19891 1.19814 8.06107 1.33907 7.94989C1.48 7.8387 1.64149 7.75635 1.81431 7.70756C1.98713 7.65876 2.1679 7.64449 2.34631 7.66553C2.52471 7.68656 2.69725 7.74248 2.85408 7.83014L12.1347 13.0047C12.2929 13.0897 12.4327 13.2051 12.5463 13.3441C12.6599 13.4832 12.745 13.6432 12.7968 13.8151C12.8485 13.987 12.8658 14.1673 12.8478 14.3458C12.8298 14.5244 12.7768 14.6976 12.6918 14.8556C12.6068 15.0136 12.4915 15.1532 12.3525 15.2666C12.2134 15.38 12.0534 15.465 11.8814 15.5165C11.7095 15.5681 11.529 15.5853 11.3504 15.5671C11.1718 15.549 10.9984 15.4958 10.8403 15.4108Z" fill="#FFB340"/>
<path d="M20.4348 12.6914L20.3994 12.6732C20.0819 12.4966 19.8474 12.2014 19.7472 11.8524C19.6471 11.5035 19.6895 11.1291 19.8652 10.8116L25.035 1.54093C25.1179 1.37909 25.2332 1.23607 25.3738 1.12073C25.5145 1.00538 25.6774 0.920176 25.8524 0.870441C26.0274 0.820706 26.2108 0.807509 26.3912 0.831622C26.5716 0.855735 26.7452 0.916652 26.9011 1.01062C27.0587 1.09761 27.1976 1.21486 27.3098 1.35561C27.422 1.49636 27.5054 1.65782 27.555 1.83078C27.6046 2.00374 27.6196 2.18479 27.5991 2.36349C27.5785 2.54219 27.5229 2.71507 27.4353 2.87216L22.2655 12.1428C22.0928 12.4553 21.8046 12.6876 21.4624 12.7902C21.1202 12.8927 20.7513 12.8573 20.4348 12.6914Z" fill="#FFB340"/>
<path d="M8.40571 34.2608L8.36638 34.2405C8.20875 34.1535 8.06985 34.0363 7.95763 33.8955C7.84541 33.7548 7.76207 33.5933 7.71244 33.4203C7.6628 33.2474 7.64784 33.0663 7.66838 32.8876C7.68892 32.7089 7.74458 32.5361 7.83216 32.379L13.0019 23.1083C13.0847 22.9468 13.1998 22.8041 13.34 22.6889C13.4802 22.5738 13.6427 22.4885 13.8172 22.4387C13.9918 22.3887 14.1748 22.3752 14.3548 22.3988C14.5349 22.4225 14.7082 22.4827 14.8641 22.576C15.0218 22.663 15.1607 22.7802 15.2729 22.9209C15.3851 23.0617 15.4684 23.2232 15.518 23.3962C15.5677 23.5691 15.5827 23.7501 15.5621 23.9288C15.5416 24.1075 15.4859 24.2804 15.3983 24.4375L10.2286 33.7082C10.0558 34.0185 9.7692 34.2495 9.42915 34.3526C9.08911 34.4556 8.72218 34.4228 8.40571 34.2608Z" fill="#FFB340"/>
</svg>
