<svg width="138" height="120" viewBox="0 0 138 120" fill="none" xmlns="http://www.w3.org/2000/svg">
<path d="M6.3339 139.291C18.1163 146.588 46.5339 122.041 69.8064 84.4645C93.0789 46.8875 102.394 10.5099 90.6112 3.21269C78.8288 -4.08448 50.4112 20.4621 27.1387 58.0391C3.86617 95.616 -5.44846 131.994 6.3339 139.291Z" stroke="#41D6BB" stroke-width="2" stroke-miterlimit="10"/>
<path d="M26.7239 151.919C38.5063 159.216 66.9239 134.67 90.1964 97.0926C113.469 59.5156 122.784 23.138 111.001 15.8408C99.2188 8.54366 70.8012 33.0903 47.5287 70.6672C24.2562 108.244 14.9415 144.622 26.7239 151.919Z" stroke="#41D6BB" stroke-width="2" stroke-miterlimit="10"/>
<path d="M47.1214 164.552C58.9037 171.849 87.3213 147.302 110.594 109.725C133.866 72.1484 143.181 35.7708 131.399 28.4736C119.616 21.1764 91.1987 45.723 67.9262 83.3C44.6537 120.877 35.339 157.255 47.1214 164.552Z" stroke="#41D6BB" stroke-width="2" stroke-miterlimit="10"/>
</svg>
