<svg width="138" height="65" viewBox="0 0 138 65" fill="none" xmlns="http://www.w3.org/2000/svg">
<path d="M25.882 3.27374L10.7369 9.75886C3.32113 12.9343 -0.841784 20.8842 0.772346 28.788L5.39051 51.4015C7.00678 59.3159 13.9691 65 22.0467 65H44.5245H99.5354C101.34 65 103.133 64.7127 104.847 64.1489L126.311 57.0891C133.286 54.7951 138 48.2825 138 40.9402V30.6328C138 26.9099 136.778 23.2899 134.521 20.3288L126.573 9.89812C123.773 6.22447 119.6 3.84803 115.012 3.31545L92.1848 0.665603C88.4665 0.233969 84.7097 1.04163 81.4974 2.96326L69.4168 10.1899C64.2188 13.2993 57.7589 13.4082 52.459 10.4756L40.8044 4.02664C36.213 1.48608 30.7057 1.20821 25.882 3.27374Z" fill="#FFCD1F"/>
</svg>
