<svg width="451" height="283" viewBox="0 0 451 283" fill="none" xmlns="http://www.w3.org/2000/svg">
<path d="M335.009 313.953C371.364 298.764 397.611 260.201 416.362 220.516C443.263 163.569 459.337 95.7902 442.839 36.1003C439.712 24.8037 435.082 13.4345 426.593 7.07371C413.348 -2.84691 395.229 2.38498 380.189 10.0163C342.717 29.0128 310.615 60.5548 280.475 93.22C252.4 123.64 225.46 155.426 199.654 188.576C179.503 214.421 159.77 241.733 147.798 273.564C146.089 278.121 144.536 283.383 146.259 287.717C147.474 290.442 149.565 292.463 152.099 293.363C162.532 297.569 173.659 287.557 181.26 277.549C219.437 227.02 233.751 158.013 235.747 92.2527C236.379 71.1339 235.421 48.4337 224.347 32.3293C209.488 10.6699 180.277 8.6026 157.608 20.379C134.938 32.1555 117.559 54.6979 101.841 77.3377C62.2271 134.504 28.4198 196.688 1.14708 262.549" stroke="#DFDAD6" stroke-width="2.2" stroke-miterlimit="10"/>
</svg>
