<svg width="118" height="92" viewBox="0 0 118 92" fill="none" xmlns="http://www.w3.org/2000/svg">
<path d="M3.22084 1.60819C3.22222 1.92783 3.12895 2.24069 2.95283 2.50714C2.77672 2.77358 2.52569 2.98162 2.23155 3.1049C1.93741 3.22818 1.61339 3.26115 1.30054 3.19964C0.98769 3.13814 0.700089 2.98491 0.47417 2.75938C0.248251 2.53385 0.0941792 2.24616 0.0314736 1.93276C-0.031232 1.61936 0.000249986 1.29436 0.121931 0.998913C0.243613 0.703469 0.450018 0.450883 0.714999 0.273153C0.979981 0.0954235 1.29161 0.000547609 1.61042 0.000544614C1.82158 -0.00037586 2.03083 0.0405279 2.22618 0.120908C2.42152 0.201287 2.59911 0.31956 2.74874 0.468936C2.89837 0.618311 3.01711 0.795848 3.09812 0.991354C3.17914 1.18686 3.22084 1.39648 3.22084 1.60819Z" fill="#9F9F9F"/>
<path d="M19.6388 1.60819C19.6402 1.92783 19.5469 2.24069 19.3708 2.50714C19.1946 2.77358 18.9436 2.98162 18.6495 3.1049C18.3553 3.22818 18.0313 3.26115 17.7185 3.19964C17.4056 3.13814 17.118 2.98491 16.8921 2.75938C16.6662 2.53385 16.5121 2.24616 16.4494 1.93276C16.3867 1.61936 16.4182 1.29436 16.5399 0.998913C16.6615 0.703469 16.8679 0.450883 17.1329 0.273153C17.3979 0.0954235 17.7095 0.000547609 18.0283 0.000544614C18.4543 0.000540612 18.8628 0.169694 19.1646 0.470987C19.4664 0.772281 19.6369 1.18118 19.6388 1.60819Z" fill="#9F9F9F"/>
<path d="M36.0497 1.60819C36.0497 1.92616 35.9557 2.23698 35.7795 2.50136C35.6033 2.76573 35.3529 2.97179 35.0599 3.09347C34.7669 3.21515 34.4445 3.24698 34.1335 3.18495C33.8224 3.12292 33.5367 2.96981 33.3125 2.74497C33.0882 2.52014 32.9355 2.23368 32.8736 1.92183C32.8118 1.60998 32.8435 1.28673 32.9649 0.992973C33.0862 0.699214 33.2918 0.448133 33.5554 0.271482C33.8191 0.0948316 34.1291 0.000544614 34.4463 0.000544614C34.8715 0.000544614 35.2794 0.169921 35.5801 0.471414C35.8808 0.772907 36.0497 1.18182 36.0497 1.60819Z" fill="#9F9F9F"/>
<path d="M52.4677 1.60819C52.4689 1.9296 52.3745 2.24407 52.1965 2.51135C52.0185 2.77864 51.7649 2.98657 51.4683 3.10852C51.1717 3.23048 50.8456 3.26091 50.5316 3.19593C50.2177 3.13094 49.9302 2.9735 49.7061 2.74375C49.4819 2.51399 49.3312 2.22239 49.2733 1.90627C49.2154 1.59015 49.2529 1.2639 49.3811 0.969285C49.5092 0.674668 49.7221 0.425094 49.9925 0.252513C50.263 0.0799325 50.5786 -0.00780103 50.8991 0.000544614C51.3183 0.00968348 51.7172 0.183086 52.0104 0.483594C52.3036 0.784102 52.4678 1.18781 52.4677 1.60819Z" fill="#9F9F9F"/>
<path d="M3.22084 14.4274C3.22222 14.7471 3.12895 15.0599 2.95283 15.3264C2.77672 15.5928 2.52569 15.8009 2.23155 15.9242C1.93741 16.0474 1.61339 16.0804 1.30054 16.0189C0.98769 15.9574 0.700089 15.8042 0.47417 15.5786C0.248251 15.3531 0.0941792 15.0654 0.0314736 14.752C-0.031232 14.4386 0.000249986 14.1136 0.121931 13.8182C0.243613 13.5227 0.450018 13.2701 0.714999 13.0924C0.979981 12.9147 1.29161 12.8198 1.61042 12.8198C1.82158 12.8189 2.03083 12.8598 2.22618 12.9402C2.42152 13.0205 2.59911 13.1388 2.74874 13.2882C2.89837 13.4376 3.01711 13.6151 3.09812 13.8106C3.17914 14.0061 3.22084 14.2157 3.22084 14.4274Z" fill="#9F9F9F"/>
<path d="M19.6388 14.4274C19.6402 14.7471 19.5469 15.0599 19.3708 15.3264C19.1946 15.5928 18.9436 15.8009 18.6495 15.9242C18.3553 16.0474 18.0313 16.0804 17.7185 16.0189C17.4056 15.9574 17.118 15.8042 16.8921 15.5786C16.6662 15.3531 16.5121 15.0654 16.4494 14.752C16.3867 14.4386 16.4182 14.1136 16.5399 13.8182C16.6615 13.5227 16.8679 13.2701 17.1329 13.0924C17.3979 12.9147 17.7095 12.8198 18.0283 12.8198C18.4543 12.8198 18.8628 12.9889 19.1646 13.2902C19.4664 13.5915 19.6369 14.0004 19.6388 14.4274Z" fill="#9F9F9F"/>
<path d="M36.0497 14.4274C36.0497 14.7454 35.9557 15.0562 35.7795 15.3206C35.6033 15.585 35.3529 15.791 35.0599 15.9127C34.7669 16.0344 34.4445 16.0662 34.1335 16.0042C33.8224 15.9422 33.5367 15.7891 33.3125 15.5642C33.0882 15.3394 32.9355 15.0529 32.8736 14.7411C32.8118 14.4292 32.8435 14.106 32.9649 13.8122C33.0862 13.5185 33.2918 13.2674 33.5554 13.0907C33.8191 12.9141 34.1291 12.8198 34.4463 12.8198C34.8715 12.8198 35.2794 12.9892 35.5801 13.2907C35.8808 13.5922 36.0497 14.0011 36.0497 14.4274Z" fill="#9F9F9F"/>
<path d="M52.4677 14.4274C52.469 14.7474 52.3756 15.0605 52.1992 15.3271C52.0227 15.5937 51.7713 15.8017 51.4767 15.9248C51.1822 16.0479 50.8578 16.0805 50.5448 16.0184C50.2317 15.9563 49.9441 15.8024 49.7185 15.5761C49.4929 15.3499 49.3393 15.0616 49.2774 14.7477C49.2155 14.4339 49.248 14.1086 49.3708 13.8133C49.4935 13.518 49.701 13.2659 49.9669 13.089C50.2328 12.9121 50.5451 12.8184 50.8642 12.8198C51.2895 12.8198 51.6973 12.9892 51.998 13.2907C52.2987 13.5922 52.4677 14.0011 52.4677 14.4274Z" fill="#9F9F9F"/>
<path d="M3.22084 27.2607C3.22084 27.58 3.12639 27.8922 2.94944 28.1577C2.77248 28.4233 2.52097 28.6302 2.2267 28.7524C1.93244 28.8746 1.60864 28.9066 1.29624 28.8443C0.983853 28.782 0.696904 28.6282 0.471682 28.4024C0.246461 28.1766 0.093083 27.8889 0.0309445 27.5757C-0.0311939 27.2625 0.000697766 26.9378 0.122587 26.6428C0.244476 26.3477 0.450887 26.0956 0.71572 25.9182C0.980552 25.7407 1.29191 25.646 1.61042 25.646C1.82216 25.6451 2.03199 25.6862 2.22779 25.7671C2.42359 25.8479 2.60149 25.9668 2.75122 26.1169C2.90094 26.267 3.01953 26.4454 3.10014 26.6417C3.18074 26.838 3.22177 27.0484 3.22084 27.2607Z" fill="#9F9F9F"/>
<path d="M19.6388 27.2607C19.6388 27.58 19.5443 27.8922 19.3674 28.1577C19.1904 28.4233 18.9389 28.6302 18.6446 28.7524C18.3504 28.8746 18.0266 28.9066 17.7142 28.8443C17.4018 28.782 17.1148 28.6282 16.8896 28.4024C16.6644 28.1766 16.511 27.8889 16.4489 27.5757C16.3867 27.2625 16.4186 26.9378 16.5405 26.6428C16.6624 26.3477 16.8688 26.0956 17.1336 25.9182C17.3985 25.7407 17.7098 25.646 18.0283 25.646C18.4555 25.646 18.8651 25.8162 19.1671 26.119C19.4691 26.4218 19.6388 26.8325 19.6388 27.2607Z" fill="#9F9F9F"/>
<path d="M36.0497 27.2607C36.0483 27.5783 35.9531 27.8885 35.7761 28.1519C35.5991 28.4154 35.3482 28.6204 35.0551 28.741C34.762 28.8616 34.4398 28.8924 34.1292 28.8296C33.8186 28.7668 33.5336 28.6131 33.31 28.388C33.0865 28.1629 32.9345 27.8764 32.8731 27.5648C32.8118 27.2531 32.844 26.9302 32.9656 26.6369C33.0871 26.3435 33.2926 26.0928 33.5562 25.9165C33.8197 25.7402 34.1294 25.646 34.4463 25.646C34.6574 25.646 34.8665 25.6879 35.0615 25.7691C35.2565 25.8503 35.4336 25.9694 35.5826 26.1194C35.7315 26.2694 35.8495 26.4475 35.9297 26.6433C36.0098 26.8392 36.0506 27.049 36.0497 27.2607Z" fill="#9F9F9F"/>
<path d="M52.4677 27.2607C52.4675 27.5818 52.3719 27.8956 52.1931 28.1619C52.0142 28.4283 51.7602 28.6351 51.4635 28.756C51.1667 28.8769 50.8408 28.9063 50.5274 28.8405C50.2139 28.7748 49.9271 28.6168 49.7036 28.3867C49.4801 28.1567 49.3302 27.8651 49.2728 27.5492C49.2155 27.2333 49.2534 26.9074 49.3817 26.6132C49.5101 26.319 49.723 26.0698 49.9933 25.8975C50.2635 25.7253 50.5789 25.6377 50.8991 25.646C51.3195 25.6552 51.7194 25.8296 52.0128 26.1316C52.3063 26.4336 52.4696 26.8391 52.4677 27.2607Z" fill="#9F9F9F"/>
<path d="M3.22084 40.0729C3.21809 40.3917 3.12131 40.7025 2.94269 40.9661C2.76407 41.2298 2.5116 41.4346 2.2171 41.5547C1.92261 41.6747 1.59925 41.7047 1.28778 41.6409C0.976317 41.577 0.690673 41.4221 0.466845 41.1958C0.243016 40.9694 0.0910171 40.6817 0.0300004 40.3689C-0.0310164 40.056 0.00167912 39.7321 0.123967 39.4379C0.246255 39.1437 0.452664 38.8923 0.717186 38.7155C0.981708 38.5387 1.29251 38.4443 1.61042 38.4443C1.82308 38.4443 2.03364 38.4865 2.22994 38.5686C2.42624 38.6506 2.60439 38.7708 2.75412 38.9222C2.90384 39.0736 3.02218 39.2532 3.10228 39.4508C3.18239 39.6483 3.22268 39.8597 3.22084 40.0729Z" fill="#9F9F9F"/>
<path d="M19.6388 40.0729C19.636 40.3917 19.5392 40.7025 19.3606 40.9661C19.182 41.2298 18.9295 41.4346 18.635 41.5547C18.3405 41.6747 18.0172 41.7047 17.7057 41.6409C17.3942 41.577 17.1086 41.4221 16.8848 41.1958C16.6609 40.9694 16.5089 40.6817 16.4479 40.3689C16.3869 40.056 16.4196 39.7321 16.5419 39.4379C16.6642 39.1437 16.8706 38.8923 17.1351 38.7155C17.3996 38.5387 17.7104 38.4443 18.0283 38.4443C18.2407 38.4452 18.4509 38.4881 18.6468 38.5704C18.8427 38.6528 19.0204 38.773 19.17 38.9242C19.3195 39.0755 19.4379 39.2547 19.5183 39.4518C19.5988 39.6489 19.6397 39.86 19.6388 40.0729Z" fill="#9F9F9F"/>
<path d="M36.0497 40.0729C36.0456 40.39 35.9481 40.6987 35.7694 40.9603C35.5907 41.2219 35.3389 41.4247 35.0455 41.5432C34.7522 41.6617 34.4305 41.6905 34.1208 41.6261C33.8112 41.5618 33.5274 41.407 33.3053 41.1814C33.0831 40.9557 32.9325 40.6692 32.8723 40.358C32.8121 40.0467 32.845 39.7245 32.967 39.432C33.0889 39.1395 33.2944 38.8896 33.5577 38.7139C33.8209 38.5381 34.13 38.4444 34.4463 38.4443C34.6584 38.4452 34.8682 38.4881 35.0636 38.5706C35.2591 38.653 35.4365 38.7733 35.5855 38.9246C35.7344 39.076 35.8522 39.2553 35.9318 39.4524C36.0115 39.6494 36.0516 39.8603 36.0497 40.0729Z" fill="#9F9F9F"/>
<path d="M52.4677 40.0729C52.4648 40.3934 52.3668 40.7058 52.1863 40.9703C52.0057 41.2348 51.7508 41.4395 51.4538 41.5582C51.1569 41.6769 50.8315 41.7044 50.5189 41.637C50.2064 41.5697 49.9209 41.4106 49.6988 41.18C49.4768 40.9495 49.3282 40.6579 49.272 40.3424C49.2158 40.0268 49.2545 39.7017 49.3832 39.4083C49.5119 39.1149 49.7248 38.8666 49.9947 38.6949C50.2647 38.5232 50.5795 38.436 50.8991 38.4443C51.3213 38.4553 51.7223 38.6322 52.0158 38.9368C52.3092 39.2415 52.4715 39.6495 52.4677 40.0729Z" fill="#9F9F9F"/>
<path d="M3.22084 51.9346C3.22222 52.2542 3.12895 52.5671 2.95283 52.8335C2.77672 53.1 2.52569 53.308 2.23155 53.4313C1.93741 53.5546 1.61339 53.5876 1.30054 53.5261C0.98769 53.4645 0.700089 53.3113 0.47417 53.0858C0.248251 52.8603 0.0941792 52.5726 0.0314736 52.2592C-0.031232 51.9458 0.000249986 51.6208 0.121931 51.3253C0.243613 51.0299 0.450018 50.7773 0.714999 50.5996C0.979981 50.4218 1.29161 50.327 1.61042 50.3269C1.82158 50.326 2.03083 50.3669 2.22618 50.4473C2.42152 50.5277 2.59911 50.646 2.74874 50.7953C2.89837 50.9447 3.01711 51.1222 3.09812 51.3178C3.17914 51.5133 3.22084 51.7229 3.22084 51.9346Z" fill="#9F9F9F"/>
<path d="M19.6388 51.9346C19.6402 52.2542 19.5469 52.5671 19.3708 52.8335C19.1946 53.1 18.9436 53.308 18.6495 53.4313C18.3553 53.5546 18.0313 53.5876 17.7185 53.5261C17.4056 53.4645 17.118 53.3113 16.8921 53.0858C16.6662 52.8603 16.5121 52.5726 16.4494 52.2592C16.3867 51.9458 16.4182 51.6208 16.5399 51.3253C16.6615 51.0299 16.8679 50.7773 17.1329 50.5996C17.3979 50.4218 17.7095 50.327 18.0283 50.3269C18.4543 50.3269 18.8628 50.4961 19.1646 50.7974C19.4664 51.0987 19.6369 51.5076 19.6388 51.9346Z" fill="#9F9F9F"/>
<path d="M36.0497 51.9346C36.0497 52.2526 35.9557 52.5634 35.7795 52.8278C35.6033 53.0921 35.3529 53.2982 35.0599 53.4199C34.7669 53.5416 34.4445 53.5734 34.1335 53.5114C33.8224 53.4493 33.5367 53.2962 33.3125 53.0714C33.0882 52.8465 32.9355 52.5601 32.8736 52.2482C32.8118 51.9364 32.8435 51.6131 32.9649 51.3194C33.0862 51.0256 33.2918 50.7745 33.5554 50.5979C33.8191 50.4212 34.1291 50.3269 34.4463 50.3269C34.8715 50.3269 35.2794 50.4963 35.5801 50.7978C35.8808 51.0993 36.0497 51.5082 36.0497 51.9346Z" fill="#9F9F9F"/>
<path d="M52.4677 51.9346C52.4689 52.256 52.3745 52.5705 52.1965 52.8378C52.0185 53.105 51.7649 53.313 51.4683 53.4349C51.1717 53.5569 50.8456 53.5873 50.5316 53.5223C50.2177 53.4573 49.9302 53.2999 49.7061 53.0701C49.4819 52.8404 49.3312 52.5488 49.2733 52.2327C49.2154 51.9166 49.2529 51.5903 49.3811 51.2957C49.5092 51.0011 49.7221 50.7515 49.9925 50.5789C50.263 50.4063 50.5786 50.3186 50.8991 50.3269C51.3183 50.3361 51.7172 50.5095 52.0104 50.81C52.3036 51.1105 52.4678 51.5142 52.4677 51.9346Z" fill="#9F9F9F"/>
<path d="M3.22084 64.7539C3.22222 65.0735 3.12895 65.3864 2.95283 65.6528C2.77672 65.9192 2.52569 66.1273 2.23155 66.2506C1.93741 66.3738 1.61339 66.4068 1.30054 66.3453C0.98769 66.2838 0.700089 66.1306 0.47417 65.905C0.248251 65.6795 0.0941792 65.3918 0.0314736 65.0784C-0.031232 64.765 0.000249986 64.44 0.121931 64.1446C0.243613 63.8491 0.450018 63.5965 0.714999 63.4188C0.979981 63.2411 1.29161 63.1462 1.61042 63.1462C1.82158 63.1453 2.03083 63.1862 2.22618 63.2666C2.42152 63.3469 2.59911 63.4652 2.74874 63.6146C2.89837 63.764 3.01711 63.9415 3.09812 64.137C3.17914 64.3325 3.22084 64.5421 3.22084 64.7539Z" fill="#9F9F9F"/>
<path d="M19.6388 64.7539C19.6402 65.0735 19.5469 65.3864 19.3708 65.6528C19.1946 65.9192 18.9436 66.1273 18.6495 66.2506C18.3553 66.3738 18.0313 66.4068 17.7185 66.3453C17.4056 66.2838 17.118 66.1306 16.8921 65.905C16.6662 65.6795 16.5121 65.3918 16.4494 65.0784C16.3867 64.765 16.4182 64.44 16.5399 64.1446C16.6615 63.8491 16.8679 63.5965 17.1329 63.4188C17.3979 63.2411 17.7095 63.1462 18.0283 63.1462C18.4543 63.1462 18.8628 63.3154 19.1646 63.6166C19.4664 63.9179 19.6369 64.3268 19.6388 64.7539Z" fill="#9F9F9F"/>
<path d="M36.0497 64.7539C36.0497 65.0718 35.9557 65.3826 35.7795 65.647C35.6033 65.9114 35.3529 66.1174 35.0599 66.2391C34.7669 66.3608 34.4445 66.3926 34.1335 66.3306C33.8224 66.2686 33.5367 66.1155 33.3125 65.8906C33.0882 65.6658 32.9355 65.3793 32.8736 65.0675C32.8118 64.7556 32.8435 64.4324 32.9649 64.1386C33.0862 63.8449 33.2918 63.5938 33.5554 63.4171C33.8191 63.2405 34.1291 63.1462 34.4463 63.1462C34.8715 63.1462 35.2794 63.3156 35.5801 63.6171C35.8808 63.9186 36.0497 64.3275 36.0497 64.7539Z" fill="#9F9F9F"/>
<path d="M52.4677 64.7539C52.469 65.0738 52.3756 65.3869 52.1992 65.6535C52.0227 65.9201 51.7713 66.1281 51.4767 66.2512C51.1822 66.3743 50.8578 66.4069 50.5448 66.3448C50.2317 66.2827 49.9441 66.1288 49.7185 65.9025C49.4929 65.6763 49.3393 65.388 49.2774 65.0741C49.2155 64.7603 49.248 64.435 49.3708 64.1397C49.4935 63.8444 49.701 63.5923 49.9669 63.4154C50.2328 63.2385 50.5451 63.1448 50.8642 63.1462C51.2895 63.1462 51.6973 63.3156 51.998 63.6171C52.2987 63.9186 52.4677 64.3275 52.4677 64.7539Z" fill="#9F9F9F"/>
<path d="M3.22084 77.5871C3.22084 77.9064 3.12639 78.2186 2.94944 78.4841C2.77248 78.7497 2.52097 78.9566 2.2267 79.0788C1.93244 79.201 1.60864 79.233 1.29624 79.1707C0.983853 79.1084 0.696904 78.9546 0.471682 78.7288C0.246461 78.503 0.093083 78.2153 0.0309445 77.9021C-0.0311939 77.5889 0.000697766 77.2642 0.122587 76.9692C0.244476 76.6742 0.450887 76.422 0.71572 76.2446C0.980552 76.0671 1.29191 75.9724 1.61042 75.9724C1.82216 75.9715 2.03199 76.0126 2.22779 76.0935C2.42359 76.1743 2.60149 76.2932 2.75122 76.4433C2.90094 76.5934 3.01953 76.7718 3.10014 76.9681C3.18074 77.1644 3.22177 77.3748 3.22084 77.5871Z" fill="#9F9F9F"/>
<path d="M19.6388 77.5871C19.6388 77.9064 19.5443 78.2186 19.3674 78.4841C19.1904 78.7497 18.9389 78.9566 18.6446 79.0788C18.3504 79.201 18.0266 79.233 17.7142 79.1707C17.4018 79.1084 17.1148 78.9546 16.8896 78.7288C16.6644 78.503 16.511 78.2153 16.4489 77.9021C16.3867 77.5889 16.4186 77.2642 16.5405 76.9692C16.6624 76.6742 16.8688 76.422 17.1336 76.2446C17.3985 76.0671 17.7098 75.9724 18.0283 75.9724C18.4555 75.9724 18.8651 76.1426 19.1671 76.4454C19.4691 76.7482 19.6388 77.1589 19.6388 77.5871Z" fill="#9F9F9F"/>
<path d="M36.0497 77.5871C36.0483 77.9047 35.9531 78.2149 35.7761 78.4783C35.5991 78.7418 35.3482 78.9468 35.0551 79.0674C34.762 79.188 34.4398 79.2188 34.1292 79.156C33.8186 79.0932 33.5336 78.9395 33.31 78.7144C33.0865 78.4893 32.9345 78.2028 32.8731 77.8912C32.8118 77.5795 32.844 77.2566 32.9656 76.9633C33.0871 76.6699 33.2926 76.4192 33.5562 76.2429C33.8197 76.0666 34.1294 75.9725 34.4463 75.9724C34.6574 75.9724 34.8665 76.0143 35.0615 76.0955C35.2565 76.1767 35.4336 76.2958 35.5826 76.4458C35.7315 76.5958 35.8495 76.7739 35.9297 76.9697C36.0098 77.1656 36.0506 77.3754 36.0497 77.5871Z" fill="#9F9F9F"/>
<path d="M52.4677 77.5871C52.4675 77.9082 52.3719 78.222 52.1931 78.4883C52.0142 78.7547 51.7602 78.9615 51.4635 79.0824C51.1667 79.2033 50.8408 79.2327 50.5274 79.1669C50.2139 79.1012 49.9271 78.9432 49.7036 78.7131C49.4801 78.4831 49.3302 78.1915 49.2728 77.8756C49.2155 77.5597 49.2534 77.2338 49.3817 76.9396C49.5101 76.6454 49.723 76.3962 49.9933 76.2239C50.2635 76.0517 50.5789 75.9641 50.8991 75.9724C51.3195 75.9816 51.7194 76.156 52.0128 76.458C52.3063 76.76 52.4696 77.1655 52.4677 77.5871Z" fill="#9F9F9F"/>
<path d="M3.22084 90.3993C3.21809 90.7181 3.12131 91.0289 2.94269 91.2926C2.76407 91.5562 2.5116 91.761 2.2171 91.8811C1.92261 92.0011 1.59925 92.0311 1.28778 91.9673C0.976317 91.9034 0.690673 91.7485 0.466845 91.5222C0.243016 91.2958 0.0910171 91.0081 0.0300004 90.6953C-0.0310164 90.3824 0.00167912 90.0585 0.123967 89.7643C0.246255 89.4701 0.452664 89.2187 0.717186 89.0419C0.981708 88.8651 1.29251 88.7707 1.61042 88.7707C1.82308 88.7707 2.03364 88.8129 2.22994 88.895C2.42624 88.977 2.60439 89.0972 2.75412 89.2486C2.90384 89.4 3.02218 89.5797 3.10228 89.7772C3.18239 89.9747 3.22268 90.1861 3.22084 90.3993Z" fill="#9F9F9F"/>
<path d="M19.6388 90.3993C19.636 90.7181 19.5392 91.0289 19.3606 91.2926C19.182 91.5562 18.9295 91.761 18.635 91.8811C18.3405 92.0011 18.0172 92.0311 17.7057 91.9673C17.3942 91.9034 17.1086 91.7485 16.8848 91.5222C16.6609 91.2958 16.5089 91.0081 16.4479 90.6953C16.3869 90.3824 16.4196 90.0585 16.5419 89.7643C16.6642 89.4701 16.8706 89.2187 17.1351 89.0419C17.3996 88.8651 17.7104 88.7707 18.0283 88.7707C18.2407 88.7716 18.4509 88.8145 18.6468 88.8968C18.8427 88.9792 19.0204 89.0994 19.17 89.2506C19.3195 89.4019 19.4379 89.5811 19.5183 89.7782C19.5988 89.9753 19.6397 90.1864 19.6388 90.3993Z" fill="#9F9F9F"/>
<path d="M36.0497 90.3993C36.0456 90.7164 35.9481 91.0251 35.7694 91.2867C35.5907 91.5483 35.3389 91.7511 35.0455 91.8696C34.7522 91.9881 34.4305 92.0169 34.1208 91.9525C33.8112 91.8882 33.5274 91.7334 33.3053 91.5078C33.0831 91.2821 32.9325 90.9957 32.8723 90.6844C32.8121 90.3731 32.845 90.0509 32.967 89.7584C33.0889 89.4659 33.2944 89.216 33.5577 89.0403C33.8209 88.8645 34.13 88.7708 34.4463 88.7707C34.6584 88.7716 34.8682 88.8145 35.0636 88.897C35.2591 88.9794 35.4365 89.0997 35.5855 89.2511C35.7344 89.4024 35.8522 89.5817 35.9318 89.7788C36.0115 89.9758 36.0516 90.1867 36.0497 90.3993Z" fill="#9F9F9F"/>
<path d="M52.4677 90.3993C52.4648 90.7198 52.3668 91.0322 52.1863 91.2967C52.0057 91.5612 51.7508 91.7659 51.4538 91.8846C51.1569 92.0033 50.8315 92.0308 50.5189 91.9634C50.2064 91.8961 49.9209 91.737 49.6988 91.5064C49.4768 91.2759 49.3282 90.9843 49.272 90.6688C49.2158 90.3532 49.2545 90.0281 49.3832 89.7347C49.5119 89.4413 49.7248 89.193 49.9947 89.0213C50.2647 88.8497 50.5795 88.7624 50.8991 88.7707C51.3213 88.7817 51.7223 88.9586 52.0158 89.2632C52.3092 89.5679 52.4715 89.9759 52.4677 90.3993Z" fill="#9F9F9F"/>
<path d="M68.7531 1.60819C68.7545 1.92783 68.6612 2.24069 68.4851 2.50714C68.309 2.77358 68.058 2.98162 67.7638 3.1049C67.4697 3.22818 67.1457 3.26115 66.8328 3.19964C66.52 3.13814 66.2324 2.98491 66.0064 2.75938C65.7805 2.53385 65.6265 2.24616 65.5638 1.93276C65.501 1.61936 65.5325 1.29436 65.6542 0.998913C65.7759 0.703469 65.9823 0.450883 66.2473 0.273153C66.5123 0.0954235 66.8239 0.000547609 67.1427 0.000544614C67.3539 -0.00037586 67.5631 0.0405279 67.7585 0.120908C67.9538 0.201287 68.1314 0.31956 68.281 0.468936C68.4307 0.618311 68.5494 0.795848 68.6304 0.991354C68.7114 1.18686 68.7531 1.39648 68.7531 1.60819Z" fill="#9F9F9F"/>
<path d="M85.171 1.60819C85.1724 1.92783 85.0792 2.24069 84.903 2.50714C84.7269 2.77358 84.4759 2.98162 84.1818 3.1049C83.8876 3.22818 83.5636 3.26115 83.2507 3.19964C82.9379 3.13814 82.6503 2.98491 82.4244 2.75938C82.1985 2.53385 82.0444 2.24616 81.9817 1.93276C81.919 1.61936 81.9505 1.29436 82.0721 0.998913C82.1938 0.703469 82.4002 0.450883 82.6652 0.273153C82.9302 0.0954235 83.2418 0.000547609 83.5606 0.000544614C83.9865 0.000540612 84.3951 0.169694 84.6969 0.470987C84.9987 0.772281 85.1692 1.18118 85.171 1.60819Z" fill="#9F9F9F"/>
<path d="M101.582 1.60819C101.582 1.92616 101.488 2.23698 101.312 2.50136C101.136 2.76573 100.885 2.97179 100.592 3.09347C100.299 3.21515 99.9768 3.24698 99.6657 3.18495C99.3547 3.12292 99.069 2.96981 98.8447 2.74497C98.6205 2.52014 98.4678 2.23368 98.4059 1.92183C98.3441 1.60998 98.3758 1.28673 98.4972 0.992973C98.6185 0.699214 98.824 0.448133 99.0877 0.271482C99.3514 0.0948316 99.6614 0.000544614 99.9786 0.000544614C100.404 0.000544614 100.812 0.169921 101.112 0.471414C101.413 0.772907 101.582 1.18182 101.582 1.60819Z" fill="#9F9F9F"/>
<path d="M118 1.60819C118.001 1.9296 117.907 2.24407 117.729 2.51135C117.551 2.77864 117.297 2.98657 117.001 3.10852C116.704 3.23048 116.378 3.26091 116.064 3.19593C115.75 3.13094 115.463 2.9735 115.238 2.74375C115.014 2.51399 114.863 2.22239 114.806 1.90627C114.748 1.59015 114.785 1.2639 114.913 0.969285C115.041 0.674668 115.254 0.425094 115.525 0.252513C115.795 0.0799325 116.111 -0.00780103 116.431 0.000544614C116.851 0.00968348 117.249 0.183086 117.543 0.483594C117.836 0.784102 118 1.18781 118 1.60819Z" fill="#9F9F9F"/>
<path d="M68.7531 14.4274C68.7545 14.7471 68.6612 15.0599 68.4851 15.3264C68.309 15.5928 68.058 15.8009 67.7638 15.9242C67.4697 16.0474 67.1457 16.0804 66.8328 16.0189C66.52 15.9574 66.2324 15.8042 66.0064 15.5786C65.7805 15.3531 65.6265 15.0654 65.5638 14.752C65.501 14.4386 65.5325 14.1136 65.6542 13.8182C65.7759 13.5227 65.9823 13.2701 66.2473 13.0924C66.5123 12.9147 66.8239 12.8198 67.1427 12.8198C67.3539 12.8189 67.5631 12.8598 67.7585 12.9402C67.9538 13.0205 68.1314 13.1388 68.281 13.2882C68.4307 13.4376 68.5494 13.6151 68.6304 13.8106C68.7114 14.0061 68.7531 14.2157 68.7531 14.4274Z" fill="#9F9F9F"/>
<path d="M85.171 14.4274C85.1724 14.7471 85.0792 15.0599 84.903 15.3264C84.7269 15.5928 84.4759 15.8009 84.1818 15.9242C83.8876 16.0474 83.5636 16.0804 83.2507 16.0189C82.9379 15.9574 82.6503 15.8042 82.4244 15.5786C82.1985 15.3531 82.0444 15.0654 81.9817 14.752C81.919 14.4386 81.9505 14.1136 82.0721 13.8182C82.1938 13.5227 82.4002 13.2701 82.6652 13.0924C82.9302 12.9147 83.2418 12.8198 83.5606 12.8198C83.9865 12.8198 84.3951 12.9889 84.6969 13.2902C84.9987 13.5915 85.1692 14.0004 85.171 14.4274Z" fill="#9F9F9F"/>
<path d="M101.582 14.4274C101.582 14.7454 101.488 15.0562 101.312 15.3206C101.136 15.585 100.885 15.791 100.592 15.9127C100.299 16.0344 99.9768 16.0662 99.6657 16.0042C99.3547 15.9422 99.069 15.7891 98.8447 15.5642C98.6205 15.3394 98.4678 15.0529 98.4059 14.7411C98.3441 14.4292 98.3758 14.106 98.4972 13.8122C98.6185 13.5185 98.824 13.2674 99.0877 13.0907C99.3514 12.9141 99.6614 12.8198 99.9786 12.8198C100.404 12.8198 100.812 12.9892 101.112 13.2907C101.413 13.5922 101.582 14.0011 101.582 14.4274Z" fill="#9F9F9F"/>
<path d="M118 14.4274C118.001 14.7474 117.908 15.0605 117.731 15.3271C117.555 15.5937 117.304 15.8017 117.009 15.9248C116.714 16.0479 116.39 16.0805 116.077 16.0184C115.764 15.9563 115.476 15.8024 115.251 15.5761C115.025 15.3499 114.872 15.0616 114.81 14.7477C114.748 14.4339 114.78 14.1086 114.903 13.8133C115.026 13.518 115.233 13.2659 115.499 13.089C115.765 12.9121 116.077 12.8184 116.396 12.8198C116.822 12.8198 117.23 12.9892 117.53 13.2907C117.831 13.5922 118 14.0011 118 14.4274Z" fill="#9F9F9F"/>
<path d="M68.7531 27.2607C68.7531 27.58 68.6587 27.8922 68.4817 28.1577C68.3048 28.4233 68.0532 28.6302 67.759 28.7524C67.4647 28.8746 67.1409 28.9066 66.8285 28.8443C66.5161 28.782 66.2292 28.6282 66.004 28.4024C65.7787 28.1766 65.6254 27.8889 65.5632 27.5757C65.5011 27.2625 65.533 26.9378 65.6549 26.6428C65.7768 26.3477 65.9832 26.0956 66.248 25.9182C66.5128 25.7407 66.8242 25.646 67.1427 25.646C67.3544 25.6451 67.5643 25.6862 67.7601 25.7671C67.9559 25.8479 68.1338 25.9668 68.2835 26.1169C68.4332 26.267 68.5518 26.4454 68.6324 26.6417C68.713 26.838 68.754 27.0484 68.7531 27.2607Z" fill="#9F9F9F"/>
<path d="M85.171 27.2607C85.171 27.58 85.0766 27.8922 84.8996 28.1577C84.7227 28.4233 84.4712 28.6302 84.1769 28.7524C83.8826 28.8746 83.5588 28.9066 83.2464 28.8443C82.9341 28.782 82.6471 28.6282 82.4219 28.4024C82.1967 28.1766 82.0433 27.8889 81.9812 27.5757C81.919 27.2625 81.9509 26.9378 82.0728 26.6428C82.1947 26.3477 82.4011 26.0956 82.6659 25.9182C82.9308 25.7407 83.2421 25.646 83.5606 25.646C83.9877 25.646 84.3974 25.8162 84.6994 26.119C85.0014 26.4218 85.171 26.8325 85.171 27.2607Z" fill="#9F9F9F"/>
<path d="M101.582 27.2607C101.581 27.5783 101.485 27.8885 101.308 28.1519C101.131 28.4154 100.88 28.6204 100.587 28.741C100.294 28.8616 99.9721 28.8924 99.6615 28.8296C99.3509 28.7668 99.0658 28.6131 98.8423 28.388C98.6188 28.1629 98.4667 27.8764 98.4054 27.5648C98.3441 27.2531 98.3763 26.9302 98.4978 26.6369C98.6194 26.3435 98.8249 26.0928 99.0885 25.9165C99.352 25.7402 99.6617 25.646 99.9786 25.646C100.19 25.646 100.399 25.6879 100.594 25.7691C100.789 25.8503 100.966 25.9694 101.115 26.1194C101.264 26.2694 101.382 26.4475 101.462 26.6433C101.542 26.8392 101.583 27.049 101.582 27.2607Z" fill="#9F9F9F"/>
<path d="M118 27.2607C118 27.5818 117.904 27.8956 117.725 28.1619C117.546 28.4283 117.292 28.6351 116.996 28.756C116.699 28.8769 116.373 28.9063 116.06 28.8405C115.746 28.7748 115.459 28.6168 115.236 28.3867C115.012 28.1567 114.862 27.8651 114.805 27.5492C114.748 27.2333 114.786 26.9074 114.914 26.6132C115.042 26.319 115.255 26.0698 115.526 25.8975C115.796 25.7253 116.111 25.6377 116.431 25.646C116.852 25.6552 117.252 25.8296 117.545 26.1316C117.839 26.4336 118.002 26.8391 118 27.2607Z" fill="#9F9F9F"/>
<path d="M68.7531 40.0729C68.7504 40.3917 68.6536 40.7025 68.475 40.9661C68.2963 41.2298 68.0439 41.4346 67.7494 41.5547C67.4549 41.6747 67.1315 41.7047 66.8201 41.6409C66.5086 41.577 66.223 41.4221 65.9991 41.1958C65.7753 40.9694 65.6233 40.6817 65.5623 40.3689C65.5013 40.056 65.534 39.7321 65.6562 39.4379C65.7785 39.1437 65.9849 38.8923 66.2495 38.7155C66.514 38.5387 66.8248 38.4443 67.1427 38.4443C67.3554 38.4443 67.5659 38.4865 67.7622 38.5686C67.9585 38.6506 68.1367 38.7708 68.2864 38.9222C68.4361 39.0736 68.5545 39.2532 68.6346 39.4508C68.7147 39.6483 68.755 39.8597 68.7531 40.0729Z" fill="#9F9F9F"/>
<path d="M85.1711 40.0729C85.1683 40.3917 85.0715 40.7025 84.8929 40.9661C84.7143 41.2298 84.4618 41.4346 84.1673 41.5547C83.8728 41.6747 83.5495 41.7047 83.238 41.6409C82.9265 41.577 82.6409 41.4221 82.4171 41.1958C82.1932 40.9694 82.0412 40.6817 81.9802 40.3689C81.9192 40.056 81.9519 39.7321 82.0742 39.4379C82.1965 39.1437 82.4029 38.8923 82.6674 38.7155C82.9319 38.5387 83.2427 38.4443 83.5606 38.4443C83.773 38.4452 83.9832 38.4881 84.179 38.5704C84.3749 38.6528 84.5527 38.773 84.7023 38.9242C84.8518 39.0755 84.9702 39.2547 85.0506 39.4518C85.131 39.6489 85.172 39.86 85.1711 40.0729Z" fill="#9F9F9F"/>
<path d="M101.582 40.0729C101.578 40.39 101.48 40.6987 101.302 40.9603C101.123 41.2219 100.871 41.4247 100.578 41.5432C100.284 41.6617 99.9628 41.6905 99.6531 41.6261C99.3435 41.5618 99.0597 41.407 98.8376 41.1814C98.6154 40.9557 98.4648 40.6692 98.4046 40.358C98.3444 40.0467 98.3773 39.7245 98.4993 39.432C98.6212 39.1395 98.8267 38.8896 99.0899 38.7139C99.3531 38.5381 99.6623 38.4444 99.9786 38.4443C100.191 38.4452 100.4 38.4881 100.596 38.5706C100.791 38.653 100.969 38.7733 101.118 38.9246C101.267 39.076 101.384 39.2553 101.464 39.4524C101.544 39.6494 101.584 39.8603 101.582 40.0729Z" fill="#9F9F9F"/>
<path d="M118 40.0729C117.997 40.3934 117.899 40.7058 117.719 40.9703C117.538 41.2348 117.283 41.4395 116.986 41.5582C116.689 41.6769 116.364 41.7044 116.051 41.637C115.739 41.5697 115.453 41.4106 115.231 41.18C115.009 40.9495 114.86 40.6579 114.804 40.3424C114.748 40.0268 114.787 39.7017 114.915 39.4083C115.044 39.1149 115.257 38.8666 115.527 38.6949C115.797 38.5232 116.112 38.436 116.431 38.4443C116.854 38.4553 117.255 38.6322 117.548 38.9368C117.841 39.2415 118.004 39.6495 118 40.0729Z" fill="#9F9F9F"/>
<path d="M68.7531 51.9346C68.7545 52.2542 68.6612 52.5671 68.4851 52.8335C68.309 53.1 68.058 53.308 67.7638 53.4313C67.4697 53.5546 67.1457 53.5876 66.8328 53.5261C66.52 53.4645 66.2324 53.3113 66.0064 53.0858C65.7805 52.8603 65.6265 52.5726 65.5638 52.2592C65.501 51.9458 65.5325 51.6208 65.6542 51.3253C65.7759 51.0299 65.9823 50.7773 66.2473 50.5996C66.5123 50.4218 66.8239 50.327 67.1427 50.3269C67.3539 50.326 67.5631 50.3669 67.7585 50.4473C67.9538 50.5277 68.1314 50.646 68.281 50.7953C68.4307 50.9447 68.5494 51.1222 68.6304 51.3178C68.7114 51.5133 68.7531 51.7229 68.7531 51.9346Z" fill="#9F9F9F"/>
<path d="M85.171 51.9346C85.1724 52.2542 85.0792 52.5671 84.903 52.8335C84.7269 53.1 84.4759 53.308 84.1818 53.4313C83.8876 53.5546 83.5636 53.5876 83.2507 53.5261C82.9379 53.4645 82.6503 53.3113 82.4244 53.0858C82.1985 52.8603 82.0444 52.5726 81.9817 52.2592C81.919 51.9458 81.9505 51.6208 82.0721 51.3253C82.1938 51.0299 82.4002 50.7773 82.6652 50.5996C82.9302 50.4218 83.2418 50.327 83.5606 50.3269C83.9865 50.3269 84.3951 50.4961 84.6969 50.7974C84.9987 51.0987 85.1692 51.5076 85.171 51.9346Z" fill="#9F9F9F"/>
<path d="M101.582 51.9346C101.582 52.2526 101.488 52.5634 101.312 52.8278C101.136 53.0921 100.885 53.2982 100.592 53.4199C100.299 53.5416 99.9768 53.5734 99.6657 53.5114C99.3547 53.4493 99.069 53.2962 98.8447 53.0714C98.6205 52.8465 98.4678 52.5601 98.4059 52.2482C98.3441 51.9364 98.3758 51.6131 98.4972 51.3194C98.6185 51.0256 98.824 50.7745 99.0877 50.5979C99.3514 50.4212 99.6614 50.3269 99.9786 50.3269C100.404 50.3269 100.812 50.4963 101.112 50.7978C101.413 51.0993 101.582 51.5082 101.582 51.9346Z" fill="#9F9F9F"/>
<path d="M118 51.9346C118.001 52.256 117.907 52.5705 117.729 52.8378C117.551 53.105 117.297 53.313 117.001 53.4349C116.704 53.5569 116.378 53.5873 116.064 53.5223C115.75 53.4573 115.463 53.2999 115.238 53.0701C115.014 52.8404 114.863 52.5488 114.806 52.2327C114.748 51.9166 114.785 51.5903 114.913 51.2957C115.041 51.0011 115.254 50.7515 115.525 50.5789C115.795 50.4063 116.111 50.3186 116.431 50.3269C116.851 50.3361 117.249 50.5095 117.543 50.81C117.836 51.1105 118 51.5142 118 51.9346Z" fill="#9F9F9F"/>
<path d="M68.7531 64.7539C68.7545 65.0735 68.6612 65.3864 68.4851 65.6528C68.309 65.9192 68.058 66.1273 67.7638 66.2506C67.4697 66.3738 67.1457 66.4068 66.8328 66.3453C66.52 66.2838 66.2324 66.1306 66.0064 65.905C65.7805 65.6795 65.6265 65.3918 65.5638 65.0784C65.501 64.765 65.5325 64.44 65.6542 64.1446C65.7759 63.8491 65.9823 63.5965 66.2473 63.4188C66.5123 63.2411 66.8239 63.1462 67.1427 63.1462C67.3539 63.1453 67.5631 63.1862 67.7585 63.2666C67.9538 63.3469 68.1314 63.4652 68.281 63.6146C68.4307 63.764 68.5494 63.9415 68.6304 64.137C68.7114 64.3325 68.7531 64.5421 68.7531 64.7539Z" fill="#9F9F9F"/>
<path d="M85.171 64.7539C85.1724 65.0735 85.0792 65.3864 84.903 65.6528C84.7269 65.9192 84.4759 66.1273 84.1818 66.2506C83.8876 66.3738 83.5636 66.4068 83.2507 66.3453C82.9379 66.2838 82.6503 66.1306 82.4244 65.905C82.1985 65.6795 82.0444 65.3918 81.9817 65.0784C81.919 64.765 81.9505 64.44 82.0721 64.1446C82.1938 63.8491 82.4002 63.5965 82.6652 63.4188C82.9302 63.2411 83.2418 63.1462 83.5606 63.1462C83.9865 63.1462 84.3951 63.3154 84.6969 63.6166C84.9987 63.9179 85.1692 64.3268 85.171 64.7539Z" fill="#9F9F9F"/>
<path d="M101.582 64.7539C101.582 65.0718 101.488 65.3826 101.312 65.647C101.136 65.9114 100.885 66.1174 100.592 66.2391C100.299 66.3608 99.9768 66.3926 99.6657 66.3306C99.3547 66.2686 99.069 66.1155 98.8447 65.8906C98.6205 65.6658 98.4678 65.3793 98.4059 65.0675C98.3441 64.7556 98.3758 64.4324 98.4972 64.1386C98.6185 63.8449 98.824 63.5938 99.0877 63.4171C99.3514 63.2405 99.6614 63.1462 99.9786 63.1462C100.404 63.1462 100.812 63.3156 101.112 63.6171C101.413 63.9186 101.582 64.3275 101.582 64.7539Z" fill="#9F9F9F"/>
<path d="M118 64.7539C118.001 65.0738 117.908 65.3869 117.731 65.6535C117.555 65.9201 117.304 66.1281 117.009 66.2512C116.714 66.3743 116.39 66.4069 116.077 66.3448C115.764 66.2827 115.476 66.1288 115.251 65.9025C115.025 65.6763 114.872 65.388 114.81 65.0741C114.748 64.7603 114.78 64.435 114.903 64.1397C115.026 63.8444 115.233 63.5923 115.499 63.4154C115.765 63.2385 116.077 63.1448 116.396 63.1462C116.822 63.1462 117.23 63.3156 117.53 63.6171C117.831 63.9186 118 64.3275 118 64.7539Z" fill="#9F9F9F"/>
<path d="M68.7531 77.5871C68.7531 77.9064 68.6587 78.2186 68.4817 78.4841C68.3048 78.7497 68.0532 78.9566 67.759 79.0788C67.4647 79.201 67.1409 79.233 66.8285 79.1707C66.5161 79.1084 66.2292 78.9546 66.004 78.7288C65.7787 78.503 65.6254 78.2153 65.5632 77.9021C65.5011 77.5889 65.533 77.2642 65.6549 76.9692C65.7768 76.6742 65.9832 76.422 66.248 76.2446C66.5128 76.0671 66.8242 75.9724 67.1427 75.9724C67.3544 75.9715 67.5643 76.0126 67.7601 76.0935C67.9559 76.1743 68.1338 76.2932 68.2835 76.4433C68.4332 76.5934 68.5518 76.7718 68.6324 76.9681C68.713 77.1644 68.754 77.3748 68.7531 77.5871Z" fill="#9F9F9F"/>
<path d="M85.171 77.5871C85.171 77.9064 85.0766 78.2186 84.8996 78.4841C84.7227 78.7497 84.4712 78.9566 84.1769 79.0788C83.8826 79.201 83.5588 79.233 83.2464 79.1707C82.9341 79.1084 82.6471 78.9546 82.4219 78.7288C82.1967 78.503 82.0433 78.2153 81.9812 77.9021C81.919 77.5889 81.9509 77.2642 82.0728 76.9692C82.1947 76.6742 82.4011 76.422 82.6659 76.2446C82.9308 76.0671 83.2421 75.9724 83.5606 75.9724C83.9877 75.9724 84.3974 76.1426 84.6994 76.4454C85.0014 76.7482 85.171 77.1589 85.171 77.5871Z" fill="#9F9F9F"/>
<path d="M101.582 77.5871C101.581 77.9047 101.485 78.2149 101.308 78.4783C101.131 78.7418 100.88 78.9468 100.587 79.0674C100.294 79.188 99.9721 79.2188 99.6615 79.156C99.3509 79.0932 99.0658 78.9395 98.8423 78.7144C98.6188 78.4893 98.4667 78.2028 98.4054 77.8912C98.3441 77.5795 98.3763 77.2566 98.4978 76.9633C98.6194 76.6699 98.8249 76.4192 99.0885 76.2429C99.352 76.0666 99.6617 75.9725 99.9786 75.9724C100.19 75.9724 100.399 76.0143 100.594 76.0955C100.789 76.1767 100.966 76.2958 101.115 76.4458C101.264 76.5958 101.382 76.7739 101.462 76.9697C101.542 77.1656 101.583 77.3754 101.582 77.5871Z" fill="#9F9F9F"/>
<path d="M118 77.5871C118 77.9082 117.904 78.222 117.725 78.4883C117.546 78.7547 117.292 78.9615 116.996 79.0824C116.699 79.2033 116.373 79.2327 116.06 79.1669C115.746 79.1012 115.459 78.9432 115.236 78.7131C115.012 78.4831 114.862 78.1915 114.805 77.8756C114.748 77.5597 114.786 77.2338 114.914 76.9396C115.042 76.6454 115.255 76.3962 115.526 76.2239C115.796 76.0517 116.111 75.9641 116.431 75.9724C116.852 75.9816 117.252 76.156 117.545 76.458C117.839 76.76 118.002 77.1655 118 77.5871Z" fill="#9F9F9F"/>
<path d="M68.7531 90.3993C68.7504 90.7181 68.6536 91.0289 68.475 91.2926C68.2963 91.5562 68.0439 91.761 67.7494 91.8811C67.4549 92.0011 67.1315 92.0311 66.8201 91.9673C66.5086 91.9034 66.223 91.7485 65.9991 91.5222C65.7753 91.2958 65.6233 91.0081 65.5623 90.6953C65.5013 90.3824 65.534 90.0585 65.6562 89.7643C65.7785 89.4701 65.9849 89.2187 66.2495 89.0419C66.514 88.8651 66.8248 88.7707 67.1427 88.7707C67.3554 88.7707 67.5659 88.8129 67.7622 88.895C67.9585 88.977 68.1367 89.0972 68.2864 89.2486C68.4361 89.4 68.5545 89.5797 68.6346 89.7772C68.7147 89.9747 68.755 90.1861 68.7531 90.3993Z" fill="#9F9F9F"/>
<path d="M85.1711 90.3993C85.1683 90.7181 85.0715 91.0289 84.8929 91.2926C84.7143 91.5562 84.4618 91.761 84.1673 91.8811C83.8728 92.0011 83.5495 92.0311 83.238 91.9673C82.9265 91.9034 82.6409 91.7485 82.4171 91.5222C82.1932 91.2958 82.0412 91.0081 81.9802 90.6953C81.9192 90.3824 81.9519 90.0585 82.0742 89.7643C82.1965 89.4701 82.4029 89.2187 82.6674 89.0419C82.9319 88.8651 83.2427 88.7707 83.5606 88.7707C83.773 88.7716 83.9832 88.8145 84.179 88.8968C84.3749 88.9792 84.5527 89.0994 84.7023 89.2506C84.8518 89.4019 84.9702 89.5811 85.0506 89.7782C85.131 89.9753 85.172 90.1864 85.1711 90.3993Z" fill="#9F9F9F"/>
<path d="M101.582 90.3993C101.578 90.7164 101.48 91.0251 101.302 91.2867C101.123 91.5483 100.871 91.7511 100.578 91.8696C100.284 91.9881 99.9628 92.0169 99.6531 91.9525C99.3435 91.8882 99.0597 91.7334 98.8376 91.5078C98.6154 91.2821 98.4648 90.9957 98.4046 90.6844C98.3444 90.3731 98.3773 90.0509 98.4993 89.7584C98.6212 89.4659 98.8267 89.216 99.0899 89.0403C99.3531 88.8645 99.6623 88.7708 99.9786 88.7707C100.191 88.7716 100.4 88.8145 100.596 88.897C100.791 88.9794 100.969 89.0997 101.118 89.2511C101.267 89.4024 101.384 89.5817 101.464 89.7788C101.544 89.9758 101.584 90.1867 101.582 90.3993Z" fill="#9F9F9F"/>
<path d="M118 90.3993C117.997 90.7198 117.899 91.0322 117.719 91.2967C117.538 91.5612 117.283 91.7659 116.986 91.8846C116.689 92.0033 116.364 92.0308 116.051 91.9634C115.739 91.8961 115.453 91.737 115.231 91.5064C115.009 91.2759 114.86 90.9843 114.804 90.6688C114.748 90.3532 114.787 90.0281 114.915 89.7347C115.044 89.4413 115.257 89.193 115.527 89.0213C115.797 88.8497 116.112 88.7624 116.431 88.7707C116.854 88.7817 117.255 88.9586 117.548 89.2632C117.841 89.5679 118.004 89.9759 118 90.3993Z" fill="#9F9F9F"/>
</svg>
