<svg width="214" height="22" viewBox="0 0 214 22" fill="none" xmlns="http://www.w3.org/2000/svg">
<path d="M4.90869 15.0501C6.59843 14.9807 8.28504 14.8356 9.96514 14.7253L12.0164 14.5584L21.0676 13.7942C24.6467 13.4866 28.2521 13.1732 31.8837 12.8543L47.338 11.4691L50.8781 11.1791L59.8818 10.4168L68.8874 9.70264C70.0674 9.60597 71.2628 9.49492 72.4196 9.41297L86.7939 8.42991L95.6372 7.82559C96.7875 7.7783 97.9426 7.65514 99.1003 7.59379L113 6.85726L126.725 6.11416C127.939 6.06426 129.105 6.01632 130.35 5.96512L139.313 5.56225L153.232 4.91434L157.794 4.72681L167.314 4.33545L168.107 4.30283C160.949 4.67964 153.792 5.06101 146.635 5.44697L137.701 5.97934C136.416 6.03218 135.123 6.08534 133.832 6.18657L120.866 7.02229L105.879 7.98926C105.038 8.02383 104.2 8.1202 103.368 8.18878L95.3852 8.8403L79.2048 10.1521C78.4115 10.1847 77.6213 10.2929 76.83 10.3736L68.9166 11.1736L54.7834 12.6076C53.4855 12.7366 52.189 12.9 50.892 13.0496L41.845 14.1095L30.3363 15.4012L14.3381 17.2765L10.4946 17.7235C8.20113 17.9897 5.91901 18.3381 3.63546 18.6521C3.57129 18.6473 3.50653 18.6545 3.44552 18.6732C3.38451 18.6919 3.32866 18.7216 3.2817 18.7603C3.23475 18.799 3.19778 18.8459 3.17327 18.8978C3.14876 18.9497 3.13727 19.0054 3.13958 19.0611C3.14189 19.1169 3.15795 19.1715 3.18667 19.2212C3.21538 19.2709 3.25611 19.3146 3.3061 19.3493C3.3561 19.3841 3.41422 19.4091 3.47656 19.4227C3.53891 19.4363 3.60404 19.4381 3.6676 19.4281L6.18636 19.4209C6.08601 19.6131 6.03759 19.8222 6.0448 20.0321C6.06255 20.4103 6.25208 20.7654 6.57215 21.0201C6.89223 21.2749 7.31698 21.4088 7.75404 21.3926C14.2999 20.7658 20.8446 20.1115 27.402 19.5737L44.4772 18.1838L63.3496 16.6306L69.297 16.1384C69.8682 16.1149 70.4371 16.0365 71.0077 15.9993L101.442 14.0602L117.705 13.0201C119.671 12.898 121.629 12.7763 123.587 12.6683L154.723 10.9686L168.067 10.2343C171.864 10.0231 175.663 9.84632 179.458 9.56649L188.862 8.87033C190.446 8.75703 192.032 8.65746 193.551 8.51244L204.195 7.44885C204.009 7.75661 203.97 8.1142 204.086 8.44396C204.202 8.76346 204.458 9.02948 204.8 9.18506C204.973 9.26655 205.165 9.31602 205.362 9.33039C205.56 9.34476 205.759 9.32372 205.947 9.26858C206.73 8.96814 207.512 8.66082 208.238 8.34893L208.19 8.35088L208.354 8.28223L208.549 8.19854L208.478 8.20147L209.689 7.70454L210.963 7.17752C211.415 6.98005 211.859 6.74858 212.294 6.52429C212.534 6.3855 212.728 6.19554 212.858 5.97308C212.988 5.75063 213.05 5.50334 213.036 5.25554C213.023 4.94413 212.892 4.64625 212.664 4.40725C212.436 4.16825 212.124 4.00123 211.774 3.93163C211.367 3.88645 210.976 3.85436 210.57 3.82979L210.3 3.84088C210.03 3.85197 209.753 3.86338 209.509 3.92156C208.906 3.94635 208.308 4.08788 207.706 4.147L206.227 4.30414L202.27 4.71443L201.242 4.81863C201.361 4.69025 201.447 4.54117 201.494 4.38177C201.551 4.25542 201.58 4.12123 201.581 3.98608L201.616 3.68883C201.609 3.56451 201.577 3.44245 201.522 3.32811L201.623 3.28267C201.865 3.14674 202.065 2.96123 202.205 2.74283C202.328 2.52149 202.389 2.2784 202.382 2.03387C202.367 1.7784 202.278 1.53112 202.122 1.31538L201.848 1.03771C201.636 0.86864 201.377 0.751212 201.095 0.697201C200.579 0.56266 200.038 0.512589 199.499 0.549538C199.063 0.567475 198.611 0.586065 198.176 0.63834L196.256 0.717264C195.352 0.754443 194.455 0.791297 193.551 0.828476L186.411 1.122C184.166 1.21429 181.921 1.30659 179.676 1.39889L173.552 1.65066C165.412 1.98528 157.283 2.36077 149.146 2.76406L130.847 3.76401C128.118 3.8762 125.399 4.043 122.673 4.21013L104.345 5.30066L99.1215 5.61173C98.106 5.65348 97.1011 5.7567 96.0871 5.83278L77.9846 7.1686L72.4391 7.58232C71.4092 7.65905 70.3723 7.75672 69.343 7.84719L51.4014 9.42404C48.3055 9.69577 45.2185 9.98778 42.1235 10.2801L26.2536 11.7993C21.6706 12.2354 17.0865 12.644 12.5023 13.0526L10.3253 13.2521L6.80191 13.5621C5.75645 13.6463 4.71014 13.71 3.63039 13.7337C3.57583 13.6158 3.47989 13.5161 3.35598 13.4484C3.23207 13.3807 3.08639 13.3485 2.9393 13.3563C2.26698 13.4321 1.59524 13.5216 0.923486 13.6111C0.767177 13.6268 0.619232 13.6823 0.498397 13.7706C0.377562 13.8588 0.289275 13.9758 0.244722 14.1068C0.203356 14.2727 0.239468 14.4453 0.345137 14.5866C0.450806 14.728 0.617403 14.8267 0.80838 14.861L1.69634 15.0033C1.99128 15.0436 2.28971 15.0635 2.58883 15.0629C3.36089 15.0931 4.1389 15.0749 4.90869 15.0501ZM190.451 5.21411L193.41 5.09246C193.503 5.28026 193.646 5.44624 193.827 5.57747C193.447 5.6206 193.068 5.65686 192.687 5.68624L190.532 5.84363L181.112 6.5267C179.678 6.6338 178.245 6.76151 176.81 6.84114L170.079 7.20731L154.698 8.0529L124.839 9.69317C117.703 10.0828 110.571 10.5686 103.438 11.027L71.2923 13.0846C69.1447 13.2279 66.9917 13.4334 64.8456 13.611L46.5835 15.1254L28.6618 16.6051L26.9987 16.7423L31.8242 16.2137L48.6831 14.3993L54.5691 13.7652L57.6086 13.4752L75.1509 11.8528C76.2907 11.7441 77.43 11.6216 78.5786 11.5331L83.5608 11.1425L101.662 9.78608L105.624 9.49253C105.973 9.47818 106.322 9.46383 106.679 9.44916L109.477 9.28596L127.622 8.21667C130.405 8.05412 133.171 7.88536 135.979 7.74931C144.98 7.31733 153.973 6.86509 162.944 6.46189C172.12 6.02961 181.288 5.59766 190.459 5.21378L190.451 5.21411Z" fill="#FFCD1F"/>
</svg>
