<svg width="114" height="114" viewBox="0 0 114 114" fill="none" xmlns="http://www.w3.org/2000/svg">
<path d="M2.43144 1.2252C2.43144 1.46752 2.36014 1.7044 2.22655 1.90588C2.09297 2.10736 1.9031 2.26439 1.68095 2.35712C1.45881 2.44985 1.21437 2.47411 0.978544 2.42684C0.742718 2.37957 0.526098 2.26288 0.356077 2.09154C0.186055 1.92019 0.0702695 1.70189 0.0233608 1.46422C-0.023548 1.22656 0.000527307 0.980221 0.0925421 0.75635C0.184557 0.532478 0.340378 0.341131 0.540302 0.206507C0.740226 0.0718832 0.975272 2.77852e-05 1.21572 2.77852e-05C1.37558 -0.000741238 1.53401 0.0304239 1.68186 0.0917225C1.8297 0.153021 1.96402 0.243237 2.07706 0.357159C2.1901 0.471081 2.27962 0.606449 2.34045 0.755441C2.40127 0.904434 2.4322 1.0641 2.43144 1.2252Z" fill="#6F6F6F"/>
<path d="M18.2876 1.22519C18.2876 1.46751 18.2163 1.70438 18.0827 1.90586C17.9492 2.10734 17.7593 2.26438 17.5371 2.35711C17.315 2.44984 17.0706 2.4741 16.8347 2.42683C16.5989 2.37955 16.3823 2.26287 16.2123 2.09152C16.0422 1.92018 15.9265 1.70187 15.8795 1.46421C15.8326 1.22655 15.8567 0.980208 15.9487 0.756336C16.0407 0.532464 16.1966 0.341118 16.3965 0.206493C16.5964 0.0718693 16.8315 1.38926e-05 17.0719 1.38926e-05C17.2318 -0.000755131 17.3902 0.03041 17.538 0.0917086C17.6859 0.153007 17.8202 0.243224 17.9332 0.357145C18.0463 0.471067 18.1358 0.606435 18.1966 0.755427C18.2575 0.90442 18.2884 1.06408 18.2876 1.22519Z" fill="#6F6F6F"/>
<path d="M34.1438 1.22519C34.1438 1.46751 34.0725 1.70438 33.9389 1.90586C33.8053 2.10734 33.6155 2.26438 33.3933 2.35711C33.1712 2.44984 32.9267 2.4741 32.6909 2.42683C32.4551 2.37955 32.2385 2.26287 32.0684 2.09152C31.8984 1.92018 31.7826 1.70187 31.7357 1.46421C31.6888 1.22655 31.7129 0.980208 31.8049 0.756336C31.8969 0.532464 32.0527 0.341118 32.2527 0.206493C32.4526 0.0718693 32.6876 1.38926e-05 32.9281 1.38926e-05C33.088 -0.000755131 33.2464 0.03041 33.3942 0.0917086C33.5421 0.153007 33.6764 0.243224 33.7894 0.357145C33.9025 0.471067 33.992 0.606435 34.0528 0.755427C34.1136 0.90442 34.1446 1.06408 34.1438 1.22519Z" fill="#6F6F6F"/>
<path d="M48.7843 2.45037C49.4557 2.45037 50 1.90184 50 1.22519C50 0.548544 49.4557 1.38926e-05 48.7843 1.38926e-05C48.1129 1.38926e-05 47.5686 0.548544 47.5686 1.22519C47.5686 1.90184 48.1129 2.45037 48.7843 2.45037Z" fill="#6F6F6F"/>
<path d="M2.43144 17.0654C2.43144 17.3077 2.36014 17.5446 2.22655 17.7461C2.09297 17.9475 1.9031 18.1046 1.68095 18.1973C1.45881 18.29 1.21437 18.3143 0.978543 18.267C0.742717 18.2198 0.526097 18.1031 0.356076 17.9317C0.186055 17.7604 0.070269 17.5421 0.0233602 17.3044C-0.0235485 17.0667 0.000526756 16.8204 0.0925415 16.5965C0.184556 16.3727 0.340378 16.1813 0.540302 16.0467C0.740225 15.9121 0.975272 15.8402 1.21572 15.8402C1.37558 15.8394 1.53401 15.8706 1.68185 15.9319C1.8297 15.9932 1.96402 16.0834 2.07706 16.1973C2.1901 16.3113 2.27962 16.4466 2.34045 16.5956C2.40127 16.7446 2.4322 16.9043 2.43144 17.0654Z" fill="#6F6F6F"/>
<path d="M18.2876 17.0654C18.2876 17.3077 18.2163 17.5446 18.0827 17.7461C17.9492 17.9475 17.7593 18.1046 17.5371 18.1973C17.315 18.29 17.0706 18.3143 16.8347 18.267C16.5989 18.2198 16.3823 18.1031 16.2123 17.9317C16.0422 17.7604 15.9265 17.5421 15.8795 17.3044C15.8326 17.0667 15.8567 16.8204 15.9487 16.5965C16.0407 16.3727 16.1966 16.1813 16.3965 16.0467C16.5964 15.9121 16.8315 15.8402 17.0719 15.8402C17.2318 15.8394 17.3902 15.8706 17.538 15.9319C17.6859 15.9932 17.8202 16.0834 17.9332 16.1973C18.0463 16.3113 18.1358 16.4466 18.1966 16.5956C18.2575 16.7446 18.2884 16.9043 18.2876 17.0654Z" fill="#6F6F6F"/>
<path d="M34.1438 17.0654C34.1438 17.3077 34.0725 17.5446 33.9389 17.7461C33.8053 17.9475 33.6155 18.1046 33.3933 18.1973C33.1712 18.29 32.9267 18.3143 32.6909 18.267C32.4551 18.2198 32.2385 18.1031 32.0684 17.9317C31.8984 17.7604 31.7826 17.5421 31.7357 17.3044C31.6888 17.0667 31.7129 16.8204 31.8049 16.5965C31.8969 16.3727 32.0527 16.1813 32.2527 16.0467C32.4526 15.9121 32.6876 15.8402 32.9281 15.8402C33.088 15.8394 33.2464 15.8706 33.3942 15.9319C33.5421 15.9932 33.6764 16.0834 33.7894 16.1973C33.9025 16.3113 33.992 16.4466 34.0528 16.5956C34.1136 16.7446 34.1446 16.9043 34.1438 17.0654Z" fill="#6F6F6F"/>
<path d="M48.7843 18.2906C49.4557 18.2906 50 17.742 50 17.0654C50 16.3887 49.4557 15.8402 48.7843 15.8402C48.1129 15.8402 47.5686 16.3887 47.5686 17.0654C47.5686 17.742 48.1129 18.2906 48.7843 18.2906Z" fill="#6F6F6F"/>
<path d="M2.43144 32.9056C2.43144 33.1479 2.36014 33.3848 2.22655 33.5863C2.09297 33.7877 1.9031 33.9448 1.68095 34.0375C1.45881 34.1302 1.21437 34.1545 0.978543 34.1072C0.742717 34.06 0.526097 33.9433 0.356076 33.7719C0.186055 33.6006 0.070269 33.3823 0.0233602 33.1446C-0.0235485 32.907 0.000526756 32.6606 0.0925415 32.4367C0.184556 32.2129 0.340378 32.0215 0.540302 31.8869C0.740225 31.7523 0.975272 31.6804 1.21572 31.6804C1.37558 31.6796 1.53401 31.7108 1.68185 31.7721C1.8297 31.8334 1.96402 31.9236 2.07706 32.0375C2.1901 32.1515 2.27962 32.2868 2.34045 32.4358C2.40127 32.5848 2.4322 32.7445 2.43144 32.9056Z" fill="#6F6F6F"/>
<path d="M18.2876 32.9056C18.2876 33.1479 18.2163 33.3848 18.0827 33.5863C17.9492 33.7877 17.7593 33.9448 17.5371 34.0375C17.315 34.1302 17.0706 34.1545 16.8347 34.1072C16.5989 34.06 16.3823 33.9433 16.2123 33.7719C16.0422 33.6006 15.9265 33.3823 15.8795 33.1446C15.8326 32.907 15.8567 32.6606 15.9487 32.4367C16.0407 32.2129 16.1966 32.0215 16.3965 31.8869C16.5964 31.7523 16.8315 31.6804 17.0719 31.6804C17.2318 31.6796 17.3902 31.7108 17.538 31.7721C17.6859 31.8334 17.8202 31.9236 17.9332 32.0375C18.0463 32.1515 18.1358 32.2868 18.1966 32.4358C18.2575 32.5848 18.2884 32.7445 18.2876 32.9056Z" fill="#6F6F6F"/>
<path d="M34.1438 32.9056C34.1438 33.1479 34.0725 33.3848 33.9389 33.5863C33.8053 33.7877 33.6155 33.9448 33.3933 34.0375C33.1712 34.1302 32.9267 34.1545 32.6909 34.1072C32.4551 34.06 32.2385 33.9433 32.0684 33.7719C31.8984 33.6006 31.7826 33.3823 31.7357 33.1446C31.6888 32.907 31.7129 32.6606 31.8049 32.4367C31.8969 32.2129 32.0527 32.0215 32.2527 31.8869C32.4526 31.7523 32.6876 31.6804 32.9281 31.6804C33.088 31.6796 33.2464 31.7108 33.3942 31.7721C33.5421 31.8334 33.6764 31.9236 33.7894 32.0375C33.9025 32.1515 33.992 32.2868 34.0528 32.4358C34.1136 32.5848 34.1446 32.7445 34.1438 32.9056Z" fill="#6F6F6F"/>
<path d="M50 32.9056C50 33.1479 49.9287 33.3848 49.7951 33.5863C49.6615 33.7877 49.4717 33.9448 49.2495 34.0375C49.0274 34.1302 48.7829 34.1545 48.5471 34.1072C48.3113 34.06 48.0946 33.9433 47.9246 33.7719C47.7546 33.6006 47.6388 33.3823 47.5919 33.1446C47.545 32.907 47.5691 32.6606 47.6611 32.4367C47.7531 32.2129 47.9089 32.0215 48.1089 31.8869C48.3088 31.7523 48.5438 31.6804 48.7843 31.6804C48.9441 31.6796 49.1026 31.7108 49.2504 31.7721C49.3983 31.8334 49.5326 31.9236 49.6456 32.0375C49.7587 32.1515 49.8482 32.2868 49.909 32.4358C49.9698 32.5848 50.0008 32.7445 50 32.9056Z" fill="#6F6F6F"/>
<path d="M2.43144 48.7748C2.43144 49.0171 2.36014 49.254 2.22655 49.4555C2.09297 49.657 1.9031 49.814 1.68095 49.9067C1.45881 49.9995 1.21437 50.0237 0.978543 49.9765C0.742717 49.9292 0.526097 49.8125 0.356076 49.6412C0.186055 49.4698 0.070269 49.2515 0.0233602 49.0138C-0.0235485 48.7762 0.000526756 48.5298 0.0925415 48.306C0.184556 48.0821 0.340378 47.8907 0.540302 47.7561C0.740225 47.6215 0.975272 47.5496 1.21572 47.5496C1.37558 47.5489 1.53401 47.58 1.68185 47.6413C1.8297 47.7026 1.96402 47.7929 2.07706 47.9068C2.1901 48.0207 2.27962 48.1561 2.34045 48.3051C2.40127 48.454 2.4322 48.6137 2.43144 48.7748Z" fill="#6F6F6F"/>
<path d="M18.2876 48.7748C18.2876 49.0171 18.2163 49.254 18.0827 49.4555C17.9492 49.657 17.7593 49.814 17.5371 49.9067C17.315 49.9995 17.0706 50.0237 16.8347 49.9765C16.5989 49.9292 16.3823 49.8125 16.2123 49.6412C16.0422 49.4698 15.9265 49.2515 15.8795 49.0138C15.8326 48.7762 15.8567 48.5298 15.9487 48.306C16.0407 48.0821 16.1966 47.8907 16.3965 47.7561C16.5964 47.6215 16.8315 47.5496 17.0719 47.5496C17.2318 47.5489 17.3902 47.58 17.538 47.6413C17.6859 47.7026 17.8202 47.7929 17.9332 47.9068C18.0463 48.0207 18.1358 48.1561 18.1966 48.3051C18.2575 48.454 18.2884 48.6137 18.2876 48.7748Z" fill="#6F6F6F"/>
<path d="M34.1438 48.7748C34.1438 49.0171 34.0725 49.254 33.9389 49.4555C33.8053 49.657 33.6155 49.814 33.3933 49.9067C33.1712 49.9995 32.9267 50.0237 32.6909 49.9765C32.4551 49.9292 32.2385 49.8125 32.0684 49.6412C31.8984 49.4698 31.7826 49.2515 31.7357 49.0138C31.6888 48.7762 31.7129 48.5298 31.8049 48.306C31.8969 48.0821 32.0527 47.8907 32.2527 47.7561C32.4526 47.6215 32.6876 47.5496 32.9281 47.5496C33.088 47.5489 33.2464 47.58 33.3942 47.6413C33.5421 47.7026 33.6764 47.7929 33.7894 47.9068C33.9025 48.0207 33.992 48.1561 34.0528 48.3051C34.1136 48.454 34.1446 48.6137 34.1438 48.7748Z" fill="#6F6F6F"/>
<path d="M48.7843 49.971C49.4557 49.971 50 49.4224 50 48.7458C50 48.0691 49.4557 47.5206 48.7843 47.5206C48.1129 47.5206 47.5686 48.0691 47.5686 48.7458C47.5686 49.4224 48.1129 49.971 48.7843 49.971Z" fill="#6F6F6F"/>
<path d="M66.4314 1.2252C66.4314 1.46752 66.3601 1.7044 66.2265 1.90588C66.093 2.10736 65.9031 2.26439 65.681 2.35712C65.4588 2.44985 65.2144 2.47411 64.9785 2.42684C64.7427 2.37957 64.5261 2.26288 64.3561 2.09154C64.1861 1.92019 64.0703 1.70189 64.0234 1.46422C63.9765 1.22656 64.0005 0.980221 64.0925 0.75635C64.1846 0.532478 64.3404 0.341131 64.5403 0.206507C64.7402 0.0718832 64.9753 2.77852e-05 65.2157 2.77852e-05C65.3756 -0.000741238 65.534 0.0304239 65.6819 0.0917225C65.8297 0.153021 65.964 0.243237 66.0771 0.357159C66.1901 0.471081 66.2796 0.606449 66.3404 0.755441C66.4013 0.904434 66.4322 1.0641 66.4314 1.2252Z" fill="#6F6F6F"/>
<path d="M82.2876 1.22519C82.2876 1.46751 82.2163 1.70438 82.0827 1.90586C81.9492 2.10734 81.7593 2.26438 81.5371 2.35711C81.315 2.44984 81.0705 2.4741 80.8347 2.42683C80.5989 2.37955 80.3823 2.26287 80.2123 2.09152C80.0422 1.92018 79.9265 1.70187 79.8795 1.46421C79.8326 1.22655 79.8567 0.980208 79.9487 0.756336C80.0407 0.532464 80.1966 0.341118 80.3965 0.206493C80.5964 0.0718693 80.8315 1.38926e-05 81.0719 1.38926e-05C81.2318 -0.000755131 81.3902 0.03041 81.538 0.0917086C81.6859 0.153007 81.8202 0.243224 81.9332 0.357145C82.0463 0.471067 82.1358 0.606435 82.1966 0.755427C82.2575 0.90442 82.2884 1.06408 82.2876 1.22519Z" fill="#6F6F6F"/>
<path d="M98.1438 1.22519C98.1438 1.46751 98.0725 1.70438 97.9389 1.90586C97.8053 2.10734 97.6155 2.26438 97.3933 2.35711C97.1712 2.44984 96.9267 2.4741 96.6909 2.42683C96.4551 2.37955 96.2385 2.26287 96.0684 2.09152C95.8984 1.92018 95.7826 1.70187 95.7357 1.46421C95.6888 1.22655 95.7129 0.980208 95.8049 0.756336C95.8969 0.532464 96.0527 0.341118 96.2527 0.206493C96.4526 0.0718693 96.6876 1.38926e-05 96.9281 1.38926e-05C97.088 -0.000755131 97.2464 0.03041 97.3942 0.0917086C97.5421 0.153007 97.6764 0.243224 97.7894 0.357145C97.9025 0.471067 97.992 0.606435 98.0528 0.755427C98.1136 0.90442 98.1446 1.06408 98.1438 1.22519Z" fill="#6F6F6F"/>
<path d="M112.784 2.45037C113.456 2.45037 114 1.90184 114 1.22519C114 0.548544 113.456 1.38926e-05 112.784 1.38926e-05C112.113 1.38926e-05 111.569 0.548544 111.569 1.22519C111.569 1.90184 112.113 2.45037 112.784 2.45037Z" fill="#6F6F6F"/>
<path d="M66.4314 17.0654C66.4314 17.3077 66.3601 17.5446 66.2265 17.7461C66.093 17.9475 65.9031 18.1046 65.681 18.1973C65.4588 18.29 65.2144 18.3143 64.9785 18.267C64.7427 18.2198 64.5261 18.1031 64.3561 17.9317C64.1861 17.7604 64.0703 17.5421 64.0234 17.3044C63.9765 17.0667 64.0005 16.8204 64.0925 16.5965C64.1846 16.3727 64.3404 16.1813 64.5403 16.0467C64.7402 15.9121 64.9753 15.8402 65.2157 15.8402C65.3756 15.8394 65.534 15.8706 65.6819 15.9319C65.8297 15.9932 65.964 16.0834 66.0771 16.1973C66.1901 16.3113 66.2796 16.4466 66.3404 16.5956C66.4013 16.7446 66.4322 16.9043 66.4314 17.0654Z" fill="#6F6F6F"/>
<path d="M82.2876 17.0654C82.2876 17.3077 82.2163 17.5446 82.0827 17.7461C81.9492 17.9475 81.7593 18.1046 81.5371 18.1973C81.315 18.29 81.0705 18.3143 80.8347 18.267C80.5989 18.2198 80.3823 18.1031 80.2123 17.9317C80.0422 17.7604 79.9265 17.5421 79.8795 17.3044C79.8326 17.0667 79.8567 16.8204 79.9487 16.5965C80.0407 16.3727 80.1966 16.1813 80.3965 16.0467C80.5964 15.9121 80.8315 15.8402 81.0719 15.8402C81.2318 15.8394 81.3902 15.8706 81.538 15.9319C81.6859 15.9932 81.8202 16.0834 81.9332 16.1973C82.0463 16.3113 82.1358 16.4466 82.1966 16.5956C82.2575 16.7446 82.2884 16.9043 82.2876 17.0654Z" fill="#6F6F6F"/>
<path d="M98.1438 17.0654C98.1438 17.3077 98.0725 17.5446 97.9389 17.7461C97.8053 17.9475 97.6155 18.1046 97.3933 18.1973C97.1712 18.29 96.9267 18.3143 96.6909 18.267C96.4551 18.2198 96.2385 18.1031 96.0684 17.9317C95.8984 17.7604 95.7826 17.5421 95.7357 17.3044C95.6888 17.0667 95.7129 16.8204 95.8049 16.5965C95.8969 16.3727 96.0527 16.1813 96.2527 16.0467C96.4526 15.9121 96.6876 15.8402 96.9281 15.8402C97.088 15.8394 97.2464 15.8706 97.3942 15.9319C97.5421 15.9932 97.6764 16.0834 97.7894 16.1973C97.9025 16.3113 97.992 16.4466 98.0528 16.5956C98.1136 16.7446 98.1446 16.9043 98.1438 17.0654Z" fill="#6F6F6F"/>
<path d="M112.784 18.2906C113.456 18.2906 114 17.742 114 17.0654C114 16.3887 113.456 15.8402 112.784 15.8402C112.113 15.8402 111.569 16.3887 111.569 17.0654C111.569 17.742 112.113 18.2906 112.784 18.2906Z" fill="#6F6F6F"/>
<path d="M66.4314 32.9056C66.4314 33.1479 66.3601 33.3848 66.2265 33.5863C66.093 33.7877 65.9031 33.9448 65.681 34.0375C65.4588 34.1302 65.2144 34.1545 64.9785 34.1072C64.7427 34.06 64.5261 33.9433 64.3561 33.7719C64.1861 33.6006 64.0703 33.3823 64.0234 33.1446C63.9765 32.907 64.0005 32.6606 64.0925 32.4367C64.1846 32.2129 64.3404 32.0215 64.5403 31.8869C64.7402 31.7523 64.9753 31.6804 65.2157 31.6804C65.3756 31.6796 65.534 31.7108 65.6819 31.7721C65.8297 31.8334 65.964 31.9236 66.0771 32.0375C66.1901 32.1515 66.2796 32.2868 66.3404 32.4358C66.4013 32.5848 66.4322 32.7445 66.4314 32.9056Z" fill="#6F6F6F"/>
<path d="M82.2876 32.9056C82.2876 33.1479 82.2163 33.3848 82.0827 33.5863C81.9492 33.7877 81.7593 33.9448 81.5371 34.0375C81.315 34.1302 81.0705 34.1545 80.8347 34.1072C80.5989 34.06 80.3823 33.9433 80.2123 33.7719C80.0422 33.6006 79.9265 33.3823 79.8795 33.1446C79.8326 32.907 79.8567 32.6606 79.9487 32.4367C80.0407 32.2129 80.1966 32.0215 80.3965 31.8869C80.5964 31.7523 80.8315 31.6804 81.0719 31.6804C81.2318 31.6796 81.3902 31.7108 81.538 31.7721C81.6859 31.8334 81.8202 31.9236 81.9332 32.0375C82.0463 32.1515 82.1358 32.2868 82.1966 32.4358C82.2575 32.5848 82.2884 32.7445 82.2876 32.9056Z" fill="#6F6F6F"/>
<path d="M98.1438 32.9056C98.1438 33.1479 98.0725 33.3848 97.9389 33.5863C97.8053 33.7877 97.6155 33.9448 97.3933 34.0375C97.1712 34.1302 96.9267 34.1545 96.6909 34.1072C96.4551 34.06 96.2385 33.9433 96.0684 33.7719C95.8984 33.6006 95.7826 33.3823 95.7357 33.1446C95.6888 32.907 95.7129 32.6606 95.8049 32.4367C95.8969 32.2129 96.0527 32.0215 96.2527 31.8869C96.4526 31.7523 96.6876 31.6804 96.9281 31.6804C97.088 31.6796 97.2464 31.7108 97.3942 31.7721C97.5421 31.8334 97.6764 31.9236 97.7894 32.0375C97.9025 32.1515 97.992 32.2868 98.0528 32.4358C98.1136 32.5848 98.1446 32.7445 98.1438 32.9056Z" fill="#6F6F6F"/>
<path d="M114 32.9056C114 33.1479 113.929 33.3848 113.795 33.5863C113.662 33.7877 113.472 33.9448 113.25 34.0375C113.027 34.1302 112.783 34.1545 112.547 34.1072C112.311 34.06 112.095 33.9433 111.925 33.7719C111.755 33.6006 111.639 33.3823 111.592 33.1446C111.545 32.907 111.569 32.6606 111.661 32.4367C111.753 32.2129 111.909 32.0215 112.109 31.8869C112.309 31.7523 112.544 31.6804 112.784 31.6804C112.944 31.6796 113.103 31.7108 113.25 31.7721C113.398 31.8334 113.533 31.9236 113.646 32.0375C113.759 32.1515 113.848 32.2868 113.909 32.4358C113.97 32.5848 114.001 32.7445 114 32.9056Z" fill="#6F6F6F"/>
<path d="M66.4314 48.7748C66.4314 49.0171 66.3601 49.254 66.2265 49.4555C66.093 49.657 65.9031 49.814 65.681 49.9067C65.4588 49.9995 65.2144 50.0237 64.9785 49.9765C64.7427 49.9292 64.5261 49.8125 64.3561 49.6412C64.1861 49.4698 64.0703 49.2515 64.0234 49.0138C63.9765 48.7762 64.0005 48.5298 64.0925 48.306C64.1846 48.0821 64.3404 47.8907 64.5403 47.7561C64.7402 47.6215 64.9753 47.5496 65.2157 47.5496C65.3756 47.5489 65.534 47.58 65.6819 47.6413C65.8297 47.7026 65.964 47.7929 66.0771 47.9068C66.1901 48.0207 66.2796 48.1561 66.3404 48.3051C66.4013 48.454 66.4322 48.6137 66.4314 48.7748Z" fill="#6F6F6F"/>
<path d="M82.2876 48.7748C82.2876 49.0171 82.2163 49.254 82.0827 49.4555C81.9492 49.657 81.7593 49.814 81.5371 49.9067C81.315 49.9995 81.0705 50.0237 80.8347 49.9765C80.5989 49.9292 80.3823 49.8125 80.2123 49.6412C80.0422 49.4698 79.9265 49.2515 79.8795 49.0138C79.8326 48.7762 79.8567 48.5298 79.9487 48.306C80.0407 48.0821 80.1966 47.8907 80.3965 47.7561C80.5964 47.6215 80.8315 47.5496 81.0719 47.5496C81.2318 47.5489 81.3902 47.58 81.538 47.6413C81.6859 47.7026 81.8202 47.7929 81.9332 47.9068C82.0463 48.0207 82.1358 48.1561 82.1966 48.3051C82.2575 48.454 82.2884 48.6137 82.2876 48.7748Z" fill="#6F6F6F"/>
<path d="M98.1438 48.7748C98.1438 49.0171 98.0725 49.254 97.9389 49.4555C97.8053 49.657 97.6155 49.814 97.3933 49.9067C97.1712 49.9995 96.9267 50.0237 96.6909 49.9765C96.4551 49.9292 96.2385 49.8125 96.0684 49.6412C95.8984 49.4698 95.7826 49.2515 95.7357 49.0138C95.6888 48.7762 95.7129 48.5298 95.8049 48.306C95.8969 48.0821 96.0527 47.8907 96.2527 47.7561C96.4526 47.6215 96.6876 47.5496 96.9281 47.5496C97.088 47.5489 97.2464 47.58 97.3942 47.6413C97.5421 47.7026 97.6764 47.7929 97.7894 47.9068C97.9025 48.0207 97.992 48.1561 98.0528 48.3051C98.1136 48.454 98.1446 48.6137 98.1438 48.7748Z" fill="#6F6F6F"/>
<path d="M112.784 49.971C113.456 49.971 114 49.4224 114 48.7458C114 48.0691 113.456 47.5206 112.784 47.5206C112.113 47.5206 111.569 48.0691 111.569 48.7458C111.569 49.4224 112.113 49.971 112.784 49.971Z" fill="#6F6F6F"/>
<path d="M2.43144 65.2252C2.43144 65.4675 2.36014 65.7044 2.22655 65.9059C2.09297 66.1074 1.9031 66.2644 1.68095 66.3571C1.45881 66.4498 1.21437 66.4741 0.978544 66.4268C0.742718 66.3796 0.526098 66.2629 0.356077 66.0915C0.186055 65.9202 0.0702695 65.7019 0.0233608 65.4642C-0.023548 65.2266 0.000527307 64.9802 0.0925421 64.7563C0.184557 64.5325 0.340378 64.3411 0.540302 64.2065C0.740226 64.0719 0.975272 64 1.21572 64C1.37558 63.9993 1.53401 64.0304 1.68186 64.0917C1.8297 64.153 1.96402 64.2432 2.07706 64.3572C2.1901 64.4711 2.27962 64.6064 2.34045 64.7554C2.40127 64.9044 2.4322 65.0641 2.43144 65.2252Z" fill="#6F6F6F"/>
<path d="M18.2876 65.2252C18.2876 65.4675 18.2163 65.7044 18.0827 65.9059C17.9492 66.1073 17.7593 66.2644 17.5371 66.3571C17.315 66.4498 17.0706 66.4741 16.8347 66.4268C16.5989 66.3796 16.3823 66.2629 16.2123 66.0915C16.0422 65.9202 15.9265 65.7019 15.8795 65.4642C15.8326 65.2265 15.8567 64.9802 15.9487 64.7563C16.0407 64.5325 16.1966 64.3411 16.3965 64.2065C16.5964 64.0719 16.8315 64 17.0719 64C17.2318 63.9992 17.3902 64.0304 17.538 64.0917C17.6859 64.153 17.8202 64.2432 17.9332 64.3571C18.0463 64.4711 18.1358 64.6064 18.1966 64.7554C18.2575 64.9044 18.2884 65.0641 18.2876 65.2252Z" fill="#6F6F6F"/>
<path d="M34.1438 65.2252C34.1438 65.4675 34.0725 65.7044 33.9389 65.9059C33.8053 66.1073 33.6155 66.2644 33.3933 66.3571C33.1712 66.4498 32.9267 66.4741 32.6909 66.4268C32.4551 66.3796 32.2385 66.2629 32.0684 66.0915C31.8984 65.9202 31.7826 65.7019 31.7357 65.4642C31.6888 65.2265 31.7129 64.9802 31.8049 64.7563C31.8969 64.5325 32.0527 64.3411 32.2527 64.2065C32.4526 64.0719 32.6876 64 32.9281 64C33.088 63.9992 33.2464 64.0304 33.3942 64.0917C33.5421 64.153 33.6764 64.2432 33.7894 64.3571C33.9025 64.4711 33.992 64.6064 34.0528 64.7554C34.1136 64.9044 34.1446 65.0641 34.1438 65.2252Z" fill="#6F6F6F"/>
<path d="M48.7843 66.4504C49.4557 66.4504 50 65.9018 50 65.2252C50 64.5485 49.4557 64 48.7843 64C48.1129 64 47.5686 64.5485 47.5686 65.2252C47.5686 65.9018 48.1129 66.4504 48.7843 66.4504Z" fill="#6F6F6F"/>
<path d="M2.43144 81.0654C2.43144 81.3077 2.36014 81.5446 2.22655 81.7461C2.09297 81.9475 1.9031 82.1046 1.68095 82.1973C1.45881 82.29 1.21437 82.3143 0.978543 82.267C0.742717 82.2197 0.526097 82.1031 0.356076 81.9317C0.186055 81.7604 0.070269 81.5421 0.0233602 81.3044C-0.0235485 81.0667 0.000526756 80.8204 0.0925415 80.5965C0.184556 80.3727 0.340378 80.1813 0.540302 80.0467C0.740225 79.9121 0.975272 79.8402 1.21572 79.8402C1.37558 79.8394 1.53401 79.8706 1.68185 79.9319C1.8297 79.9932 1.96402 80.0834 2.07706 80.1973C2.1901 80.3113 2.27962 80.4466 2.34045 80.5956C2.40127 80.7446 2.4322 80.9043 2.43144 81.0654Z" fill="#6F6F6F"/>
<path d="M18.2876 81.0654C18.2876 81.3077 18.2163 81.5446 18.0827 81.7461C17.9492 81.9475 17.7593 82.1046 17.5371 82.1973C17.315 82.29 17.0706 82.3143 16.8347 82.267C16.5989 82.2197 16.3823 82.1031 16.2123 81.9317C16.0422 81.7604 15.9265 81.5421 15.8795 81.3044C15.8326 81.0667 15.8567 80.8204 15.9487 80.5965C16.0407 80.3727 16.1966 80.1813 16.3965 80.0467C16.5964 79.9121 16.8315 79.8402 17.0719 79.8402C17.2318 79.8394 17.3902 79.8706 17.538 79.9319C17.6859 79.9932 17.8202 80.0834 17.9332 80.1973C18.0463 80.3113 18.1358 80.4466 18.1966 80.5956C18.2575 80.7446 18.2884 80.9043 18.2876 81.0654Z" fill="#6F6F6F"/>
<path d="M34.1438 81.0654C34.1438 81.3077 34.0725 81.5446 33.9389 81.7461C33.8053 81.9475 33.6155 82.1046 33.3933 82.1973C33.1712 82.29 32.9267 82.3143 32.6909 82.267C32.4551 82.2197 32.2385 82.1031 32.0684 81.9317C31.8984 81.7604 31.7826 81.5421 31.7357 81.3044C31.6888 81.0667 31.7129 80.8204 31.8049 80.5965C31.8969 80.3727 32.0527 80.1813 32.2527 80.0467C32.4526 79.9121 32.6876 79.8402 32.9281 79.8402C33.088 79.8394 33.2464 79.8706 33.3942 79.9319C33.5421 79.9932 33.6764 80.0834 33.7894 80.1973C33.9025 80.3113 33.992 80.4466 34.0528 80.5956C34.1136 80.7446 34.1446 80.9043 34.1438 81.0654Z" fill="#6F6F6F"/>
<path d="M48.7843 82.2906C49.4557 82.2906 50 81.742 50 81.0654C50 80.3887 49.4557 79.8402 48.7843 79.8402C48.1129 79.8402 47.5686 80.3887 47.5686 81.0654C47.5686 81.742 48.1129 82.2906 48.7843 82.2906Z" fill="#6F6F6F"/>
<path d="M2.43144 96.9056C2.43144 97.1479 2.36014 97.3848 2.22655 97.5863C2.09297 97.7877 1.9031 97.9448 1.68095 98.0375C1.45881 98.1302 1.21437 98.1545 0.978543 98.1072C0.742717 98.06 0.526097 97.9433 0.356076 97.7719C0.186055 97.6006 0.070269 97.3823 0.0233602 97.1446C-0.0235485 96.9069 0.000526756 96.6606 0.0925415 96.4367C0.184556 96.2129 0.340378 96.0215 0.540302 95.8869C0.740225 95.7523 0.975272 95.6804 1.21572 95.6804C1.37558 95.6796 1.53401 95.7108 1.68185 95.7721C1.8297 95.8334 1.96402 95.9236 2.07706 96.0375C2.1901 96.1515 2.27962 96.2868 2.34045 96.4358C2.40127 96.5848 2.4322 96.7445 2.43144 96.9056Z" fill="#6F6F6F"/>
<path d="M18.2876 96.9056C18.2876 97.1479 18.2163 97.3848 18.0827 97.5863C17.9492 97.7877 17.7593 97.9448 17.5371 98.0375C17.315 98.1302 17.0706 98.1545 16.8347 98.1072C16.5989 98.06 16.3823 97.9433 16.2123 97.7719C16.0422 97.6006 15.9265 97.3823 15.8795 97.1446C15.8326 96.9069 15.8567 96.6606 15.9487 96.4367C16.0407 96.2129 16.1966 96.0215 16.3965 95.8869C16.5964 95.7523 16.8315 95.6804 17.0719 95.6804C17.2318 95.6796 17.3902 95.7108 17.538 95.7721C17.6859 95.8334 17.8202 95.9236 17.9332 96.0375C18.0463 96.1515 18.1358 96.2868 18.1966 96.4358C18.2575 96.5848 18.2884 96.7445 18.2876 96.9056Z" fill="#6F6F6F"/>
<path d="M34.1438 96.9056C34.1438 97.1479 34.0725 97.3848 33.9389 97.5863C33.8053 97.7877 33.6155 97.9448 33.3933 98.0375C33.1712 98.1302 32.9267 98.1545 32.6909 98.1072C32.4551 98.06 32.2385 97.9433 32.0684 97.7719C31.8984 97.6006 31.7826 97.3823 31.7357 97.1446C31.6888 96.9069 31.7129 96.6606 31.8049 96.4367C31.8969 96.2129 32.0527 96.0215 32.2527 95.8869C32.4526 95.7523 32.6876 95.6804 32.9281 95.6804C33.088 95.6796 33.2464 95.7108 33.3942 95.7721C33.5421 95.8334 33.6764 95.9236 33.7894 96.0375C33.9025 96.1515 33.992 96.2868 34.0528 96.4358C34.1136 96.5848 34.1446 96.7445 34.1438 96.9056Z" fill="#6F6F6F"/>
<path d="M50 96.9056C50 97.1479 49.9287 97.3848 49.7951 97.5863C49.6615 97.7877 49.4717 97.9448 49.2495 98.0375C49.0274 98.1302 48.7829 98.1545 48.5471 98.1072C48.3113 98.06 48.0946 97.9433 47.9246 97.7719C47.7546 97.6006 47.6388 97.3823 47.5919 97.1446C47.545 96.9069 47.5691 96.6606 47.6611 96.4367C47.7531 96.2129 47.9089 96.0215 48.1089 95.8869C48.3088 95.7523 48.5438 95.6804 48.7843 95.6804C48.9441 95.6796 49.1026 95.7108 49.2504 95.7721C49.3983 95.8334 49.5326 95.9236 49.6456 96.0375C49.7587 96.1515 49.8482 96.2868 49.909 96.4358C49.9698 96.5848 50.0008 96.7445 50 96.9056Z" fill="#6F6F6F"/>
<path d="M2.43144 112.775C2.43144 113.017 2.36014 113.254 2.22655 113.455C2.09297 113.657 1.9031 113.814 1.68095 113.907C1.45881 113.999 1.21437 114.024 0.978543 113.976C0.742717 113.929 0.526097 113.812 0.356076 113.641C0.186055 113.47 0.070269 113.252 0.0233602 113.014C-0.0235485 112.776 0.000526756 112.53 0.0925415 112.306C0.184556 112.082 0.340378 111.891 0.540302 111.756C0.740225 111.621 0.975272 111.55 1.21572 111.55C1.37558 111.549 1.53401 111.58 1.68185 111.641C1.8297 111.703 1.96402 111.793 2.07706 111.907C2.1901 112.021 2.27962 112.156 2.34045 112.305C2.40127 112.454 2.4322 112.614 2.43144 112.775Z" fill="#6F6F6F"/>
<path d="M18.2876 112.775C18.2876 113.017 18.2163 113.254 18.0827 113.455C17.9492 113.657 17.7593 113.814 17.5371 113.907C17.315 113.999 17.0706 114.024 16.8347 113.976C16.5989 113.929 16.3823 113.812 16.2123 113.641C16.0422 113.47 15.9265 113.252 15.8795 113.014C15.8326 112.776 15.8567 112.53 15.9487 112.306C16.0407 112.082 16.1966 111.891 16.3965 111.756C16.5964 111.621 16.8315 111.55 17.0719 111.55C17.2318 111.549 17.3902 111.58 17.538 111.641C17.6859 111.703 17.8202 111.793 17.9332 111.907C18.0463 112.021 18.1358 112.156 18.1966 112.305C18.2575 112.454 18.2884 112.614 18.2876 112.775Z" fill="#6F6F6F"/>
<path d="M34.1438 112.775C34.1438 113.017 34.0725 113.254 33.9389 113.455C33.8053 113.657 33.6155 113.814 33.3933 113.907C33.1712 113.999 32.9267 114.024 32.6909 113.976C32.4551 113.929 32.2385 113.812 32.0684 113.641C31.8984 113.47 31.7826 113.252 31.7357 113.014C31.6888 112.776 31.7129 112.53 31.8049 112.306C31.8969 112.082 32.0527 111.891 32.2527 111.756C32.4526 111.621 32.6876 111.55 32.9281 111.55C33.088 111.549 33.2464 111.58 33.3942 111.641C33.5421 111.703 33.6764 111.793 33.7894 111.907C33.9025 112.021 33.992 112.156 34.0528 112.305C34.1136 112.454 34.1446 112.614 34.1438 112.775Z" fill="#6F6F6F"/>
<path d="M48.7843 113.971C49.4557 113.971 50 113.422 50 112.746C50 112.069 49.4557 111.521 48.7843 111.521C48.1129 111.521 47.5686 112.069 47.5686 112.746C47.5686 113.422 48.1129 113.971 48.7843 113.971Z" fill="#6F6F6F"/>
<path d="M66.4314 65.2252C66.4314 65.4675 66.3601 65.7044 66.2265 65.9059C66.093 66.1074 65.9031 66.2644 65.681 66.3571C65.4588 66.4498 65.2144 66.4741 64.9785 66.4268C64.7427 66.3796 64.5261 66.2629 64.3561 66.0915C64.1861 65.9202 64.0703 65.7019 64.0234 65.4642C63.9765 65.2266 64.0005 64.9802 64.0925 64.7563C64.1846 64.5325 64.3404 64.3411 64.5403 64.2065C64.7402 64.0719 64.9753 64 65.2157 64C65.3756 63.9993 65.534 64.0304 65.6819 64.0917C65.8297 64.153 65.964 64.2432 66.0771 64.3572C66.1901 64.4711 66.2796 64.6064 66.3404 64.7554C66.4013 64.9044 66.4322 65.0641 66.4314 65.2252Z" fill="#6F6F6F"/>
<path d="M82.2876 65.2252C82.2876 65.4675 82.2163 65.7044 82.0827 65.9059C81.9492 66.1073 81.7593 66.2644 81.5371 66.3571C81.315 66.4498 81.0705 66.4741 80.8347 66.4268C80.5989 66.3796 80.3823 66.2629 80.2123 66.0915C80.0422 65.9202 79.9265 65.7019 79.8795 65.4642C79.8326 65.2265 79.8567 64.9802 79.9487 64.7563C80.0407 64.5325 80.1966 64.3411 80.3965 64.2065C80.5964 64.0719 80.8315 64 81.0719 64C81.2318 63.9992 81.3902 64.0304 81.538 64.0917C81.6859 64.153 81.8202 64.2432 81.9332 64.3571C82.0463 64.4711 82.1358 64.6064 82.1966 64.7554C82.2575 64.9044 82.2884 65.0641 82.2876 65.2252Z" fill="#6F6F6F"/>
<path d="M98.1438 65.2252C98.1438 65.4675 98.0725 65.7044 97.9389 65.9059C97.8053 66.1073 97.6155 66.2644 97.3933 66.3571C97.1712 66.4498 96.9267 66.4741 96.6909 66.4268C96.4551 66.3796 96.2385 66.2629 96.0684 66.0915C95.8984 65.9202 95.7826 65.7019 95.7357 65.4642C95.6888 65.2265 95.7129 64.9802 95.8049 64.7563C95.8969 64.5325 96.0527 64.3411 96.2527 64.2065C96.4526 64.0719 96.6876 64 96.9281 64C97.088 63.9992 97.2464 64.0304 97.3942 64.0917C97.5421 64.153 97.6764 64.2432 97.7894 64.3571C97.9025 64.4711 97.992 64.6064 98.0528 64.7554C98.1136 64.9044 98.1446 65.0641 98.1438 65.2252Z" fill="#6F6F6F"/>
<path d="M112.784 66.4504C113.456 66.4504 114 65.9018 114 65.2252C114 64.5485 113.456 64 112.784 64C112.113 64 111.569 64.5485 111.569 65.2252C111.569 65.9018 112.113 66.4504 112.784 66.4504Z" fill="#6F6F6F"/>
<path d="M66.4314 81.0654C66.4314 81.3077 66.3601 81.5446 66.2265 81.7461C66.093 81.9475 65.9031 82.1046 65.681 82.1973C65.4588 82.29 65.2144 82.3143 64.9785 82.267C64.7427 82.2197 64.5261 82.1031 64.3561 81.9317C64.1861 81.7604 64.0703 81.5421 64.0234 81.3044C63.9765 81.0667 64.0005 80.8204 64.0925 80.5965C64.1846 80.3727 64.3404 80.1813 64.5403 80.0467C64.7402 79.9121 64.9753 79.8402 65.2157 79.8402C65.3756 79.8394 65.534 79.8706 65.6819 79.9319C65.8297 79.9932 65.964 80.0834 66.0771 80.1973C66.1901 80.3113 66.2796 80.4466 66.3404 80.5956C66.4013 80.7446 66.4322 80.9043 66.4314 81.0654Z" fill="#6F6F6F"/>
<path d="M82.2876 81.0654C82.2876 81.3077 82.2163 81.5446 82.0827 81.7461C81.9492 81.9475 81.7593 82.1046 81.5371 82.1973C81.315 82.29 81.0705 82.3143 80.8347 82.267C80.5989 82.2197 80.3823 82.1031 80.2123 81.9317C80.0422 81.7604 79.9265 81.5421 79.8795 81.3044C79.8326 81.0667 79.8567 80.8204 79.9487 80.5965C80.0407 80.3727 80.1966 80.1813 80.3965 80.0467C80.5964 79.9121 80.8315 79.8402 81.0719 79.8402C81.2318 79.8394 81.3902 79.8706 81.538 79.9319C81.6859 79.9932 81.8202 80.0834 81.9332 80.1973C82.0463 80.3113 82.1358 80.4466 82.1966 80.5956C82.2575 80.7446 82.2884 80.9043 82.2876 81.0654Z" fill="#6F6F6F"/>
<path d="M98.1438 81.0654C98.1438 81.3077 98.0725 81.5446 97.9389 81.7461C97.8053 81.9475 97.6155 82.1046 97.3933 82.1973C97.1712 82.29 96.9267 82.3143 96.6909 82.267C96.4551 82.2197 96.2385 82.1031 96.0684 81.9317C95.8984 81.7604 95.7826 81.5421 95.7357 81.3044C95.6888 81.0667 95.7129 80.8204 95.8049 80.5965C95.8969 80.3727 96.0527 80.1813 96.2527 80.0467C96.4526 79.9121 96.6876 79.8402 96.9281 79.8402C97.088 79.8394 97.2464 79.8706 97.3942 79.9319C97.5421 79.9932 97.6764 80.0834 97.7894 80.1973C97.9025 80.3113 97.992 80.4466 98.0528 80.5956C98.1136 80.7446 98.1446 80.9043 98.1438 81.0654Z" fill="#6F6F6F"/>
<path d="M112.784 82.2906C113.456 82.2906 114 81.742 114 81.0654C114 80.3887 113.456 79.8402 112.784 79.8402C112.113 79.8402 111.569 80.3887 111.569 81.0654C111.569 81.742 112.113 82.2906 112.784 82.2906Z" fill="#6F6F6F"/>
<path d="M66.4314 96.9056C66.4314 97.1479 66.3601 97.3848 66.2265 97.5863C66.093 97.7877 65.9031 97.9448 65.681 98.0375C65.4588 98.1302 65.2144 98.1545 64.9785 98.1072C64.7427 98.06 64.5261 97.9433 64.3561 97.7719C64.1861 97.6006 64.0703 97.3823 64.0234 97.1446C63.9765 96.9069 64.0005 96.6606 64.0925 96.4367C64.1846 96.2129 64.3404 96.0215 64.5403 95.8869C64.7402 95.7523 64.9753 95.6804 65.2157 95.6804C65.3756 95.6796 65.534 95.7108 65.6819 95.7721C65.8297 95.8334 65.964 95.9236 66.0771 96.0375C66.1901 96.1515 66.2796 96.2868 66.3404 96.4358C66.4013 96.5848 66.4322 96.7445 66.4314 96.9056Z" fill="#6F6F6F"/>
<path d="M82.2876 96.9056C82.2876 97.1479 82.2163 97.3848 82.0827 97.5863C81.9492 97.7877 81.7593 97.9448 81.5371 98.0375C81.315 98.1302 81.0705 98.1545 80.8347 98.1072C80.5989 98.06 80.3823 97.9433 80.2123 97.7719C80.0422 97.6006 79.9265 97.3823 79.8795 97.1446C79.8326 96.9069 79.8567 96.6606 79.9487 96.4367C80.0407 96.2129 80.1966 96.0215 80.3965 95.8869C80.5964 95.7523 80.8315 95.6804 81.0719 95.6804C81.2318 95.6796 81.3902 95.7108 81.538 95.7721C81.6859 95.8334 81.8202 95.9236 81.9332 96.0375C82.0463 96.1515 82.1358 96.2868 82.1966 96.4358C82.2575 96.5848 82.2884 96.7445 82.2876 96.9056Z" fill="#6F6F6F"/>
<path d="M98.1438 96.9056C98.1438 97.1479 98.0725 97.3848 97.9389 97.5863C97.8053 97.7877 97.6155 97.9448 97.3933 98.0375C97.1712 98.1302 96.9267 98.1545 96.6909 98.1072C96.4551 98.06 96.2385 97.9433 96.0684 97.7719C95.8984 97.6006 95.7826 97.3823 95.7357 97.1446C95.6888 96.9069 95.7129 96.6606 95.8049 96.4367C95.8969 96.2129 96.0527 96.0215 96.2527 95.8869C96.4526 95.7523 96.6876 95.6804 96.9281 95.6804C97.088 95.6796 97.2464 95.7108 97.3942 95.7721C97.5421 95.8334 97.6764 95.9236 97.7894 96.0375C97.9025 96.1515 97.992 96.2868 98.0528 96.4358C98.1136 96.5848 98.1446 96.7445 98.1438 96.9056Z" fill="#6F6F6F"/>
<path d="M114 96.9056C114 97.1479 113.929 97.3848 113.795 97.5863C113.662 97.7877 113.472 97.9448 113.25 98.0375C113.027 98.1302 112.783 98.1545 112.547 98.1072C112.311 98.06 112.095 97.9433 111.925 97.7719C111.755 97.6006 111.639 97.3823 111.592 97.1446C111.545 96.9069 111.569 96.6606 111.661 96.4367C111.753 96.2129 111.909 96.0215 112.109 95.8869C112.309 95.7523 112.544 95.6804 112.784 95.6804C112.944 95.6796 113.103 95.7108 113.25 95.7721C113.398 95.8334 113.533 95.9236 113.646 96.0375C113.759 96.1515 113.848 96.2868 113.909 96.4358C113.97 96.5848 114.001 96.7445 114 96.9056Z" fill="#6F6F6F"/>
<path d="M66.4314 112.775C66.4314 113.017 66.3601 113.254 66.2265 113.455C66.093 113.657 65.9031 113.814 65.681 113.907C65.4588 113.999 65.2144 114.024 64.9785 113.976C64.7427 113.929 64.5261 113.812 64.3561 113.641C64.1861 113.47 64.0703 113.252 64.0234 113.014C63.9765 112.776 64.0005 112.53 64.0925 112.306C64.1846 112.082 64.3404 111.891 64.5403 111.756C64.7402 111.621 64.9753 111.55 65.2157 111.55C65.3756 111.549 65.534 111.58 65.6819 111.641C65.8297 111.703 65.964 111.793 66.0771 111.907C66.1901 112.021 66.2796 112.156 66.3404 112.305C66.4013 112.454 66.4322 112.614 66.4314 112.775Z" fill="#6F6F6F"/>
<path d="M82.2876 112.775C82.2876 113.017 82.2163 113.254 82.0827 113.455C81.9492 113.657 81.7593 113.814 81.5371 113.907C81.315 113.999 81.0705 114.024 80.8347 113.976C80.5989 113.929 80.3823 113.812 80.2123 113.641C80.0422 113.47 79.9265 113.252 79.8795 113.014C79.8326 112.776 79.8567 112.53 79.9487 112.306C80.0407 112.082 80.1966 111.891 80.3965 111.756C80.5964 111.621 80.8315 111.55 81.0719 111.55C81.2318 111.549 81.3902 111.58 81.538 111.641C81.6859 111.703 81.8202 111.793 81.9332 111.907C82.0463 112.021 82.1358 112.156 82.1966 112.305C82.2575 112.454 82.2884 112.614 82.2876 112.775Z" fill="#6F6F6F"/>
<path d="M98.1438 112.775C98.1438 113.017 98.0725 113.254 97.9389 113.455C97.8053 113.657 97.6155 113.814 97.3933 113.907C97.1712 113.999 96.9267 114.024 96.6909 113.976C96.4551 113.929 96.2385 113.812 96.0684 113.641C95.8984 113.47 95.7826 113.252 95.7357 113.014C95.6888 112.776 95.7129 112.53 95.8049 112.306C95.8969 112.082 96.0527 111.891 96.2527 111.756C96.4526 111.621 96.6876 111.55 96.9281 111.55C97.088 111.549 97.2464 111.58 97.3942 111.641C97.5421 111.703 97.6764 111.793 97.7894 111.907C97.9025 112.021 97.992 112.156 98.0528 112.305C98.1136 112.454 98.1446 112.614 98.1438 112.775Z" fill="#6F6F6F"/>
<path d="M112.784 113.971C113.456 113.971 114 113.422 114 112.746C114 112.069 113.456 111.521 112.784 111.521C112.113 111.521 111.569 112.069 111.569 112.746C111.569 113.422 112.113 113.971 112.784 113.971Z" fill="#6F6F6F"/>
</svg>
