<svg width="350" height="202" viewBox="0 0 350 202" fill="none" xmlns="http://www.w3.org/2000/svg">
<path d="M102.165 1.5614C73.9773 5.20415 51.8965 24.0044 35.3618 44.5458C11.6394 74.023 -4.65082 111.413 3.96808 148.773C5.60312 155.845 8.35915 163.176 14.3203 168.13C23.6223 175.859 37.5244 175.413 49.2704 173.117C78.5341 167.405 104.561 153.565 129.189 138.784C152.128 125.019 174.304 110.291 195.715 94.5989C212.431 82.3688 228.926 69.2197 239.891 52.2997C241.456 49.8765 242.95 47.0183 241.93 44.2293C241.191 42.4572 239.751 40.9703 237.909 40.0765C230.356 36.1036 221.393 40.3612 215.071 45.1259C183.303 69.2122 168.254 107.576 162.638 145.819C160.841 158.102 160.136 171.541 167.423 182.579C177.199 197.419 198.953 202.854 216.675 199.232C234.396 195.61 248.829 184.915 262.024 173.922C295.285 146.155 324.51 114.608 349.069 79.9609" stroke="#9D9CAE" stroke-width="2" stroke-miterlimit="10"/>
</svg>
