<svg width="151" height="9" viewBox="0 0 151 9" fill="none" xmlns="http://www.w3.org/2000/svg">
<path d="M3.29204 4.51498C4.49095 4.51498 5.68986 4.46244 6.88314 4.43379L8.34097 4.37647L14.7746 4.10422C17.3187 3.99277 19.8817 3.87813 22.4633 3.76032L33.4505 3.23969L35.9665 3.13939L42.3664 2.86713L48.7662 2.62832C49.6048 2.59488 50.4548 2.55189 51.2766 2.52801L61.487 2.25576L67.7686 2.08859C68.5848 2.08859 69.4066 2.03605 70.2283 2.02649L80.0954 1.91186L89.8387 1.78767C90.6999 1.78767 91.5273 1.78767 92.411 1.78767L98.7714 1.76379L108.65 1.71125H111.886H118.641H119.204C114.123 1.76857 109.042 1.82907 103.961 1.89275L97.6175 2.00739C96.7057 2.00739 95.7882 2.00739 94.8707 2.04082L85.6622 2.25098L75.0184 2.49458C74.4217 2.49458 73.8251 2.53756 73.2341 2.56145L67.5603 2.78594L56.0609 3.23492C55.4981 3.23492 54.9352 3.28746 54.3723 3.32089L48.7437 3.65046L38.6908 4.24273C37.7677 4.29527 36.8446 4.37169 35.9215 4.43856L29.4823 4.9162L21.2926 5.48459L9.90575 6.33001L7.17021 6.53061C5.53789 6.65002 3.9112 6.82675 2.28451 6.97959C2.2392 6.97447 2.19312 6.97762 2.14935 6.98883C2.10559 7.00005 2.06516 7.01907 2.03077 7.04462C1.99637 7.07017 1.96881 7.10167 1.94993 7.137C1.93104 7.17232 1.92127 7.21067 1.92127 7.24946C1.92127 7.28825 1.93104 7.32659 1.94993 7.36192C1.96881 7.39725 1.99637 7.42874 2.03077 7.4543C2.06516 7.47985 2.10559 7.49887 2.14935 7.51009C2.19312 7.5213 2.2392 7.52445 2.28451 7.51932L4.0688 7.58619C3.99209 7.7168 3.95165 7.86058 3.9506 8.00651C3.95208 8.26962 4.0759 8.52158 4.29515 8.70763C4.51439 8.89367 4.81132 8.99874 5.12137 9C9.77629 8.75163 14.4312 8.48415 19.0918 8.29787L31.2272 7.82024L44.6403 7.2805L48.8675 7.10856C49.2728 7.10856 49.678 7.07034 50.0833 7.06079L71.6974 6.58315L83.2475 6.32523C84.6434 6.29657 86.0337 6.26791 87.424 6.24881L109.528 5.95745L119.001 5.82849C121.697 5.79028 124.393 5.77595 127.089 5.68997L133.771 5.47504C134.896 5.4416 136.022 5.41772 137.103 5.3604L144.673 4.92575C144.532 5.13412 144.494 5.38128 144.566 5.61355C144.639 5.8387 144.813 6.03072 145.05 6.1485C145.171 6.21004 145.305 6.24985 145.445 6.26547C145.584 6.28108 145.726 6.27216 145.861 6.23926C146.424 6.05298 146.987 5.86192 147.51 5.66609H147.476L147.595 5.6231L147.735 5.57056H147.685L148.557 5.2601L149.475 4.93053C149.801 4.80634 150.122 4.65828 150.437 4.51498C150.611 4.42546 150.754 4.29911 150.853 4.14836C150.951 3.99762 151.002 3.82767 151 3.65524C151 3.43863 150.916 3.22807 150.761 3.05562C150.607 2.88317 150.39 2.75828 150.144 2.69996C149.857 2.65697 149.582 2.62354 149.294 2.59488H149.103C148.912 2.59488 148.715 2.59488 148.54 2.62832C148.112 2.62832 147.685 2.70951 147.257 2.7334L146.204 2.80027L143.39 2.97221L142.658 3.0152C142.747 2.92947 142.812 2.82841 142.85 2.71907C142.894 2.63297 142.919 2.54064 142.923 2.44681L142.957 2.24143C142.955 2.15491 142.936 2.06925 142.9 1.98828L142.973 1.95962C143.149 1.87215 143.296 1.74905 143.401 1.6014C143.495 1.45124 143.545 1.28418 143.548 1.11421C143.545 0.93641 143.489 0.762159 143.384 0.607909L143.199 0.407302C143.054 0.283874 142.873 0.194927 142.675 0.149377C142.314 0.0412474 141.932 -0.00896147 141.549 0.00130985C141.24 0.00130985 140.919 0.00130985 140.609 0.0251917H139.247C138.606 0.0251917 137.97 0.0251917 137.328 0.0251917H132.262C130.669 0.0251917 129.076 0.0251917 127.483 0.0251917H123.138C117.363 0.0251917 111.594 0.05385 105.819 0.101614L92.8275 0.273563C90.8912 0.273563 88.9606 0.311774 87.0243 0.349985L74.0108 0.584028L70.3015 0.650897C69.581 0.650897 68.8662 0.693884 68.1457 0.717766L55.2842 1.12853L51.3441 1.2575C50.6124 1.28138 49.875 1.31959 49.1433 1.35302L36.3887 1.93574C34.1879 2.03605 31.9927 2.15068 29.7919 2.26531L18.5064 2.86713C15.2474 3.03908 11.9884 3.19193 8.72935 3.34477L7.18146 3.42119L4.6767 3.53583C3.93371 3.56449 3.19073 3.57881 2.42523 3.56449C2.39004 3.48106 2.32501 3.40905 2.23923 3.35852C2.15344 3.308 2.0512 3.28148 1.94679 3.28268C1.46835 3.31611 0.989913 3.3591 0.511475 3.40209C0.400298 3.40854 0.293878 3.44285 0.205699 3.50067C0.11752 3.55849 0.0515518 3.63722 0.0161513 3.72688C-0.0180161 3.84089 0.00250008 3.96173 0.0731991 4.06292C0.143898 4.1641 0.259007 4.23736 0.393273 4.26661L1.01806 4.3908C1.22579 4.42717 1.43658 4.44953 1.64847 4.45767C2.19445 4.50065 2.74606 4.51021 3.29204 4.51498ZM135.003 2.98177H137.103C137.164 3.11484 137.26 3.23417 137.384 3.33044C137.114 3.34955 136.844 3.36388 136.574 3.37343L135.043 3.42119L128.35 3.62658C127.331 3.66001 126.313 3.70778 125.294 3.72211L120.515 3.7842L109.595 3.93227L88.3977 4.21885C83.3319 4.28572 78.2661 4.41946 73.2003 4.53409L50.3703 5.04516C48.845 5.08337 47.314 5.16457 45.7886 5.22666L32.8089 5.75684L20.0711 6.27269L18.8891 6.32045L22.3226 6.09119L34.3173 5.31264L38.5051 5.04039L40.6665 4.92575L53.1397 4.30005C53.9502 4.25706 54.7607 4.20452 55.5769 4.17586L59.1173 4.0469L71.9789 3.6218L74.7932 3.53105C75.0409 3.53105 75.2885 3.53105 75.5418 3.53105L77.5288 3.49762L90.4128 3.27313C92.3885 3.23969 94.3529 3.20148 96.3454 3.18715C102.734 3.14416 109.117 3.08685 115.483 3.06297C121.995 3.02475 128.502 2.98654 135.009 2.98177H135.003Z" fill="#FFCD1F"/>
</svg>
