<svg width="111" height="88" viewBox="0 0 111 88" fill="none" xmlns="http://www.w3.org/2000/svg">
<path d="M2.97784 1.47758C2.97911 1.77126 2.89288 2.0587 2.73005 2.30351C2.56722 2.54831 2.33513 2.73945 2.06318 2.85272C1.79123 2.96599 1.49166 2.99628 1.20242 2.93977C0.913172 2.88326 0.647269 2.74248 0.438395 2.53526C0.229521 2.32805 0.0870736 2.06373 0.029099 1.77579C-0.0288756 1.48784 0.000231119 1.18923 0.112732 0.917782C0.225233 0.646334 0.416065 0.414263 0.661054 0.250968C0.906044 0.0876733 1.19417 0.000503132 1.48892 0.00050038C1.68414 -0.000345333 1.87761 0.0372362 2.05822 0.111088C2.23882 0.184939 2.40301 0.293605 2.54136 0.430849C2.6797 0.568092 2.78947 0.73121 2.86438 0.910837C2.93928 1.09046 2.97784 1.28306 2.97784 1.47758Z" fill="#9D9CAE"/>
<path d="M18.1571 1.47758C18.1583 1.77126 18.0721 2.0587 17.9093 2.30351C17.7465 2.54831 17.5144 2.73945 17.2424 2.85272C16.9705 2.96599 16.6709 2.99629 16.3817 2.93977C16.0924 2.88326 15.8265 2.74248 15.6176 2.53526C15.4088 2.32805 15.2663 2.06373 15.2083 1.77579C15.1504 1.48784 15.1795 1.18923 15.292 0.917782C15.4045 0.646334 15.5953 0.414263 15.8403 0.250968C16.0853 0.0876733 16.3734 0.000503132 16.6682 0.00050038C17.0619 0.000496704 17.4397 0.155912 17.7187 0.432734C17.9977 0.709557 18.1554 1.08524 18.1571 1.47758Z" fill="#9D9CAE"/>
<path d="M33.3299 1.47758C33.3299 1.76972 33.2429 2.05529 33.08 2.2982C32.9171 2.5411 32.6856 2.73042 32.4147 2.84222C32.1438 2.95401 31.8457 2.98327 31.5582 2.92627C31.2706 2.86928 31.0065 2.7286 30.7991 2.52203C30.5918 2.31545 30.4506 2.05227 30.3934 1.76574C30.3362 1.47922 30.3656 1.18222 30.4778 0.912324C30.59 0.642424 30.78 0.411736 31.0238 0.249433C31.2676 0.0871294 31.5542 0.00050038 31.8474 0.00050038C32.2406 0.00050038 32.6176 0.156121 32.8957 0.433126C33.1737 0.710132 33.3299 1.08583 33.3299 1.47758Z" fill="#9D9CAE"/>
<path d="M48.5091 1.47758C48.5103 1.77288 48.423 2.06181 48.2584 2.30738C48.0938 2.55296 47.8594 2.744 47.5852 2.85605C47.3109 2.9681 47.0094 2.99606 46.7191 2.93636C46.4289 2.87665 46.1631 2.73199 45.9559 2.5209C45.7486 2.30981 45.6093 2.04189 45.5558 1.75145C45.5022 1.461 45.5369 1.16125 45.6554 0.89056C45.7738 0.619872 45.9707 0.390568 46.2207 0.232004C46.4707 0.0734404 46.7626 -0.00716743 47.0588 0.00050038C47.4464 0.00889699 47.8153 0.168216 48.0863 0.444317C48.3574 0.720418 48.5092 1.09133 48.5091 1.47758Z" fill="#9D9CAE"/>
<path d="M2.97784 13.2557C2.97911 13.5493 2.89288 13.8368 2.73005 14.0816C2.56722 14.3264 2.33513 14.5175 2.06318 14.6308C1.79123 14.7441 1.49166 14.7744 1.20242 14.7179C0.913172 14.6613 0.647269 14.5206 0.438395 14.3133C0.229521 14.1061 0.0870736 13.8418 0.029099 13.5539C-0.0288756 13.2659 0.000231119 12.9673 0.112732 12.6959C0.225233 12.4244 0.416065 12.1923 0.661054 12.029C0.906044 11.8658 1.19417 11.7786 1.48892 11.7786C1.68414 11.7777 1.87761 11.8153 2.05822 11.8892C2.23882 11.963 2.40301 12.0717 2.54136 12.2089C2.6797 12.3462 2.78947 12.5093 2.86438 12.6889C2.93928 12.8685 2.97784 13.0611 2.97784 13.2557Z" fill="#9D9CAE"/>
<path d="M18.1571 13.2557C18.1583 13.5493 18.0721 13.8368 17.9093 14.0816C17.7465 14.3264 17.5144 14.5175 17.2424 14.6308C16.9705 14.7441 16.6709 14.7744 16.3817 14.7179C16.0924 14.6613 15.8265 14.5206 15.6176 14.3133C15.4088 14.1061 15.2663 13.8418 15.2083 13.5539C15.1504 13.2659 15.1795 12.9673 15.292 12.6959C15.4045 12.4244 15.5953 12.1923 15.8403 12.029C16.0853 11.8658 16.3734 11.7786 16.6682 11.7786C17.0619 11.7786 17.4397 11.934 17.7187 12.2108C17.9977 12.4876 18.1554 12.8633 18.1571 13.2557Z" fill="#9D9CAE"/>
<path d="M33.3299 13.2557C33.3299 13.5478 33.2429 13.8334 33.08 14.0763C32.9171 14.3192 32.6856 14.5085 32.4147 14.6203C32.1438 14.7321 31.8457 14.7613 31.5582 14.7043C31.2706 14.6474 31.0065 14.5067 30.7991 14.3001C30.5918 14.0935 30.4506 13.8303 30.3934 13.5438C30.3362 13.2573 30.3656 12.9603 30.4778 12.6904C30.59 12.4205 30.78 12.1898 31.0238 12.0275C31.2676 11.8652 31.5542 11.7786 31.8474 11.7786C32.2406 11.7786 32.6176 11.9342 32.8957 12.2112C33.1737 12.4882 33.3299 12.8639 33.3299 13.2557Z" fill="#9D9CAE"/>
<path d="M48.5091 13.2557C48.5104 13.5496 48.424 13.8373 48.2609 14.0823C48.0977 14.3272 47.8653 14.5183 47.5929 14.6314C47.3206 14.7445 47.0207 14.7744 46.7313 14.7174C46.4419 14.6603 46.176 14.5189 45.9674 14.3111C45.7588 14.1032 45.6168 13.8383 45.5596 13.5499C45.5023 13.2615 45.5324 12.9627 45.6458 12.6914C45.7593 12.4201 45.9512 12.1884 46.197 12.0259C46.4428 11.8634 46.7316 11.7773 47.0266 11.7786C47.4198 11.7786 47.7969 11.9342 48.0749 12.2112C48.3529 12.4882 48.5091 12.8639 48.5091 13.2557Z" fill="#9D9CAE"/>
<path d="M2.97784 25.0466C2.97784 25.34 2.89051 25.6268 2.72691 25.8708C2.56331 26.1147 2.33077 26.3049 2.0587 26.4172C1.78664 26.5294 1.48727 26.5588 1.19845 26.5016C0.909624 26.4443 0.644324 26.303 0.436095 26.0956C0.227866 25.8881 0.0860601 25.6238 0.0286098 25.336C-0.0288404 25.0482 0.000645118 24.7499 0.113338 24.4789C0.226031 24.2078 0.416869 23.9761 0.661721 23.8131C0.906572 23.6501 1.19444 23.5631 1.48892 23.5631C1.68469 23.5622 1.87868 23.6 2.05971 23.6743C2.24074 23.7485 2.40522 23.8578 2.54365 23.9957C2.68207 24.1336 2.79172 24.2975 2.86624 24.4779C2.94076 24.6582 2.97869 24.8515 2.97784 25.0466Z" fill="#9D9CAE"/>
<path d="M18.1571 25.0466C18.1571 25.34 18.0697 25.6268 17.9061 25.8708C17.7425 26.1147 17.51 26.3049 17.2379 26.4172C16.9659 26.5294 16.6665 26.5588 16.3777 26.5016C16.0889 26.4443 15.8236 26.303 15.6153 26.0956C15.4071 25.8881 15.2653 25.6238 15.2078 25.336C15.1504 25.0482 15.1799 24.7499 15.2926 24.4789C15.4053 24.2078 15.5961 23.9761 15.841 23.8131C16.0858 23.6501 16.3737 23.5631 16.6682 23.5631C17.063 23.5631 17.4418 23.7194 17.721 23.9976C18.0002 24.2758 18.1571 24.6531 18.1571 25.0466Z" fill="#9D9CAE"/>
<path d="M33.3299 25.0466C33.3286 25.3384 33.2406 25.6234 33.0769 25.8654C32.9132 26.1075 32.6813 26.2958 32.4103 26.4066C32.1393 26.5174 31.8414 26.5458 31.5542 26.4881C31.2671 26.4303 31.0035 26.2892 30.7969 26.0823C30.5902 25.8755 30.4496 25.6123 30.3929 25.326C30.3363 25.0396 30.366 24.743 30.4784 24.4734C30.5908 24.2039 30.7808 23.9736 31.0244 23.8116C31.2681 23.6496 31.5545 23.5631 31.8474 23.5631C32.0426 23.5631 32.2359 23.6015 32.4162 23.6761C32.5965 23.7508 32.7602 23.8601 32.8979 23.998C33.0357 24.1358 33.1448 24.2994 33.2189 24.4794C33.293 24.6593 33.3307 24.8521 33.3299 25.0466Z" fill="#9D9CAE"/>
<path d="M48.5091 25.0466C48.509 25.3416 48.4206 25.6299 48.2552 25.8746C48.0899 26.1194 47.855 26.3094 47.5807 26.4205C47.3063 26.5315 47.005 26.5586 46.7152 26.4981C46.4254 26.4377 46.1602 26.2925 45.9536 26.0812C45.747 25.8698 45.6083 25.6019 45.5553 25.3117C45.5023 25.0214 45.5374 24.722 45.656 24.4517C45.7747 24.1814 45.9715 23.9524 46.2214 23.7941C46.4713 23.6359 46.7628 23.5554 47.0589 23.5631C47.4475 23.5715 47.8173 23.7317 48.0886 24.0092C48.3599 24.2867 48.5109 24.6592 48.5091 25.0466Z" fill="#9D9CAE"/>
<path d="M2.97784 36.8182C2.97529 37.1111 2.88581 37.3966 2.72067 37.6389C2.55552 37.8812 2.32211 38.0693 2.04983 38.1796C1.77755 38.2899 1.47859 38.3175 1.19062 38.2588C0.902657 38.2001 0.638564 38.0578 0.431622 37.8499C0.224681 37.6419 0.0841501 37.3775 0.0277369 37.0901C-0.0286763 36.8027 0.00155243 36.5051 0.114614 36.2348C0.227676 35.9644 0.418512 35.7335 0.663076 35.571C0.90764 35.4086 1.19499 35.3219 1.48892 35.3219C1.68554 35.3219 1.88021 35.3607 2.0617 35.436C2.24319 35.5114 2.4079 35.6218 2.54633 35.7609C2.68476 35.9001 2.79416 36.0651 2.86822 36.2466C2.94228 36.4281 2.97954 36.6223 2.97784 36.8182Z" fill="#9D9CAE"/>
<path d="M18.1571 36.8182C18.1545 37.1111 18.065 37.3966 17.8999 37.6389C17.7348 37.8812 17.5013 38.0693 17.2291 38.1796C16.9568 38.2899 16.6578 38.3175 16.3699 38.2588C16.0819 38.2001 15.8178 38.0578 15.6109 37.8499C15.4039 37.6419 15.2634 37.3775 15.207 37.0901C15.1506 36.8027 15.1808 36.5051 15.2938 36.2348C15.4069 35.9644 15.5977 35.7335 15.8423 35.571C16.0869 35.4086 16.3742 35.3219 16.6682 35.3219C16.8645 35.3227 17.0588 35.3621 17.2399 35.4378C17.421 35.5134 17.5854 35.6239 17.7237 35.7628C17.8619 35.9018 17.9713 36.0665 18.0457 36.2476C18.1201 36.4287 18.1579 36.6226 18.1571 36.8182Z" fill="#9D9CAE"/>
<path d="M33.3299 36.8182C33.326 37.1095 33.2359 37.3932 33.0707 37.6335C32.9055 37.8739 32.6726 38.0602 32.4014 38.1691C32.1302 38.2779 31.8328 38.3044 31.5465 38.2453C31.2602 38.1861 30.9979 38.044 30.7925 37.8366C30.5871 37.6293 30.4478 37.3661 30.3921 37.0801C30.3365 36.7941 30.367 36.4981 30.4797 36.2294C30.5925 35.9606 30.7825 35.731 31.0258 35.5696C31.2692 35.4081 31.555 35.3219 31.8474 35.3219C32.0435 35.3227 32.2374 35.3622 32.4182 35.4379C32.5989 35.5136 32.7629 35.6242 32.9006 35.7632C33.0384 35.9022 33.1472 36.067 33.2209 36.2481C33.2945 36.4291 33.3316 36.6229 33.3299 36.8182Z" fill="#9D9CAE"/>
<path d="M48.5091 36.8182C48.5064 37.1127 48.4159 37.3997 48.249 37.6427C48.082 37.8858 47.8463 38.0738 47.5718 38.1829C47.2972 38.2919 46.9963 38.3172 46.7074 38.2553C46.4184 38.1934 46.1545 38.0472 45.9492 37.8354C45.7439 37.6236 45.6065 37.3557 45.5545 37.0658C45.5026 36.7759 45.5383 36.4771 45.6573 36.2076C45.7763 35.938 45.9732 35.7099 46.2228 35.5521C46.4723 35.3944 46.7634 35.3143 47.0589 35.3219C47.4492 35.332 47.82 35.4945 48.0913 35.7744C48.3626 36.0543 48.5126 36.4292 48.5091 36.8182Z" fill="#9D9CAE"/>
<path d="M65.4623 1.47807C65.4635 1.77175 65.3773 2.0592 65.2145 2.304C65.0516 2.54881 64.8195 2.73995 64.5476 2.85322C64.2756 2.96649 63.9761 2.99678 63.6868 2.94027C63.3976 2.88375 63.1317 2.74297 62.9228 2.53576C62.7139 2.32855 62.5715 2.06423 62.5135 1.77628C62.4555 1.48834 62.4846 1.18973 62.5971 0.918279C62.7096 0.646831 62.9005 0.41476 63.1455 0.251465C63.3905 0.0881707 63.6786 0.00100052 63.9733 0.000997768C64.1686 0.000152055 64.362 0.0377336 64.5426 0.111585C64.7232 0.185436 64.8874 0.294103 65.0258 0.431346C65.1641 0.56859 65.2739 0.731707 65.3488 0.911334C65.4237 1.09096 65.4623 1.28356 65.4623 1.47807Z" fill="#9D9CAE"/>
<path d="M80.6415 1.47807C80.6428 1.77175 80.5565 2.0592 80.3937 2.304C80.2309 2.54881 79.9988 2.73995 79.7268 2.85322C79.4549 2.96649 79.1553 2.99678 78.8661 2.94027C78.5768 2.88375 78.3109 2.74297 78.102 2.53576C77.8932 2.32855 77.7507 2.06423 77.6927 1.77628C77.6348 1.48834 77.6639 1.18973 77.7764 0.918279C77.8889 0.646831 78.0797 0.41476 78.3247 0.251465C78.5697 0.0881707 78.8578 0.00100052 79.1526 0.000997768C79.5463 0.000994092 79.9241 0.156409 80.2031 0.433231C80.4822 0.710054 80.6398 1.08574 80.6415 1.47807Z" fill="#9D9CAE"/>
<path d="M95.8143 1.47807C95.8143 1.77021 95.7273 2.05579 95.5644 2.29869C95.4015 2.5416 95.17 2.73092 94.8991 2.84272C94.6282 2.95451 94.3302 2.98376 94.0426 2.92677C93.755 2.86978 93.4909 2.7291 93.2835 2.52253C93.0762 2.31595 92.935 2.05276 92.8778 1.76624C92.8206 1.47971 92.85 1.18272 92.9622 0.912822C93.0744 0.642921 93.2644 0.412233 93.5082 0.24993C93.752 0.0876268 94.0386 0.000997768 94.3318 0.000997768C94.725 0.000997768 95.1021 0.156618 95.3801 0.433623C95.6581 0.710629 95.8143 1.08633 95.8143 1.47807Z" fill="#9D9CAE"/>
<path d="M110.994 1.47807C110.995 1.77337 110.907 2.0623 110.743 2.30788C110.578 2.55345 110.344 2.7445 110.07 2.85655C109.795 2.9686 109.494 2.99656 109.204 2.93686C108.913 2.87715 108.648 2.73249 108.44 2.5214C108.233 2.31031 108.094 2.04239 108.04 1.75194C107.987 1.4615 108.021 1.16175 108.14 0.891058C108.258 0.62037 108.455 0.391065 108.705 0.232502C108.955 0.0739378 109.247 -0.00667004 109.543 0.000997768C109.931 0.00939438 110.3 0.168713 110.571 0.444814C110.842 0.720915 110.994 1.09183 110.994 1.47807Z" fill="#9D9CAE"/>
<path d="M65.4623 13.2562C65.4635 13.5498 65.3773 13.8373 65.2145 14.0821C65.0516 14.3269 64.8195 14.518 64.5476 14.6313C64.2756 14.7446 63.9761 14.7749 63.6868 14.7183C63.3976 14.6618 63.1317 14.5211 62.9228 14.3138C62.7139 14.1066 62.5715 13.8423 62.5135 13.5544C62.4555 13.2664 62.4846 12.9678 62.5971 12.6964C62.7096 12.4249 62.9005 12.1928 63.1455 12.0295C63.3905 11.8663 63.6786 11.7791 63.9733 11.7791C64.1686 11.7782 64.362 11.8158 64.5426 11.8897C64.7232 11.9635 64.8874 12.0722 65.0258 12.2094C65.1641 12.3467 65.2739 12.5098 65.3488 12.6894C65.4237 12.869 65.4623 13.0616 65.4623 13.2562Z" fill="#9D9CAE"/>
<path d="M80.6415 13.2562C80.6428 13.5498 80.5565 13.8373 80.3937 14.0821C80.2309 14.3269 79.9988 14.518 79.7268 14.6313C79.4549 14.7446 79.1553 14.7749 78.8661 14.7183C78.5768 14.6618 78.3109 14.5211 78.102 14.3138C77.8932 14.1066 77.7507 13.8423 77.6927 13.5544C77.6348 13.2664 77.6639 12.9678 77.7764 12.6964C77.8889 12.4249 78.0797 12.1928 78.3247 12.0295C78.5697 11.8663 78.8578 11.7791 79.1526 11.7791C79.5463 11.7791 79.9241 11.9345 80.2031 12.2113C80.4822 12.4881 80.6398 12.8638 80.6415 13.2562Z" fill="#9D9CAE"/>
<path d="M95.8143 13.2562C95.8143 13.5483 95.7273 13.8339 95.5644 14.0768C95.4015 14.3197 95.17 14.509 94.8991 14.6208C94.6282 14.7326 94.3302 14.7618 94.0426 14.7048C93.755 14.6479 93.4909 14.5072 93.2835 14.3006C93.0762 14.094 92.935 13.8308 92.8778 13.5443C92.8206 13.2578 92.85 12.9608 92.9622 12.6909C93.0744 12.421 93.2644 12.1903 93.5082 12.028C93.752 11.8657 94.0386 11.7791 94.3318 11.7791C94.725 11.7791 95.1021 11.9347 95.3801 12.2117C95.6581 12.4887 95.8143 12.8644 95.8143 13.2562Z" fill="#9D9CAE"/>
<path d="M110.994 13.2562C110.995 13.5501 110.908 13.8378 110.745 14.0827C110.582 14.3277 110.35 14.5188 110.077 14.6319C109.805 14.745 109.505 14.7749 109.216 14.7179C108.926 14.6608 108.66 14.5194 108.452 14.3116C108.243 14.1037 108.101 13.8388 108.044 13.5504C107.987 13.262 108.017 12.9632 108.13 12.6919C108.244 12.4206 108.436 12.1889 108.681 12.0264C108.927 11.8639 109.216 11.7778 109.511 11.7791C109.904 11.7791 110.281 11.9347 110.559 12.2117C110.837 12.4887 110.994 12.8644 110.994 13.2562Z" fill="#9D9CAE"/>
<path d="M65.4623 25.0471C65.4623 25.3405 65.3749 25.6273 65.2113 25.8713C65.0477 26.1152 64.8152 26.3054 64.5431 26.4177C64.271 26.5299 63.9717 26.5593 63.6829 26.5021C63.394 26.4448 63.1287 26.3035 62.9205 26.0961C62.7123 25.8886 62.5705 25.6243 62.513 25.3365C62.4556 25.0487 62.4851 24.7504 62.5978 24.4794C62.7104 24.2083 62.9013 23.9766 63.1461 23.8136C63.391 23.6506 63.6789 23.5636 63.9733 23.5636C64.1691 23.5627 64.3631 23.6005 64.5441 23.6748C64.7252 23.749 64.8896 23.8583 65.0281 23.9962C65.1665 24.1341 65.2761 24.298 65.3506 24.4784C65.4252 24.6587 65.4631 24.852 65.4623 25.0471Z" fill="#9D9CAE"/>
<path d="M80.6415 25.0471C80.6415 25.3405 80.5542 25.6273 80.3906 25.8713C80.227 26.1152 79.9944 26.3054 79.7224 26.4177C79.4503 26.5299 79.1509 26.5593 78.8621 26.5021C78.5733 26.4448 78.308 26.3035 78.0997 26.0961C77.8915 25.8886 77.7497 25.6243 77.6923 25.3365C77.6348 25.0487 77.6643 24.7504 77.777 24.4794C77.8897 24.2083 78.0805 23.9766 78.3254 23.8136C78.5702 23.6506 78.8581 23.5636 79.1526 23.5636C79.5474 23.5636 79.9262 23.7199 80.2054 23.9981C80.4846 24.2763 80.6415 24.6536 80.6415 25.0471Z" fill="#9D9CAE"/>
<path d="M95.8143 25.0471C95.813 25.3389 95.725 25.6239 95.5613 25.8659C95.3976 26.108 95.1657 26.2963 94.8947 26.4071C94.6237 26.5179 94.3258 26.5463 94.0387 26.4886C93.7515 26.4308 93.488 26.2897 93.2813 26.0828C93.0746 25.876 92.934 25.6128 92.8774 25.3265C92.8207 25.0401 92.8504 24.7435 92.9628 24.4739C93.0752 24.2044 93.2652 23.9741 93.5089 23.8121C93.7525 23.65 94.0389 23.5636 94.3318 23.5636C94.527 23.5636 94.7203 23.602 94.9006 23.6766C95.0809 23.7513 95.2446 23.8606 95.3824 23.9985C95.5201 24.1363 95.6292 24.2999 95.7033 24.4799C95.7774 24.6598 95.8151 24.8526 95.8143 25.0471Z" fill="#9D9CAE"/>
<path d="M110.994 25.0471C110.993 25.3421 110.905 25.6304 110.74 25.8751C110.574 26.1199 110.339 26.3099 110.065 26.421C109.791 26.532 109.489 26.5591 109.2 26.4986C108.91 26.4382 108.645 26.293 108.438 26.0817C108.231 25.8703 108.093 25.6024 108.04 25.3121C107.987 25.0219 108.022 24.7225 108.14 24.4522C108.259 24.1819 108.456 23.9529 108.706 23.7946C108.956 23.6364 109.247 23.5559 109.543 23.5636C109.932 23.572 110.302 23.7322 110.573 24.0097C110.844 24.2872 110.995 24.6597 110.994 25.0471Z" fill="#9D9CAE"/>
<path d="M65.4623 36.8187C65.4597 37.1116 65.3702 37.3971 65.2051 37.6394C65.0399 37.8817 64.8065 38.0698 64.5342 38.1801C64.262 38.2904 63.963 38.318 63.675 38.2593C63.3871 38.2006 63.123 38.0583 62.916 37.8503C62.7091 37.6424 62.5686 37.378 62.5121 37.0906C62.4557 36.8032 62.486 36.5056 62.599 36.2353C62.7121 35.9649 62.9029 35.734 63.1475 35.5715C63.3921 35.4091 63.6794 35.3224 63.9733 35.3224C64.17 35.3224 64.3646 35.3612 64.5461 35.4365C64.7276 35.5119 64.8923 35.6223 65.0307 35.7614C65.1692 35.9006 65.2786 36.0656 65.3526 36.2471C65.4267 36.4286 65.464 36.6228 65.4623 36.8187Z" fill="#9D9CAE"/>
<path d="M80.6415 36.8187C80.6389 37.1116 80.5495 37.3971 80.3843 37.6394C80.2192 37.8817 79.9858 38.0698 79.7135 38.1801C79.4412 38.2904 79.1422 38.318 78.8543 38.2593C78.5663 38.2006 78.3022 38.0583 78.0953 37.8503C77.8883 37.6424 77.7478 37.378 77.6914 37.0906C77.635 36.8032 77.6652 36.5056 77.7783 36.2353C77.8913 35.9649 78.0822 35.734 78.3267 35.5715C78.5713 35.4091 78.8586 35.3224 79.1526 35.3224C79.3489 35.3232 79.5432 35.3626 79.7243 35.4383C79.9054 35.5139 80.0698 35.6244 80.2081 35.7633C80.3463 35.9023 80.4558 36.067 80.5301 36.2481C80.6045 36.4292 80.6423 36.6231 80.6415 36.8187Z" fill="#9D9CAE"/>
<path d="M95.8143 36.8187C95.8105 37.11 95.7203 37.3937 95.5551 37.634C95.3899 37.8744 95.1571 38.0607 94.8859 38.1696C94.6147 38.2784 94.3172 38.3049 94.0309 38.2458C93.7446 38.1866 93.4823 38.0445 93.2769 37.8371C93.0715 37.6298 92.9322 37.3666 92.8766 37.0806C92.8209 36.7946 92.8514 36.4986 92.9641 36.2299C93.0769 35.9611 93.2669 35.7315 93.5102 35.5701C93.7536 35.4086 94.0394 35.3224 94.3318 35.3224C94.5279 35.3232 94.7219 35.3626 94.9026 35.4384C95.0833 35.5141 95.2473 35.6247 95.385 35.7637C95.5228 35.9027 95.6316 36.0675 95.7053 36.2486C95.7789 36.4296 95.816 36.6234 95.8143 36.8187Z" fill="#9D9CAE"/>
<path d="M110.994 36.8187C110.991 37.1132 110.9 37.4002 110.733 37.6432C110.566 37.8862 110.331 38.0743 110.056 38.1834C109.782 38.2924 109.481 38.3176 109.192 38.2558C108.903 38.1939 108.639 38.0477 108.434 37.8359C108.228 37.6241 108.091 37.3562 108.039 37.0663C107.987 36.7764 108.023 36.4776 108.142 36.2081C108.261 35.9385 108.458 35.7104 108.707 35.5526C108.957 35.3949 109.248 35.3148 109.543 35.3224C109.934 35.3325 110.304 35.495 110.576 35.7749C110.847 36.0548 110.997 36.4297 110.994 36.8187Z" fill="#9D9CAE"/>
<path d="M2.98426 51.1882C2.98554 51.4819 2.8993 51.7693 2.73647 52.0141C2.57364 52.2589 2.34156 52.4501 2.06961 52.5633C1.79766 52.6766 1.49808 52.7069 1.20884 52.6504C0.919594 52.5939 0.653692 52.4531 0.444818 52.2459C0.235943 52.0387 0.0934961 51.7743 0.0355215 51.4864C-0.0224532 51.1985 0.00665361 50.8998 0.119154 50.6284C0.231655 50.3569 0.422488 50.1249 0.667477 49.9616C0.912466 49.7983 1.20059 49.7111 1.49534 49.7111C1.69056 49.7103 1.88403 49.7478 2.06464 49.8217C2.24525 49.8955 2.40943 50.0042 2.54778 50.1415C2.68612 50.2787 2.7959 50.4418 2.8708 50.6214C2.9457 50.8011 2.98426 50.9937 2.98426 51.1882Z" fill="#9D9CAE"/>
<path d="M18.1635 51.1882C18.1648 51.4819 18.0785 51.7693 17.9157 52.0141C17.7529 52.2589 17.5208 52.4501 17.2488 52.5633C16.9769 52.6766 16.6773 52.7069 16.3881 52.6504C16.0988 52.5939 15.8329 52.4531 15.6241 52.2459C15.4152 52.0387 15.2727 51.7743 15.2148 51.4864C15.1568 51.1985 15.1859 50.8998 15.2984 50.6284C15.4109 50.3569 15.6017 50.1249 15.8467 49.9616C16.0917 49.7983 16.3798 49.7111 16.6746 49.7111C17.0683 49.7111 17.4461 49.8665 17.7251 50.1433C18.0042 50.4202 18.1618 50.7959 18.1635 51.1882Z" fill="#9D9CAE"/>
<path d="M33.3363 51.1882C33.3363 51.4803 33.2493 51.7659 33.0864 52.0088C32.9235 52.2517 32.692 52.441 32.4211 52.5528C32.1502 52.6646 31.8522 52.6939 31.5646 52.6369C31.277 52.5799 31.0129 52.4392 30.8055 52.2326C30.5982 52.0261 30.457 51.7629 30.3998 51.4764C30.3426 51.1898 30.372 50.8928 30.4842 50.6229C30.5964 50.353 30.7864 50.1223 31.0302 49.96C31.274 49.7977 31.5606 49.7111 31.8538 49.7111C32.247 49.7111 32.6241 49.8667 32.9021 50.1437C33.1801 50.4207 33.3363 50.7964 33.3363 51.1882Z" fill="#9D9CAE"/>
<path d="M48.5155 51.1882C48.5167 51.4835 48.4294 51.7724 48.2648 52.018C48.1002 52.2636 47.8658 52.4546 47.5916 52.5667C47.3174 52.6787 47.0158 52.7067 46.7256 52.647C46.4353 52.5873 46.1695 52.4426 45.9623 52.2315C45.755 52.0204 45.6157 51.7525 45.5622 51.4621C45.5086 51.1716 45.5433 50.8719 45.6618 50.6012C45.7803 50.3305 45.9771 50.1012 46.2271 49.9426C46.4772 49.784 46.769 49.7034 47.0653 49.7111C47.4528 49.7195 47.8217 49.8788 48.0928 50.1549C48.3639 50.431 48.5156 50.8019 48.5155 51.1882Z" fill="#9D9CAE"/>
<path d="M2.98426 62.9663C2.98554 63.2599 2.8993 63.5474 2.73647 63.7922C2.57364 64.037 2.34156 64.2281 2.06961 64.3414C1.79766 64.4547 1.49808 64.485 1.20884 64.4285C0.919594 64.3719 0.653692 64.2312 0.444818 64.024C0.235943 63.8167 0.0934961 63.5524 0.0355215 63.2645C-0.0224532 62.9765 0.00665361 62.6779 0.119154 62.4065C0.231655 62.135 0.422488 61.903 0.667477 61.7397C0.912466 61.5764 1.20059 61.4892 1.49534 61.4892C1.69056 61.4883 1.88403 61.5259 2.06464 61.5998C2.24525 61.6736 2.40943 61.7823 2.54778 61.9195C2.68612 62.0568 2.7959 62.2199 2.8708 62.3995C2.9457 62.5792 2.98426 62.7718 2.98426 62.9663Z" fill="#9D9CAE"/>
<path d="M18.1635 62.9663C18.1648 63.2599 18.0785 63.5474 17.9157 63.7922C17.7529 64.037 17.5208 64.2281 17.2488 64.3414C16.9769 64.4547 16.6773 64.485 16.3881 64.4285C16.0988 64.3719 15.8329 64.2312 15.6241 64.024C15.4152 63.8167 15.2727 63.5524 15.2148 63.2645C15.1568 62.9765 15.1859 62.6779 15.2984 62.4065C15.4109 62.135 15.6017 61.903 15.8467 61.7397C16.0917 61.5764 16.3798 61.4892 16.6746 61.4892C17.0683 61.4892 17.4461 61.6446 17.7251 61.9214C18.0042 62.1982 18.1618 62.5739 18.1635 62.9663Z" fill="#9D9CAE"/>
<path d="M33.3363 62.9663C33.3363 63.2584 33.2493 63.544 33.0864 63.7869C32.9235 64.0298 32.692 64.2191 32.4211 64.3309C32.1502 64.4427 31.8522 64.472 31.5646 64.415C31.277 64.358 31.0129 64.2173 30.8055 64.0107C30.5982 63.8041 30.457 63.541 30.3998 63.2544C30.3426 62.9679 30.372 62.6709 30.4842 62.401C30.5964 62.1311 30.7864 61.9004 31.0302 61.7381C31.274 61.5758 31.5606 61.4892 31.8538 61.4892C32.247 61.4892 32.6241 61.6448 32.9021 61.9218C33.1801 62.1988 33.3363 62.5745 33.3363 62.9663Z" fill="#9D9CAE"/>
<path d="M48.5155 62.9663C48.5168 63.2602 48.4304 63.5479 48.2673 63.7929C48.1042 64.0378 47.8717 64.2289 47.5994 64.342C47.327 64.4551 47.0271 64.485 46.7377 64.428C46.4483 64.3709 46.1824 64.2295 45.9738 64.0217C45.7652 63.8138 45.6232 63.5489 45.566 63.2605C45.5087 62.9722 45.5388 62.6733 45.6523 62.402C45.7658 62.1307 45.9576 61.899 46.2034 61.7365C46.4493 61.574 46.738 61.4879 47.033 61.4892C47.4262 61.4892 47.8033 61.6448 48.0813 61.9218C48.3593 62.1988 48.5155 62.5745 48.5155 62.9663Z" fill="#9D9CAE"/>
<path d="M2.98426 74.7572C2.98426 75.0506 2.89694 75.3374 2.73333 75.5814C2.56973 75.8253 2.33719 76.0155 2.06513 76.1278C1.79306 76.2401 1.49369 76.2694 1.20487 76.2122C0.916046 76.1549 0.650746 76.0137 0.442517 75.8062C0.234288 75.5987 0.0924826 75.3344 0.0350323 75.0466C-0.0224179 74.7588 0.00706761 74.4606 0.11976 74.1895C0.232453 73.9184 0.423292 73.6867 0.668143 73.5237C0.912994 73.3607 1.20086 73.2737 1.49534 73.2737C1.69111 73.2728 1.8851 73.3106 2.06613 73.3849C2.24716 73.4591 2.41164 73.5684 2.55007 73.7063C2.6885 73.8442 2.79814 74.0081 2.87266 74.1885C2.94718 74.3688 2.98511 74.5621 2.98426 74.7572Z" fill="#9D9CAE"/>
<path d="M18.1635 74.7572C18.1635 75.0506 18.0762 75.3374 17.9126 75.5814C17.749 75.8253 17.5164 76.0155 17.2444 76.1278C16.9723 76.2401 16.6729 76.2694 16.3841 76.2122C16.0953 76.1549 15.83 76.0137 15.6218 75.8062C15.4135 75.5987 15.2717 75.3344 15.2143 75.0466C15.1568 74.7588 15.1863 74.4606 15.299 74.1895C15.4117 73.9184 15.6025 73.6867 15.8474 73.5237C16.0922 73.3607 16.3801 73.2737 16.6746 73.2737C17.0695 73.2737 17.4482 73.43 17.7274 73.7082C18.0066 73.9864 18.1635 74.3637 18.1635 74.7572Z" fill="#9D9CAE"/>
<path d="M33.3363 74.7572C33.335 75.0491 33.247 75.334 33.0833 75.5761C32.9196 75.8181 32.6877 76.0064 32.4167 76.1172C32.1457 76.2281 31.8478 76.2564 31.5607 76.1987C31.2735 76.141 31.01 75.9998 30.8033 75.793C30.5966 75.5861 30.4561 75.3229 30.3994 75.0366C30.3427 74.7502 30.3724 74.4536 30.4848 74.184C30.5972 73.9145 30.7872 73.6842 31.0309 73.5222C31.2745 73.3602 31.5609 73.2737 31.8538 73.2737C32.049 73.2737 32.2423 73.3121 32.4226 73.3867C32.6029 73.4614 32.7666 73.5707 32.9044 73.7086C33.0421 73.8464 33.1512 74.01 33.2253 74.19C33.2994 74.3699 33.3371 74.5627 33.3363 74.7572Z" fill="#9D9CAE"/>
<path d="M48.5155 74.7572C48.5154 75.0522 48.427 75.3405 48.2617 75.5852C48.0963 75.83 47.8614 76.02 47.5871 76.1311C47.3128 76.2421 47.0114 76.2692 46.7216 76.2087C46.4318 76.1483 46.1666 76.0031 45.96 75.7918C45.7534 75.5804 45.6147 75.3125 45.5617 75.0223C45.5087 74.732 45.5438 74.4326 45.6624 74.1623C45.7811 73.892 45.9779 73.663 46.2278 73.5048C46.4777 73.3465 46.7693 73.266 47.0653 73.2737C47.454 73.2821 47.8238 73.4423 48.095 73.7198C48.3663 73.9973 48.5173 74.3698 48.5155 74.7572Z" fill="#9D9CAE"/>
<path d="M2.98426 86.5289C2.98172 86.8217 2.89223 87.1072 2.72709 87.3495C2.56195 87.5918 2.32853 87.7799 2.05625 87.8902C1.78397 88.0005 1.48501 88.0281 1.19705 87.9694C0.909079 87.9107 0.644986 87.7684 0.438045 87.5605C0.231104 87.3525 0.0905726 87.0881 0.0341594 86.8007C-0.0222538 86.5133 0.00797492 86.2157 0.121037 85.9454C0.234098 85.675 0.424934 85.4441 0.669498 85.2817C0.914063 85.1192 1.20141 85.0325 1.49534 85.0325C1.69196 85.0325 1.88663 85.0713 2.06812 85.1467C2.24961 85.222 2.41432 85.3324 2.55275 85.4715C2.69118 85.6107 2.80058 85.7757 2.87464 85.9572C2.94871 86.1387 2.98596 86.333 2.98426 86.5289Z" fill="#9D9CAE"/>
<path d="M18.1635 86.5289C18.1609 86.8217 18.0715 87.1072 17.9063 87.3495C17.7412 87.5918 17.5078 87.7799 17.2355 87.8902C16.9632 88.0005 16.6642 88.0281 16.3763 87.9694C16.0883 87.9107 15.8242 87.7684 15.6173 87.5605C15.4103 87.3525 15.2698 87.0881 15.2134 86.8007C15.157 86.5133 15.1872 86.2157 15.3003 85.9454C15.4133 85.675 15.6042 85.4441 15.8487 85.2817C16.0933 85.1192 16.3806 85.0325 16.6746 85.0325C16.871 85.0333 17.0652 85.0727 17.2463 85.1484C17.4274 85.224 17.5918 85.3345 17.7301 85.4734C17.8683 85.6124 17.9778 85.7771 18.0521 85.9582C18.1265 86.1393 18.1643 86.3332 18.1635 86.5289Z" fill="#9D9CAE"/>
<path d="M33.3363 86.5289C33.3325 86.8201 33.2423 87.1038 33.0771 87.3442C32.9119 87.5845 32.6791 87.7708 32.4079 87.8797C32.1367 87.9885 31.8392 88.015 31.5529 87.9559C31.2666 87.8967 31.0043 87.7546 30.7989 87.5472C30.5935 87.3399 30.4542 87.0767 30.3986 86.7907C30.3429 86.5047 30.3734 86.2087 30.4861 85.94C30.5989 85.6712 30.7889 85.4416 31.0322 85.2802C31.2756 85.1187 31.5614 85.0325 31.8538 85.0325C32.0499 85.0333 32.2439 85.0728 32.4246 85.1485C32.6054 85.2242 32.7693 85.3348 32.907 85.4738C33.0448 85.6129 33.1536 85.7776 33.2273 85.9587C33.3009 86.1397 33.338 86.3335 33.3363 86.5289Z" fill="#9D9CAE"/>
<path d="M48.5155 86.5288C48.5129 86.8233 48.4223 87.1103 48.2554 87.3533C48.0885 87.5964 47.8527 87.7844 47.5782 87.8935C47.3037 88.0025 47.0028 88.0278 46.7138 87.9659C46.4249 87.904 46.1609 87.7579 45.9556 87.546C45.7503 87.3342 45.6129 87.0663 45.5609 86.7764C45.509 86.4865 45.5448 86.1877 45.6638 85.9182C45.7828 85.6486 45.9796 85.4205 46.2292 85.2627C46.4788 85.105 46.7698 85.0249 47.0653 85.0325C47.4557 85.0426 47.8264 85.2051 48.0977 85.485C48.369 85.7649 48.519 86.1398 48.5155 86.5288Z" fill="#9D9CAE"/>
<path d="M65.4687 51.1887C65.47 51.4824 65.3837 51.7698 65.2209 52.0146C65.0581 52.2594 64.826 52.4506 64.554 52.5638C64.2821 52.6771 63.9825 52.7074 63.6933 52.6509C63.404 52.5944 63.1381 52.4536 62.9292 52.2464C62.7204 52.0392 62.5779 51.7748 62.5199 51.4869C62.462 51.1989 62.4911 50.9003 62.6036 50.6289C62.7161 50.3574 62.9069 50.1254 63.1519 49.9621C63.3969 49.7988 63.685 49.7116 63.9798 49.7116C64.175 49.7108 64.3684 49.7483 64.549 49.8222C64.7297 49.896 64.8938 50.0047 65.0322 50.142C65.1705 50.2792 65.2803 50.4423 65.3552 50.6219C65.4301 50.8016 65.4687 50.9942 65.4687 51.1887Z" fill="#9D9CAE"/>
<path d="M80.6479 51.1887C80.6492 51.4824 80.563 51.7698 80.4001 52.0146C80.2373 52.2594 80.0052 52.4506 79.7333 52.5638C79.4613 52.6771 79.1617 52.7074 78.8725 52.6509C78.5832 52.5944 78.3173 52.4536 78.1085 52.2464C77.8996 52.0392 77.7571 51.7748 77.6992 51.4869C77.6412 51.1989 77.6703 50.9003 77.7828 50.6289C77.8953 50.3574 78.0861 50.1254 78.3311 49.9621C78.5761 49.7988 78.8642 49.7116 79.159 49.7116C79.5528 49.7116 79.9305 49.867 80.2095 50.1438C80.4886 50.4207 80.6462 50.7964 80.6479 51.1887Z" fill="#9D9CAE"/>
<path d="M95.8207 51.1887C95.8207 51.4808 95.7338 51.7664 95.5709 52.0093C95.408 52.2522 95.1764 52.4415 94.9055 52.5533C94.6347 52.6651 94.3366 52.6944 94.049 52.6374C93.7614 52.5804 93.4973 52.4397 93.29 52.2331C93.0826 52.0266 92.9414 51.7634 92.8842 51.4768C92.827 51.1903 92.8564 50.8933 92.9686 50.6234C93.0808 50.3535 93.2708 50.1228 93.5146 49.9605C93.7584 49.7982 94.045 49.7116 94.3382 49.7116C94.7314 49.7116 95.1085 49.8672 95.3865 50.1442C95.6645 50.4212 95.8207 50.7969 95.8207 51.1887Z" fill="#9D9CAE"/>
<path d="M111 51.1887C111.001 51.484 110.914 51.7729 110.749 52.0185C110.585 52.2641 110.35 52.4551 110.076 52.5672C109.802 52.6792 109.5 52.7072 109.21 52.6475C108.92 52.5878 108.654 52.4431 108.447 52.232C108.239 52.0209 108.1 51.753 108.047 51.4626C107.993 51.1721 108.028 50.8724 108.146 50.6017C108.265 50.331 108.462 50.1017 108.712 49.9431C108.962 49.7845 109.253 49.7039 109.55 49.7116C109.937 49.72 110.306 49.8793 110.577 50.1554C110.848 50.4315 111 50.8024 111 51.1887Z" fill="#9D9CAE"/>
<path d="M65.4687 62.9668C65.47 63.2604 65.3837 63.5479 65.2209 63.7927C65.0581 64.0375 64.826 64.2286 64.554 64.3419C64.2821 64.4552 63.9825 64.4855 63.6933 64.429C63.404 64.3724 63.1381 64.2317 62.9292 64.0245C62.7204 63.8172 62.5779 63.5529 62.5199 63.265C62.462 62.977 62.4911 62.6784 62.6036 62.407C62.7161 62.1355 62.9069 61.9035 63.1519 61.7402C63.3969 61.5769 63.685 61.4897 63.9798 61.4897C64.175 61.4888 64.3684 61.5264 64.549 61.6003C64.7297 61.6741 64.8938 61.7828 65.0322 61.92C65.1705 62.0573 65.2803 62.2204 65.3552 62.4C65.4301 62.5797 65.4687 62.7723 65.4687 62.9668Z" fill="#9D9CAE"/>
<path d="M80.6479 62.9668C80.6492 63.2604 80.563 63.5479 80.4001 63.7927C80.2373 64.0375 80.0052 64.2286 79.7333 64.3419C79.4613 64.4552 79.1617 64.4855 78.8725 64.429C78.5832 64.3724 78.3173 64.2317 78.1085 64.0245C77.8996 63.8172 77.7571 63.5529 77.6992 63.265C77.6412 62.977 77.6703 62.6784 77.7828 62.407C77.8953 62.1355 78.0861 61.9035 78.3311 61.7402C78.5761 61.5769 78.8642 61.4897 79.159 61.4897C79.5528 61.4897 79.9305 61.6451 80.2095 61.9219C80.4886 62.1987 80.6462 62.5744 80.6479 62.9668Z" fill="#9D9CAE"/>
<path d="M95.8207 62.9668C95.8207 63.2589 95.7338 63.5445 95.5709 63.7874C95.408 64.0303 95.1764 64.2196 94.9055 64.3314C94.6347 64.4432 94.3366 64.4725 94.049 64.4155C93.7614 64.3585 93.4973 64.2178 93.29 64.0112C93.0826 63.8046 92.9414 63.5415 92.8842 63.2549C92.827 62.9684 92.8564 62.6714 92.9686 62.4015C93.0808 62.1316 93.2708 61.9009 93.5146 61.7386C93.7584 61.5763 94.045 61.4897 94.3382 61.4897C94.7314 61.4897 95.1085 61.6453 95.3865 61.9223C95.6645 62.1993 95.8207 62.575 95.8207 62.9668Z" fill="#9D9CAE"/>
<path d="M111 62.9668C111.001 63.2607 110.915 63.5484 110.752 63.7934C110.589 64.0383 110.356 64.2294 110.084 64.3425C109.811 64.4556 109.512 64.4855 109.222 64.4285C108.933 64.3714 108.667 64.23 108.458 64.0222C108.25 63.8143 108.108 63.5494 108.05 63.261C107.993 62.9726 108.023 62.6738 108.137 62.4025C108.25 62.1312 108.442 61.8995 108.688 61.737C108.934 61.5745 109.222 61.4884 109.517 61.4897C109.911 61.4897 110.288 61.6453 110.566 61.9223C110.844 62.1993 111 62.575 111 62.9668Z" fill="#9D9CAE"/>
<path d="M65.4687 74.7577C65.4687 75.0511 65.3814 75.3379 65.2178 75.5819C65.0541 75.8258 64.8216 76.016 64.5495 76.1283C64.2775 76.2405 63.9781 76.2699 63.6893 76.2127C63.4005 76.1554 63.1352 76.0142 62.9269 75.8067C62.7187 75.5992 62.5769 75.3349 62.5194 75.0471C62.462 74.7593 62.4915 74.4611 62.6042 74.19C62.7169 73.9189 62.9077 73.6872 63.1526 73.5242C63.3974 73.3612 63.6853 73.2742 63.9798 73.2742C64.1755 73.2733 64.3695 73.3111 64.5505 73.3854C64.7316 73.4596 64.896 73.5689 65.0345 73.7068C65.1729 73.8447 65.2825 74.0086 65.3571 74.189C65.4316 74.3693 65.4695 74.5626 65.4687 74.7577Z" fill="#9D9CAE"/>
<path d="M80.6479 74.7577C80.6479 75.0511 80.5606 75.3379 80.397 75.5819C80.2334 75.8258 80.0008 76.016 79.7288 76.1283C79.4567 76.2405 79.1573 76.2699 78.8685 76.2127C78.5797 76.1554 78.3144 76.0142 78.1062 75.8067C77.8979 75.5992 77.7561 75.3349 77.6987 75.0471C77.6412 74.7593 77.6707 74.4611 77.7834 74.19C77.8961 73.9189 78.0869 73.6872 78.3318 73.5242C78.5766 73.3612 78.8645 73.2742 79.159 73.2742C79.5539 73.2742 79.9326 73.4305 80.2118 73.7087C80.491 73.9869 80.6479 74.3642 80.6479 74.7577Z" fill="#9D9CAE"/>
<path d="M95.8207 74.7577C95.8194 75.0496 95.7314 75.3345 95.5677 75.5766C95.4041 75.8186 95.1721 76.0069 94.9011 76.1177C94.6301 76.2286 94.3322 76.2569 94.0451 76.1992C93.7579 76.1415 93.4944 76.0003 93.2877 75.7934C93.081 75.5866 92.9405 75.3234 92.8838 75.0371C92.8271 74.7507 92.8568 74.4541 92.9692 74.1845C93.0816 73.915 93.2716 73.6847 93.5153 73.5227C93.7589 73.3607 94.0453 73.2742 94.3382 73.2742C94.5335 73.2742 94.7268 73.3126 94.907 73.3872C95.0873 73.4619 95.251 73.5712 95.3888 73.7091C95.5265 73.8469 95.6356 74.0105 95.7097 74.1905C95.7838 74.3704 95.8215 74.5632 95.8207 74.7577Z" fill="#9D9CAE"/>
<path d="M111 74.7577C111 75.0527 110.911 75.341 110.746 75.5857C110.581 75.8305 110.346 76.0205 110.072 76.1316C109.797 76.2426 109.496 76.2697 109.206 76.2092C108.916 76.1488 108.651 76.0036 108.444 75.7923C108.238 75.5809 108.099 75.313 108.046 75.0228C107.993 74.7325 108.028 74.4331 108.147 74.1628C108.265 73.8925 108.462 73.6635 108.712 73.5053C108.962 73.347 109.254 73.2665 109.55 73.2742C109.938 73.2826 110.308 73.4428 110.579 73.7203C110.851 73.9978 111.002 74.3703 111 74.7577Z" fill="#9D9CAE"/>
<path d="M65.4687 86.5294C65.4661 86.8222 65.3766 87.1077 65.2115 87.35C65.0464 87.5923 64.8129 87.7804 64.5407 87.8907C64.2684 88.001 63.9694 88.0286 63.6815 87.9699C63.3935 87.9112 63.1294 87.7689 62.9225 87.561C62.7155 87.353 62.575 87.0886 62.5186 86.8012C62.4622 86.5138 62.4924 86.2162 62.6054 85.9459C62.7185 85.6755 62.9094 85.4446 63.1539 85.2822C63.3985 85.1197 63.6858 85.033 63.9798 85.033C64.1764 85.033 64.371 85.0718 64.5525 85.1471C64.734 85.2225 64.8987 85.3329 65.0372 85.472C65.1756 85.6112 65.285 85.7762 65.3591 85.9577C65.4331 86.1392 65.4704 86.3335 65.4687 86.5294Z" fill="#9D9CAE"/>
<path d="M80.6479 86.5294C80.6454 86.8222 80.5559 87.1077 80.3907 87.35C80.2256 87.5923 79.9922 87.7804 79.7199 87.8907C79.4476 88.001 79.1487 88.0286 78.8607 87.9699C78.5727 87.9112 78.3086 87.7689 78.1017 87.561C77.8948 87.353 77.7542 87.0886 77.6978 86.8012C77.6414 86.5138 77.6716 86.2162 77.7847 85.9459C77.8978 85.6755 78.0886 85.4446 78.3331 85.2822C78.5777 85.1197 78.8651 85.033 79.159 85.033C79.3554 85.0338 79.5497 85.0732 79.7308 85.1489C79.9119 85.2245 80.0762 85.335 80.2145 85.4739C80.3527 85.6129 80.4622 85.7776 80.5365 85.9587C80.6109 86.1398 80.6488 86.3337 80.6479 86.5294Z" fill="#9D9CAE"/>
<path d="M95.8207 86.5294C95.8169 86.8206 95.7267 87.1043 95.5615 87.3447C95.3963 87.585 95.1635 87.7713 94.8923 87.8802C94.6211 87.989 94.3236 88.0155 94.0373 87.9564C93.7511 87.8972 93.4887 87.7551 93.2833 87.5477C93.0779 87.3404 92.9386 87.0772 92.883 86.7912C92.8273 86.5052 92.8578 86.2093 92.9706 85.9405C93.0833 85.6717 93.2733 85.4421 93.5167 85.2807C93.76 85.1192 94.0459 85.033 94.3382 85.033C94.5343 85.0338 94.7283 85.0733 94.909 85.149C95.0898 85.2247 95.2537 85.3353 95.3915 85.4743C95.5292 85.6133 95.638 85.7781 95.7117 85.9592C95.7854 86.1402 95.8224 86.334 95.8207 86.5294Z" fill="#9D9CAE"/>
<path d="M111 86.5293C110.997 86.8238 110.907 87.1108 110.74 87.3538C110.573 87.5969 110.337 87.7849 110.063 87.894C109.788 88.003 109.487 88.0283 109.198 87.9664C108.909 87.9045 108.645 87.7583 108.44 87.5465C108.235 87.3347 108.097 87.0668 108.045 86.7769C107.993 86.487 108.029 86.1882 108.148 85.9187C108.267 85.6491 108.464 85.421 108.714 85.2632C108.963 85.1055 109.254 85.0254 109.55 85.033C109.94 85.0431 110.311 85.2056 110.582 85.4855C110.853 85.7654 111.003 86.1403 111 86.5293Z" fill="#9D9CAE"/>
</svg>
