<svg width="205" height="15" viewBox="0 0 205 15" fill="none" xmlns="http://www.w3.org/2000/svg">
<path d="M4.54953 9.94854C6.16951 9.90605 7.78811 9.81105 9.39974 9.74011L11.3681 9.63116L20.0541 9.13103C23.4889 8.92946 26.9489 8.72405 30.4342 8.51479L45.2666 7.60501L48.6637 7.41559L57.304 6.91665L65.9453 6.45114C67.0776 6.38799 68.2249 6.3149 69.3347 6.26191L83.124 5.62794L91.6075 5.23824C92.7103 5.20932 93.8193 5.12767 94.9294 5.08901L108.259 4.62477L121.421 4.15537C122.585 4.12486 123.703 4.09554 124.897 4.06422L133.49 3.81497L146.837 3.41241L151.21 3.29772L160.337 3.05838L161.097 3.03843C154.233 3.27577 147.37 3.51629 140.506 3.75999L131.938 4.09937C130.705 4.13168 129.466 4.16419 128.227 4.23012L115.79 4.76652L101.414 5.38719C100.608 5.40834 99.8028 5.47245 99.0048 5.51727L91.3443 5.94273L75.818 6.79904C75.0574 6.81898 74.2982 6.89145 73.5386 6.94482L65.9417 7.47373L52.3737 8.42202C51.1277 8.50725 49.8824 8.61635 48.6369 8.71591L39.9487 9.42156L28.8975 10.28L13.5336 11.5286L9.84259 11.8261C7.64011 12.0033 5.44674 12.2376 3.25274 12.448C3.19138 12.4445 3.1292 12.4493 3.07036 12.462C3.01152 12.4748 2.95739 12.4952 2.91159 12.522C2.86578 12.5488 2.82937 12.5812 2.80478 12.6172C2.78019 12.6532 2.76799 12.6919 2.76901 12.7306C2.77002 12.7694 2.78423 12.8074 2.81067 12.8421C2.83711 12.8767 2.87518 12.9072 2.92233 12.9315C2.96947 12.9559 3.0246 12.9734 3.08403 12.9831C3.14345 12.9928 3.2058 12.9943 3.26689 12.9875L5.6796 12.9912C5.57937 13.1244 5.5285 13.2696 5.53091 13.4155C5.5398 13.6785 5.71372 13.926 6.01484 14.1042C6.31596 14.2824 6.71993 14.3769 7.13891 14.3672C13.4222 13.954 19.705 13.5216 25.9975 13.1703L42.3825 12.2628L60.4924 11.2479L66.1996 10.9262C66.7472 10.9119 67.2938 10.8593 67.8412 10.8354L97.034 9.59204L112.634 8.92493C114.519 8.84682 116.397 8.7689 118.275 8.70054L148.134 7.62603L160.931 7.16143C164.573 7.0277 168.216 6.91784 171.857 6.73635L180.879 6.28474C182.399 6.21142 183.92 6.14766 185.378 6.05207L195.596 5.3493C195.411 5.5626 195.366 5.81103 195.47 6.04066C195.574 6.26315 195.814 6.44895 196.138 6.55827C196.303 6.61551 196.485 6.65056 196.674 6.66123C196.863 6.67189 197.054 6.65795 197.236 6.62027C197.991 6.41411 198.747 6.20318 199.449 5.98886L199.403 5.99006L199.562 5.9429L199.751 5.88539L199.682 5.88719L200.853 5.54591L202.084 5.18395C202.522 5.04823 202.952 4.88885 203.374 4.73444C203.606 4.63878 203.796 4.5074 203.926 4.35321C204.055 4.19902 204.119 4.02734 204.112 3.85504C204.106 3.63852 203.987 3.43101 203.774 3.26409C203.56 3.09717 203.264 2.97999 202.931 2.93041C202.542 2.89761 202.168 2.87396 201.779 2.85548L201.521 2.86226C201.262 2.86905 200.996 2.87603 200.761 2.91563C200.183 2.93079 199.607 3.02712 199.03 3.06615L197.609 3.1703L193.811 3.44191L192.824 3.51081C192.941 3.42198 193.026 3.31864 193.074 3.208C193.132 3.12037 193.163 3.02719 193.166 2.93325L193.206 2.72674C193.202 2.6403 193.174 2.55534 193.124 2.47567L193.222 2.44443C193.456 2.35077 193.652 2.2225 193.79 2.07116C193.913 1.91773 193.977 1.74896 193.975 1.57896C193.967 1.40132 193.886 1.22912 193.742 1.07862L193.485 0.884662C193.286 0.76641 193.04 0.683889 192.771 0.645376C192.28 0.550082 191.763 0.513417 191.246 0.53725C190.828 0.54822 190.394 0.559589 189.977 0.594432L188.136 0.6427C187.269 0.665437 186.41 0.687976 185.543 0.710713L178.698 0.890221C176.545 0.946666 174.393 1.00311 172.241 1.05956L166.369 1.21353C158.566 1.41817 150.771 1.65126 142.969 1.90365L125.42 2.53587C122.803 2.60449 120.196 2.7111 117.58 2.81791L100.003 3.513L94.9923 3.71129C94.0188 3.73682 93.054 3.80512 92.0811 3.85453L74.7132 4.7209L69.3927 4.98944C68.4046 5.03924 67.4093 5.10357 66.4214 5.16292L49.2025 6.1974C46.2314 6.37565 43.2682 6.56803 40.2975 6.76061L25.0641 7.76213C20.665 8.04951 16.2654 8.31778 11.8658 8.58605L9.77628 8.7173L6.39482 8.92065C5.39164 8.97563 4.38808 9.01628 3.35335 9.02908C3.30362 8.94693 3.21386 8.87725 3.09663 8.82978C2.97939 8.78231 2.84054 8.75942 2.69949 8.76432C2.0539 8.8147 1.40855 8.87463 0.76321 8.93455C0.613154 8.94494 0.470258 8.98301 0.352626 9.04393C0.234993 9.10486 0.14792 9.1859 0.102437 9.27679C0.0592579 9.39196 0.0901477 9.51204 0.18833 9.61068C0.286512 9.70933 0.443968 9.77848 0.626158 9.80297L1.47363 9.90497C1.75527 9.93397 2.04068 9.94885 2.3272 9.94948C3.06607 9.97311 3.81166 9.96311 4.54953 9.94854ZM182.479 3.74865L185.316 3.67425C185.402 3.80512 185.535 3.92099 185.705 4.01283C185.341 4.04151 184.976 4.0654 184.611 4.08453L182.544 4.18653L173.506 4.62899C172.131 4.69851 170.755 4.78236 169.379 4.83279L162.923 5.06419L148.173 5.59915L119.538 6.63677C112.694 6.88313 105.853 7.19633 99.0109 7.49043L68.1762 8.81031C66.1161 8.90256 64.0495 9.03798 61.9901 9.1541L44.4656 10.144L27.2677 11.1111L25.6718 11.2007L30.3052 10.8498L46.4922 9.64653L52.1436 9.22598L55.0611 9.0348L71.8986 7.96732C72.9927 7.89562 74.0865 7.81438 75.1886 7.75681L79.9691 7.50244L97.3366 6.62174L101.137 6.43129C101.472 6.42251 101.806 6.41374 102.149 6.40476L104.832 6.30093L122.236 5.61997C124.904 5.51654 127.558 5.40873 130.25 5.3238C138.881 5.05445 147.504 4.77098 156.105 4.52152C164.904 4.25256 173.695 3.98379 182.487 3.74845L182.479 3.74865Z" fill="#FFCD1F"/>
</svg>
