<svg width="35" height="35" viewBox="0 0 35 35" fill="none" xmlns="http://www.w3.org/2000/svg">
<path d="M2.24642 26.3247C2.87877 27.3372 3.89709 28.0477 5.06567 28.2917C5.87782 28.4964 6.71318 28.5944 7.55067 28.5833C8.85764 28.5667 10.1591 28.4103 11.4327 28.1167C12.8053 32.3248 14.9917 35 17.5 35C20.0083 35 22.1947 32.3248 23.5667 28.1167C24.8404 28.4101 26.1418 28.5665 27.4487 28.5833C28.2862 28.5944 29.1216 28.4963 29.9337 28.2917C31.102 28.0481 32.1203 27.3383 32.753 26.3264C34.0217 24.1243 32.7699 20.8431 29.7564 17.5018C32.7699 14.1622 34.0217 10.8792 32.753 8.67708C32.1211 7.66402 31.103 6.95288 29.9343 6.70833C28.2526 6.25683 26.0423 6.34025 23.5678 6.88333C22.1952 2.67633 20.0083 0 17.5 0C14.9917 0 12.8042 2.67633 11.4333 6.88333C8.95942 6.34025 6.74917 6.25742 5.06742 6.70833C3.89914 6.9519 2.88087 7.66171 2.24817 8.67358C0.977667 10.8774 2.2295 14.1604 5.243 17.5C2.2295 20.8396 0.977666 24.1226 2.24642 26.3247ZM5.36667 27.1629C4.50056 26.9938 3.73972 26.4814 3.25733 25.7425C2.26567 24.0234 3.44808 21.2508 6.05733 18.3552C7.32202 19.6206 8.68764 20.781 10.1407 21.8248C10.3189 23.5691 10.6378 25.2962 11.0944 26.9891C8.84158 27.475 6.846 27.559 5.36667 27.1629ZM13.6844 10.8786C12.9047 11.3301 12.1543 11.7956 11.4333 12.2751C11.6144 10.9304 11.8829 9.59894 12.2372 8.28917C13.5438 8.64255 14.8265 9.07939 16.0772 9.597C15.2804 9.99133 14.4828 10.4185 13.6844 10.8786ZM14.2677 11.8889C15.3382 11.27 16.4208 10.7112 17.5 10.2153C18.5786 10.7118 19.663 11.2694 20.734 11.8889C21.7927 12.5014 22.7984 13.1501 23.7457 13.8198C23.8583 15.0074 23.9207 16.2388 23.9207 17.5C23.9207 18.7612 23.8624 19.9926 23.7457 21.1803C22.7984 21.8499 21.7927 22.4986 20.734 23.1111C19.6612 23.73 18.5774 24.29 17.5 24.7858C16.4226 24.29 15.3417 23.73 14.2689 23.1111C13.2102 22.4986 12.2045 21.8499 11.2572 21.1803C11.1446 19.9926 11.0833 18.7612 11.0833 17.5C11.0833 16.2388 11.1446 15.0074 11.2583 13.8198C12.2045 13.1501 13.2102 12.5014 14.2689 11.8889H14.2677ZM18.921 9.59758C20.171 9.07953 21.4529 8.64191 22.7587 8.28742C23.1146 9.59762 23.3845 10.9297 23.5667 12.2751C22.848 11.7975 22.0984 11.332 21.3179 10.8786C20.5226 10.4185 19.7241 9.99153 18.9222 9.59758H18.921ZM24.9917 14.7432C26.0992 15.5919 27.1493 16.5129 28.1353 17.5C27.1497 18.4871 26.0999 19.4081 24.9929 20.2568C25.0532 19.3608 25.0833 18.4419 25.0833 17.5C25.0833 16.5581 25.0532 15.6392 24.9929 14.7432H24.9917ZM23.5667 22.7249C23.3856 24.07 23.1171 25.4018 22.7628 26.712C21.4561 26.3577 20.1734 25.9199 18.9227 25.4013C19.7211 25.0061 20.5195 24.5795 21.3179 24.1214C22.0965 23.6699 22.8461 23.2044 23.5667 22.7249ZM16.0825 25.4013C14.8316 25.9198 13.5487 26.3576 12.2418 26.712C11.886 25.402 11.6159 24.0701 11.4333 22.7249C12.152 23.2029 12.9016 23.6684 13.6821 24.1214C14.4801 24.5819 15.2794 25.0085 16.0802 25.4013H16.0825ZM10.0071 20.2568C8.90008 19.4081 7.85032 18.4871 6.86467 17.5C7.85032 16.5129 8.90008 15.5919 10.0071 14.7432C9.94681 15.6392 9.91667 16.5581 9.91667 17.5C9.91667 18.4419 9.94681 19.3608 10.0071 20.2568ZM17.5 33.8333C15.5464 33.8333 13.7632 31.4732 12.5749 27.8355C14.2602 27.3768 15.907 26.7866 17.5 26.0703C19.0931 26.7866 20.7398 27.377 22.4251 27.8361C21.2368 31.4732 19.4536 33.8333 17.5 33.8333ZM31.7427 25.7425C31.2603 26.4814 30.4994 26.9938 29.6333 27.1629C28.1546 27.559 26.159 27.4773 23.905 26.9879C24.3616 25.295 24.6805 23.568 24.8587 21.8237C26.3128 20.78 27.6794 19.6196 28.945 18.354C31.5519 21.2491 32.7332 24.0234 31.7427 25.7425ZM29.6333 7.83708C30.4997 8.00606 31.2607 8.51842 31.7432 9.2575C32.7349 10.9766 31.5525 13.7492 28.9432 16.6448C27.6776 15.3792 26.311 14.2189 24.857 13.1752C24.6788 11.4309 24.3598 9.70381 23.9032 8.01092C26.1584 7.525 28.1534 7.441 29.6333 7.83708ZM17.5 1.16667C19.4536 1.16667 21.2368 3.52683 22.4251 7.1645C20.7396 7.62418 19.0928 8.21556 17.5 8.93317C15.9069 8.21607 14.2602 7.62471 12.5749 7.1645C13.7632 3.52683 15.5464 1.16667 17.5 1.16667ZM3.25733 9.2575C3.73972 8.51855 4.50056 8.00621 5.36667 7.83708C6.07555 7.65881 6.80461 7.57352 7.5355 7.58333C8.73329 7.60023 9.92597 7.74316 11.0938 8.00975C10.6372 9.70265 10.3183 11.4297 10.1401 13.174C8.68705 14.2178 7.32143 15.3782 6.05675 16.6437C3.44808 13.7509 2.26683 10.9766 3.25733 9.2575Z" fill="white"/>
<path d="M17.5 22.1667C20.0773 22.1667 22.1667 20.0773 22.1667 17.5C22.1667 14.9227 20.0773 12.8333 17.5 12.8333C14.9227 12.8333 12.8333 14.9227 12.8333 17.5C12.8362 20.0761 14.9239 22.1638 17.5 22.1667ZM17.5 14C19.433 14 21 15.567 21 17.5C21 19.433 19.433 21 17.5 21C15.567 21 14 19.433 14 17.5C14.0019 15.5678 15.5678 14.0019 17.5 14Z" fill="white"/>
<path d="M15.75 18.0833C16.0722 18.0833 16.3333 17.8222 16.3333 17.5C16.3333 16.8557 16.8557 16.3333 17.5 16.3333C17.8222 16.3333 18.0833 16.0722 18.0833 15.75C18.0833 15.4278 17.8222 15.1667 17.5 15.1667C16.2113 15.1667 15.1667 16.2113 15.1667 17.5C15.1667 17.8222 15.4278 18.0833 15.75 18.0833Z" fill="white"/>
<path d="M17.5 6.41667C18.4665 6.41667 19.25 5.63317 19.25 4.66667C19.25 3.70017 18.4665 2.91667 17.5 2.91667C16.5335 2.91667 15.75 3.70017 15.75 4.66667C15.75 5.63317 16.5335 6.41667 17.5 6.41667ZM17.5 4.08333C17.8222 4.08333 18.0833 4.3445 18.0833 4.66667C18.0833 4.98883 17.8222 5.25 17.5 5.25C17.1778 5.25 16.9167 4.98883 16.9167 4.66667C16.9167 4.3445 17.1778 4.08333 17.5 4.08333Z" fill="white"/>
<path d="M1.75 19.25C2.7165 19.25 3.5 18.4665 3.5 17.5C3.5 16.5335 2.7165 15.75 1.75 15.75C0.783502 15.75 0 16.5335 0 17.5C0 18.4665 0.783502 19.25 1.75 19.25ZM1.75 16.9167C2.07217 16.9167 2.33333 17.1778 2.33333 17.5C2.33333 17.8222 2.07217 18.0833 1.75 18.0833C1.42783 18.0833 1.16667 17.8222 1.16667 17.5C1.16667 17.1778 1.42783 16.9167 1.75 16.9167Z" fill="white"/>
<path d="M33.25 15.75C32.2835 15.75 31.5 16.5335 31.5 17.5C31.5 18.4665 32.2835 19.25 33.25 19.25C34.2165 19.25 35 18.4665 35 17.5C35 16.5335 34.2165 15.75 33.25 15.75ZM33.25 18.0833C32.9278 18.0833 32.6667 17.8222 32.6667 17.5C32.6667 17.1778 32.9278 16.9167 33.25 16.9167C33.5722 16.9167 33.8333 17.1778 33.8333 17.5C33.8333 17.8222 33.5722 18.0833 33.25 18.0833Z" fill="white"/>
<path d="M6.41667 22.1667C5.45017 22.1667 4.66667 22.9502 4.66667 23.9167C4.66667 24.8832 5.45017 25.6667 6.41667 25.6667C7.38316 25.6667 8.16667 24.8832 8.16667 23.9167C8.16667 22.9502 7.38316 22.1667 6.41667 22.1667ZM6.41667 24.5C6.0945 24.5 5.83333 24.2388 5.83333 23.9167C5.83333 23.5945 6.0945 23.3333 6.41667 23.3333C6.73883 23.3333 7 23.5945 7 23.9167C7 24.2388 6.73883 24.5 6.41667 24.5Z" fill="white"/>
</svg>
