<svg width="35" height="35" viewBox="0 0 35 35" fill="none" xmlns="http://www.w3.org/2000/svg">
<path d="M14 35H21C21.9665 35 22.75 34.2165 22.75 33.25V31.115L27.1251 25.4269C28.0744 24.1846 28.2356 22.5109 27.541 21.1102L20.6775 7.38384C20.3828 6.78945 19.7758 6.41437 19.1124 6.41669H15.8877C15.2243 6.41437 14.6173 6.78945 14.3226 7.38384L7.45912 21.1108C6.76452 22.5115 6.92578 24.1851 7.87502 25.4275L12.25 31.115V33.25C12.25 34.2165 13.0336 35 14 35ZM21.5834 33.25C21.5834 33.5722 21.3222 33.8333 21 33.8333H14C13.6778 33.8333 13.4167 33.5722 13.4167 33.25V31.5H21.5834V33.25H21.5834ZM17.5 20.4167C18.1444 20.4167 18.6667 20.939 18.6667 21.5834C18.6667 22.2277 18.1444 22.7501 17.5 22.7501C16.8557 22.7501 16.3333 22.2277 16.3333 21.5834C16.3333 20.939 16.8557 20.4167 17.5 20.4167ZM8.50269 21.6329L15.3662 7.90597C15.4643 7.70779 15.6666 7.58269 15.8877 7.58338H16.9167V19.3329C15.779 19.6266 15.0372 20.7205 15.1853 21.8861C15.3334 23.0517 16.3251 23.9254 17.5 23.9254C18.675 23.9254 19.6667 23.0517 19.8148 21.8861C19.9628 20.7205 19.2211 19.6266 18.0833 19.3329V7.58331H19.1124C19.3335 7.58263 19.5358 7.70772 19.6339 7.9059L26.4974 21.6329C26.9932 22.6332 26.8783 23.8282 26.201 24.7158L21.8797 30.3333H13.1204L8.79903 24.7158C8.12172 23.8282 8.00688 22.6332 8.50269 21.6329Z" fill="white"/>
<path d="M33.8334 0H31.5001C30.8557 0 30.3334 0.522334 30.3334 1.16669V1.75H19.8333V1.16669C19.8333 0.522334 19.311 0 18.6667 0H16.3334C15.6891 0 15.1667 0.522334 15.1667 1.16669V1.75H4.6667V1.16669C4.6667 0.522334 4.14436 0 3.50001 0H1.16669C0.522335 0 0 0.522334 0 1.16669V3.5C0 4.14436 0.522335 4.66669 1.16669 4.66669H3.50001C4.14436 4.66669 4.6667 4.14436 4.6667 3.5V2.91669H10.9136C8.73429 4.22358 7.15813 6.33698 6.5269 8.79847C5.36239 9.02487 4.54768 10.0815 4.62493 11.2653C4.70218 12.4491 5.64732 13.3909 6.8313 13.464C8.01536 13.5371 9.06919 12.7187 9.29149 11.5535C9.5138 10.3882 8.83533 9.23932 7.70753 8.87141C8.57707 5.44072 11.6284 3.0115 15.1667 2.9331V3.5C15.1667 4.14436 15.689 4.66669 16.3333 4.66669H18.6667C19.311 4.66669 19.8333 4.14436 19.8333 3.5V2.93303C23.3716 3.0115 26.4229 5.44072 27.2925 8.87134C26.1895 9.2372 25.5292 10.3647 25.7497 11.5057C25.9703 12.6467 27.0033 13.4468 28.1632 13.3752C29.3231 13.3036 30.2497 12.3824 30.3282 11.223C30.4068 10.0635 29.6128 9.02583 28.4731 8.79847C27.8419 6.33698 26.2657 4.22365 24.0864 2.91669H30.3333V3.5C30.3333 4.14436 30.8556 4.66669 31.5 4.66669H33.8333C34.4777 4.66669 35 4.14436 35 3.5V1.16669C35.0001 0.522334 34.4777 0 33.8334 0ZM1.16669 3.5V1.16669H3.50001V3.5H1.16669ZM8.16671 11.0833C8.16671 11.7277 7.64437 12.25 7.00001 12.25C6.35566 12.25 5.83332 11.7277 5.83332 11.0833C5.83332 10.439 6.35566 9.91662 7.00001 9.91662C7.64437 9.91662 8.16671 10.439 8.16671 11.0833ZM29.1667 11.0833C29.1667 11.7277 28.6444 12.25 28.0001 12.25C27.3557 12.25 26.8334 11.7277 26.8334 11.0833C26.8334 10.439 27.3557 9.91662 28.0001 9.91662C28.6444 9.91669 29.1667 10.439 29.1667 11.0833ZM16.3333 3.5V1.16669H18.6667V3.5H16.3333ZM31.5001 3.5V1.16669H33.8334V3.5H31.5001Z" fill="white"/>
</svg>
