<svg width="39" height="34" viewBox="0 0 39 34" fill="none" xmlns="http://www.w3.org/2000/svg">
<path d="M37.8587 1.83392C37.1608 1.53 36.3836 1.67086 35.8389 2.19682L28.0526 9.48461V3.43053C28.0526 1.53902 26.5351 0 24.6699 0H3.38274C1.51758 0 0 1.53902 0 3.43053V19.5736C0 21.4068 1.47037 22.898 3.27805 22.898H13.3873L8.76063 33.014C8.60189 33.3616 8.75037 33.7745 9.09316 33.9355C9.18621 33.9799 9.28405 34 9.38053 34C9.63847 34 9.88547 33.8508 10.0018 33.5982L14.4587 23.8534L18.9157 33.5982C19.0313 33.8508 19.2783 34 19.5363 34C19.6327 34 19.7306 33.9799 19.8236 33.9355C20.1664 33.7745 20.3156 33.3616 20.1562 33.014L15.5302 22.898H24.5132C26.4646 22.898 28.0526 21.2875 28.0526 19.3078V13.7554L35.7979 21.2625C36.1612 21.6296 36.6278 21.8231 37.1095 21.8231C37.3511 21.8231 37.5953 21.7753 37.8327 21.676C38.5423 21.3798 39 20.6838 39 19.9025V3.59637C39 2.81575 38.5628 2.13992 37.8587 1.83392ZM26.6842 19.3078C26.6842 20.5221 25.7106 21.5102 24.5132 21.5102H14.4841C14.4827 21.5102 14.4813 21.5102 14.4799 21.5102H14.4382C14.4362 21.5102 14.4334 21.5102 14.4314 21.5102H3.27805C2.22505 21.5102 1.36842 20.6415 1.36842 19.5736V3.43053C1.36842 2.30437 2.27226 1.38776 3.38274 1.38776H24.6699C25.7804 1.38776 26.6842 2.30437 26.6842 3.43053V19.3078ZM37.6316 19.9025C37.6316 20.2335 37.3873 20.3611 37.3121 20.3924C37.219 20.4319 36.9782 20.4978 36.7626 20.2779L28.2038 11.9833C28.1039 11.8813 28.0506 11.7446 28.0526 11.5996C28.0547 11.4545 28.1122 11.3206 28.2086 11.2276L36.7749 3.20918C36.8906 3.09747 37.0117 3.06486 37.1136 3.06486C37.2026 3.06486 37.2772 3.09053 37.3196 3.10857C37.3921 3.14049 37.6316 3.27024 37.6316 3.59637V19.9025Z" fill="white"/>
<path d="M12.4095 10.9098C12.7831 10.25 13 9.48739 13 8.67347C13 6.18661 11.0048 4.16327 8.55263 4.16327C6.10042 4.16327 4.10526 6.18661 4.10526 8.67347C4.10526 11.1603 6.10042 13.1837 8.55263 13.1837C9.70689 13.1837 10.7565 12.732 11.5474 11.9978L12.5163 12.9804C12.6497 13.1157 12.8248 13.1837 13 13.1837C13.1752 13.1837 13.3503 13.1157 13.4837 12.9804C13.7513 12.7091 13.7513 12.2705 13.4837 11.9992L12.4095 10.9098ZM8.55263 11.7959C6.85511 11.7959 5.47368 10.395 5.47368 8.67347C5.47368 6.95196 6.85511 5.55102 8.55263 5.55102C10.2502 5.55102 11.6316 6.95196 11.6316 8.67347C11.6316 9.1002 11.5461 9.50682 11.3921 9.87804L10.0627 8.52984C9.79516 8.25853 9.36274 8.25853 9.09521 8.52984C8.82768 8.80114 8.82768 9.23967 9.09521 9.51098L10.5738 11.0104C10.0312 11.4934 9.32921 11.7959 8.55263 11.7959Z" fill="white"/>
</svg>
