<svg width="35" height="35" viewBox="0 0 35 35" fill="none" xmlns="http://www.w3.org/2000/svg">
<path d="M31.5805 27.2143C32.2719 26.2637 32.6466 25.1196 32.6516 23.9442C32.659 23.7897 32.6047 23.6385 32.5007 23.5239C32.3967 23.4094 32.2514 23.3409 32.0968 23.3335C31.7769 23.3234 31.5066 23.5688 31.486 23.8882C31.4904 24.8198 31.2034 25.7294 30.6652 26.4899C29.5271 27.9272 27.3674 28.0001 26.9457 28.0001C26.6235 28.0001 26.3623 28.2613 26.3623 28.5834C26.3623 28.9056 26.6235 29.1667 26.9457 29.1667C27.4614 29.1667 30.1081 29.0728 31.5805 27.2143Z" fill="white"/>
<path d="M21.0012 22.7502H22.1679C23.778 22.7482 25.0828 21.4435 25.0847 19.8335C25.0847 19.5114 24.8235 19.2502 24.5014 19.2502C24.1792 19.2502 23.918 19.5114 23.918 19.8335C23.918 20.8 23.1345 21.5835 22.1679 21.5835H21.0012C20.0346 21.5835 19.2511 20.8 19.2511 19.8335H21.0012C21.3234 19.8335 21.5845 19.5724 21.5845 19.2502C21.5845 18.928 21.3234 18.6669 21.0012 18.6669H19.2511V17.5002H21.0012C21.3234 17.5002 21.5845 17.2391 21.5845 16.9169C21.5845 16.5947 21.3234 16.3336 21.0012 16.3336H19.2511C19.2511 15.3671 20.0346 14.5836 21.0012 14.5836H22.1679C23.1345 14.5836 23.918 15.3671 23.918 16.3336C23.918 16.6557 24.1792 16.9169 24.5014 16.9169C24.8235 16.9169 25.0847 16.6557 25.0847 16.3336C25.0828 14.7236 23.778 13.4189 22.1679 13.4169H21.0012C19.391 13.4189 18.0863 14.7236 18.0843 16.3336H17.501C17.1788 16.3336 16.9176 16.5947 16.9176 16.9169C16.9176 17.2391 17.1788 17.5002 17.501 17.5002H18.0843V18.6669H17.501C17.1788 18.6669 16.9176 18.928 16.9176 19.2502C16.9176 19.5724 17.1788 19.8335 17.501 19.8335H18.0843C18.0863 21.4435 19.391 22.7482 21.0012 22.7502Z" fill="white"/>
<path d="M34.5143 19.6999C33.0768 13.5919 29.8812 10.0529 27.5734 8.20433C30.4674 8.4225 31.3991 9.62648 31.4265 9.66265C31.6093 9.92353 31.9675 9.98958 32.2313 9.81102C32.4951 9.63247 32.5669 9.27533 32.3926 9.00874C32.3505 8.94574 31.5403 7.78842 29.184 7.25876C29.7865 6.76351 30.1429 6.03006 30.16 5.25037C30.082 3.95769 29.182 2.86152 27.9292 2.53324C27.9806 2.11187 28.0067 1.68782 28.0074 1.26334C28.0068 0.872274 27.8102 0.507537 27.484 0.291915C27.1577 0.0762943 26.7451 0.0384723 26.3851 0.191183C26.0905 0.324517 25.817 0.499992 25.573 0.712093C25.2867 1.00628 24.8926 1.17065 24.4821 1.16709C24.0723 1.16997 23.679 1.00566 23.393 0.712093C22.3649 -0.237364 20.7797 -0.237364 19.7516 0.712093C19.4653 1.00692 19.0705 1.17138 18.6595 1.16709C18.2498 1.17049 17.8564 1.00609 17.571 0.712093C17.3276 0.500447 17.0549 0.325183 16.7613 0.191766C16.4015 0.0400792 15.9896 0.0784177 15.664 0.293911C15.3384 0.509404 15.1422 0.873481 15.1413 1.26392C15.1413 2.71523 15.4283 5.30404 17.2455 7.04235C16.2904 7.62302 15.3985 8.30159 14.5841 9.06707V4.66704C14.5841 3.33706 12.7028 2.33374 10.2089 2.33374C7.71501 2.33374 5.83366 3.33706 5.83366 4.66704V10.5441C3.78779 10.7482 2.33346 11.667 2.33346 12.8336V27.6705C0.924051 28.0491 0 28.8167 0 29.7501V32.6667C0 33.9967 1.88135 35 4.37524 35C6.60545 35 8.34213 34.1968 8.68457 33.075C9.69155 33.6082 10.8202 33.8695 11.959 33.8333C14.4529 33.8333 16.3342 32.83 16.3342 31.5V23.9168C16.3342 22.5868 14.4529 21.5835 11.959 21.5835C11.6668 21.5833 11.3747 21.5979 11.084 21.6272V12.8336C11.084 11.5561 9.34727 10.5831 7.00039 10.5079V6.28227C7.99283 6.78667 9.09612 7.03359 10.2089 7.00035C11.3217 7.03359 12.425 6.78667 13.4174 6.28227V10.2606C13.033 10.6905 12.6468 11.1589 12.2658 11.678C12.0914 11.9378 12.153 12.2889 12.4054 12.4738C12.6578 12.6587 13.0111 12.6116 13.2062 12.3669C13.5809 11.8597 13.9825 11.3729 14.4091 10.9086C14.4138 10.9034 14.4179 10.8981 14.4226 10.8935C15.5362 9.65593 16.8439 8.60798 18.2944 7.79075C18.5803 7.92869 18.8828 8.02926 19.1945 8.09L17.6906 9.49348C17.4551 9.71352 17.4425 10.0828 17.6626 10.3183C17.8826 10.5538 18.2519 10.5663 18.4874 10.3463L20.8209 8.16992H21.007V9.91989C21.007 10.2421 21.2682 10.5032 21.5904 10.5032C21.9126 10.5032 22.1737 10.2421 22.1737 9.91989V8.167H22.3598L24.6933 10.3434C24.8456 10.4857 25.0624 10.536 25.2618 10.4752C25.4613 10.4145 25.6132 10.2519 25.6603 10.0488C25.7074 9.84571 25.6425 9.6329 25.4902 9.49057L23.9763 8.08125C24.2861 8.01995 24.5867 7.91898 24.8706 7.78084C26.4125 8.61499 31.4808 11.9108 33.379 19.9671C34.2045 23.4741 33.907 26.1568 32.4952 27.9388C30.6891 30.2167 27.5553 30.3334 26.9457 30.3334H18.6677C18.3455 30.3334 18.0843 30.5946 18.0843 30.9167C18.0843 31.2389 18.3455 31.5 18.6677 31.5H26.9457C27.9374 31.5 31.3238 31.2953 33.4094 28.6633C35.0533 26.5873 35.4255 23.5715 34.5143 19.6999ZM4.37524 28.5834C6.30443 28.5834 7.58376 29.2834 7.58376 29.7501C7.58376 30.2167 6.30443 30.9167 4.37524 30.9167C2.44605 30.9167 1.16673 30.2167 1.16673 29.7501C1.16673 29.2834 2.44605 28.5834 4.37524 28.5834ZM4.37524 33.8333C2.44605 33.8333 1.16673 33.1334 1.16673 32.6667V31.3653C2.15917 31.8697 3.26246 32.1166 4.37524 32.0834C5.48802 32.1166 6.59132 31.8697 7.58376 31.3653V32.6667C7.58376 33.1334 6.30443 33.8333 4.37524 33.8333ZM11.959 32.6667C10.0298 32.6667 8.75049 31.9667 8.75049 31.5V25.532C9.74293 26.0364 10.8462 26.2834 11.959 26.2501C13.0718 26.2834 14.1751 26.0364 15.1675 25.532V31.5C15.1675 31.9667 13.8882 32.6667 11.959 32.6667ZM15.1675 23.9168C15.1675 24.3835 13.8882 25.0835 11.959 25.0835C10.0298 25.0835 8.75049 24.3835 8.75049 23.9168C8.75049 23.4501 10.0298 22.7502 11.959 22.7502C13.8882 22.7502 15.1675 23.4501 15.1675 23.9168ZM7.58376 23.9168V28.1348C6.59132 27.6304 5.48802 27.3835 4.37524 27.4168C4.08301 27.4166 3.79095 27.4312 3.50019 27.4605V14.4488C4.49263 14.9532 5.59593 15.2002 6.70871 15.1669C7.82149 15.2002 8.92478 14.9532 9.91722 14.4488V21.8372C8.50781 22.2158 7.58376 22.9835 7.58376 23.9168ZM9.91722 12.8336C9.91722 13.3003 8.6379 14.0003 6.70871 14.0003C4.77952 14.0003 3.50019 13.3003 3.50019 12.8336C3.50019 12.3669 4.77952 11.667 6.70871 11.667C8.6379 11.667 9.91722 12.3669 9.91722 12.8336ZM10.2089 5.8337C8.27971 5.8337 7.00039 5.1337 7.00039 4.66704C7.00039 4.20038 8.27971 3.50039 10.2089 3.50039C12.1381 3.50039 13.4174 4.20038 13.4174 4.66704C13.4174 5.1337 12.1381 5.8337 10.2089 5.8337ZM28.9933 5.25037C28.9933 6.20644 27.9578 6.99101 26.6598 7.00035C26.4427 6.99897 26.2264 6.97414 26.0146 6.92627C26.8613 6.02302 27.4498 4.90894 27.7186 3.70047C28.4208 3.90736 28.9259 4.52148 28.9933 5.25037ZM16.8406 1.62208C17.3333 2.08369 17.9844 2.33845 18.6595 2.33374C19.3351 2.33881 19.9867 2.08402 20.4796 1.62208C20.768 1.33097 21.1608 1.16718 21.5705 1.16718C21.9803 1.16718 22.3731 1.33097 22.6614 1.62208C23.1544 2.08436 23.8063 2.3392 24.4821 2.33374C25.1579 2.33896 25.8097 2.08416 26.3028 1.62208C26.4645 1.47921 26.6443 1.35838 26.8377 1.26275C26.8377 2.34599 26.6365 5.02404 24.7569 6.49227C24.334 6.80983 23.8214 6.98525 23.2926 6.99335C23.7976 6.12601 24.1973 5.20151 24.4833 4.23947C24.5391 4.03857 24.4836 3.82313 24.3375 3.67431C24.1914 3.52549 23.9771 3.4659 23.7751 3.51798C23.5732 3.57006 23.4144 3.7259 23.3586 3.9268C23.0355 5.02332 22.5387 6.06098 21.8873 7.00035H21.2876C20.6374 6.06016 20.1407 5.02273 19.8158 3.9268C19.7293 3.6164 19.4075 3.43489 19.0971 3.52139C18.7866 3.60789 18.6051 3.92965 18.6916 4.24005C18.9778 5.20292 19.3779 6.12821 19.8834 6.99626C19.3441 6.9935 18.82 6.81696 18.3889 6.49285C16.5093 5.02521 16.308 2.34716 16.308 1.26742C16.5013 1.36003 16.6806 1.47943 16.8406 1.62208Z" fill="white"/>
<path d="M31.5805 27.2143C32.2719 26.2637 32.6466 25.1196 32.6516 23.9442C32.659 23.7897 32.6047 23.6385 32.5007 23.5239C32.3967 23.4094 32.2514 23.3409 32.0968 23.3335C31.7764 23.3221 31.5054 23.5683 31.486 23.8882C31.4904 24.8198 31.2034 25.7294 30.6652 26.4899C29.5271 27.9272 27.3674 28.0001 26.9457 28.0001C26.6235 28.0001 26.3623 28.2613 26.3623 28.5834C26.3623 28.9056 26.6235 29.1667 26.9457 29.1667C27.4614 29.1667 30.1081 29.0728 31.5805 27.2143Z" fill="white"/>
</svg>
