<svg width="35" height="35" viewBox="0 0 35 35" fill="none" xmlns="http://www.w3.org/2000/svg">
<path d="M1.74971 25.6667H5.27245V26.25C5.27426 26.6222 5.39467 26.9841 5.61619 27.2832C5.8377 27.5823 6.14879 27.8029 6.50425 27.9131L3.28945 32.2C3.01102 32.5713 2.89147 33.038 2.9571 33.4975C3.02272 33.9569 3.26815 34.3715 3.63939 34.65C4.01063 34.9285 4.47728 35.048 4.93666 34.9824C5.39605 34.9168 5.81055 34.6713 6.08898 34.3L10.8132 28H15.7707V33.25C15.7707 33.7141 15.955 34.1592 16.2832 34.4874C16.6113 34.8156 17.0564 35 17.5204 35C17.9845 35 18.4295 34.8156 18.7576 34.4874C19.0858 34.1592 19.2701 33.7141 19.2701 33.25V28H24.2276L28.9518 34.3C29.0897 34.4838 29.2624 34.6387 29.4601 34.7558C29.6579 34.8729 29.8767 34.9499 30.1042 34.9824C30.3316 35.0149 30.5633 35.0023 30.7859 34.9452C31.0084 34.8882 31.2176 34.7879 31.4014 34.65C31.5853 34.5121 31.7401 34.3394 31.8572 34.1416C31.9743 33.9439 32.0512 33.725 32.0837 33.4975C32.1162 33.27 32.1036 33.0383 32.0466 32.8157C31.9895 32.5931 31.8892 32.3838 31.7514 32.2L28.5372 27.9131C28.8925 27.8028 29.2035 27.5821 29.4249 27.2831C29.6463 26.984 29.7666 26.6221 29.7684 26.25V25.6667H33.2503C33.7143 25.6667 34.1594 25.4823 34.4875 25.1541C34.8157 24.8259 35 24.3808 35 23.9167V5.25C35 4.78587 34.8157 4.34075 34.4875 4.01256C34.1594 3.68437 33.7143 3.5 33.2503 3.5H19.2701V1.75C19.2701 1.28587 19.0858 0.840752 18.7576 0.512563C18.4295 0.184374 17.9845 0 17.5204 0C17.0564 0 16.6113 0.184374 16.2832 0.512563C15.955 0.840752 15.7707 1.28587 15.7707 1.75V3.5H1.74971C1.28566 3.5 0.840612 3.68437 0.512478 4.01256C0.184344 4.34075 0 4.78587 0 5.25V23.9167C0 24.3808 0.184344 24.8259 0.512478 25.1541C0.840612 25.4823 1.28566 25.6667 1.74971 25.6667ZM5.15581 33.6C5.06039 33.7201 4.92261 33.7992 4.77076 33.8209C4.6189 33.8426 4.4645 33.8053 4.33928 33.7167C4.21553 33.6238 4.13372 33.4856 4.11184 33.3325C4.08997 33.1793 4.12982 33.0238 4.22263 32.9L7.89702 28H9.35511L5.15581 33.6ZM18.1036 33.25C18.1036 33.4047 18.0422 33.5531 17.9328 33.6625C17.8234 33.7719 17.6751 33.8333 17.5204 33.8333C17.3657 33.8333 17.2174 33.7719 17.108 33.6625C16.9986 33.5531 16.9372 33.4047 16.9372 33.25V28H18.1036V33.25ZM30.7015 33.7167C30.5767 33.8064 30.422 33.8444 30.2698 33.8226C30.1176 33.8009 29.9797 33.7211 29.885 33.6L25.6857 28H27.1438L30.8182 32.9C30.911 33.0238 30.9509 33.1793 30.929 33.3325C30.9071 33.4856 30.8253 33.6238 30.7015 33.7167ZM28.6019 26.25C28.6019 26.4047 28.5405 26.5531 28.4311 26.6625C28.3217 26.7719 28.1733 26.8333 28.0187 26.8333H7.02216C6.86748 26.8333 6.71913 26.7719 6.60975 26.6625C6.50037 26.5531 6.43893 26.4047 6.43893 26.25V23.9167C6.43893 23.762 6.50037 23.6136 6.60975 23.5042C6.71913 23.3948 6.86748 23.3333 7.02216 23.3333H28.0187C28.1733 23.3333 28.3217 23.3948 28.4311 23.5042C28.5405 23.6136 28.6019 23.762 28.6019 23.9167V26.25ZM16.9372 1.75C16.9372 1.59529 16.9986 1.44692 17.108 1.33752C17.2174 1.22812 17.3657 1.16667 17.5204 1.16667C17.6751 1.16667 17.8234 1.22812 17.9328 1.33752C18.0422 1.44692 18.1036 1.59529 18.1036 1.75V3.5H16.9372V1.75ZM1.16647 5.25C1.16647 5.09529 1.22792 4.94692 1.3373 4.83752C1.44668 4.72812 1.59502 4.66667 1.74971 4.66667H33.2503C33.405 4.66667 33.5533 4.72812 33.6627 4.83752C33.7721 4.94692 33.8335 5.09529 33.8335 5.25V23.9167C33.8335 24.0714 33.7721 24.2197 33.6627 24.3291C33.5533 24.4385 33.405 24.5 33.2503 24.5H29.7684V23.9167C29.7684 23.4525 29.584 23.0074 29.2559 22.6792C28.9278 22.351 28.4827 22.1667 28.0187 22.1667H7.02216C6.55811 22.1667 6.11307 22.351 5.78493 22.6792C5.4568 23.0074 5.27245 23.4525 5.27245 23.9167V24.5H1.74971C1.59502 24.5 1.44668 24.4385 1.3373 24.3291C1.22792 24.2197 1.16647 24.0714 1.16647 23.9167V5.25Z" fill="white"/>
<path d="M7.52316 15.8731C7.11184 15.4351 6.55431 15.1629 5.95598 15.1082C5.35766 15.0534 4.76002 15.2198 4.27604 15.5759C3.79207 15.932 3.45531 16.4531 3.32944 17.0407C3.20357 17.6283 3.29731 18.2416 3.59294 18.7648C3.88857 19.2879 4.3656 19.6846 4.93383 19.8798C5.50207 20.0751 6.12212 20.0553 6.67677 19.8243C7.23141 19.5932 7.6822 19.167 7.94391 18.626C8.20562 18.0851 8.26011 17.467 8.09707 16.8887L12.3547 14.4602C12.7596 14.8813 13.3093 15.1326 13.8925 15.1635C14.4758 15.1944 15.049 15.0024 15.496 14.6265L18.2716 16.646C18.1259 17.0078 18.0733 17.4005 18.1185 17.7879C18.1637 18.1754 18.3052 18.5453 18.5303 18.8639C18.7553 19.1825 19.0566 19.4396 19.4067 19.6117C19.7567 19.7837 20.1443 19.8653 20.534 19.8488C20.9236 19.8324 21.303 19.7185 21.6373 19.5176C21.9716 19.3167 22.2502 19.0352 22.4476 18.6987C22.6451 18.3623 22.755 17.9818 22.7675 17.5919C22.7799 17.202 22.6944 16.8152 22.5187 16.4669L27.8641 11.8358C28.3417 12.1753 28.927 12.3285 29.5096 12.2664C30.0922 12.2043 30.6321 11.9312 31.0274 11.4987C31.4228 11.0661 31.6463 10.5039 31.656 9.91796C31.6657 9.332 31.4608 8.76272 31.08 8.31735C30.6991 7.87198 30.1686 7.58126 29.5883 7.49994C29.008 7.41863 28.4181 7.55234 27.9295 7.87589C27.4409 8.19943 27.0875 8.69048 26.9358 9.25654C26.7841 9.8226 26.8446 10.4246 27.1059 10.9492L21.7605 15.5814C21.3458 15.2913 20.8468 15.1463 20.3412 15.169C19.8356 15.1916 19.3516 15.3807 18.9645 15.7068L16.1889 13.6873C16.3313 13.3421 16.3891 12.9678 16.3572 12.5957C16.3254 12.2236 16.2049 11.8645 16.0059 11.5486C15.8069 11.2326 15.5351 10.9689 15.2132 10.7795C14.8914 10.5901 14.5289 10.4806 14.1561 10.4601C13.7832 10.4395 13.4109 10.5086 13.0703 10.6615C12.7296 10.8144 12.4305 11.0467 12.198 11.3389C11.9655 11.6311 11.8063 11.9748 11.7338 12.3412C11.6614 12.7075 11.6777 13.0859 11.7814 13.4447L7.52316 15.8731ZM5.85569 18.6667C5.62498 18.6667 5.39946 18.5982 5.20763 18.47C5.01581 18.3419 4.8663 18.1596 4.77801 17.9465C4.68972 17.7333 4.66662 17.4987 4.71163 17.2724C4.75664 17.0461 4.86774 16.8382 5.03087 16.675C5.194 16.5119 5.40185 16.4008 5.62812 16.3557C5.8544 16.3107 6.08893 16.3338 6.30208 16.4221C6.51522 16.5104 6.6974 16.66 6.82558 16.8518C6.95375 17.0437 7.02216 17.2693 7.02216 17.5C7.02216 17.8094 6.89927 18.1062 6.68051 18.325C6.46175 18.5437 6.16506 18.6667 5.85569 18.6667ZM29.1851 8.75C29.4158 8.75 29.6414 8.81842 29.8332 8.94662C30.025 9.07481 30.1745 9.25702 30.2628 9.4702C30.3511 9.68338 30.3742 9.91796 30.3292 10.1443C30.2842 10.3706 30.1731 10.5785 30.01 10.7416C29.8468 10.9048 29.639 11.0159 29.4127 11.0609C29.1864 11.1059 28.9519 11.0828 28.7387 10.9945C28.5256 10.9062 28.3434 10.7567 28.2152 10.5648C28.0871 10.373 28.0187 10.1474 28.0187 9.91667C28.0187 9.60725 28.1416 9.3105 28.3603 9.09171C28.5791 8.87292 28.8758 8.75 29.1851 8.75ZM20.4366 16.3333C20.7006 16.3315 20.9576 16.4187 21.166 16.5809C21.3744 16.743 21.5221 16.9707 21.5852 17.2271C21.6484 17.4836 21.6233 17.7538 21.5141 17.9942C21.4048 18.2346 21.2178 18.4312 20.9831 18.5523C20.7484 18.6733 20.4798 18.7118 20.2206 18.6614C19.9614 18.611 19.7268 18.4748 19.5545 18.2747C19.3822 18.0745 19.2824 17.8222 19.2711 17.5583C19.2598 17.2945 19.3378 17.0345 19.4923 16.8204L19.497 16.8169V16.8128C19.6049 16.6647 19.7463 16.5441 19.9095 16.4608C20.0728 16.3775 20.2533 16.3338 20.4366 16.3333ZM14.021 11.6667C14.2356 11.6661 14.4461 11.7248 14.6294 11.8365C14.8126 11.9482 14.9614 12.1083 15.0592 12.2993C15.1571 12.4903 15.2002 12.7047 15.1839 12.9186C15.1675 13.1326 15.0922 13.3379 14.9664 13.5117L14.9606 13.5164V13.5205C14.843 13.6819 14.686 13.8103 14.5045 13.8936C14.3231 13.9769 14.1233 14.0123 13.9243 13.9962C13.7253 13.9802 13.5338 13.9134 13.368 13.8021C13.2022 13.6909 13.0678 13.5389 12.9775 13.3608C12.8872 13.1827 12.8442 12.9844 12.8525 12.7849C12.8607 12.5854 12.9201 12.3914 13.0248 12.2214C13.1295 12.0514 13.2761 11.9111 13.4505 11.814C13.6249 11.7169 13.8214 11.6661 14.021 11.6667Z" fill="white"/>
<path d="M2.93951 7H9.35511C9.50979 7 9.65814 6.93854 9.76752 6.82914C9.8769 6.71975 9.93834 6.57138 9.93834 6.41667C9.93834 6.26196 9.8769 6.11358 9.76752 6.00419C9.65814 5.89479 9.50979 5.83333 9.35511 5.83333H2.93951C2.78483 5.83333 2.63648 5.89479 2.5271 6.00419C2.41772 6.11358 2.35627 6.26196 2.35627 6.41667C2.35627 6.57138 2.41772 6.71975 2.5271 6.82914C2.63648 6.93854 2.78483 7 2.93951 7Z" fill="white"/>
<path d="M2.93951 9.33333H7.6054C7.76008 9.33333 7.90843 9.27187 8.01781 9.16248C8.12719 9.05308 8.18863 8.90471 8.18863 8.75C8.18863 8.59529 8.12719 8.44692 8.01781 8.33752C7.90843 8.22812 7.76008 8.16667 7.6054 8.16667H2.93951C2.78483 8.16667 2.63648 8.22812 2.5271 8.33752C2.41772 8.44692 2.35627 8.59529 2.35627 8.75C2.35627 8.90471 2.41772 9.05308 2.5271 9.16248C2.63648 9.27187 2.78483 9.33333 2.93951 9.33333Z" fill="white"/>
</svg>
