<svg width="32" height="43" viewBox="0 0 32 43" fill="none" xmlns="http://www.w3.org/2000/svg">
<path d="M8.72727 11.4666C7.12065 11.4666 5.8182 12.7501 5.8182 14.3333V28.6666C5.8182 30.2498 7.12065 31.5333 8.72727 31.5333H23.2727C24.8794 31.5333 26.1818 30.2498 26.1818 28.6666V14.3334C26.1818 12.7502 24.8794 11.4667 23.2727 11.4667L8.72727 11.4666ZM24.7272 14.3334V28.6667C24.7272 29.4584 24.076 30.1001 23.2726 30.1001H8.72727C7.92391 30.1001 7.27269 29.4584 7.27269 28.6667V14.3334C7.27269 13.5417 7.92391 12.9 8.72727 12.9H23.2727C24.076 12.9 24.7272 13.5417 24.7272 14.3334Z" fill="white"/>
<path d="M21.0908 0H10.9091C9.70414 0 8.72727 0.962629 8.72727 2.15V3.58336C8.72727 6.407 8.0065 7.96861 7.48218 8.73547C4.81483 9.31462 2.91366 11.6418 2.90906 14.3334V17.2H2.18182C0.976874 17.2 0 18.1626 0 19.35V23.65C0 24.8374 0.976874 25.8 2.18182 25.8H2.90906V28.6666C2.91358 31.3582 4.81474 33.6854 7.48218 34.2645C8.00658 35.0314 8.72727 36.593 8.72727 39.4166V40.85C8.72727 42.0374 9.70414 43 10.9091 43H21.0909C22.2959 43 23.2727 42.0375 23.2727 40.85V39.4166C23.2727 36.593 23.9935 35.0314 24.5178 34.2645C27.1852 33.6854 29.0863 31.3582 29.0909 28.6666V20.0666H29.8182C31.0231 20.0666 32 19.104 32 17.9166V16.4833C32 15.2959 31.0231 14.3333 29.8182 14.3333H29.0909C29.0863 11.6417 27.1852 9.31454 24.5177 8.73538C23.9933 7.96852 23.2726 6.40692 23.2726 3.58328V2.15C23.2726 0.962629 22.2959 0 21.0908 0ZM10.1818 3.58336V2.15C10.1818 1.75418 10.5074 1.43336 10.909 1.43336H21.0908C21.4925 1.43336 21.8181 1.75427 21.8181 2.15V3.58336C21.7614 5.30512 22.0907 7.01799 22.7824 8.6H9.21741C9.90919 7.01799 10.2384 5.30504 10.1818 3.58336ZM2.18182 24.3666C1.78014 24.3666 1.45457 24.0457 1.45457 23.65V19.35C1.45457 18.9542 1.78023 18.6334 2.18182 18.6334H2.90906V24.3667H2.18182V24.3666ZM21.8182 39.4166V40.85C21.8182 41.2458 21.4925 41.5666 21.0909 41.5666H10.9091C10.5074 41.5666 10.1818 41.2458 10.1818 40.85V39.4166C10.2385 37.6949 9.9092 35.982 9.21749 34.4H22.7826C22.0907 35.982 21.7615 37.695 21.8182 39.4166ZM29.8181 15.7666C30.2198 15.7666 30.5453 16.0875 30.5453 16.4833V17.9166C30.5453 18.3125 30.2198 18.6333 29.8181 18.6333H29.0909V15.7666H29.8181ZM27.6363 14.3334V28.6667C27.6339 31.0405 25.6816 32.9644 23.2726 32.9667H8.72727C6.31832 32.9644 4.36602 31.0405 4.36363 28.6667V14.3334C4.36602 11.9595 6.31832 10.0357 8.72727 10.0334H23.2727C25.6817 10.0357 27.6339 11.9595 27.6363 14.3334Z" fill="white"/>
<path d="M12.1505 18.8433C11.8665 18.5636 11.4061 18.5636 11.1221 18.8433L8.94033 20.9933C8.65644 21.2732 8.65644 21.7268 8.94033 22.0067L11.1221 24.1567C11.4075 24.4283 11.8612 24.4244 12.1416 24.1479C12.4222 23.8715 12.4261 23.4245 12.1505 23.1433L10.4829 21.5L12.1505 19.8567C12.4344 19.5768 12.4344 19.1232 12.1505 18.8433Z" fill="white"/>
<path d="M20.8778 18.8433C20.5924 18.5717 20.1388 18.5756 19.8583 18.8521C19.5777 19.1285 19.5738 19.5755 19.8494 19.8567L21.5171 21.5L19.8494 23.1433C19.6604 23.3232 19.5845 23.5897 19.6511 23.8403C19.7177 24.0909 19.9162 24.2866 20.1705 24.3521C20.4247 24.4177 20.6951 24.343 20.8778 24.1567L23.0596 22.0067C23.3435 21.7268 23.3435 21.2732 23.0596 20.9933L20.8778 18.8433Z" fill="white"/>
<path d="M16.8494 18.9522L13.9404 23.2523C13.7174 23.5816 13.8077 24.0266 14.1418 24.2463C14.476 24.466 14.9276 24.3771 15.1506 24.0478L18.0596 19.7477C18.2038 19.5348 18.2217 19.2621 18.1067 19.0325C17.9915 18.8028 17.7609 18.6512 17.5016 18.6347C17.2422 18.6182 16.9936 18.7393 16.8494 18.9522Z" fill="white"/>
</svg>
