<svg width="37" height="32" viewBox="0 0 37 32" fill="none" xmlns="http://www.w3.org/2000/svg">
<path d="M33.9166 6.15375H27.5555L25.5592 1.02033C25.2475 0.393544 24.6059 -0.00224403 23.9047 9.57322e-06H13.0953C12.3746 0.00254487 11.7206 0.420869 11.4174 1.07329L9.44421 6.15375H3.08343C1.38123 6.15572 0.00197602 7.53239 0 9.23076V28.923C0.00197602 30.6216 1.38123 31.998 3.08343 32H33.9166C35.6188 31.998 36.998 30.6216 37 28.923V9.23076C36.998 7.53239 35.6188 6.15572 33.9166 6.15375ZM12.544 1.57077C12.6479 1.36203 12.8616 1.23019 13.0953 1.23076H23.9047C24.1189 1.22681 24.3196 1.33583 24.4323 1.51809L26.233 6.15375H10.767L12.544 1.57077ZM35.7667 28.923C35.7656 29.9422 34.9379 30.7681 33.9166 30.7693H3.08343C2.06211 30.7681 1.23444 29.9422 1.23331 28.923V9.23076C1.23444 8.21157 2.06211 7.38562 3.08343 7.38449H33.9166C34.9379 7.38562 35.7656 8.21157 35.7667 9.23076V28.923Z" fill="white"/>
<path d="M18.5 9.23075C13.0507 9.23075 8.6332 13.6391 8.6332 19.077C8.6332 24.5147 13.0507 28.923 18.5 28.923C23.9493 28.923 28.3668 24.5147 28.3668 19.077C28.3606 13.6416 23.9467 9.23694 18.5 9.23075ZM18.5 27.6922C13.7319 27.6922 9.8668 23.8349 9.8668 19.077C9.8668 14.3188 13.7319 10.4615 18.5 10.4615C23.2681 10.4615 27.1332 14.3188 27.1332 19.077C27.1278 23.8327 23.2659 27.6869 18.5 27.6922Z" fill="white"/>
<path d="M18.5 12.923C15.0942 12.923 12.3334 15.6783 12.3334 19.077C12.3334 22.4754 15.0942 25.2307 18.5 25.2307C21.9058 25.2307 24.6666 22.4754 24.6666 19.077C24.6629 15.6797 21.9041 12.9269 18.5 12.923ZM18.5 24C15.7754 24 13.5667 21.7957 13.5667 19.077C13.5667 16.358 15.7754 14.1537 18.5 14.1537C21.2246 14.1537 23.4333 16.358 23.4333 19.077C23.4302 21.7946 21.2232 23.9969 18.5 24Z" fill="white"/>
<path d="M3.08343 8.61523C2.74271 8.61523 2.46663 8.89102 2.46663 9.23075V9.84626C2.46663 10.186 2.74271 10.4615 3.08343 10.4615C3.42387 10.4615 3.69994 10.186 3.69994 9.84626V9.23075C3.69994 8.89102 3.42387 8.61523 3.08343 8.61523Z" fill="white"/>
<path d="M3.08343 11.6922C2.74271 11.6922 2.46663 11.9677 2.46663 12.3078V28.923C2.46663 29.263 2.74271 29.5385 3.08343 29.5385C3.42387 29.5385 3.69994 29.263 3.69994 28.923V12.3078C3.69994 11.9677 3.42387 11.6922 3.08343 11.6922Z" fill="white"/>
</svg>
