<svg width="151" height="15" viewBox="0 0 151 15" fill="none" xmlns="http://www.w3.org/2000/svg">
<path d="M3.328 9.77823C4.52632 9.74065 5.723 9.65056 6.91479 9.58451L8.37011 9.48153L14.792 9.00775C17.3314 8.81662 19.8895 8.62171 22.4662 8.42303L33.4317 7.55827L35.9433 7.37915L42.3315 6.90644L48.7207 6.46714C49.5579 6.40743 50.406 6.33783 51.2267 6.2882L61.4235 5.69604L67.6968 5.33206C68.5126 5.30648 69.3323 5.2282 70.1534 5.1929L80.0121 4.76904L89.7466 4.33952C90.6074 4.31253 91.4344 4.2866 92.3177 4.2589L98.6742 4.03567L108.546 3.67352L111.781 3.57208L118.532 3.36036L119.095 3.34272C114.018 3.55926 108.942 3.77899 103.865 4.0019L97.5285 4.31531C96.6171 4.34389 95.7001 4.37265 94.7841 4.43482L85.5867 4.93351L74.9557 5.51061C74.3594 5.52931 73.7644 5.59098 73.1744 5.63338L67.5105 6.03559L56.0309 6.84479C55.4683 6.86243 54.9073 6.93259 54.3458 6.98365L48.7302 7.48949L38.7009 8.39656C37.7799 8.47801 36.8596 8.58333 35.939 8.6791L29.518 9.35834L21.3501 10.1831L9.99535 11.3851L7.26744 11.6713C5.63967 11.8418 4.01931 12.0695 2.39822 12.2732C2.35276 12.2695 2.3068 12.2741 2.26342 12.2867C2.22003 12.2993 2.18021 12.3195 2.14663 12.3462C2.11306 12.3728 2.0865 12.4051 2.06873 12.441C2.05096 12.4769 2.0424 12.5156 2.04361 12.5543C2.04483 12.5931 2.0558 12.6311 2.07578 12.6658C2.09576 12.7006 2.1243 12.7312 2.15947 12.7556C2.19465 12.7801 2.23566 12.7978 2.27975 12.8077C2.32385 12.8175 2.37 12.8192 2.41513 12.8127L4.20064 12.8236C4.12806 12.9565 4.09215 13.1015 4.09567 13.2474C4.1054 13.5103 4.23706 13.7583 4.46203 13.9374C4.68699 14.1165 4.98707 14.2122 5.29701 14.2037C9.94185 13.8096 14.5861 13.3963 19.2385 13.064L31.353 12.2063L44.7427 11.2464L48.9623 10.942C49.3674 10.9293 49.7713 10.8784 50.176 10.8562L71.7646 9.70127L83.3009 9.08145C84.6952 9.00905 86.0839 8.93683 87.4729 8.87415L109.557 7.89011L119.021 7.46428C121.715 7.34158 124.409 7.24275 127.101 7.07231L133.772 6.64806C134.897 6.57936 136.021 6.5202 137.099 6.42904L144.653 5.75731C144.518 5.97 144.488 6.21824 144.567 6.44812C144.647 6.67088 144.827 6.85736 145.068 6.96764C145.19 7.02537 145.326 7.06096 145.466 7.07219C145.605 7.08343 145.747 7.07007 145.881 7.03294C146.438 6.82911 146.994 6.62051 147.511 6.40837L147.478 6.40943L147.594 6.36275L147.733 6.30583L147.683 6.30742L148.545 5.96976L149.452 5.61159C149.774 5.47724 150.09 5.31919 150.401 5.16609C150.572 5.07116 150.711 4.94038 150.805 4.78662C150.899 4.63285 150.944 4.4614 150.936 4.28912C150.929 4.07263 150.839 3.8648 150.679 3.69728C150.519 3.52975 150.299 3.41171 150.051 3.36113C149.763 3.32716 149.486 3.30239 149.198 3.28274L149.007 3.28874C148.816 3.29474 148.619 3.30091 148.446 3.3398C148.018 3.35321 147.593 3.44777 147.166 3.48505L146.116 3.58488L143.309 3.84496L142.579 3.91086C142.664 3.8224 142.726 3.71935 142.761 3.60887C142.802 3.52143 142.824 3.42837 142.825 3.33446L142.853 3.12812C142.849 3.04169 142.827 2.95666 142.788 2.87686L142.861 2.84592C143.033 2.753 143.176 2.62535 143.277 2.47446C143.366 2.32143 143.411 2.15289 143.408 1.98292C143.4 1.8053 143.338 1.6329 143.229 1.48199L143.037 1.28731C142.888 1.16848 142.705 1.08523 142.506 1.04592C142.141 0.94916 141.758 0.91094 141.376 0.933206C141.067 0.942909 140.746 0.952966 140.437 0.986539L139.076 1.02923C138.434 1.04935 137.799 1.06928 137.157 1.0894L132.094 1.24818C130.502 1.29811 128.91 1.34804 127.318 1.39797L122.974 1.53417C117.202 1.71518 111.436 1.92466 105.666 2.15342L92.6865 2.73247C90.7512 2.79317 88.8227 2.89187 86.8886 2.99076L73.8888 3.63258L70.1834 3.81568C69.4633 3.83827 68.7502 3.90364 68.0308 3.95009L55.1885 4.76379L51.2544 5.01619C50.5237 5.063 49.7879 5.1243 49.0576 5.18065L36.3276 6.16287C34.131 6.3321 31.9404 6.51549 29.7443 6.69905L18.4832 7.65431C15.2312 7.92833 11.9786 8.18325 8.72596 8.43817L7.18123 8.56307L4.68129 8.75615C3.93956 8.80809 3.19739 8.8457 2.43182 8.85537C2.39403 8.77309 2.32678 8.70315 2.23945 8.65534C2.15213 8.60752 2.04911 8.58423 1.94478 8.5887C1.46763 8.63711 0.990773 8.69507 0.513917 8.75304C0.402996 8.76297 0.297704 8.8006 0.211381 8.86115C0.125058 8.92171 0.0615893 9.00247 0.0290167 9.0932C-0.00156054 9.20821 0.0227334 9.32836 0.0965692 9.42728C0.170405 9.5262 0.287753 9.59581 0.422871 9.62084L1.05124 9.72538C1.26001 9.75523 1.4714 9.77097 1.68344 9.77246C2.2305 9.79831 2.78214 9.79057 3.328 9.77823ZM134.926 4.11738L137.025 4.05158C137.09 4.18267 137.19 4.29892 137.317 4.39126C137.048 4.41882 136.778 4.44161 136.508 4.45963L134.98 4.55536L128.297 4.97041C127.28 5.03576 126.263 5.11544 125.245 5.16169L120.47 5.37354L109.561 5.86381L88.3826 6.81467C83.3214 7.04029 78.2622 7.33275 73.2025 7.60611L50.3998 8.83252C48.8764 8.91852 47.3487 9.04767 45.826 9.15754L32.8692 10.0943L20.154 11.0091L18.974 11.0939L22.3986 10.7572L34.3631 9.60303L38.5402 9.19965L40.697 9.01732L53.1444 8.00097C53.9532 7.93259 54.7617 7.85467 55.5765 7.80045L59.1112 7.56058L71.9531 6.73255L74.7632 6.55363C75.0107 6.54587 75.2583 6.53811 75.5114 6.53017L77.4963 6.43447L90.367 5.80625C92.3407 5.71091 94.3029 5.61114 96.294 5.53437C102.678 5.29115 109.056 5.0338 115.418 4.81039C121.926 4.56807 128.429 4.32593 134.932 4.11721L134.926 4.11738Z" fill="#FFCD1F"/>
</svg>
